<?xml version="1.0" encoding="utf-8"?>
<!-- Generator: Adobe Illustrator 21.1.0, SVG Export Plug-In . SVG Version: 6.00 Build 0)  -->
<svg version="1.1" id="Layer_1" xmlns="http://www.w3.org/2000/svg" xmlns:xlink="http://www.w3.org/1999/xlink" x="0px" y="0px"
	 width="1152px" height="648px" viewBox="0 0 1152 648" style="enable-background:new 0 0 1152 648;" xml:space="preserve">
<style type="text/css">
	.st0{fill:#1D253C;}
	.st1{fill:none;stroke:#004D80;stroke-width:1.2552;stroke-miterlimit:10;}
	.st2{fill:#004D80;stroke:#004D80;stroke-width:1.2552;stroke-miterlimit:10;}
	.st3{fill:none;stroke:#004D80;stroke-width:1.0403;stroke-miterlimit:10;}
</style>
<rect x="-2" y="-2" class="st0" width="1156" height="652"/>
<g>
	<g>
		<line class="st1" x1="826.8" y1="250.9" x2="826.4" y2="250.7"/>
		<line class="st1" x1="826.4" y1="250.7" x2="825.9" y2="250.9"/>
		<line class="st1" x1="683.9" y1="221" x2="684.3" y2="221.2"/>
		<line class="st1" x1="684.3" y1="221.2" x2="684.8" y2="221"/>
		<line class="st1" x1="857.4" y1="234.3" x2="857.6" y2="234.7"/>
		<line class="st1" x1="816.8" y1="305.1" x2="816.4" y2="304.9"/>
		<line class="st1" x1="816.4" y1="304.9" x2="816" y2="305.1"/>
		<line class="st1" x1="675.2" y1="339.7" x2="675.4" y2="339.2"/>
		<line class="st1" x1="675.4" y1="339.2" x2="675.2" y2="338.8"/>
		<path class="st2" d="M685.6,319.7c0.7-0.1,0.7,0.4,1.2,0.4C687,320.9,684.9,320.7,685.6,319.7z"/>
		<line class="st1" x1="337" y1="172.2" x2="337.2" y2="171.8"/>
		<path class="st2" d="M336.2,171.8c0.3,0,0.7,0,1,0"/>
		<line class="st1" x1="337.2" y1="171.8" x2="337" y2="171.4"/>
		<line class="st1" x1="673.7" y1="188.5" x2="673.9" y2="188.9"/>
		<line class="st1" x1="671.4" y1="192.2" x2="671" y2="192"/>
		<line class="st1" x1="690.6" y1="209.3" x2="690.6" y2="208.9"/>
		<path class="st2" d="M690,209.9c0.3-0.4,0.4-0.7,0.6-1"/>
		<line class="st1" x1="690.6" y1="208.9" x2="690.2" y2="208.9"/>
		<line class="st1" x1="699.3" y1="218.5" x2="699.3" y2="218.9"/>
		<path class="st2" d="M699.3,218.9c0.1-0.3,0.2-0.7,0.2-1"/>
		<line class="st1" x1="699.3" y1="218.9" x2="699.8" y2="218.9"/>
		<line class="st1" x1="822.6" y1="279.7" x2="822.2" y2="279.5"/>
		<line class="st1" x1="822.2" y1="279.5" x2="821.8" y2="279.7"/>
		<line class="st1" x1="671" y1="344.7" x2="671" y2="344.2"/>
		<line class="st1" x1="670" y1="344.9" x2="670.2" y2="344.7"/>
		<line class="st1" x1="670.2" y1="344.7" x2="670" y2="344.9"/>
		<line class="st1" x1="671" y1="344.2" x2="670.6" y2="344.2"/>
		<line class="st1" x1="803.7" y1="298.6" x2="803.5" y2="298.4"/>
		<line class="st1" x1="810.5" y1="305.9" x2="810.7" y2="306.3"/>
		<line class="st1" x1="810.7" y1="306.3" x2="811" y2="306.8"/>
		<line class="st1" x1="811" y1="311.3" x2="811" y2="310.9"/>
		<line class="st1" x1="739.7" y1="330.9" x2="739.9" y2="330.5"/>
		<path class="st2" d="M748.1,321.3c0.3-0.3,0.7-0.7,1-1"/>
		<path class="st2" d="M748.5,321.3c1.1,1.7,0.1,0,0.8-0.8"/>
		<line class="st1" x1="749.3" y1="320.5" x2="749.1" y2="320.3"/>
		<line class="st1" x1="748.1" y1="321.3" x2="748.5" y2="321.3"/>
		<path class="st2" d="M810.7,277.4"/>
		<line class="st1" x1="806" y1="291.3" x2="805.5" y2="291.1"/>
		<line class="st1" x1="805.5" y1="291.1" x2="805.1" y2="291.3"/>
		<path class="st2" d="M810.7,277.4"/>
		<line class="st1" x1="776.8" y1="383.4" x2="776.4" y2="383.4"/>
		<path class="st2" d="M778.5,384.4c-0.6-0.7-1.2-0.8-2.1-1"/>
		<line class="st1" x1="776.4" y1="383.4" x2="776.4" y2="383.8"/>
		<line class="st1" x1="704.8" y1="422.1" x2="704.3" y2="421.9"/>
		<line class="st1" x1="696.4" y1="318" x2="696.2" y2="317.8"/>
		<path class="st2" d="M696.2,318.6c0-0.3,0-0.6,0-0.8"/>
		<line class="st1" x1="696.2" y1="317.8" x2="696" y2="318"/>
		<path class="st2" d="M833.9,225.5c-1.8-1.8-0.7-4.7-1.2-8.3c-0.1-0.8-0.8-1.9-0.8-2.5c0-2.5,1.8-5.4,1.7-7.9
			c0-0.8-0.4-1.8-0.8-2.5c0.1-1.1,1.5-1.4,2.1-2.1c0.7-0.8,0.9-1.7,1.7-2.5c-1.4-3.1-1.7-7.3-0.4-10.8c1,0.1,1.3,0.8,1.7-0.4
			c2.1,5,3.5,10.6,5.4,16.2c0.3,0.8,0.5,2,0.8,2.9c0.2,0.7,1,1.4,1.2,2.1c0.3,0.9,0,2.1,0.4,2.9c1.3,2.5,4.5,3.4,3.7,6.7
			c-2.5,0.2-3,2.3-4.2,3.7C841.1,223.6,837.7,224.8,833.9,225.5z"/>
		<path class="st2" d="M833,226c-2.9-0.1-4.7,0.9-7.1,1.2c-0.8-4.3-1.1-11-4.2-11.7c0.6-2.2-1.4-3.9-1.7-5.8
			c-0.1-0.8,0.4-1.8,0.4-2.5c0-0.6-0.3-2-0.4-2.5c-0.2-0.8-1-1.4-1.2-2.1c-0.2-0.5,0.1-1.2,0-1.7c-0.2-1.2-1-2.2-0.8-3.3
			c5.4-1.6,10.7-3.2,16.7-4.2c0.6,1.3-0.2,1.5,0,3.3c0.4,1.3,0.9,1.4,0.8,2.5c-0.1,2.1-2.6,3.1-3.3,4.6c1.6,3.6-0.8,7.4-0.8,10.8
			c0,1.6,1.2,4.3,1.2,6.7C832.6,223,831.9,224.3,833,226z"/>
		<path class="st2" d="M828.4,252.5c0.2,0.9-0.4,2.2-1.4,2.2c-1.8,1.6-1.9-4-2-2.5c-4.4-1-8.1-2.8-12.1-4.2
			c-1.1-0.6-0.9-2.8-1.7-3.7c-0.5-0.6-1.1-0.3-2.1-0.8c-0.6-0.3-1-1.2-1.2-1.2c-0.9-0.2-3.4,0.8-5.4,1.2c-1.7,0.4-3.8,0.9-5.4,1.2
			c-10,2.2-23.1,5.1-33.3,6.2c0.5-0.6-0.5-1.4-0.4-2.1c0.2-1.2,1.1-1.3,2.1-2.5c0.7-0.8,1.1-1.8,1.7-2.5c0.6-0.8,1.5-1.3,2.1-2.1
			c0.3-0.4,0.1-0.5,0.4-0.8c0.2-0.2,0.8-1,1.2-1.7c0.2-1.7-1.2-1.8-0.8-3.7c-0.8-0.5-1.9-0.6-2.1-1.7c-0.4-1.7,2.3-1.8,3.7-2.5
			c1.2-0.6,4.8-2.1,7.9-1.7c1,0.1,1.6,0.8,2.5,0.8c1.9-0.6,3.3-1.7,6.2-1.2c1.5-1.2,2.7-2.6,3.7-4.2c0.6-0.6,1.6-0.9,2.5-1.2
			c0.2-1.9-0.3-3-0.8-4.2c-0.1-1.5,1.3-1.5,1.2-2.9c-1.7,1.2-1.1-2-2.5,0c-0.9-1.9,2.7-3.8,3.7-5.4c-0.4-1.4,0.3-2.1,0.8-2.9
			c0.4-0.6,0.8-1.2,1.2-2.1c1.5-2.6,4-5.2,7.1-5.8c3.6-0.8,8.5-1.4,11.7-2.9c1,0.6,0.1,1.2,0.4,2.1c0.2,0.5,0.7,0.7,0.8,1.2
			c0.1,0.5-0.2,1.2,0,1.7c0.5,1.4,1.6,2.3,1.7,4.6c0,1-0.6,1.5-0.4,2.5c0.3,2.2,2.2,4.4,1.7,7.1c1.1,1.1,0.6-1.1,1.7,0
			c1.2,2.5,1.6,5.8,2.1,9.6c0.1,0.5,0.9,0.7,0.8,1.2c-0.4,2.1-0.8,5.6-0.4,8.7c0.1,0.8,0.6,1.2,0.8,2.1c0.5,2.2,0.5,5.3,1.2,7.9
			c0.8,2.8,1,2.6-0.8,4.6L828.4,252.5z"/>
		<path class="st2" d="M839.6,249.3c0-0.4,1.4-0.9,1.4-0.9c1.4,0.2,1.3-1.1,3.3-0.7c-1.1,0.6-1.4,2.2-2.9,2.4
			C841.4,250,839.6,249.8,839.6,249.3z"/>
		<path class="st2" d="M839.9,250.5l-0.3,0.4c0.1,1.3-1.2,0.7-2.4,1.2c-0.2,0.1-0.2,0.7-0.4,0.8c-0.6,0.3-1.5,0.1-2.1,0.4
			c-0.5,0.3-0.8,1-1.2,1.2c-1.2,0.6-2.4,1-3.7,1.7c-1.2,0.5-2.1,2-3.7,1.2c-0.1-2.7,3.1-2.2,3.3-4.6c2.1-0.1,3.7-0.7,4.6-2.1
			c2,0.1,3.7-1.8,4.9-2.5c-0.1,0.7-2.1,2.2-0.2,1.9L839.9,250.5z"/>
		<path class="st2" d="M857.6,234.7c-0.1,1.1-0.6,1.6-1.7,1.7c0.3-1.3-0.7-1.2-0.4-2.5c-1.5,0.8-2.3,2.4-3.3,3.7
			c-1.5,0-1.7-1.4-1.7-2.9c-0.4,0.3-0.6,0.8-0.8,1.2c-1.3-0.7-1.8-2.1-2.5-3.3c-7.8,0.7-13.3,3.7-21.2,4.2c0.2-3.7,0.5-5,0.4-9.2
			c5.1-1,12.6-2.6,17.5-3.7c1.5-0.3,3.3-1.9,3.7-3.7c0.5,0.1,0.7-0.1,0.8-0.4c1.3,0.9,1.5,3.8,3.7,2.5c-1.5,1.1-2.5,2.8-3.3,4.6
			c0.1,0.3,0.4,0.4,0.4,0.8c0.7,1.2,1.5,0.5,2.9,0.4c0.6,1,2.1,1,1.7,2.9c1.9,0.3,1.8,2.6,3.7,2.9"/>
		<path class="st2" d="M857.4,234.3c1.4,0.3,3.9-0.8,5-2.2l-0.7-0.6l-1.1,0.8l-0.1,0.6c0,0-1.7,0.7-2.2,0.4
			c-0.6-0.3-0.6,0.5-0.6,0.5L857.4,234.3"/>
		<path class="st2" d="M857.2,238c0.1,0.9-0.3,1.3-1.2,1.2C856.4,238.9,856.1,237.7,857.2,238z"/>
		<path class="st2" d="M846.8,233c0.8,1.4,1,2.4,0.4,3.7c0.7,0.9,1,2.3,0.8,4.2c-0.9,0.4-1.8,0.9-2.5,1.7c-0.3-2-1.4-5.8-2.1-8.7
			C844.4,233.5,845.5,233.1,846.8,233z"/>
		<path class="st2" d="M815.1,290.9c-0.3-6.1-4.4-12.2-3.7-18.3c1.2,0.3,1.1-0.6,2.1-0.4c0.2,1.2-0.8,1.8-0.8,2.9
			c0,2,1.5,3.7,2.9,4.6c0.2,1.6,0.6,2.4,1.7,3.7c1,1.3,1.1,2.2,3.3,2.1c-0.1,1-0.7,1.6-0.4,2.9c0.1,0.7,2-0.7,1.7,1.2
			C819.3,289.9,817.6,290.8,815.1,290.9z"/>
		<path class="st2" d="M826.8,237.6c5.4-1.1,10.6-2.4,15.8-3.7c0.7,2.9,1.9,5.3,2.1,8.7c-2.5-0.3-3.5,3-5.4,0.8c0,1.1,0.7,0.8,0,1.7
			c-2.1,0.4-3.9,0.6-5.4,1.7c-0.4,0.3-0.5,0.9-0.8,1.2c-0.2,0.2-1-0.2-1.2,0c-0.4,0.3-0.1,0.9-0.4,1.2c-0.3,0.3-1,0.1-1.2,0.4
			c-0.5,0.5-0.8,1.5-1.7,1.7c-0.5,0.1-0.7-0.1-0.8-0.4c-0.4-1.3,1.4-0.6,1.2-1.7C828.2,245.4,827,242,826.8,237.6z"/>
		<path class="st2" d="M816,249.3c-1.2,1.9-1.3,4.8-2.9,6.2c-0.2,1.3,0.9,0.7,0.8,2.1c0,0.5-0.9,1.3-0.8,1.7
			c0.3,1.2,0.8,1.7,1.7,2.5c0.3,0.3,0.2,0.6,0.4,0.8c0.4,0.4,0.8,0.5,1.2,0.8c0.7,0.5,1.6,1.8,2.9,2.1c-0.1,1.4-1.2,1.8-2.1,2.5
			c-0.7,0.8-0.9,2.1-1.7,2.9c-0.7,0-1.1,0.3-1.2,0.8c-0.8,0-1.7,0-2.5,0c-0.8,0.6-1.2,1.5-1.7,2.5c-15.8,3.3-31.9,6.4-47.9,9.6
			c-1.4-5.5-2.9-15.1-4.2-22.5c-0.5-2.8-1.6-6.2-1.2-7.5c0.2-0.6,0.5-1.1,1.2-1.7c0.3-0.3,0.9-0.1,1.2-0.4c0.8-0.6,2.3-2.7,3.7-2.9
			c0.1,1,0.7,1.6,0.4,2.9c9.5-1.4,20.5-3.7,30.8-5.8c1-0.2,1.6-0.6,2.5-0.8c1.7-0.4,3.9-0.4,5.8-0.8c2.1-0.5,3.7-1.5,5-1.2
			c1.2,0.2,1.7,1.9,2.9,1.2C811.7,246.6,812.3,249.5,816,249.3z"/>
		<path class="st2" d="M821.8,279.7c0-0.1,0-0.3,0-0.4c-0.9,0.2-2.7-0.5-2.9,0.4c-1.9-1.7-7.2-2.9-4.2-7.5c1.2-0.1,1.1-0.6,2.5-1.2
			c-0.4-1.9,1-2.1,1.2-3.3c0.7-0.1,0.7,0.4,1.2,0.4c-0.9-0.9,0.1-1.3,0.4-2.1c0.1-1.1-1.1-0.5-1.7-1.2c-0.9-1.3,0.5-0.8-0.8-1.2
			c-0.2-0.1-1-0.3-1.2-0.4c-0.4-0.3-0.1-0.8-0.4-1.2c-0.6-0.8-1.8-0.6-2.1-1.7c0.1-1.8,1.6-2.9,0-4.2c0.1-1.3,1.3-2,1.7-2.9
			c0.4-1.1-0.1-2.3,0.8-2.9c0.5,0.1,0.2,0.4,0,0.4c1.3,0.3,1.5-0.1,3.3,0.4c-0.1,0,1.2,0.4,1.2,0.4c0.1,0.1-0.1,0.8,0,0.8
			c0.2,0.1,0.7-0.5,1.2-0.4c0.4,0.1,2,1.1,2.9,1.2c0.4,3.7-2.6,4.1-1.7,8.3c1.3,0.2,1.5-0.8,2.9-0.4c1.1,1.5,0.1,3.7,0,5.4
			c-0.1,1.7,0.8,3.4-0.4,4.2c0.5,0.2,1.1,0.3,0.4,1.7c-0.1,0.2-1,0.6-1.2,1.2c-0.6,1.3,0,2.9-1.7,3.3c0.3,1.7,0.1,1.4,0,3.3
			c-0.3-0.1-0.4-0.4-0.8-0.4"/>
		<path class="st2" d="M799.7,288C800.7,286.7,801.4,289.5,799.7,288L799.7,288z"/>
		<path class="st2" d="M805.1,291.3c-0.4,0-0.3-0.5-0.4-0.8c-1.5,3.5,3.3,4.2,4.6,6.2c-1.2,0.3-5.1-0.1-5.4-2.1
			c-0.5,0.1-0.4,0.8-0.4,1.2c-1-0.3-1.3-1.5-2.1-2.1c-1.1-0.1-1.4,0.6-1.2,1.7c-2.2-2.1,1.5-4.7,1.2-7.5c-0.5-1.5-1.7-0.3-2.5-0.4
			c-0.9-0.2-1.2-1-2.1-1.2c-0.7-0.2-1.5,0.6-2.1,0c0.3-2.1-0.9-2.7-2.9-2.5c-0.6-1.2-1.7-1.4-1.8-3.1c-0.5-0.3-1.8-0.6-2.5-0.6
			c-0.7-0.1-1.7-0.4-1.9,0.1c-0.3,0.6-1.3,0.4-1.7,0.8c-0.3,0.4-1,1.9-1.7,1.7c-0.6-0.1-1.7-0.9-2-0.8c-0.3,0.1-0.4,0.2-0.7,0.8
			c-0.3,0.6-0.9,1.7-1.7,1.7c-0.8,0.1-1.2,0.3-1.4,0.8c-0.2,0.5-0.6,1.4-1,1.8c-0.5,0.4-1.3,0.6-1.6,1.6l-1.1-6.4l18.7-3.5
			c2.6-0.5,6.8-1.4,10-2.1c2.2-0.5,6-1.7,9.2-2.1c-0.3,1.2,0.6,1.1,0.4,2.1l0.1,0.3c1.5,4.7,2.5,10.2,4.1,14.7
			c1.9-0.5,5.2-2.1,6.7-0.4c-0.8,1.6-1.7,3-2.1,5c-1.9,0.2-2.6,1.6-4.6,1.7c0.2-0.6,0.6-1.1,0.8-1.7c-0.1-0.4-1.8-1.1-1.7-0.4
			c-1.2,0.2,0.4-1,0.4-1.2c0-0.5-1.5-0.9-0.8-2.1c-0.8-0.2-0.5,1.1-0.8,1.2c-0.2,0.1-1.1-1.7-1.2,0.4c-0.7-0.4-1.2-1-2.1-1.2
			c-0.3-1.3,0.7-1.2,0.4-2.5c1.3,0.5,1.1,0.2,2.1-0.4c0.1-0.9-1.5-0.2-2.1-0.4c0.1-1.2-1.6-2.5,0-2.9c-0.1-0.8-1.4-0.3-1.7-0.8
			c-0.3-0.6,0.9-1.4,0.4-2.5c-0.2-0.4-0.9-0.5-0.8,0c-0.3-2.6-0.4-3.3,2.9-4.2c-1.3-0.6-1.6-0.8-0.8-2.1l-0.1-0.4
			c-0.6-0.7-1.6,0.1-2.5,0.4c-0.2,1,0.8,0.9,0.4,2.1c-0.7,0.2-0.8-0.3-0.8-0.8c-1.2,0.8-0.7,1.8-2.1,1.7c0,1.1,0.7,0.8,0,1.7
			c-0.3-0.2-0.7-0.4-1.2-0.4c0.5,0.5,0.4,0.9-0.4,0.8c-0.2,1.3,1,1.2,1.7,1.7c-0.7,2.5,0.6,4.8,0.8,7.5"/>
		<path class="st2" d="M774.3,288.4c1.7-0.4,2.1-2.1,2.9-3.3c1.3,0,2.6-0.6,2.9-2.5c0.8,0.2,1,0.9,2.1,0.8c1.2-0.1,1.4-1.5,2.1-2.1
			c0.6-0.5,1.9,0,1.7-1.2c0.8,0.7,2.5,0.3,3.3,0.8c0.1,0.1-0.1,0.7,0,0.8c0.1,0.1,0.8-0.1,0.8,0c0.3,0.4,0.2,1,0.4,1.2
			c0.5,0.8,0.8,1.3,0.4,2.9c-2.4-0.1-4-2.8-5.8-2.1c-1.1,1.4-0.5,3.2-0.8,4.6c-0.1,0.2-0.8,0.7-0.8,0.8c-0.1,0.3,0.2,1,0,1.2
			c-0.4,0.7-2.6,0.2-2.1,2.5c-4.1-0.6-2,4.9-4.2,6.2c-1.8,0.2-2.2-2.5-3.7-1.2c-0.9,0.9-0.2,1.9-0.4,2.9c-0.2,0.9-1.3,2-1.7,2.9
			c-0.2,0.6,0.2,1.5,0,2.1c-0.5,1.6-2.1,2.5-2.5,4.6c-0.2,1.1,0.6,2.5,0,3.7c-2.3-0.1-2.6,1.8-5,1.7c-0.6,0.3-0.8,0.9-0.8,1.7
			c-1.6-0.2-3.2,1.8-4.6,0.4c-0.9,0.6-1.4,1.7-2.5,2.1c-2-0.7-4-1.3-4.2-3.7c-3,0-4-1.8-5.8-4.2c-0.9-1.2-2.3-2.8-2.5-3.3
			c-0.3-1,0.7-2.4,0-3.3c2.9,0.6,1.7-2.8,3.7-2.9c-0.9-1.5-0.4-4.6,0.4-5.8c1.3-0.2,1.2,1,1.7,1.7c2-1.3,0.5-3.6,1.2-5.4
			c0.4-1,2.6-0.8,1.7-2.5c0.7,0,1.6-0.2,1.7,0.4c1-0.5,1.6-1.5,2.5-2.5c0.6-0.7,1.8-1.6,2.1-2.5c0.2-0.6,0.2-1.7,0.3-2.3
			c0.1-0.9-0.1-2.9,0.1-3.9c1.5-5.3-0.3-7.2,0.3-7.8c0.6,2.5,1.6,10.3,2.2,12.3c3.8-0.3,6.9-1.4,10.8-1.7c0.5,2.2,0.8,4.7,1.2,7.1
			c0.4-0.2,0.7-0.4,0.8-0.8L774.3,288.4L774.3,288.4z"/>
		<path class="st2" d="M675.2,338.8c1.4-3.8-2-7.4,1.7-8.7c2,0.2,3.8,2.5,5.8,1.2c0.4-2-1.4-2-0.8-4.2c1.4-0.2,2.2-1.1,3.7-1.2
			c0.8-1.5-0.5-1.5-0.4-3.3c0.5-0.8,3-1.7,2.1-2.5c0.8-0.5,2-0.4,2.5,0.4c1.6-0.5,0.6-1.1,2.1-1.7c1.6,0.2,3.1,0.5,3.7,1.7
			c1.2-0.6,1.2-2.4,2.5-2.9c1.1,0.5,2.4,0.7,2.9,1.7c1-1.1,0.9-3.2,2.1-4.2c1.3-1.3,0.7,1.4,2.5,0.8c0.5,1.1,2.2,0,2.9,0
			c0.2-0.9-0.5-2.7,0.4-2.9c-0.1-1.3,1.7-0.8,2.1-1.7c-0.3-2.3,1.4-2.4,2.1-3.7c0.2-1-0.8-0.9-0.4-2.1c0.6-1.1,1.9,0.4,2.1,0.4
			c1.5-0.2,1.7-2.3,4.2-2.1c0.1-1.8-0.6-2.7-0.8-4.2c0.5-0.9,1.3,0,2.1,0c0.9-0.1,1.3-0.7,2.1-0.4c1.8,0.6,2.1,2.7,3.3,3.7
			c2.3-0.2,4,0.2,5,1.2c1.3,0.4,1.3-0.7,2.1-0.8c1.8-0.1,1.7,1.4,3.3,0.4c1.3-0.2,1.7-1.4,2.5-2.1c1.1,1.4,2.5,2.5,4.2,3.3
			c0,1.3,1,2.7,0,3.7c2.4,2.6,3.8,6.2,7.1,7.9c0.7-0.1,0.9,0.4,0.4,0.4c-1.2,3.2-5,4.1-6.7,7.5c-0.7,1.4-0.8,1.6-2.1,2.9
			c-0.5,0.5-1.1,1.6-1.2,1.7c-0.3,0.2-1.5,0.1-2.1,0.4c-0.2,0.1-0.3,0.8-0.4,0.8c-0.2,0.1-0.6-0.1-0.8,0c-0.9,0.5-1.8,1.5-2.5,1.7
			c-1.2,0.3-4.1,0.1-6.2,0.4c-0.9,0.1-3.7,0.7-5,0.8c-1.7,0.1-3.3-0.2-5,0c-2.2,0.2-5.1,1-8.3,1.2c-1.6,0.1-3.3-0.1-5,0
			c-6.3,0.4-12.5,2.4-17.9,1.2c-0.3,1.4,0.6,1.6,0.4,2.9c-4.2,0.1-7.7,0.9-12.1,0.8"/>
		<path class="st2" d="M759.3,270.9c-0.6,0.5-1.2,1-1.7,1.7c2.3,1.2,0.8,5,0.4,9.2c-0.1,1.3,0.2,2.7,0,3.3c-0.8,2.5-3.2,3.5-3.7,5
			c-0.9-0.7-2.3,0.1-2.5-0.4c-0.7,0.1,0.3,1.1-0.4,2.1c-0.1,0.2-1.2,0.3-1.2,0.4c-0.4,0.8,0.6,2.4-0.8,2.5c-0.2,1.3,1.4,1.1,0.4,2.1
			c-1.1,0.3-0.8-0.8-1.7-0.8c-1.1,0.7-2,1.8-2.1,3.7c0,0.8,0.6,1.4,0.4,2.1c-0.2,0.8-0.5,0.6-0.8,1.2c-0.2,0.5-0.1,1.3-0.4,1.7
			c-0.3,0.4-1-0.6-1.2-0.4c-0.1,0,0.7,0.9,0,0.8c-2-0.1-1.4-1.6-3.7-2.1c-0.2-0.8-0.9-1-0.8-2.1c-1.6,0.3-2.5,1.4-3.3,2.5
			c-1.5,0.2-2-0.5-2.9-0.8c-1.1,0.2-1.3,1.2-2.5,1.2c-1.1-1.3-2.4-2.1-4.6-1.2c-0.6-1.2-2-1.6-2.1-3.3c-2.2-0.8-4.1-0.4-5.8-0.8
			c-0.8-12.1-2.8-23-3.7-35c3.5-0.2,6.7-0.7,9.6-1.2c1-0.2,2.3-0.9,3.3-0.8c0,0,0,0.8,0,0.8c-0.1-0.1,1.2-0.5,1.7-0.4
			c1.4,0.3,2.8,1.4,4.2,1.7c-0.1,0.5-0.7,0.7-0.8,1.2c1.3-0.1,3-0.1,2.1-0.4c1.2-1,2,0.5,3.3,0.4c1.9-0.1,3.1-1.7,4.6-2.5
			c2.3,1,3.7-0.6,5-2.1c0.6-0.7,1-1.5,1.7-2.1c1.1-1,2.7-1.4,3.7-2.1c1.3-0.8,2.2-2,3.7-2.1C757,259.9,758.1,265.5,759.3,270.9z"/>
		<path class="st2" d="M685.5,218.4l1.4-1.1c0,0.4-1.1,2.1-0.1,2.1c-0.2,0.5-1.4,0.9-1.7,1.2c-0.3,1.1-1.3,2.4-1.6,2.4
			c-0.3-0.3-0.4-0.7-0.3-1.1c0.1-0.4,0.3-1.4,0.7-1.6L685.5,218.4z"/>
		<path class="st2" d="M732.3,250.8c0.5,0.4,1.2-2.2,1.3-3c-0.2-0.5-0.8,0-1.1,0.3C732.1,248.4,731.9,250.4,732.3,250.8z"/>
		<path class="st2" d="M734.3,249.4c0.5-0.8,1.5,0.6,2.2,1.2c-0.3,1.5-4.6,3.2-3.7,1.6C733.3,251.2,733.7,250.2,734.3,249.4z"/>
		<path class="st2" d="M670.5,193.3l0.9-1c0.9-1,2.1-1.8,2.5-3.3v-0.8c-2.6,0.6-4.6,1.8-5,4.6c1.3,0.5,1.3-0.1,1.7-0.8
			c0,0.1,0,0.3,0,0.4L670.5,193.3z"/>
		<path class="st2" d="M690.2,208.9c-0.1-0.3-0.4-0.4-0.4-0.8c-2.4-0.4-1.8,2.1-3.7,2.1c0-0.7,0-1.4,0-2.1c-1.3,0.7-1.3,2.5-2.1,3.7
			c-1.1,1.7-2.2,5.1-3.3,7.5c-1.4-0.2-0.6-2-0.4-2.9c0.3-0.7-2-0.7-1.7,0c-0.4-2.5,1-6.1-3.3-5.8c0.1-1-0.1-1.6-0.4-2.1
			c-1.2,0.6-2.5-0.7-3.7-0.8c-1.1-0.1-2.5,0.6-4.2,0c-0.2-0.1-0.7-0.8-0.8-0.8c-2.8-0.8-7.2-1.2-10.8-2.1c-0.2-1.5-1-2.3-2.5-2.5
			c0.3-1.2,2-1,2.9-1.7c1-0.7,1.4-2,2.5-2.5c3.8,0.6,4.4-2,7.1-2.5c0.6-1.1,1.4-1.9,2.1-2.9c2.6,0.2,2.4,3.1,2.9,5.4
			c1.3,0.2,0.2-2.1,1.7-1.7c0.1,0.4-0.2,0.4-0.4,0.4c1.3,0.5,1.6-1.1,2.9-1.2c2.9-0.2,5.1,2.8,6.2,5c3.2-0.3,4.4-0.3,7.1,0.4
			c1.3,0.2,1.2-1.2,1.7-1.7c0.3-0.3,1.1-0.4,1.7-0.8c1-0.8,0.7-1.1,2.9-1.7c1.2-0.3,2.4,0.1,4.2-0.4c1.6-0.4,2.8-2,4.6-1.7
			c-0.1,1.5,0.1,2.7,0.4,3.7c2.1,0.5,4-1.1,4.6,0.4c0.8-0.1,1.1-0.8,1.7-1.2c1.2,0.3,1.8,1.3,1.7,2.9c0.9,1.3,2.9,1.6,3.3,3.3
			c-2.3-0.1-5,0.3-6.7-0.4c-1.1,0-0.8,1.4-0.8,2.5c-1.2,0-1.5-1-2.1-1.7c-2-0.1-3.8-1.1-5.4-0.4c-1,0.4-1.2,1.5-2.1,2.1
			c-2.1,0.2-3.8-0.1-5,0.8c-0.8,0.7-0.5,1.8-1.7,2.5"/>
		<path class="st2" d="M699.8,218.9c0,1,0,1.9,0,2.9c0.2,1.2,0.5-0.6,1.2-0.4c0,0,0.1,0.7,0.4,0.4c0.6-0.5,1.1-1.5,1.2-2.5
			c0.1-1-0.8-2.4-0.4-3.3c0.6-1.6,1.4-2.5,3.3-2.5c0.6-1.8-1.6-0.9-1.2-2.5c0.2-1.8,1.7-2.2,2.5-3.3c1.1-0.3,1.3,1,2.5,1.2
			c1.6,0.4,3.8-0.3,4.2,1.7c3.7,0.3,6.6,1.5,8.3,3.7c0.1,1.2-1.3,1-1.2,2.1c0.3,1.2,1.5,1.5,2.1,2.5c0.1,2.6,1.4,6.3-1.2,7.5
			c0.3,1.6-0.5,2-0.4,3.3c-0.9,0.4-1.6,0.9-2.5,1.2c-0.4,3.4,0.1,5,2.9,5.4c1-1.8,3-2.6,2.9-5.4c1.9-0.3,2.3-2.2,4.6-2.1
			c3.7,2.9,3.1,10,6.2,13.3c-0.8,1.1-0.2,3.6-0.4,5.4c-1.3,0.5-0.3-1.3-1.7-0.8c-1.3,0.8-1.9,2.2-1.7,4.6c-0.8,0.4-1.5,1-2.1,1.7
			c0.7,4-1.9,4.7-2.1,7.9c-4.2,0.3-8.2,1.9-12.5,2.1c-1.2,0.1-2.5-0.4-3.7-0.4c-3.6,0-7.8,1.2-11.7,1.7c-1.5,0.2-3.1-0.1-4.6,0.4
			c-1.4,0.3-0.6-0.8,0-0.8c0.7-1.2,0.9-2.2,1.7-4.2c0.8-2,1.9-5.5,1.7-9.2c-0.2-2.6-1.6-4.6-1.2-6.7c-1.6-0.6-1.7-1.6-2.5-3.3
			c-0.2-0.4-0.7-0.7-0.8-1.2c-0.2-1,0.8-1.4,0.8-2.5c0.1-1.3-0.5-2.4-1.2-3.3c0.6-2,2.4-3.5,2.1-7.1c-0.1-0.7-0.5-1.3-0.4-1.7
			c0.2-1.4,1.9-2,1.2-3.3c1.4-0.7,2.7-1.5,3.3-2.9"/>
		<path class="st2" d="M660.4,186c0,0.7,4-1.1,4.6-1.3c0.6-0.2,2.5-2.1,2.5-2.7s-2.1,1.6-2.7,2.1C664.1,184.6,660.4,185.2,660.4,186
			z"/>
		<path class="st2" d="M696,318c-0.5,0.1-0.7,0.8-1.2,0.8c-0.9,0-1.1-0.7-1.7-0.8c-0.7-0.1-2.8,0.4-2.9,0.4c-0.1,0.1,0.1,1.2,0,1.2
			c-0.5,0.1-0.2-0.7-0.4-0.8c-0.6-0.5-2.8,1.2-3.7,0.4c-0.2-1.9,0.7-2.6,0.4-4.6c0.8-0.2,0.8-1.3,1.7-0.4c-0.7-1.9,1.8-3.9,2.1-6.2
			c0.3,0.1,0.4,0.4,0.8,0.4c-0.5-0.7-0.5-2.5-0.8-3.7c0-0.2-1-1.1-0.8-1.2c0.8-0.6-0.6,0.1-0.8-0.8c0.6-0.9,0-3.1,1.2-3.3
			c-1.5-10.3-2-21.6-3.3-32.1c-1.2,0.3,2,0.3,2.1,0.4c0,0-0.5,0.8-0.4,0.8c-0.1,0,1.6-0.7,2.5-1.2c0.7-0.5,1.2-1.2,2.1-1.7
			c0.5-0.3,0.8,0.4,0.8,0.4c0.5-0.1,0.2-0.5,0-0.4c2.9-0.8,6.8-0.7,10.4-1.2c2-0.3,6-0.9,9.2-1.2c0.4,0.5,0,1.3,0,1.2
			c0.2,0.5,0.7,0.7,0.8,1.2c0.2,0.8-0.1,1.7,0,2.5c0.3,3.4,1.2,7.3,1.7,11.2c0.4,3.2,0.5,6.7,0.8,10c0.3,2.9,1.2,5.9,1.2,8.3
			c0,1.4-0.6,2,0,3.3c-2-1.4,1.4,2.1-0.8,0.8c0.4,1.4,0.9,0,1.7,0.8c0.2,0.7-1.6,1.4-1.7,0.4c-0.6-1.1,0,1.1-0.4,1.2
			c-0.3,0.1-1-0.3-0.8-0.4c-0.4,0.4,0.4,1.1-0.4,1.2c-0.5,0.1-0.6-0.8-0.8-0.8c-0.5-0.2-1.7,1.4-1.7,0c-1.5,0.8-0.1,1.9-0.4,3.7
			c-2.3,0.1-1.2,4.7-3.7,3.3c-0.3,1.3-0.3,3.1-0.8,4.2c-1.2,0.8-2-0.8-1.7-0.8c-0.4,0-0.4,1.2-1.2,0.8c0-1.2-0.7-1.8-1.7-2.1
			c-1.4-0.5-0.3,1.5,0,0.8c-0.2,0.5-1,0.4-1.2,0.8c-0.4,0.6-0.3,1.8-0.4,2.1c-0.1,0.2-1.4,0.2-0.4,0.4c-0.3,1-2-0.2-2.1-0.8
			c-1.1-0.4-1.5,1.8-2.1,0.4c-0.7,0.1,0.4,0.7-0.4,0.8"/>
		<path class="st2" d="M685.2,325.5c-2,0.1-3.1,1-4.2,2.1c0,1.5,1.9,2.4,0.8,3.7c-2.8-1.5-7-2.7-7.9,1.2c-1.1,0-2.5-1.5-2.9-2.5
			c-0.2-0.6,0.4-1.2,0.4-2.1c0-1.6-1.5-2.5-0.8-3.7c-1.6-0.5-2.3-2.4-3.7-3.3c-0.2-0.1-1.1,0.2-1.2,0c-0.1-0.1,0.1-0.7,0-0.8
			c-0.4-0.3-1.5-0.1-2.1-0.4c-0.2-0.1-0.3-0.8-0.4-0.8c-2.5-1.1-3.1-3.2-1.2-6.2c0.5-0.7,0.3-2.4,0.8-4.2c-0.7-0.7-2.1-1.7-3.3-1.7
			c-1,0-1.5,0.9-2.5,0.8c-0.6-1.4-0.4-3.2-1.2-4.6c-0.9-1.5-2.1-1.5-3.3-2.5c-0.3-0.3-0.5-0.9-0.8-1.2c-0.4-0.4-2.5-1.9-2.9-2.5
			c-0.4-0.7-0.5-2.4-0.8-3.3c-0.3-1.1-0.9-1.9-0.8-2.9c0-2.2,1.8-1.6,0.8-4.6c0.4-1.2,1.9-1.4,2.9-2.1c-0.4-2.5,1.1-3,1.7-4.6
			c-0.2-2.6-2.6-2.6-1.7-5.4c2.5-0.6,4.5-1.6,6.7-2.5c0.4-3.1,2.6-4.3,2.1-7.1c-0.3-1.4-1-1.8-2.1-2.5c-0.8-0.5-0.8-1.5-1.7-2.5
			c-0.7-0.8-1.8,0-1.2-1.2c9.7,0,18.3-1.2,27.5-1.7c-0.4,2.1,0.4,3.1,1.2,4.6c0.2,0.3,0.8,0.7,0.8,0.8c0.1,0.3-0.2,0.9,0,1.2
			c0.6,1.3,1.7,2.7,2.1,4.2c0.4,1.9,0.2,4.4,0.4,6.7c0.6,6.3,1.6,13.4,2.1,19.2c0.2,1.6,0.5,3.5,0.4,5c0,1.1-0.6,1.2-0.8,2.1
			c-0.1,0.5,0.4,0.2,0.4,0.4c0.1,0.3-0.5,1-0.4,1.7c0.1,1.5,1.7,2.9,1.7,5c0,0.8-0.4,1-0.8,2.1c-0.6,1.5-0.6,1.8-1.2,2.9
			c-0.4,0.7-1.1,2.2-2.1,2.5c0.7,1.6-0.3,3-0.4,4.6c-0.1,0.5,0.5,1.4,0.4,2.1C685.5,322.4,684.2,323.6,685.2,325.5z"/>
		<path class="st2" d="M677.7,211.8c0.6,1.8,0,2.4,0,4.6c0.1,0.6,1,0.3,1.7,0.4c-0.6,2.4,1.1,2.5,0.8,4.6c-0.4,0.3-0.9,0.4-1.7,0.4
			c0.1,2.6-2.3,3.9-1.2,6.2c1,0.4,1.2-0.4,1.7-0.8c1.2-1.1,1.6-3,3.3-4.2c2.7,1,0.2,3.1,0,5c-0.2,1.9-0.4,3,0.4,4.6
			c-1.2,0.2-1.2,1.6-1.7,2.5c-0.5,1.3,0.5,2.6,0.4,3.7c-0.1,1.5-1.1,3.2-1.2,5c-0.1,1.1,0.3,3,0.4,3.7c0.1,0.4-0.4,0.8-0.4,0.8
			c0.1,0.5,0.6,1.2,0.8,1.7c0.7,1.4,1.1,2.8,0.8,5.8c-9.5,0.2-17.8,1.6-27.5,1.7c-1.3,0.4-0.6-1.4-1.2-1.7c-1.5,0-2.4-0.6-3.7-0.8
			c-0.1-2.3-2.4-5.3-0.4-7.1c-0.1-1.2-1.3-1.2-1.7-2.1c-0.7-1.6-0.2-3.9-0.8-5.4c-0.5-1.2-1.2-2.3-2.1-2.9c-0.5-0.3-1.8-0.3-2.5-0.8
			c-1.3-1-1.9-3.1-3.3-4.2c-0.2-0.2-1.4-0.4-2.1-0.8c-0.5-0.3-0.9-1.1-1.2-1.2c-0.8-0.4-1.8,0-2.5-0.4c-0.9-0.5-0.7-1.9-2.1-1.7
			c1-2.9-0.7-6.8,1.2-9.2c-0.5-1.3-1.2-2.5-2.5-2.9c-0.6-0.9,0.4-0.8,0.8-1.7c0.2-0.5,0.1-1.7,0.4-2.1c0.2-0.2,1-0.3,1.2-0.4
			c0.7-0.4,1.9-1.5,2.9-2.1c0.3-3.2-0.4-5.4-0.4-8.3c0.9,0.1,1.3-0.3,1.2-1.2c3.6,2.6,8.5-2.4,12.1-3.3c0.8,1.2-0.9,2.8-0.8,4.6
			c3.8-0.9,7.3,0.9,8.7,3.7c2.5,0.3,4.3,0.4,6.7,0.8c0.6,0.1,1.6,0.3,2.1,0.4c1.1,0.3,2.2,1.4,3.3,1.7c1.8,0.4,4.1-0.2,6.2,0.4
			c0.2,0.8,1.2,0.8,0.8,2.1C676.1,210.9,676.8,211.5,677.7,211.8z"/>
		<path class="st2" d="M593.9,255.7c0.9-0.5,1.1-2.9,1.1-4.4c0-1.5-1.2-1-0.8-1.7c0.4-0.7-0.7-2.4-0.1-2.6c0.6-0.3,0.6-0.3,0.6-0.3
			s47.1-0.7,51.8-1.8c0,0-0.1,1.7,0.9,2.1c1.9-0.2,0,1.8,0,2.9c-0.1,1.9,1.3,3.5,1.7,5.4c1.4,0.1,2,1.1,3.7,0.8
			c0.5,1-0.1,0.8,0.4,2.1c0.3,0.6,2.1,1,2.5,2.1c0.1,0.2-0.6,0.6-0.4,0.8c0.2,0.2,1,0.2,1.2,0.4c0.3,0.2,0.5,0.6,0.8,0.8
			c1.8,1.5,2.1,2.6,0.4,5.4c-0.8,0.6,0.1,2.9-1.2,2.9c-0.7,1.3-1.3-1.1-1.7,0c1,1.6-2.9,1.8-4.6,2.1c0.2,1.1-1.2,2.6,0,3.3
			c0.4,1,1.7,1.1,1.2,2.9c0.4,1.6-1.6,0.7-1.2,2.1c0.3,1.3-0.4,1.5-0.4,2.5c-0.7-0.1-0.9,0.5-1.4,0.7c0,0-1.5,1.1-1.3,2.6
			c0.1,1.5-2.6-2.6-4-2.9c-0.3-0.1-3.6,0.7-4.6,0.8c-10.6,1.1-24.8,1.2-35.8,1.2c0.4-0.9-1.1-1.2-1.2-2.1c-0.1-0.5,0.5-1.8,0.4-2.5
			c-0.1-1.1-0.6-2.6-0.8-4.2c0-0.3,0.4-0.4,0.4-0.8c0,0-0.4-0.6-0.4-0.8c-0.2-1.6,0-1.3-0.8-2.1c-0.6-0.6,0.1-0.7-0.4-1.2
			c0.2,0.2-1,0.3-0.8-0.4c0.4-5.3-3.1-6.6-2.9-11.7c-1.1-0.8-2.4-2.6-0.8-2.5c-0.7-0.4-1.6,0.1-1.7-1.2c0-0.7,0.3-0.9,0.4-0.4"/>
		<path class="st2" d="M636,198.9c-0.5-0.5-0.2-0.7,0-1.2c-1.7,0.5,0.1,0.9,0,2.1c-1.2,0.1-0.5,2-2.1,1.7c-0.3,3.1,0.4,6.8,0,8.7
			c-1.4,0.9-3.1,1.1-4.2,2.5c-0.2,0.3,0,1.4-0.4,2.1c-0.2,0.4-1.1,0.4-0.8,1.2c0.2,1.5,1.8,1.5,2.5,2.5c0.2,1.2-0.7,1.7-0.8,2.9
			c-0.3,1.8,0.5,3.6,0.4,5c0,0.6-0.9,0.9-0.8,1.2c0.2,0.5,0.7,1.5,0,1.2c0.1,0.7,0.6-0.3,1.2,0c0.1,0-0.1,0.7,0,0.8
			c0.1,0.1,0.7-0.1,0.8,0c0.2,0.3,0.1,1.3,0,1.2c0.1,0.1,0.6-0.4,0.8-0.4c0.5,0,0.2,0.5,0,0.4c1,0.2,0.9-0.1,2.1,0
			c0.6,1.5-0.3,0.6,0.8,1.2c0.5,0.3,1.9,1.1,2.9,1.2c0.6,1.5,1.8,2.4,2.5,3.7c0.8,0.5,2.3,0.4,2.9,0.8c2,1.3,1.8,4,2.5,6.2
			c-16.4,1.2-33.5,1.7-51.2,1.7c-1.2-6.5,2-21.1-0.8-25.4c-0.1-0.1-0.8-0.3-0.8-0.4c-0.1-0.2,0.6-0.6,0.4-0.8c0,0-1.2,0.7-1.7,0.4
			c-0.3-0.2,0-2.3-1.2-2.1c0.4-0.6,0.8-0.5,1.7-1.7c0.1-0.2,0.8-0.7,0.8-0.8c0.1-0.2-0.2-1.1,0-1.2c0,0,1.1,0.5,1.2,0
			c0.1-0.4-0.7,0.1-0.8-0.4c-0.4-1.5,0.1-3.7-0.4-5.8c-0.3-1.3-1.5-1.9-1.7-4.2c-0.2-1.9-0.3-3.8-0.4-5.4c0-0.6,0.4-1.7,0.4-1.7
			c-0.1-0.8-0.7-1.8-0.8-2.5c-0.3-2.2-0.1-4.2,0-5.8c-0.4-0.6-0.7,0.2-1.2-0.8c-0.3-2.9-1.6-5.6-1.2-10c0.2-1.7,0.1-3.6-0.8-5.4
			c5.2-1.2,14.9,0.3,18.7-0.8c0.8-0.6,0-2.6,0-4.6c0.7,0,1.4,0,2.1,0c0.4-0.4,0,1.9,0,1.7c0.1,0.5,0.5,0.2,0.4,0
			c0.4,1.2,1,2.5,1.2,3.7c0.1,0.5,0.3,2.5,0.4,2.1c-0.6,1.7-1.1-0.5-2.1,0.4c0.3,0.3,0.7,0.3,1.2,0.4c-0.1,0,0.2,0.7,0.4,0.4
			c0.9-1.2,1.3,0.1,2.5,0.4c0.2,0,0.8-0.5,1.2-0.4c-0.1,0,3.2,0.6,3.7,0.8c0.2,0.1,0.7-0.1,0.8,0c0.4,0.4,0,1.2,0.8,1.2
			c0.6,0.1,2.7-0.1,2.5,0c1.2-0.4,0.7-1.5,2.1-1.7c1.1-0.1,2.7,0,3.7,0.4c0.3,0.1,1.6,0.8,1.7,0.8c0.5,0.4-0.2,2.2,1.2,1.2
			c0.2,1.5,1.3,2,2.1,2.9c1.4,0,0.3-2.5,2.1-2.1c0.7,0.1,0.5,1.2,1.2,1.7c0.6,0.4,2.7-0.2,2.1,1.7c1.5,0.8,4.2,0,5,0.4
			c-0.1-0.8,1.4-1.7,2.5-2.5c1.6-0.3,0.9,1.6,2.1,1.7c1.9-0.5,3.6-0.7,5.4-0.4c0.9,0.1,2.2,1.9,3.7,0.8c-0.2,1.1-1.6,2.1-2.5,1.2
			c-0.9,0.2,0.5,0.6-0.4,1.2c-2.2,0.7-4.8,1.1-5.8,2.9c-0.5,0.3-0.9-0.7-1.2-0.4c0,0,0.5,0.7,0.4,0.8c0,0.1-1.4,0.9-1.7,1.2
			c-0.6,0.6-1,1.8-2.1,1.7c0.4,1.6-1,1.6-1.7,2.5c-0.1,0.2-0.2,1.1-0.4,1.2c-0.5,0.4-1.1-0.2-1.2,0c-0.1,0.1,0.5,0.6,0.4,0.8
			c0,0.1-1.7,0.8-2.1,1.2C638,197.4,637.5,198.8,636,198.9z"/>
		<path class="st2" d="M670.2,344.7c0.7,3.8-5.3,2.9-7.1,2.9c0.1-2.2,2.5-2.2,2.9-4.2c-0.6-0.6-0.7-2.1-1.2-2.5
			c-1.1-0.8-11.2,0.6-15,0.8c-10.8,0.5-25,0.9-34.1,1.2c-0.2-12.2-0.3-24.4-0.8-36.2c-0.6-0.8-1.8-1-2.5-1.7
			c0.1-2.5-2.4-2.3-2.5-4.6c0.6-0.8,1-1.7,2.1-2.1c0.4-3-1.9-2.2-3.3-2.5c0.1-1-1.2-0.7-1.7-1.2c-0.6-0.7-0.8-2.1-1.2-2.9
			c-1-1.6-2.9-3-2.9-5c7.9,0,17.3,0.1,25.8-0.4c1.7-0.1,4.8-0.2,7.5-0.4c2.7-0.2,5.4-1.2,7.1-0.8c1.7,0.4,2.4,2.3,3.7,2.9
			c-0.9,2.9-0.1,6.5,1.2,8.7c0.5,0.8,1.3,1.3,2.1,2.1c0.3,0.3,1,0.5,1.2,0.8c0.3,0.3,0.1,1,0.4,1.2c0.4,0.3,1.7,0.5,2.1,0.8
			c0.7,0.5,0.4,1.2,1.2,1.2c0.6,1.8,0.5,4.2,1.7,5.4c1.5,0.3,1.2-1.3,2.5-1.2c0.9,0.5,1.9,0.9,2.9,1.2c-0.2,3.7-3.5,6.8-1.2,9.6
			c0.7,0.8,1.2,1.4,2.1,2.1c0.5,0.4,2.1,0.4,2.1,1.7c1.5-0.5,2.5,0.9,3.3,1.7c0.3,0.2,1.1,0.6,1.2,0.8c0.3,0.4,0.1,1.3,0.4,2.1
			c0.2,0.5,1.5,1.2,0.8,2.5c0,0-0.8,0.5-0.8,0.4c0.4,1.6,2,2.3,2.1,3.7c1.1,0.7,2-0.5,2.9,0.8c-0.5,0.4,0.1,1,0,1.7
			c-0.1,0.6-0.6,0.8-0.8,1.7c-0.1,0.4,0.8,0.7,0,1.7c0.2-0.2-1-0.1-1.2,0c-0.9,0.5-1.3,2.2-1.7,0c-1.1,1-0.6,1.9-0.4,3.3
			c-1.5,0.2-0.5,0.7-0.8,1.2C670,343.8,669.5,344.5,670.2,344.7"/>
		<path class="st2" d="M665.2,355.1c-0.2,1.7,0.7,2.3,0.8,3.7c-0.3,1.3-1.2,2.2-2.5,2.5c0.4,0.7,1.3,1.2,0.4,2.1
			c-0.8,0.7-0.5,0-1.7,0c0.1,1.2-0.1,1.4-0.8,0.8c-0.4,2-0.3,4.1,0,5c-0.4,1.4-2.5,1.1-2.5,2.9c-0.8,0.7-0.5,0-1.7,0
			c0.2,1.2,0.6,2.2,0.8,3.3c-1.5-0.2-1.8,0.7-2.5,1.2c0.2,0.8,1.2-0.7,0.8,1.2c-0.5,0.8-0.6,1.9-1.7,2.1c-0.3,0.9,1.2,1.3-0.4,1.2
			c-0.4,0.7,0.8,1.1,0.8,1.2c0,0.2-0.8,1-0.8,0.8c0.5,1.7,1.5,0.9,1.7,2.1c0.1,0.5,0.4,1.2,0.4,1.2c0.1,1-0.7,0.6-0.8,1.2
			c-0.1,0.3,0.7,1,0.4,1.7c-5.7-0.2-11.3,1-17.5,0.8c-0.9,0-2-0.5-2.9-0.4c-0.9,0-1.6,0.7-2.5,0.8c-3.2,0.5-6.5-0.4-9.6,0
			c0-2.4,0-4.7,0-7.1c-0.5,0.1-0.7-0.1-0.8-0.4c-0.7-0.5-1.5,0-2.1,0c0,0,0-0.8,0-0.8c-0.5-0.5-0.6,1.3-1.7,0.8
			c-1.4-8.7,0-18.6-0.8-27.5c-0.4-4.4-2.1-8.5-2.1-12.5c13.7-0.1,28.3-0.7,42.1-1.7c2.6-0.2,6.4-1.8,7.1,1.7c0,1.2-1.2,2.1-2.1,1.2
			c1.1,1-1.5,2.3-0.4,3.3c2.2,1.6,3.7-0.6,7.1,0c0.5,0.8-0.7,0.6-0.8,0.8c-0.1,0.4,0.3,1,0.4,0.8c-0.6,1-1,0.9-2.1,1.7
			c0.7,1.9-0.1,1.9-1.2,2.9L665.2,355.1z"/>
		<path class="st2" d="M587.3,171.8c0.2,1.1,0.3,2,0.4,2.9c0.2,1.3-0.1,2.5,0,5c0,0.4,0.5,0.6,0.4,1.2c-0.2,1,0.2,3.5,0.8,5.4
			c0.5,1.5,1.4,2.7,1.7,4.2c0.1,0.8-0.4,1.5-0.4,1.7c0,0.7,0.7,3.1,0.8,4.6c0.1,0.9-0.4,1.1-0.4,1.7c0,0.2,0.2,3.2,0.4,4.6
			c0.1,0.7,0.1,1.7,0.4,2.5c0.2,0.5,1.1,1.1,1.2,1.7c0.5,1.7,0.2,3.3,0.8,5c-23.8,1.1-48.3-0.9-71.2-2.1c1.3-13.6,1.4-28.3,3.3-41.2
			C545.2,170.9,567.2,170.4,587.3,171.8z"/>
		<path class="st2" d="M593.6,259.2c-2.2-2.6-5.6-3.1-7.2-4.5c-1.2,0.5-3,0.1-4.6,0.4c-1.2,0.2-1.7,0.3-2.5,0.8
			c-0.7-0.4-2-0.7-2.9-1.2c-0.8-0.5-1.4-1.5-2.1-1.7c-1.8-0.4-4,0.1-5.8,0c-15.4-0.7-34.6-1.2-49.1-2.5c0.3-14,2.1-26.5,2.9-40
			c22.6,1.8,46.2,2.6,70.8,2.5c0.2,2.6-2.2,2.5-2.5,4.6c0.7,0.7,0.9,1.9,1.7,2.5c0.5,0.7,2,0.5,2.1,1.7c0.3,7.7-0.5,16.4,0.4,23.3
			c0.2,2.1-1.2,0.2-1.7,1.2c-0.2,1,0.8,1.2,0.8,2.1c0,0.7-0.5,0.9,0,2.1c0.3,0.6,0.5,2.8,0,4.2c-0.2,0.7-1.4,1.9-0.5,2.8
			L593.6,259.2z"/>
		<path class="st2" d="M606,294.3c-22.7,1.2-46.4-0.2-68.7-0.8c-0.3-5,0.6-8.8,0.4-13.7c-6.4-1-14-0.7-20.4-1.7
			c0.8-8.9,1-18.5,2.1-27.1c12.2,1.6,28.6,1.4,42.1,2.5c3.9,0.3,8.3-0.7,11.7,0c1.7,0.3,3.2,1.7,5,2.5c0.4,0.2,0.7,0.4,0.8,0.8
			c1.2,0.4,1.3-1,2.1-1.2c1.1-0.3,3.7,0.6,5-0.4c1.1,0.1,0.6,1.2,1.7,1.7c0.9,0.4,2.2,0,2.9,0.4c0.8,0.5,1.4,1.6,2.1,2.1
			c0.8,0.6,1.4,1.1,2.5,1.2c-0.8,1,0.8,2.2,0.8,2.9c0,0.8-0.4,1.6,0.8,2.9c0.3,0.4,0.4,1.1,0.8,2.1c0.4,1.1,1.2,2.1,0.8,4.6
			c0,1.2,1.3,1.2,1.7,2.1c0.4,0.6-0.1,1.7,0,2.1c0.2,1,0.7,0.9,0.8,1.7c0.1,0.9-0.4,1.1-0.4,1.7c0,0.1,0.4,0.7,0.4,1.2
			c0,0.7,0.1,0.5,0,1.2c-0.2,2.1,0.8,4.1,1.7,5.8c0.1,0.2,0.2,0.9,0.4,1.2C603.7,291,605.9,292.3,606,294.3z"/>
		<path class="st2" d="M610.2,298.4c-0.2,0.4-0.6,1.3-0.8,2.1c-0.2,0.7,0.2,2-0.8,2.1c0.4,1.2,0.6-1,1.7-0.4
			c-0.1,0.9,0.3,1.3,1.2,1.2c-0.5,2.8,2.3,2.5,2.9,4.2c0,9.5,0.7,18.5,0.4,28.3c-26.5,1.2-53.6-0.2-79.5-0.8
			c0.6-13.9,1.1-27.8,2.1-41.2c13.4,1.3,28.3,0.5,42.5,1.7c4.4,0.4,9.5,0.2,13.7,0c4.9-0.2,9.5-1.1,12.5-0.4
			c1.6,0.4,1.4,0.4,2.5,1.7c1.2,1.2,1.9-1.4,2.1,0.4c0.7-0.2,0.8,0.3,0.8,0.8C609.4,297.4,610.5,297.8,610.2,298.4z"/>
		<path class="st2" d="M609.8,378.4c-1.3-0.4-0.6,1.4-1.7,1.2c-1.3,0.2-1.6-0.6-2.5-0.8c-1.9,0-2.9,2.1-4.2,0.4
			c-1.4,0.8-2.8,1.6-4.2,2.5c-1.3-0.5-2.3-1.3-3.3-2.1c-1-1-0.8,0.6-2.1,0.4c-0.1-1-1.3-0.9-1.7-1.7c-0.8,1-2.4,1.2-2.1,3.3
			c-1.3-0.3-0.5-1.1-0.4-2.1c-1.2-0.1-2.1,0.1-2.5,0.8c-1-0.7-1.6-1.8-2.9-2.1c-1.3-1.1-1.2,1.9-3.3,1.2c0.7-2.5-2.5-1.1-1.7-3.7
			c-1.7-0.1-3.5-0.1-4.2,0.8c-2.9-0.9-5.7-2-8.3-2.1c0.6-2.4-1.5-2.1-1.7-3.7c-0.8,1.9-1.4,0.8-2.5,0.8c-0.3,0-0.5,0.4-0.4,0.4
			c-1.8-0.3-2.5-2.6-4.2-2.9c0.1-8.7,0.5-17,0.8-25.4c-2.5-2.4-6.7-0.9-10.4-1.2c-6.3-0.5-16-1.3-22.8-1.6c0.4-2.7,0.4-4.1,0.7-5.9
			c29.2,1.6,59.7,1.9,90.8,1.7c-0.7,7.9,2,14.4,2.5,21.7c0.6,7.7-0.4,15.4,0,24.2C614.4,381.8,612.6,379.7,609.8,378.4z"/>
		<path class="st2" d="M415.7,154.3c5.9,0.5,13.2,2.3,19.2,3.3c9.9,1.7,20.4,3.5,30.8,5c12.5,1.9,25.9,3.4,38.7,4.6
			c4.3,0.4,8.6,1,12.9,1.2c2.6,0.2,5.1,0.1,7.5,0.4c-1.7,17.7-2.2,36.7-4.2,54.1c-17.5-1.5-35.5-3-52.9-5.4
			c-4.8-0.7-9.8-1.8-14.6-1.7c-1.2,1.2-1.1,3.6-1.2,5.8c-1.7,0.1-0.8-2.5-2.1-2.9c-2.3-0.5-1.3,2.3-3.3,2.1
			c-1.7-0.5-3.6-1.2-5.4-1.2c-0.9,0-1.3,0.7-2.1,0.8c-0.8,0.1-1.6-0.4-2.5-0.4c-1.3,0-1.8,0.4-2.9,0.8c-0.5-2.2,0-6.3-3.3-6.7
			c-0.9-0.9,0.3-1.4,0-2.9c-0.2-1.2-1.2-1.9-1.7-3.3c-0.6-2-0.1-4.6-1.2-6.2c-1.6-0.3-2.3,1.5-3.3,1.7c-1.4,0.3-1.2-0.1-2.9-0.8
			c-0.5-1.2,0.8-1.3,0.8-2.1c0-0.2-0.3-0.6-0.4-0.4c0.6-1,1.1-0.5,1.7-1.7c-0.9-4.1,1.6-6.6,2.5-10c0-1.4-2.4-0.4-2.9-1.2
			c1.1-1.1-0.3-0.2-0.8-0.8c-0.3-0.3-0.2-0.9-0.4-1.2c-0.6-0.8-0.6-0.2-0.4-1.2c0.1-0.3-0.7-1-0.8-1.2c-0.6-1.1-1.4-2.7-2.1-3.7
			c-0.5-0.7-1.1-1-1.7-1.7c-0.3-0.3-0.1-0.9-0.4-1.2c-0.4-0.5-0.9-0.8-0.8-1.7c0.1-0.7,0.5-0.9,0.4-1.7c-0.3-2.3-1.5-3.7-2.5-5.4
			C414.2,163.1,415.2,158.9,415.7,154.3z"/>
		<path class="st2" d="M520.7,223.5c-1.8,17.8-2.3,36.8-4.2,54.6c-24.6-1.8-48.4-4.3-71.2-7.9c2.1-12.6,3.8-26.6,5.8-40.4
			c0.3-2.1,0.9-4.1,1.2-6.2c0.4-2.6-0.1-5.4,1.7-7.1c2.6,0.2,8.8,1,13.3,1.7c14.3,2,30.4,3.9,45.4,5
			C515.4,223.2,518.1,223.6,520.7,223.5z"/>
		<path class="st2" d="M466.1,273.9c23.2,2.6,46.9,4.8,71.2,6.2c-1.2,18.1-1.7,36.9-2.9,55c-25.5-1.6-50.6-3.9-75.4-6.7
			c-0.1-2.1,0.1-4.5,0.4-6.7c1.9-14.9,4.1-31.7,6.2-46.6C465.7,274.5,465.6,273.9,466.1,273.9z"/>
		<path class="st2" d="M522.8,342.2c-0.6,5.1-0.5,10.6-0.8,15.8c-0.7,10.3-1.3,20.6-2.1,30.8c-0.4,5-0.6,9.9-1.7,14.6
			c-13.8-0.9-27.3-2.1-40.8-3.3c-1.4,0.5,1.1,2.7,0,2.9c-5.9-0.7-12.3-1.1-17.9-2.1c-1.2,1.4-0.6,4.7-1.7,6.2
			c-2.7-0.6-6.2-0.4-8.7-1.2c3.1-25.8,6.6-51.1,9.6-77c21.3,2.3,42.3,4.9,65,5.8L522.8,342.2z"/>
		<path class="st2" d="M385.3,379.6c0.1-1,1.4-0.8,1.2-2.1c0.4-0.4,2,0.5,2.5,0c0,0,0.7-2,0.8,0c0.6-0.4,0-2.2,0.4-2.5
			c0.2-0.2,1.2,0.4,1.2,0.4c-0.1-0.6-1.2-1.3-1.7-1.7c-0.5-0.5-0.7-1.1-1.7-1.2c0.6-1.8,0.1-2.8,0.4-4.2c0.1-1.1,1.9,0.6,2.1,0.4
			c0.3-0.2-0.8-0.8-0.8-0.8c-0.1-0.5,1.8-2.9,2.1-3.7c0.4-1.2-0.1-2.6,0.4-3.3c1.5-2.4,3.4-1.5,5-4.2c0-1.2-0.8-1.6-2.1-2.5
			c-0.1-4.3-3.3-7.5-0.4-10.4c-0.1-4.6,0.1-9.5,0.4-12.5c1.9-0.6,1.8,0.3,3.7,0.4c0.7,0.3-0.1,2,1.2,1.7c1.1,1.1,1.3-0.8,2.1-1.7
			c0.6-0.7,0.8-1.1,1.2-3.3c0.4-2.1,0.9-5.6,1.2-7.9c5.8,1,11.5,2.4,17.5,3.3c0.7,0.1,1.4-0.1,2.1,0c9.9,1.6,22.4,3.5,33.7,5
			c-3.5,25.5-6.3,51.7-10,77c-7.8-0.8-15-2.3-22.9-2.9c-0.3-0.2-0.4-1,0-0.8c-0.7-0.3-3.9-0.3-2.9-2.1c-0.9,1-1.9-0.3-2.9-0.8
			c-0.9-0.4-2.6-0.9-2.9-1.2c-0.1-0.1,0.6-0.7,0.4-0.8c-0.4-0.2-0.3,0.4-0.4,0.4c-0.5,0.1-0.2-0.3-0.4-0.4c-2-0.7-4.1-1.9-5.8-2.9
			c-1.5-0.9-2.9-1.7-4.2-2.9c-0.2-0.2-0.9,0.1-0.8-0.4c0,0.1,0.7-0.2,0.4-0.4c0,0-1.7,0.8-2.1,0c0-0.1,0.6-0.8,0.4-0.8
			c-0.4-0.2-1,0.4-2.1,0c-0.8-0.3-1.3-1.2-2.1-1.7c-0.4-0.3-0.8-0.2-1.2-0.4c-1.3-0.8-3.8-2.1-5.4-3.3c-0.3-0.2-0.9,0.1-0.8-0.4
			c0,0.1,0.7-0.2,0.4-0.4c-0.4-0.3-0.3,0.4-0.4,0.4c-0.4,0.1-2.6-1.7-3.3-2.1C387.8,381,386.4,380.7,385.3,379.6z"/>
		<path class="st2" d="M401.1,333c-1.7,0.1-1.1-1.9-2.5-2.1c-1.3,0.1-2.4-1-3.3,0c-1.1,0.2-0.8,1.2-0.8,2.1c0,0.7,0,1,0,1.7
			c-0.1,1.5-0.3,3.1-0.4,4.6c-0.1,1.4,0.7,2.5,0.4,3.7c-0.2,1.1-1.9,1.2-1.2,2.5c-8.7-12.2-18.7-27.3-28.3-41.2
			c-1.5-2.2-3.4-4.5-5-7.1c-0.6-1-1.1-2-2.1-3.3c-0.2-0.3-0.7-0.6-0.8-0.8c-0.2-0.3-0.2-0.9-0.4-1.2c-0.4-0.6-1.2-1-1.7-1.7
			c-0.3-0.4-0.2-0.9-0.4-1.2c-0.8-1.3-2.5-3.2-3.7-5c-2-3-2.9-3.5-2.1-7.1c0.2-0.7,0.7-1.4,0.8-2.1c0.4-1.8,0.5-3.9,0.8-5.4
			c2.4-9.8,5.3-19.8,7.5-29.6c19,4.7,38.8,8.7,58.7,12.5c-3.1,16.4-5.8,34-9.2,50.4c-1.1,5.2-1.5,10.7-2.5,15.8
			c-0.5,2.5-1.2,5-1.7,7.5C402.8,328.3,402.9,331,401.1,333z"/>
		<path class="st2" d="M417,252.2c9.8,1.6,19.2,3.6,29.6,4.6c-0.5,4.9-1.1,9.7-2.1,14.2c7.3,0.5,13.6,1.9,20.8,2.5
			c-2.6,18-4.5,36.6-7.1,54.6c-18.5-2-35.8-5-53.3-7.9C409,297.5,413.1,275,417,252.2z"/>
		<path class="st2" d="M388,246.3c0.7-4.4,1.6-7.5,2.4-11.3c0.8-4,1.3-8,2.1-11.8c0.3-1.3,1.2-2.3,1.7-3.4c0.4-1.1,0.3-2.5,0.6-3.5
			c-0.4-0.9-2-0.6-1.9-1.9c-0.1-4.3,2.8-4.9,5.1-6.7c-0.8-1.3,0.3-1.9,0.9-2.7c0.5-0.8,1.1-2.6,1.7-3.3c1.2-1.7,2.7-2.4,2.6-3.9
			c0-1.1-1-2-1.7-2.9c-0.6-0.9-0.9-1-1.4-2.2l0.4-0.8c-0.4-1,0-1.2-0.4-2.7c-0.1-0.5-0.2-1.9-0.1-2.4c0,0.1,0.4-0.4,0.5-0.8
			c0.4-1.2,0-3.2,0.2-4.4c0.8-4.4,2.6-8.6,3.2-13.6c0.4-3.1,1.4-4.8,1.7-7.1c0.1-0.7,0.4-2,0.4-2.1c0.1-0.2,0.6-2.6,0.6-2.5
			c0.4-2.2,0.2-2.2,1-3.6l7.6,1.7c-0.5,4.8-1.2,8.3-2.2,12.6c1,1.8,1.9,3.1,2.2,5.5c0.1,0.8-0.4,1-0.4,1.7c-0.1,0.9,0.5,1.2,0.8,1.7
			c0.3,0.4,0.1,1,0.4,1.3c0.6,0.7,1.2,1,1.7,1.7c0.7,1.1,1.5,2.7,2.1,3.9c0.1,0.3,0.9,1,0.8,1.3c-0.2,1.1-0.2,0.4,0.4,1.3
			c0.2,0.3,0.1,1,0.4,1.3c0.6,0.7,2.1,0.2,1,1.4c0.6,0.9,2.7-0.6,2.8,0.8c-0.9,3.5-3.3,5.2-2.3,9.5c-0.6,1.2-1.1,0.7-1.7,1.7
			c0.1-0.2-0.1,0.9-0.1,1.1c0,0.8-0.4,1,0.1,2.2c1.7,0.8,2.1,1,3.5,0.7c1-0.2,1.2-1.7,2.8-1.4c1.2,1.7,0.3,3.8,1,6
			c0.4,1.4,1.4,1.9,1.5,3.2c0.3,1.5-0.7,2.3,0.3,3.2c4.1,0.5,2.7,3.3,3.5,6.8c1.1-0.4,1.6-0.7,2.9-0.7c0.9,0,1.4,0.4,2.2,0.3
			c0.8-0.1,2-1,2.9-1c1.8,0.1,3.4,0.6,5.1,1.1c2,0.2,1.1-2.3,3.3-1.8c1.3,0.4,0.1,3.1,1.8,3.1l-5,33.8L388,246.3z"/>
		<path class="st2" d="M318.3,292.6c1.7,0.4,1.6,2.6,3.3,2.9c0.1-0.5,0.1-1.7-0.4-3.7c-0.3-1.2-1.2-2.8-1.2-4.6
			c0.8-0.2,1.3-0.1,2.1,0c0.4,0,0.6,0.5,1.2,0.4c0.3-0.1,1.8-0.4,2.5,0.8c1.3,0.3,1.5-0.4,2.5-0.4c0.6,0.6,0.7,1.8,1.7,2.1
			c0.7-2.4-3-2-2.1-3.3c-1.9,1.5-3.6-1.2-5,0c-1.4-0.4-1.3-2.3-3.3-2.1c-1.2,0.4-0.8,2.5-1.2,3.7c-0.8-0.6-1.8-1.6-2.5-2.5
			c-0.7-0.8-1.9-1.4-1.2-2.5c0.5,0.1,0.3,0.8,0.8,0.8c-0.2-1.9-0.5-3.6-1.2-5.4c-0.2-0.5-0.6-0.5-0.8-0.8c-0.2-0.3-1.1-1.6-1.2-2.1
			c-0.1-0.4,0.2-0.9,0-1.2c-0.6-1.3-1.9-2.5-2.1-3.7c-0.1-0.6,0.8-1.6,0.8-2.9c0.1-1.3-0.5-2.3-0.4-2.9c0.4-2.3,2.1-2.9,1.7-6.2
			c-0.2-1.5-0.9-3.5-1.7-5c-0.4-0.9-1.6-1.8-1.7-2.9c-0.2-2.8,1.5-5.4,4.2-6.2c-1.2-0.7,0.6-1.4,0.8-2.1c0.2-0.6-0.3-1.7,0-2.5
			c0.4-1.1,1.6-1.7,2.1-2.9c0.9-2.4-0.5-5.7,0.8-8.3c13.6,3.3,26.3,7.6,40.4,10.4c-1.1,7-3,13.7-4.6,20.4c-1.6,6.7-3.3,13.3-5,20
			c8.3,12.7,17.4,24.8,25.8,37.5c0.5,0.8,0.7,1.7,1.2,2.5c0.4,0.6,1.2,1.1,1.7,1.7c0.5,0.7,0.7,1.7,1.2,2.5c0.4,0.6,1.3,1.1,1.7,1.7
			c0.5,0.7,0.8,1.8,1.2,2.5c0.5,0.6,1.2,1.1,1.7,1.7c0.5,0.7,0.8,1.8,1.2,2.5c0.2,0.3,0.7,0.6,0.8,0.8c2.6,4.2,5.8,9.2,9.2,13.3
			c-1.3,2.6,2.4,5.2,1.2,7.5c0.4,1.3,2,1.3,2.1,2.9c-0.4,1.5-2.2,1.5-2.9,2.1c-0.7,0.5-1.6,1.6-2.1,2.5c-0.5,1.1-0.2,3.3-0.8,4.6
			c-0.1,0.2-0.6,0.5-0.8,0.8c-0.4,0.6-0.8,1.3-2.1,1.7c0.1,1.9,0.4,2.3-0.4,3.7c-0.1,1.4,1.8,0.9,2.1,2.1c0.5,1.7-0.9,1.6-0.8,2.9
			c-8.6-0.7-19.8-2-29.6-2.9c-0.4-0.6,0.4-1.7,0.4-1.7c-0.2-1.4-1.2-0.4-1.2-1.2c-0.1-1.2,0.6-3.1,0.4-5c-0.6-5.2-4.9-7-7.1-11.2
			c-1.2-0.4-1.7-0.4-2.9,0c0.2-1.9-0.2-3.1-0.4-4.6c-3.2-0.9-5.1-0.9-7.1-2.9c-0.5-0.5-0.5-1.4-0.8-2.1c-1.1-2-2.7-3.4-5.4-3.3
			c-1.2-1.7-3.6-1.8-5.8-2.1c-0.9-0.1-1.1-2.1-2.5-2.1c1.3-1.8,0.9-5.2,2.1-7.1c0-1.6-1.7-1.6-2.5-2.5c0.2-0.8,0.9-1,0.8-2.1
			c-0.1-1.3-1.4-1.9-2.1-2.9c-0.2-0.3,0.2-0.9,0-1.2c-0.1-0.3-1.4-1-1.7-1.7c-0.6-1.3-0.3-2.8-0.8-4.2c-0.2-0.5-1-0.7-1.2-1.2
			c-0.3-0.6-0.2-1.3-0.4-1.7c-1.1-1.9-1.9-2.9-1.2-6.2c1.5,0.3,1.2-1.3,2.5-1.2c0.1-1.5-0.1-2.7-0.4-3.7c-0.2-0.9-2.2,0-2.5-0.8
			c-0.6-1.3-1.8-2.1-2.1-3.7c-0.2-0.8,0.8-1.2,0.8-2.1c0.1-0.8-1.1-2.6-0.4-2.9"/>
		<line class="st1" x1="317.4" y1="292.6" x2="317.9" y2="292.8"/>
		<path class="st2" d="M317.9,292.8c-0.1-0.6,0.1-1.3,0.4-1.9"/>
		<line class="st1" x1="317.9" y1="292.8" x2="318.3" y2="292.6"/>
		<path class="st2" d="M316.2,227.6c-1-2.7-0.2-6.4,1.2-7.9c-1.9-3.9,1.8-5.6,2.1-8.7c0.9,1.6,1.7-2.5,2.1,0
			c1.5-1.4-0.4-1.8,0.4-3.3c1-0.3,0.7-1.8,2.5-1.2c0.3-1.3-0.7-1.2-0.4-2.5c1.8-2,1.6-5.9,3.7-7.5c-0.4-4.5,3.6-7.9,4.2-12.9
			c0.6-0.5,1.1-0.5,1.7,0c-0.1-0.5-0.8-0.7-0.8-1.2c0-0.8,0.6-0.8,0.8-1.7c0.2-0.7-0.1-1.6,0-2.1c0.4-1.6,1.3-2.9,1.2-4.6
			c1.3-0.5,0.3,1.3,1.7,0.8c1.1-1.2,3.4-0.1,3.3,1.2c2.1-0.4,2.8,0.5,3.7,1.2c-0.3,0.5,0.4,0.7,0.4,0.8c0.8,3.8-1.7,5.1,1.2,7.1
			c0.5,0.3,1.2,0.1,1.7,0.4c0.4,0.2,0.2,0.7,0.8,0.8c0.8,0.1,2.1,0.2,2.9,0c0.9-0.2,1.1-0.8,2.1-0.8c2.4,0,4.3,0.9,5.8,2.5
			c1.6,0.8,3.3-0.2,5,0c0.8,0.1,1.7,0.8,2.5,0.8c2.9,0.1,5.8-0.9,8.7-0.8c1,0,2.4,0.4,3.3,0.4c1,0.1,2-0.1,2.9,0
			c3,0.4,5.9,1.5,8.7,2.1c3,0.6,5.9,1.3,9.2,1.7c0.5,1.2,1.1,2.1,1.7,2.9c0.6,0.9,1.6,1.4,1.7,2.5c0,1.5-1.7,2.8-2.9,4.6
			c-0.5,0.8-0.8,1.7-1.2,2.5c-0.5,0.9-2,1.2-1.2,2.5c-2.3,1.8-5.1,3.3-5,7.5c-0.1,1.3,1.7,0.8,2.1,1.7c-0.2,1-0.1,2.2-0.5,3.2
			c-0.4,1.1-1.4,2.1-1.7,3.3c-0.8,3.7-1.3,7.7-2.1,11.7c-0.8,3.8-1.9,7.5-2.5,11.2c-19.7-3.7-39-9-57.4-14.1c-0.6-0.2-1-0.3-1.2-0.4
			C324.5,230,320,229.7,316.2,227.6z"/>
		<path class="st2" d="M354.5,152.7c0.9-0.2,0.6,0.8,1.2,0.8C355.6,154.5,354.1,153.5,354.5,152.7z"/>
		<path class="st2" d="M353.3,154.7c1,0.2,0,1.6-0.8,1.2C352.6,155.4,353.2,155.3,353.3,154.7z"/>
		<path class="st2" d="M337,171.4c0.3-1.6-1.2-2.4,0.8-2.5c-0.3-0.4-1-0.4-0.8-1.2c1.1,0,0.8,0.7,1.7,0c0.8-1.3-1.6-1.3-0.4-1.7
			c0-0.8-1.6,0.6-2.1-0.4c-0.1-1.9,2.3-1.3,3.3-2.1c-1.3-0.4-1.7-1.6-2.9-2.1c0.7-1.8-0.3-3.8,0-6.2c0.1-1,0.6-3.3,0-5
			c-0.2-0.5-0.7-0.7-0.8-1.2c-0.2-1-0.1-2.5,0-3.3c0,0,0.7,0.5,0.8,0.4c0,0-0.5-0.9-0.4-1.2c0.1-0.6,2-1.5,0.4-1.2
			c0.1-1.1,0.7,0.3,1.2,0.8c1.1,1,2,0.9,1.2,2.5c0.4-0.3,0.4-1,1.2-0.8c0.1,1.7,1.9,1.4,3.7,2.1c0.2,0.1,0.3,0.8,0.4,0.8
			c0.6,0.3,1.8,0,2.5,0.4c0.6,0.3,1.1,1.4,2.5,0.4c-0.5,1.8,2.4,1.3,1.2,2.5c0.6,0,1.1,0,1.7,0c0,0.8,0,1.7,0,2.5
			c-1.7-0.9-1.6,0.9-2.5,0c-1.1,0.1,0.6,0.7,0,1.7c-0.6,0.4-3.5,2-3.7,2.9c-0.2,0.7,1.6,1.1,0.4,1.7c0.8-0.6,2.4-0.4,3.3-0.8
			c-1.2,0.9-1.8,2.4-3.7,2.5c0.8,0.5,0.6,2.2,1.7,2.5c0.4-0.3,0.6-0.8,0.8-1.2c0,0.6,1,0.7,0.4,1.7c1.4-0.6,1.6-1.9,2.5-2.5
			c0.4-0.2,0.4,0.4,0.4,0.4c0.8-0.1,1.6-1.4,2.5-1.7c-0.3-0.8,0.4-1.7,0.4-2.5c0-0.4-0.4-1.5-0.4-1.2c0.2-0.5,0.6-0.1,0.8-0.4
			c0.3-0.4-0.2-1.3,0-1.7c0.4-0.6,1.5-0.7,1.7-1.7c0.7,0.4,1.6,0.9,0.8,1.7c1.5-0.8-0.9-2-1.2-3.7c-0.2-1.2,1.1-2.8-0.4-3.7
			c0.6-1.1,1.5-3.2,1.2-5c-0.1-0.6-0.7-0.1-0.8-0.4c-0.1-0.2,0.6-1.3,0-0.4c-0.7-0.3-0.3-1,0.4-0.8c0-0.8-1-0.1-0.8,0
			c-1-0.5,0.5-1.7-0.4-0.8c-0.7-1.9,1.1-0.5,1.7-0.4c1.3,0.1,3.5,0.4,5,0.8c1.5,0.4,2.9,1.3,4.2,1.7c0.6,0.2,1.4-0.1,2.1,0
			c1.3,0.3,2.4,1.4,3.3,1.7c0.2,0.1,1-0.5,1.7-0.4c0.9,0.1,2,1,2.9,1.2c0.7,0.2,1.4-0.2,2.1,0c0.9,0.2,2,1.1,2.9,1.2
			c2.5,0.4,4.7,1.1,7.1,1.7c2.5,0.6,5,0.7,7.5,1.2c0.5,0.1,1.2,0.7,1.7,0.8c3,0.7,6.1,0.6,8.7,1.7c-0.8,1.4-0.4,2.4-0.8,4.6
			c0-0.1-0.3,1.4-0.4,1.7c-0.1,0.1-0.8,0.4-0.8,0.4c-0.1,0.2,0.5,1,0.4,1.7c-0.2,2.2-1.3,4-1.7,7.1c-0.6,4.9-2.5,10.2-3.3,14.6
			c-0.2,1.2,0,2.1-0.4,3.3c-0.1,0.3-0.8,1.3-0.8,1.2c0,0.4,0.7,0.8,0.8,1.2c0.4,1.6-0.4,2.3,0,3.3c-3.1,0.5-6.1-1-9.2-1.7
			c-1.8-0.4-4.2-0.2-5.8-0.8c-0.1,0-0.3-0.8-0.4-0.8c-0.2,0-0.8,0.4-1.2,0.4c-0.8,0-1.8-0.8-2.5-0.8c-1.4-0.1-1.6,0.2-2.9,0
			c-0.7-0.1-3.4-0.4-3.3-0.4c-0.3,0.1-0.4,0.8-0.4,0.8c-0.7,0-1.5-0.5-2.5-0.4c-0.8,0-4.7,1-5.4,0.8c-0.3-0.1-0.4-1.2-1.2-0.8
			c0.7-0.8,0-0.5,0-1.7c-0.5,0.1-0.4,0.8,0,0.8c0,0.8-0.9,0-0.8,0c-0.4,0.1-0.7,0.8-0.8,0.8c-1.2,0.2-2.5-0.1-4.2,0
			c0.3-1.1-0.8-0.8-0.8-1.7c-2.4,0.1-3.4-1.3-5.4-1.2c-0.5,0-1,0.8-1.2,0.8c-0.6,0.2-0.6-0.4-0.8-0.4c-1.1,0-1.6,0.9-2.1,0.8
			c-0.9-0.1-2.3-1.8-3.7-2.1c-0.2-2.6,0.6-4.2,0-6.2c-0.1-0.2-0.1-1.1,0-0.8c-0.3-0.6-0.3,0-0.4,0c-1.8-0.9-0.8-2.8-3.3-1.7
			c0.8-0.9-0.2-0.6,0-0.4c-0.4-0.3-0.5-1.4-1.2-1.7c-0.3-0.1-1,0.2-1.2,0c-0.3-0.2-0.2-1.3-1.2-0.8"/>
		<path class="st2" d="M351.2,157.7c-0.2,1.1,0.2,1.5,1.2,1.2c0.5,1.8-1.4,1.1-1.7,2.1c-0.6-0.8-1.2-1.6-2.9-1.2
			c-0.1-1.6,2.2-1.3,1.2-1.7c0.6-0.9,1.2,0.5,1.7-0.8"/>
		<line class="st1" x1="350.8" y1="157.2" x2="350.8" y2="157.7"/>
		<path class="st2" d="M350.8,157.7c0.3-0.1,0.5-0.3,0.6-0.6"/>
		<line class="st1" x1="350.8" y1="157.7" x2="351.2" y2="157.7"/>
		<path class="st2" d="M880.1,183.1c0.8-0.2,0.6,1.9-0.4,1.2c0-0.3,0-0.6,0-0.8C880,183.6,880.1,183.3,880.1,183.1z"/>
		<path class="st2" d="M867.6,191.8c1.6,0.4,0.5,1.8-0.8,1.7C867,192.9,867.4,192.4,867.6,191.8z"/>
		<path class="st2" d="M837.9,188c0.1-0.7,1.1-0.2,1.7-0.4c1-0.4,0.5-2,2.1-1.7c-0.2-0.9-1-1.2-0.8-2.5c0.4-1.3,1-2.3,2.1-2.9
			c-1.1-1.1,0.4-1.6,0.4-2.5c0-1.7-1.4-2.9-1.2-4.6c0,0.1,0.2-1.7,0.4-2.1c0.2-0.4,0.8-0.2,0.8-0.8c0.1-1.3-0.5-2.8-0.4-4.2
			c0.1-1.2,0.9-1.8,1.2-2.9c0.3-0.8,0.1-2,0.4-2.9c0.2-0.8,0.6-1.4,0.8-2.1c0.2-0.6,0.6-1.5,0.8-2.1c0.2-0.6,0.3-1.9,1.2-1.7
			c1.1-0.3,0.5,0.8,0.8,1.2c0.5,0.8,1.3,0.9,1.7,1.7c2.2-0.8,3.8-2.4,5.4-3.7c0.8,0.1,1.9,0,2.9,0.4c0.4,0.2,0.5,1,0.8,1.2
			c0.4,0.2,1.4,0.1,1.7,0.4c0.3,0.4,0.7,2.2,1.2,3.7c0.9,2.8,1.6,5.8,2.9,9.2c0.4,1,1.2,2.6,1.2,4.6c0.8,0.9,2.5,0.9,4.2,0.8
			c0,2.8,1.3,4.3,2.5,5.8c0.4-0.4,0.8-0.8,1.2-1.2c1,0.3,1.1,1.4,2.1,1.7c0,0.8-1.1,0.5-0.8,1.7c0.3,0.8,1.4,1.8,1.7,0.4
			c1,0.9-1.1,3.9-2.5,2.5c-0.6,1.4-1.3,2.5-2.5,3.3c-0.5-0.1-0.3-0.8-0.8-0.8c-1.1,0.1-0.5,1.7-0.4,1.7c-0.3,0.7-1.9,0.2-1.2,1.7
			c-0.7-0.4-2.1-0.1-2.5-0.8c-0.7,1.1-0.9,2.2-2.1,0.8c0,1.1,0,2.2,0,3.3c-2.6,0.8-1.3-2.3-2.5-2.9c-1.2-0.8-0.6,1.2-0.8,1.7
			c-0.1,0.1-0.8-0.1-0.8,0c-0.2,0.7,0.4,1.3,0.4,2.1c0,1.5-0.8,2.9-0.4,4.6c-0.8,0.8-3.6-0.2-2.9,2.1c-0.5,1.3-0.5-1.1-0.4-1.7
			c-1.3,0.5-2.4,2.6-2.9,0.4c-1.1,1.3,0.4,2.6-0.4,4.2c-0.6,0.3-0.3-1.2-0.4-1.2c-0.4-0.1-1.8,0.8-2.1,2.1c-0.2,0.7,0.1,1.8,0,2.5
			c-0.1,0.7-0.8,1-0.8,1.2c-0.2,0.7,0.6,0.9,0.4,1.7c-0.1,0.6-1.1,1.1-1.2,1.7c-0.5,1.5,0.2,2.9-0.4,3.3c-1.1,0.1-1.4-0.6-1.2-1.7
			c-1.4,0-1.8-1-2.5-1.7c0.4-2.5-1.4-4.6-2.1-6.7c-0.5-1.5-0.4-2.6-0.8-4.2c0-0.1-0.4,0-0.4-0.4c0-0.2,0.4-0.6,0.4-0.4
			c-0.2-0.5-1.1-0.8-1.2-1.2c-0.2-0.4-0.4-1.6-0.4-1.7C840.4,194.8,839.5,191.1,837.9,188z"/>
		<path class="st2" d="M739.9,330.5c-0.6,0.2-1.2,0.3-1.7,0.6l1.5-0.2c1.8,0.3,2.9-0.3,3.7-0.4c4.5-0.7,10.9-1.2,13.3-2.5
			c-0.2,0.1-0.5-0.4,0-0.4c0,0,0.7,0.8,1.2,0.8c1.6,0.2,4.3-0.2,5.8-0.4c6.2-0.8,11.9-2.6,17.9-3.3c1.8-0.2,2.3-0.7,3.3-0.8
			c2.9-0.5,4.7-0.4,7.1-0.8c5.2-1,10.7-2.5,15-3.3c1.3-0.3,2.8-0.1,3.7-0.4c0.3-0.1,0.4-0.7,0.8-0.8c-0.1,0,0.4,0.4,0.8,0.4
			c0.7-0.1,1.3-0.6,2.1-0.8c1.3-0.3,1.7,0,2.5-0.8c-0.1,0.1-0.5-0.2-0.4-0.4c0.2-0.3,0.7,0.1,0.8-0.4c0.1-0.3-0.4-1.4-0.4-1.7
			c0.1,0.3-0.4,0.5-0.4,0.4c-0.1-0.8,0.8-1,0-1.7c-1.5-0.4-2.2,0.7-2.9,0c-0.1,1.7,1.4,1.2,1.7,1.7c-0.9,0.8-1.9-0.6-2.9-0.8
			c-0.7,0.3-0.6,1.3-1.7,1.2c-0.3-1.3-0.4-0.9,0.4-1.7c-1.3-1-2.2,0.8-2.9-0.8c0.4,0,0.5-0.3,0.8-0.4c-1,1.1,0.7,0.7,0.8,0.4
			c-0.6-0.4-1.3-0.6-1.2-1.7c-1.1,0-2.5,0-3.3,0c0.4,0-1.1-0.2-0.8,0c-0.1,0,0.1-0.8,0-0.8c-0.9-0.2-1.8,0.5-2.9-0.4
			c1.3-0.6,3.6-1,4.2,0c0.1-0.5-0.1-1.2,0.4-1.2c0.4,0.7,1.2,1.7,2.5,1.5l1.5,1c0.9,0.8,1.4,1.4,2.7,0.8c0.6-1.7-1.2-1.9-2.1-1.9
			l-1.2-0.7l-0.9-0.3c-0.8-1.3-2.6-1.6-3.3-2.9c0.8,0.8,0.8-0.2,1.7-0.4c0.4,1.6,1.5,1.2,2.1,1.7c-0.2-0.2-0.5,0.2-0.4,0.4
			c0.2,1,1.6-0.7,1.7,0.8c0.8-0.8-0.2-0.8-0.4-1.7c0.4,0,0.5-0.3,0.8-0.4l-0.4-0.8c0-0.5-0.5-0.6-0.4-1.2c-0.6,0-1.1,0-1.7,0
			c-0.2-1.4-1.3-1.2-2.1-1.7c-1-0.7-2.2-2.4-2.9-2.9c0.2,0.1-0.8,0.4,0-0.4c-1.8-0.2-0.5,1.1-1.2,1.2c-0.8-0.8,0.2-0.8,0.4-1.7
			c-0.7-0.2-1.7-0.2-2.1-0.8c0.5-0.5,1.5-0.5,2.1,0l0.5-0.2h0.3c0.1,1,1.4,0.8,1.2,2.1c1.4-1,1,0.5,1.7,0.4c1.3-0.2,0.6,0.9,2.5,2.1
			c-0.6-0.4,1.5,0.3,1.7,0.4c0.2-1.7-0.4-2.7-0.8-3.7c-2.5,0.6-2.7-3.7-5.9-2l-0.8,0.3c-0.1-1-1.4-0.5-1.2-1.8c-1.6,0.5-3.3,2-4.2,0
			c0.8-1,0.3-3.3,0.8-4.6c0.8,0.8,0.8-0.2,1.7-0.4c0-1-0.7-1.2-0.4-2.5c-1.2-1.1-2.1,0.7-2.5,0c0.5-0.1,0.6-0.5,0.8-0.8
			c-1.5-0.2-3.8-0.1-4.2-2.5c-0.2,0.6-0.5,0.1,0-0.4c-2.1,0.7,0-0.3-1.7-0.4c-0.8,0.7-0.7,2.4-1.7,2.9c0-1.1-1.1-0.5-1.7-0.8
			c0.2,0.1,0.6-0.3,0.4-0.4c-0.5-0.3-2.4-0.7-3.7-1.7c-0.7,1.1,0.1,2.7-0.4,4.2c0,0.1-0.8,0.3-0.8,0.4c-0.3,0.5-0.3,1.9-0.4,2.1
			c-0.3,0.5-1.3,0.4-1.7,0.8c-0.8,1-0.5,2.9-2.5,2.1c0.1,1.2,0.8,1.4-0.4,0.8c0.2,2.5-0.5,4-1.7,5c-2.1,0.4-2.8-0.5-3.7-1.2
			c-0.1,1,0.1,1.6,0.4,2.1c-2,0-1.6,4.5-1.7,4.6c0,0.1-0.8-0.1-0.8,0c-0.2,0.4,0.1,1.2,0,1.7c-0.2,0.7-0.7,1.3-0.8,1.7
			c0.4-0.9-0.8,0.7-0.8,0.8c-0.2,0.4-0.4,0.6-0.4,1.2c0,1.6,0.8,1.2,0.8,2.1c0,0-0.8,0-0.8,0c-0.4,0.5,0.4,1.5,0.8,2.1
			c-0.9-1-2,0.4-2.9,0.8c-0.3,0.2-0.9-0.2-1.2,0c-0.8,0.4-1.1,2.1-2.5,1.2c-0.6,1.9-1.7,1.8-2.5,2.1c-1.2,0.4-2.1,0.5-3.3,0
			c-0.1,1.2-1.3,1.2-1.7,2.1c-0.5-0.8-1.4-0.4-2.1-0.4c-1.2-0.1-0.1-0.5-0.4-0.8c0.1,0.1-2.4-0.5-2.5-2.1c-1.8-0.2-1.1,2.2-2.5,2.5
			l-0.8,0.8c-1.4,0.5-1.9,1.9-3.3,2.5c0,0.6,0.2,0.9,0.4,1.2c-2.4,0.3-1.6,3.3-2.9,3.7c0-0.4,0.3-0.5,0.4-0.8
			c-1.6,0.2-1.5,2.1-2.9,2.5L739.9,330.5l-0.2-0.4"/>
		<path class="st2" d="M816,305.1c-0.1-1.6,0.6-4,1.7-5c0.1-0.8-0.1-1.3-0.8-1.2c0.3-1,1.5-1.3,2.1-2.1c2.2,0.6-1.4,3.9,0,5.8
			c-0.7,0.8-1.5,1.6-2.1,2.5"/>
		<path class="st2" d="M670.6,344.2c1.2,0.1,0.3-1.6,0.4-1.7c0.1-0.1,0.8,0.1,0.8,0c0.2-0.6-0.7-1.4,0.4-2.1
			c5.4-0.1,10.4-0.7,15.4-1.2c-0.2-0.6,0.5-2.2-0.4-2.1c1.7-0.1,4.5-0.5,7.1-0.8c5.3-0.6,11-0.9,16.7-1.2c3-0.2,6.1-1,9.2-1.2
			c3.8-0.3,7.8-0.4,11.7-0.8c2.1-0.3,4.2-1,6.2-1.2c6-0.6,12.6-1.2,17.9-2.9c0.9,0.4-0.5,1.9,0,3.3c-1.7,0.4-2.1,2-2.5,3.7
			c-2.4-1.1-4.1,1.2-5,2.9c-1.1-0.2-0.6-1.2-1.2-1.2c-1.2-0.1-1.4,2.6-2.5,1.7c-0.5,0.8-0.5,2-0.8,2.9c-2-0.6-3.6,2.4-5,3.7
			c-3.6-0.1-5.6,1.3-5.8,4.6c-0.9,0.2-1.2,1-2.5,0.8c0,1.2,0,2.5,0,3.7c-11,0.9-21.9,2.5-32.9,3.3c-7.8,0.6-15.4,2-23.3,2.5
			c-3,0.2-6.1,0.2-9.2,0.4c0.1-0.9,1.1-0.8,1.7-1.2c-0.7-2-0.7-3,0.1-4.6c0,0-0.8-0.6-0.6-0.8c1.1-1,1.3-0.5,1.7-1.2
			c0.5-0.8-0.3-1.5,0-2.1c0.1-0.1,1.1-0.3,1.2-0.4c0.3-0.3,0.3-1.1,0.8-1.7c0.9-0.9-0.3-0.8-0.4-1.7c-0.1-1.3,1.6-1.7,1.2-2.9"/>
		<path class="st2" d="M818,341.7c0.1,0.7-0.5,0.9-0.4,1.7c-1,0.2-0.9-0.8-2.1-0.4c-1,1.3-2.4,2-4.6,2.1c-0.8,0.6-1,1.8-1.7,2.5
			c-0.2-0.5-0.3-1.4-1.7-1.7c1.8,3.8-3.5,4.6-3.3,9.2c-0.5-0.1-0.7-0.7-1.2-0.8c0,1.4,0.7,2.1,0.4,3.7c-2,0.6-4.5,0.8-6.2,1.7
			c-0.7-0.3-0.9-1.1-1.7-1.7c-0.5-0.3-1.6-0.5-2.1-0.8c-0.5-0.4-1.1-1.2-1.7-1.7c-0.3-0.2-0.9-0.2-1.2-0.4c-0.2-0.2-0.2-0.7-0.4-0.8
			c-0.4-0.3-0.9-0.1-1.2-0.4c-0.6-0.5-1.6-1.4-2.5-2.1c-1.3-0.9-3-2.4-3.7-2.5c-0.8-0.1-3.7,0.6-5.4,0.8c-2.1,0.3-4.2,0.9-6.7,1.2
			c-0.1-1.6-1-2.4-1.7-3.3c-4.3-1-7.7-0.1-11.7,0.4c-1.8,0.2-3.6,0-5,0.4c-0.6,0.2-1.5,0.9-2.1,1.2c-0.4,0.3-0.9,0.1-1.2,0.4
			c-0.5,0.5-0.9,0.8-2.1,1.2c-0.6,0.2-0.4,0-0.8,0.4c-1.7,1.6-7.3,1.5-10.8,2.1c-1.3,0.2-2.7,0.5-4.2,0.8c0-1.1,0-2.2,0-3.3
			c1.3,0.2,1.6-0.6,2.5-0.8c-0.3-1.3,0.7-1.2,0.4-2.5c1.1-1.7,3.4-1.3,5.4-2.5c0.9-0.5,1.5-1.7,2.5-2.5c0.5-0.4,0.7-0.9,2.1-0.8
			c0.8-1.6,1.9-2.8,2.9-4.2c0.8,0,0.5,1.1,1.7,0.8c1.4-0.8,2.3-4,4.6-2.5c1.5-1,1.2-3.8,3.3-4.2c0-1.4,0.7-2.1,0.4-3.7
			c4.7,0,8.5-0.5,13.3-1.2c5.5-0.9,12.1-2.1,18.7-3.3c3-0.6,7.2-1.7,11.2-2.5c2.6-0.5,5.2-0.7,7.5-1.2c2.2-0.5,3.6-1.2,6.2-1.7
			c3.3-0.6,4.4-0.1,5.8,2.9c-0.5-0.1-0.7-0.7-1.2-0.8c0,0.7,0.3,1.1,0.8,1.2c-1,1.1-1.9-1.7-3.3-0.4c0.1,1,2,0.2,1.7,1.7
			c-1.1,0.3-1.3,0.1-2.5,0.8c-0.2,0.5-0.5,1.2-1.2,2.1c-0.5-0.3-1.1-0.5-2.1-0.4c-0.4-1-0.3-2.5-0.8-3.3c-1.6,2,1,3.5,0.8,5.4
			c1.3,0.2,1.8-0.2,2.5-0.8c0.9-0.8,0.4,0.4,1.7,0c0.9-0.3,1.6-1,2.9-1.2c0.3,1.1,0.6,1.9-0.4,2.5c1.2,0.6,0,1,0.8,2.1
			c2-0.2,0.7-3,1.2-3.7c0.6,0,1.2,0.1,1.2-0.4c1.1,0.5,1.3,2.1,1.2,3.7c-0.4,0-0.8,0-1.2,0c-0.3,0.6-0.9,2.9-1.7,4.2
			c-1.4-0.1-3.6,0.6-3.3-1.2c-0.5,0.1-0.4,0.8-0.4,1.2c-1.5-0.1-0.8-1.4-1.2-1.7c-1.5-0.2-0.5,2-1.7,2.1c-1.8,0.3-3.2-1.2-4.2-0.4
			c1.3,1.6,4.4,1.4,6.7,2.1c0.3,1.1-0.9,0.8-1.2,1.2c-0.5,1.3,1.3,0.3,0.8,1.7c-0.7,0.4-1.3,0.9-1.7,1.7c-1.1-0.5-2.2-1.1-3.3-1.7
			c-0.7,0.7,0.9,2.2,2.1,2.5c1.6,0.4,3.4-1.3,4.6-0.4c-0.6-1.3,0.4-1.3,0.4-0.4"/>
		<line class="st1" x1="817.6" y1="340.9" x2="817.7" y2="341.4"/>
		<path class="st2" d="M817.7,341.4c0.2-0.1,0.5-0.2,1-0.3"/>
		<line class="st1" x1="817.7" y1="341.4" x2="818" y2="341.7"/>
		<path class="st2" d="M776.4,383.8c-0.4-0.2-0.7-0.4-0.8-0.8c-0.9,1.2,0.5,3.7,1.7,4.2c-0.2,0.7-0.4-0.1-0.8,0
			c-0.4,0.1-0.6,1.3-0.8,0.4c-1.1,0.1,0.6,0.7,0,1.7c-1.7,0.5-1.6-0.9-2.9-0.8c0.7-3.1-3.2-4-1.2-5.8c-2.5,1.9-0.3-0.5-2.5,0.4
			c-0.7-0.7-0.2-1.4-0.4-2.1c-0.3-0.8-0.9-1-1.2-1.7c-0.2-0.3,0.3-1,0.4-0.8c-0.4-0.5-1.4-1-2.1-1.7c-0.4-0.4-1.1,0-1.7-0.4
			c-0.7-0.4-0.4-2-1.7-1.2c0.8-0.8-0.8-1.3-0.8-1.7c-0.1-0.3,0.6-0.5,0.4-0.8c-0.2-0.3-0.6,0.4-0.4,0.4c-0.2,0-1.4-2.4-1.2-1.2
			c0-0.3,0.5-0.8,0.8-0.8c-0.1-0.6-0.7,0-0.8,0.4c-0.5-0.8-1.8-0.3-2.5-0.8c-0.2-0.2-0.2-1-0.4-1.2c-0.3-0.3-1.4-1.5-2.1-2.1
			c-0.2-0.2-1,0.2-1.2,0c-1.3-0.7-1.6-2.5-2.9-2.9c0.4-1.3,0.1,0-0.8-1.2c-0.1-0.1-0.8-0.9-0.8-0.8c-0.1-0.7,0.5-0.7,0.4-1.2
			c0-0.2-0.4,0.2-0.4,0.4c-0.1-1-0.6-1.1,0.4-1.2c-0.1-0.6-0.7,0-0.8,0.4c-0.8-1.4-4.2-0.2-4.2-2.5c-0.8,0.9-1.8,0-2.1-0.8
			c0.5-1.3,0.9-2.7,2.5-2.9c-1.1-1.1,1.2-0.9,1.2-2.1c2.5-0.5,3.3-0.2,3.3-1.7c0.5-0.3,0.7,0.4,0.8,0.4c0.6,0,0.1-0.7,0.4-0.8
			c0,0,1.7,0.5,1.7-0.8c2.2,0.1,4.8-0.5,7.5-0.8c3-0.3,6.8-1.2,7.5,0.8c0.4,0,0.3-0.5,0.4-0.8c1.4,0.5,1.8,2.1,2.1,3.7
			c0.8-0.2,1.9-0.8,2.9-0.8c0.4,0,0.9,0.4,0.8,0.4c0.4-0.1,1-0.8,1.2-0.8c1.2-0.3,3.2-0.2,4.6-0.4c0.9-0.2,2.1-0.4,2.9-0.4
			c0.6,0.1,0,0.7-0.4,0.8c0.2,0.9,0.8-0.6,1.7-0.4c0,0,0.3,1.2,0.4,1.2c0.2,0.2,1-0.1,1.2,0c0.2,0.1,0.6,0.7,0.8,0.8
			c0.6,0.3,1.1,0.4,0.4,1.2c1.4-0.4,0.7-0.4,2.5,0.8c0.4,0.3,1.6,0.7,1.7,0.8c0.3,0.3,0.1,1,0.4,1.2c0.6,0.4,2-0.1,0.8,1.2
			c0.4-0.3,0.9-0.4,1.7-0.4c0.1,1.3,2.9,1.2,1.7,2.5c0.3-0.2,0.7-0.4,1.2-0.4c-0.4,1.5-1.7,1.4-2.5,2.5c-0.3,0.4-0.1,0.5-0.4,0.8
			c-0.5,0.5-0.8,2.3-1.2,3.3c-0.1,0.2-0.6-0.3-0.4-0.4c-0.5,0.1-0.2,0.4,0,0.4c-0.5,0.1-1.7,1.6-1.7,0.8c-0.5,0.1,0.7,3.1-1.2,2.9
			c0.4,1.1,1.8-0.8,2.5,0.4c-0.1,1-1.1,1-1.7,0.4c0.2,0.8,0.8,1.5,0,1.2c-0.5-0.2,0.1,0.8,0,1.2c-1.1,0-2.8,0.2-1.7-0.8
			c-1.8,0.5,0.5,1.7-0.8,1.2c-0.4-0.1,0.3,1.4,0,1.7c-0.3,0.7-1.3,0.6-1.2,1.7c-1.2,0.1-0.8-1.4-2.5-0.8c0.3,1.1,0.8,2,1.2,2.9
			c-1.1-0.4-1.5,1.8-2.1,0.4c-0.5,0.1-0.2,0.4,0,0.4c-0.3,1.6-1.7-0.5-1.7,1.7c-2.1,0.8-4-0.6-4.6,1.7"/>
		<path class="st2" d="M736.6,413.7c-1-0.1-2.3,1-4.4,0.5c-0.5-1.5-1.5-3.3-2.5-5c-0.3-0.4-0.7-0.7-0.8-1.2c-0.3-1.2,0.2-3.2,0-4.6
			c-0.2-1.2-1.2-2.1-1.2-2.9c-0.2-2.4,0.3-5,1.7-6.7c-0.7-1-0.7-2.6-1.2-3.7c-0.2-0.5-0.9-0.4-1.2-0.8c-0.3-0.4-1.3-2.8-1.7-3.7
			c-1.3-3.5-2.2-8.4-3.3-12.5c-1.6-5.8-3.3-11-4.7-16c8.9-1.3,18.3-1.7,26.7-3.5c-0.6,1.2-1.1,2.5-2.1,3.3c0.3,2.4,3.4,1.9,4.2,3.7
			c1.3-0.3,0.8-0.3,2.1,0c1.2,1.9,2.8,5.2,4.6,6.7c0.4,0.3,0.9,0.1,1.2,0.4c0.7,0.6-0.6,0.9,1.2,0.4c-0.2,0.8,1.4,0.8,1.2,1.7
			c0,0-0.7,0.1-0.4,0.4c0,0,0.6-0.3,0.8,0c0.8,1,1.5,1.2,3.3,2.1c0.9,3.1,3.5,4.6,6.2,5.8c0.2,1.9,1.7,2.5,1.7,4.6
			c0.3,1.1,1.7,1.1,2.5,1.7c-0.8,0.7,0.2,0.7,0,0.4c1.4,1.6,1.4,2.9,2.1,5c1.4-0.2,1.9,0.3,2.9,0.4c-0.2,1.6-1.4,2.7-2.5,1.2
			c-0.2,1.4,0.3,1.9,0.4,2.9c-2.2-0.7-1.4,4.3-0.8,5c-0.9,0.2-1.1,0.7-1.7,0.8c-0.1,0-0.9-0.6-1.2,0c0.4,0.9,2.1,0.4,2.5,1.2
			c-0.1,1.5-0.6,1-1.7,0.8c0.6,3.3-0.4,4.3,0.8,6.7c-1.9,0-3.9,0-4.6-1.2c-0.6,0.8-1.4,1.4-2.1,2.1c0.6,1.1,1.4,3.6,0.4,5
			c-1.6,0.1-0.9-2.2-2.1-2.5C754.3,412.5,745.5,413.4,736.6,413.7z"/>
		<path class="st2" d="M702.3,422.5c-0.6-0.1-1.3,1.7-1.7,0.4c-1.1-0.3,0.3,2-0.8,1.7c-1.4-0.3-1-2.4-2.9-2.1
			c0.3-2.2-0.2-3.6-1.7-4.2c-0.9,1.1-0.9,3-0.8,5c-1,0-1.9,0-2.9,0c-0.9-3.4-0.8-7.1-1.2-10.8c-0.6-4.6-2.3-8.8-1.7-14.6
			c1.1-10.4,0.3-24.2,0.8-35.8c0.7-1.6-1.9-1.9-0.8-2.5c9.8-0.3,18.8-1.5,27.9-2.5c1.6,6.6,4.3,13.8,6.2,20.8
			c0.7,2.4,0.9,4.9,1.7,7.1c0.4,1.1,1.1,2.8,1.7,3.7c0.4,0.6,1.4,1,1.7,1.7c0.4,0.9-0.5,2.5,0.8,2.9c-0.8,1.4-0.9,2.2-1.2,4.2
			c-0.4,2.5-0.1,3.7,1.2,5.8c-0.1,1.3,0.3,3.1-0.4,3.7c0.1,1.8,1.6,2,1.7,3.7c-6.5,0.3-14.2,1.8-21.2,2.5c-3.3,0.4-8-0.5-9.2,2.1
			c0.3,1.9,1.9,2.5,2.9,3.7C701.7,420.5,702.5,420.7,702.3,422.5z"/>
		<path class="st2" d="M657,377.7c0.1-0.5-0.1-0.7-0.4-0.8c0.4-0.7,1.5-0.8,2.1-1.2c-1.6-3.3,4.4-4.7,2.9-7.9
			c0.6-0.9,1.2-0.9,1.2-1.7c0.1-1.9,0.4-1.2,1.2-2.5c0.2-0.3,0.6-0.6,0.4-1.2c7.4-0.9,15.6-1.1,22.9-2.1c-0.2,0.9,0.6,0.8,1.2,0.8
			c-0.5,10.5-0.3,21.1-0.8,31.7c-0.5,10.5,2,20.4,2.9,29.7v0.7c-0.9,0.2,0.5,0.6-0.4,1.2c-1.1-0.4-2-1.2-2.5,0
			c-1.2-0.3-1.4-0.8-2.5-0.8c-1.7,0-3.5,1.8-5.4,1.7c-0.8,0.5-0.9,1.6-1.7,2.1c-1.8,0.2-1.4-1.9-2.1-2.9c-0.3-1.2-1.5-1.5-2.1-2.5
			c-0.4-2.3,0.8-3.1,0.8-5c-6.7-0.9-14.2,1.1-21.7,0.8c-1.1-1.6-1-3.8,0.8-3.3c-0.5-0.6-0.4-1.9-0.4-2.1c-0.2-0.7,0.1-1.4,0.4-2.1
			c0,0,0.7-0.2,0.4-0.4c-1.2-1,2.1-1.7,0.8-3.3c1.1-0.8,2.1-1.8,2.9-2.9c-0.2-1.2,1.3-2.3-0.8-2.1c0.8-0.5,1.4-1.3,2.5-1.7
			c-0.2-1.2-1.4-1.4-2.1-2.1c0.9-0.9-0.4-1.3,0.4-2.1c-0.1-0.6-1-0.3-1.7-0.4c0.4-0.4,0.8-0.8,1.2-1.2c-0.1-0.5-0.8-0.4-1.2-0.4
			c-0.2-1.3,0.5-1.7,1.2-2.1c-0.1-0.9-1.6-0.4-1.7-1.2c-0.6-1.7,1.5-1.6,0.8-3.7c-0.1-0.2-0.8-0.7-0.8-0.8c-0.1-0.8,0.5-1.4,0.4-1.7
			c-0.4-1.2-1.5-1-1.2-2.1c0.6-0.5,0.6-1.7,1.7-1.7c-0.1-0.5-0.8-0.4-1.2-0.4c0-0.8,1.4-0.3,1.2-1.2"/>
		<path class="st2" d="M785.1,434.6c0.5,0.1,0.7,0.7,1.2,0.8C786.2,436.5,784.8,435.5,785.1,434.6z"/>
		<path class="st2" d="M789.5,482.9c0.6-0.2,1.5-0.2,1.7-1"/>
		<line class="st1" x1="791.2" y1="481.9" x2="791" y2="482.1"/>
		<line class="st1" x1="763.1" y1="447.5" x2="762.6" y2="447.3"/>
		<line class="st1" x1="762.6" y1="448.6" x2="763.1" y2="448.4"/>
		<line class="st1" x1="762.2" y1="448.4" x2="762.6" y2="448.6"/>
		<line class="st1" x1="762.6" y1="447.3" x2="762.2" y2="447.5"/>
		<path class="st2" d="M762.4,447.9c-0.4-3.5,1.4-8-0.2-12.1c-1.5-0.7-1.8-2.6-2.9-3.7c-1-0.5-2,0.9-2.1,0c-2.2-0.8-2.9-3.2-5.4-3.7
			c0.7-2.1-1.3-1.9-2.5-2.9c-0.7-0.6-0.6-1.6-1.2-2.1c-0.3-0.2-3.4-1.5-4.2-1.7c-0.9-0.2-2.5-0.2-3.3,0c-0.6,0.2-0.6,0.6-1.2,1.2
			c0,0-1.3,1.2-1.2,0.8c0,0.2,1,0.7,1.2,0.4c-0.6,0.6-1.3,0.4-2.1,0.8c-1.3,0.7-1.9,1.7-2.5,2.5c-0.6,0.5-0.9-0.8-0.8-0.8
			c-0.8,0.2-0.8,1.2-1.7,1.7c-1.1,0.6-2.3-0.3-2.9,0.8c-0.6-1.7-1.2-3.5-3.3-3.7c0.4-0.6,0.7,0.2,1.2-0.8c-1-0.8-2.2-1.5-3.7-1.7
			c0.5-0.7,1.3-1.2,1.7-2.1c-0.1-1.3-1.3,0.8-1.7,0.8c-0.7,0.2-2.1-1.2-2.1,0.8c-1.4-0.1-2-1.1-3.7-0.8c2.2-2-2.1-2.2-3.3-2.5
			c-1.1,1.7-3.7,1.8-5.8,2.5c0-0.7-0.7-1.4-0.8-2.9c-1.3-0.3-0.4,1.4-0.8,1.7c-0.1,0.1-0.5-0.8-0.8-0.8c-0.9-0.1-0.4,1.3-1.2,2.5
			h-0.8c-0.3-0.7-2.2-1.9-0.8-2.9c-0.5-1.5-2.8-1.3-2.9-3.3c0.6-2.6,3.3-1.4,5-1.7c7.6-1.1,17.1-2,25-2.9c0.5,1.1,1.1,2.2,1.7,3.3
			c10.8,0,21.9-2,31.7-1.7c-0.1,1,0.2,1.7,0.8,2.1c3.6,0.2,0.3-5,1.7-6.2c1.2-0.6,3.3,1,5.8,0.4c0.5,1.3-0.2,3.1,1.7,3.7
			c0,2.6,1.5,4.8,2.5,7.1c2.2,5,5.2,10.1,9.2,13.7c-0.2,0.6-0.5-0.2-1.2,0c-0.3,2,0.8,3.7,1.7,5.4c0.8,1.5,2,3.2,2.9,4.6
			c0.7,1.1,1.1,1.9,2.1,2.9c1.3,1.4,2,4.7,3.7,6.2c0,0.6,0.1,1.2-0.4,1.2c2.1,0.9,2.6,1.6,3.7,5c0.8,2.3,1.6,10,0.8,13.3
			c-0.2,1-1.1,2-1.2,2.9c-0.1,1,0.5,2,0.4,2.9c-0.1,1-1.2,1.5-0.8,2.5c-2.5-0.4-3,2.9-5.4,1.2l-0.2-0.2l-0.2,0.2
			c-0.1-1.3-0.9-1.8-2.5-1.7c-1-1.4-2.2-2.7-3.3-4.2c-0.9-1.1-0.9-2-2.5-2.5c-1.2-0.4-2.3,0.3-3.3-0.4c-0.9-1.5-1.8-2.9-2.1-5
			c-0.1-0.9-1.1-0.8-1.7-1.2c0.1-1.6,1-2.4,1.7-3.3c-2-0.3-1.7,1.6-2.5,2.5c-1.4-0.6-1.6-4-0.8-5.4c-0.5-0.7-1.7,1.1-2.9,0
			c-1.2,0.5,1.3,0.9,0.8,2.1c-3-0.6-4-3.3-5-5.8c-0.2-1.3-2-1.1-2.1-2.5c1.4,0.1,0.9-1.8,1.2-2.5c0.4-0.7,1.6-1.1,1.2-2.1
			c-0.5-2.3-2-0.9-4-2.1l-0.2,0.4c0.8,0.2,0,1.9,1.7,1.2c-0.3,0.4-0.4,0.9-0.4,1.7c-1.6,0.4-1.2-1-2.5-0.8c-0.3-1.2,0.6-1.1,0.4-2.1
			L762.4,447.9z"/>
		<path class="st2" d="M656.4,390.9c1,0.1-0.1,0.9,0,1.7c0.1,0.5,0.8,1.2,0.8,1.2c0,0.5-1,0.7-0.8,1.2c0.1,0.5,0.7,0.5,0.8,0.8
			c0.1,0.3-0.2,0.9,0,1.2c0.4,0.8,1.1,1.3,1.7,2.1c-0.3,1.1-1.9,0.9-2.1,2.1c0.3,0.4,0.8,0.6,1.2,0.8c-0.1,0.5-2.4,1.2-0.4,1.2
			c-0.8,1.1-1.8,2.1-2.9,2.9c0.8,1.6-1.7,3.4-1.7,4.2c0.1,0.7,0.5,0.9,0.4,1.7c0,0.1-0.8-0.1-0.8,0c-0.4,0.4,0.8,1.1,0.4,1.7
			c-0.3,0.2-0.7,0.4-1.2,0.4c0.5,1.4,1.2,3.3,0,4.2c7.5-0.7,15.5-0.9,22.9-1.7c-0.6,1.1-0.6,2.8-1.2,3.7c0.8,2.7,2.5,3.9,3.7,6.7
			c-0.5,1.4-1.2-0.2-2.1-0.4c-0.6-0.1-1.5,0.2-2.1,0c-0.5-0.2-1.5-2-2.9-1.7c-1.5,0.8-2.6,2.1-2.9,4.2c2,2.2,6.9-0.2,7.9-0.4
			c1.5,0.7-1,0.8-0.8,1.7c0.6,1,1.9,1.2,2.9,1.7c1.2-0.3,0.3-2.8,2.1-2.5c-0.5,1.7,0.9,1.6,0.8,2.9c-1.9-0.2-2.8,0.7-2.1,2.1
			c-2-0.2-0.4,0.7-1.7,1.2c-0.5,1.5,1.7,1.1,2.5,1.7c0.2,0.2,0.1,1.1,0.4,1.2c0.2,0.1,0.8-0.6,1.2-0.4c0.2,0.1,0.9,1.5,2.5,0.8
			c0.8,1,1.7,1.8,0.8,3.3c-1-0.2-1.5-1-2.1-1.7c-0.4,0.3-0.4,1-1.2,0.8c0.1-0.7-0.5-0.9-0.4-1.7c-1.3,0.6-1.9-0.6-2.5-0.8
			c-0.3-0.1-1,0.2-1.2,0c-0.2-0.2-0.2-1-0.4-1.2c-0.7-0.6-1.3,0.1-2.5-0.4c-0.8-0.3-1.6-1.5-2.9-1.2c-0.5,2,1.6,1.5,2.1,2.5
			c0.7,1-0.8,1.1-0.8,1.2c-0.2,0.6,1.4,2.2-0.4,2.5c-1.4,0.4-0.6-1.3-0.8-2.1c-0.4-0.3-1.7,0.3-2.1,0c-0.4-0.4,0.3-1-1.2-0.4
			c-1.1,0.4-1.8,1.1-2.1,2.9c-1.2,0-3.7-1.5-4.6-0.8c-0.4-2.1-2.6-2.4-2.1-5.4c-0.9-0.2-0.8,0.6-0.8,1.2c-1.3,0.2-1.5-0.7-2.9-0.4
			c-0.3-1.8-1.4-2.8-3.7-2.5c0-0.4,0-0.8,0-1.2c-1.5,0.4-2.6,1.3-4.2,1.7c-1.2,0.5,1.3,0.9,0.8,2.1c-0.9-0.6-1.3,0.8-2.1,0.8
			c-0.7,0.1-2.3-0.7-3.3-0.8c-2-0.2-3-0.6-5-1.2c-1.1-0.4-1.8-1.2-3.3-0.8c0.9-1.6,0.1-3.2-0.8-4.2c-0.2,1.1-1.4,3.3-0.8,3.7
			c-0.9,1.4-3.9,0.6-5.4,1.2c-0.6-0.9,0.9-1,1.2-1.7c0.3-0.6-0.2-1.5,0-2.1c0.1-0.4,0.8-0.7,0.8-1.2c0.1-1.2-0.8-1.8-0.8-2.9
			c-0.1-0.8,0.2-2.6,0.4-3.3c0.2-0.9,1.4-1.8,1.7-2.9c0.4-2,0.2-4.9,0-5.8c-0.2-0.7-1.4-1.1-1.7-1.7c-0.5-0.8-0.2-3.1-1.7-3.3
			c0.4-3.5-1.7-4.4-2.9-6.2c0.3-4.9-0.5-8.7-0.4-13.3c7.7-0.1,16.3-0.8,24.2-1.2c2.7-0.1,5.4-0.2,7.9,0
			C654.9,392,655.7,391.7,656.4,390.9z"/>
		<path class="st2" d="M651.9,438.4c-0.9,0.9-1.2-0.5-2.5-0.4C649.8,436.9,651.9,436.8,651.9,438.4z"/>
		<path class="st2" d="M658.5,440.4c0.5,0.1,0.3,0.8,0.8,0.8C659,442.4,657.5,440.9,658.5,440.4z"/>
		<path class="st2" d="M587.3,462.9c-1.3-0.6-3.3-0.6-4.6,0c0.5,1,1.1,0.4,1.7,0.8c0.4,0.3,0.7,0.9,1.2,1.7
			c-0.1,1.7-1.3,2.3-1.2,4.2c-2.5,0.5-3.1-0.8-4.6-1.2c-0.1,1.3,1.1,1.4,0.8,2.9c1.5,0.1,2,0.6,3.3,0c-0.5,1.1-0.5,2.8-1.7,3.3
			c-0.9,1.9,0.9,2.5,1.2,3.7c0.3,1.1,0.1,2.6,0.4,3.7c0.3,1,1,1.6,1.2,2.5c0.4,1.5-0.3,3.2,0.8,4.2c0.2,1-1.9-0.2-1.2,1.2
			c-2,0-2.6-2.4-4.6-2.9c-1.8-0.5-3.7,0.3-6.2,0c-1.5-1.2-2.5-2.8-5.4-2.5c-0.5-1.7-2.4-2.1-4.6-2.1c-0.4-0.2-0.2-0.9-0.4-1.2
			c-0.1-0.1-0.8-0.4-0.8-0.4c-0.3-0.9-0.1-2.1-0.4-2.9c-0.6-1.9-1.8-3.3-2.9-4.6c-0.3-0.9,0.4-1.1,0.4-1.7c0-0.9-0.8-1-0.8-1.7
			c-0.1-1,0.6-2.1,0-3.3c-0.5-1.2-1.7-1.6-2.9-2.1c-1-2.3-2.7-3.9-3.7-6.2c-0.4-0.7-1.5-0.8-2.1-1.2c-0.3-0.9-0.6-1.6-0.8-3.3
			c0-0.1-0.2-1.1-0.8-2.1c-0.1-0.2-0.8-0.3-0.8-0.4c-0.1-0.2,0.1-0.6,0-0.8c-0.4-0.7-0.6-1.4-1.2-2.1c-0.3-0.4-0.4-1.9-0.8-2.9
			c-0.7-1.9-2.4-2.9-3.7-4.6c-0.6-0.7-1.8-2.1-2.9-2.9c-0.2-0.1-0.6-0.2-0.4,0c-1.4-1.4-1.5-2.2-2.5-3.3c-1.8,0.4-4.4,0.2-7.1-0.4
			c-1.5-0.4-3.2-1.9-4.2,0.4c-1.4-0.6-3,0.2-3.7,1.2c-0.7,0.9-1.3,2.8-2.1,4.6c-0.7,1.5-2.4,3-3.7,4.2c-2.4,0.1-4.1-1.7-5.8-2.9
			c-0.5-0.4-0.9-1.1-1.2-1.2c-0.9-0.5-2.1-0.3-2.9-0.8c-1.7-1.2-2.6-3.8-5-4.2c-0.1-2.4-2.8-3.6-2.1-6.7c0.2-1,0.3-1.8-0.4-3.3
			c-0.1-0.2-0.2-0.9-0.4-1.2c-0.1-0.1-0.8-0.3-0.8-0.4c-0.2-0.5,0.2-1.2,0-1.7c-0.4-0.7-0.8-1.2-1.2-1.7c-0.6-0.7-1.3-1.5-2.1-2.1
			c-0.6-0.4-1.8-0.6-2.5-1.2c-0.5-0.5-0.8-1.5-1.2-2.1c-0.5-0.7-1.2-1-1.7-1.7c-1.8-2.2-2.9-4.2-5.8-5.4c-0.1-1.2-0.8-1.7-0.8-2.9
			c-1-1.6-3.7-1.6-3.3-4.6c13.1,1.5,26.5,2.6,40.4,3.3c0.5-0.1,0.7-0.7,1.2-0.8c1.2-20.6,2.8-40.8,4.2-61.2
			c10.6,0.8,21.8,0.9,32.5,1.7c0,9.1-0.1,17.9-0.8,26.2c1.9,0.5,2.8,1.9,4.2,2.9c2.1,0.3,3.4-0.5,4.6,0c0.7,0.6,0.1,2.4,0.8,2.9
			c3.2,0.1,6.1,0.6,7.9,2.1c1.6-1,1.7-1.1,4.2-0.8c-0.2,1.3,0.4,1.9,1.7,1.7c-0.1,1,0.1,1.6,0.4,2.1c1.5,0,1.9-1.2,2.9-1.7
			c1,0.4,1.7,1.1,2.1,2.1c1.2,0.1,2.1-0.1,2.5-0.8c0.9,0.2-0.1,2.3,1.2,2.1c0.9,0.1,1.1-1.3,1.7-2.1c0.2-0.2,0.5-0.4,0.4-0.8
			c1.6,0.6,2,1.7,4.2,0.8c0.6,1.4,2.4,1.5,3.3,2.5c0.8-0.9,2.1-1.2,2.9-2.1c1.2-0.4,1.3-0.4,2.5,0c1-0.2,1.7-0.8,2.5-1.2
			c0.8,0.5,3.2,1.8,4.2,0c1.8-0.5,3.1,2,4.2,2.5c0.3,0.2,0.9-0.2,1.2,0c0.2,0.1,0.3,0.8,0.4,0.8c1.3,0.5,3.2-0.1,3.7,1.7
			c1.2-0.5,2.6-0.5,3.7,0c0.5,6.8,0.6,14.2,0.8,21.2c0.6,1,1.7,1.7,2.5,2.5c-0.2,1.3,0.9,1.6,0,2.5c0.3,0.5,0.4,1.1,0.8,1.7
			c0.3,0.4,1.1,0.8,1.2,1.2c0.2,0.3-0.2,0.9,0,1.2c0.8,1.4,1.8,1.6,1.7,4.2c0,0-0.5,0-0.4,0.4c0.1,0.3,0.4,1.5,0.4,2.5
			c-1.9,2.1-2.5,6.6-1.2,9.6c-0.9,1.4-4.3,3.4-2.1,5.4c-1.1,0.6-1.9,0.5-2.9,0.8c-1.1,0.4-2,1.4-2.9,1.7c-0.7,0.2-0.7-0.5-1.2-0.4
			c-0.4,0-1.9,0.6-2.9,0.4c0.6-0.5,0.4-1.8,0.4-2.9c-1.5-1.2-1.8,1.1-2.5,1.2c-0.8,0.2-0.9-1.6-1.7-0.4c0,2.2,0.9,3.1,1.7,5.4
			c-1.4,0.3-1.5,1.9-2.9,2.1c-0.1,3.6-3.7,3.8-5.4,5.8c-1.6-0.3-2,0.5-3.3,0.4c-0.6,0.1-0.3,1-0.4,1.7c-0.9,0.2-0.6-0.8-1.2-0.8
			c0.4,0-1.6,0.9-2.1,0.4c-0.1-0.1,0.1-0.8,0-0.8c-0.8-0.3-2.3,1.4-2.5-0.8c-1.2,0.4,0.2,1.3,0,2.1c-1.8,0.3-1-2.1-2.9-1.7
			c-1,0.9,2.4,2.6,0.8,4.2c0.4-0.3,0.9-0.4,1.7-0.4c-1.3,2-2.9,1.6-4.2,0c-1,1.2,0.7,2.9-0.8,3.7c-0.6-1.8-2.8,1.4-4.2,0
			c0.5,1.3-0.4,2.3,1.2,2.9c-0.1-0.7,0.4-0.7,0.4-1.2C589.6,460.8,587.1,461.6,587.3,462.9z"/>
	</g>
	<g>
		<path class="st2" d="M273.4,455.1c1.3-0.1,1.4,1.1,1.7,2.1C274.4,456.6,273.5,456.3,273.4,455.1z"/>
		<line class="st1" x1="234.7" y1="465.9" x2="234.3" y2="465.9"/>
		<path class="st2" d="M234.2,466.3l0.7-0.2c0.7,1,2.1,1.5,2.6,2.7c0.7,1.5,1.7,1.7,2.5,2.9c0.3-0.5,1.4-1.7,2.7-1.6
			c0.3,0,0.9-0.3,0.8-0.4c-0.2-0.3-1.2,0.1-1.4-0.1c-1.7-1.6-3.9-2.5-4-2.9c-0.2-0.5-0.5-1.5-1.2-1.7c-0.6-0.2-0.9,0.4-1.7,0.8
			c-0.3,0.2-0.8,0-1.1-0.4c-0.9-0.8-1.5-0.9-2.8-1.2c-0.4,1.2-0.4,1.7,0,2.9C233,467.6,232.9,466.2,234.2,466.3"/>
		<path class="st2" d="M418.8,505.4c-0.9-0.2-0.9-0.6-0.4-1.2c-0.5-0.1-0.7,0.1-0.8,0.4c-1.6-1.3-2.9-3-3.3-5.4
			c0.5,0.1,0.7-0.1,0.8-0.4c1.6,0.2,1.6,2.5,2.9,3.3c0.4,0.3,1.3,0.1,1.7,0.4c0.5,0.6-0.1,2.3,1.2,2.1c-0.2,0.9-0.6,0.9-1.2,0.4
			c0,0.1,0,0.3,0,0.4"/>
		<line class="st1" x1="419.6" y1="505.4" x2="419.2" y2="505.2"/>
		<line class="st1" x1="419.2" y1="506.1" x2="419.6" y2="505.8"/>
		<path class="st2" d="M419.6,505.8c1.7,0.4-0.2,1.9-0.4,2.9c-0.9-0.2-0.2-2.1-0.4-2.9"/>
		<line class="st1" x1="418.8" y1="505.8" x2="419.2" y2="506.1"/>
		<line class="st1" x1="419.2" y1="505.2" x2="418.8" y2="505.4"/>
		<path class="st2" d="M255.1,501.7c-0.5,1.2-0.5,2.2,0,3.3c-3.5,1.3-6.4-0.5-7.9-2.5c0.4-1.4,0.8-0.2,2.1-0.4
			c0.5-0.8,2.2-0.6,2.5-1.7C252.9,500.8,253.9,501.3,255.1,501.7z"/>
		<path class="st2" d="M410,506.3c-1,0.6-1.2-0.6-1.7-0.8c-0.2-0.1-0.7,0.1-0.8,0c-1.3-1.2,0.4-0.8,0.4-0.8c0.5-0.7-1.4-1.4-1.7-1.7
			c0.2-0.7,1.3-0.4,0.8-1.7c0.8,0.1,1.3-0.1,1.2-0.8c0.4,0,0.8,0,1.2,0c0.8,1.4-1.5,1.3-0.4,3.3c0.7,0.2,2.4-0.5,2.5,0.4"/>
		<line class="st1" x1="413.6" y1="505" x2="413.4" y2="504.6"/>
		<path class="st2" d="M413.4,504.6c0.2-0.5,0.5-0.9,1.2-0.8c0.2,0.8,0.9,1,0.8,2.1c-1,0.1-1.6-0.1-2.1-0.4"/>
		<line class="st1" x1="413.4" y1="505.4" x2="413.6" y2="505"/>
		<line class="st1" x1="410" y1="505.4" x2="409.8" y2="505.8"/>
		<line class="st1" x1="409.8" y1="505.8" x2="410" y2="506.3"/>
		<path class="st2" d="M413.4,501.3c0.1,1.2-1.6,1,0,1.7c-0.6,1.2-1.6-0.5-2.9,0c0-0.6,0-1.1,0-1.7
			C411.8,501.4,412.5,500.3,413.4,501.3z"/>
		<path class="st2" d="M413,507.1c0.7,0.8,1.1-0.3,2.5,0c1,1,1.6,2,2.5,3.3c0.7,1,2,2.1,2.5,3.3c0.4,0.9-0.3,2.1,0.8,2.5
			c-1.2,0.7-3-1.7-3.3-3.3c-0.1-1.1-0.7,0.6-1.7,0c-0.4-0.8-0.1-1.4-0.4-2.1c-0.3-0.6-1.8-0.7-1.2-2.1c-0.1-1.1-0.7,0.6-1.7,0
			C413,508.2,413,507.6,413,507.1z"/>
		<path class="st2" d="M428.8,508.3c0.9,0.3,2.3,1,1.2,2.1C429.2,510.1,428.9,509.3,428.8,508.3z"/>
		<path class="st2" d="M423.8,513.3c-0.7-0.4-1.7-0.4-0.8-1.2c-0.4-1.2-1.1,0.6-1.7-0.4c0.2-0.6,0.6-1,0.8-1.7
			c0.9-0.2,0.8,1.2,1.2,1.7c0,0,1.5-0.8,0.8,1.2"/>
		<line class="st1" x1="424.2" y1="512.9" x2="423.8" y2="512.9"/>
		<path class="st2" d="M424.1,514.9c0.5-0.7,0.1-1.4-0.3-2"/>
		<line class="st1" x1="423.8" y1="512.9" x2="423.8" y2="513.3"/>
		<path class="st2" d="M433.4,510.4c0.3,0.7,2-0.1,1.7,1.2C433.9,511.8,433.2,511.5,433.4,510.4z"/>
		<path class="st2" d="M430.9,512.9c-0.5-0.1-0.7-0.7-1.2-0.8C430.2,510.7,432,511.7,430.9,512.9z"/>
		<path class="st2" d="M432.5,511.7c0.4-0.1,0.4,0.2,0.4,0.4c0.9,0.6,2.5,0.5,2.1,2.5c-0.8-0.6-2-0.8-2.9-1.2
			C432.4,513,432.6,512.4,432.5,511.7z"/>
		<path class="st2" d="M428.4,515.4c1.4,0.6-0.9,1-0.4,2.1C426.7,517,428.2,515.9,428.4,515.4z"/>
		<path class="st2" d="M321.8,521.7c0-0.7,0-1.4,0-2.1c1,0.6,3.1-0.1,2.9,1.7c-1.3-0.2-1.1,1.4-2.1,0.4"/>
		<line class="st1" x1="322.6" y1="521.7" x2="322.2" y2="521.5"/>
		<path class="st2" d="M321.4,522.2c0.3,0,0.6-0.4,0.8-0.7"/>
		<line class="st1" x1="322.2" y1="521.5" x2="321.8" y2="521.7"/>
		<path class="st2" d="M314.7,533.7c0.6,0.1,0.3,1,0.4,1.7c-0.3-0.2-0.7-0.4-1.2-0.4C314,534.5,314.6,534.3,314.7,533.7z"/>
		<path class="st2" d="M278.9,552.9c0.3,0.2,0.7,0.4,1.2,0.4c0,0.3,0,0.6,0,0.8c-0.5-0.1-0.7,0.1-0.8,0.4
			C278.7,554.4,278.9,553.5,278.9,552.9z"/>
		<path class="st2" d="M263.4,558.7c-0.8,0.7-2.8,0.3-4.2,0.4c-1.7,0.4-2,2.9-4.2,1.7c-0.4-2.5,2.3-1.9,2.1-4.2
			C260.1,556.6,264,553.3,263.4,558.7z"/>
		<path class="st2" d="M249.3,563.3c-0.1,1-1.1,1-1.7,0.4C248,562.5,248.2,563.3,249.3,563.3z"/>
		<path class="st2" d="M236.4,568.3c-0.1,1.5-2.1,2.6-3.3,1.7C233.3,568.6,234.4,568,236.4,568.3z"/>
		<path class="st2" d="M239.3,570c0.3,1.1-2-0.3-1.7,0.8C236.2,570.1,238.4,569.7,239.3,570z"/>
		<path class="st2" d="M233,570.8c-0.1,1.3-1.5,1.3-2.1,2.1C229.8,572,231.4,570.3,233,570.8z"/>
		<path class="st2" d="M196.4,573.3c1.7,0.1-0.4,3.2-1.2,2.1C195.9,575,196.1,574.1,196.4,573.3z"/>
		<path class="st2" d="M180.2,575c0.7-0.1,0.7,0.4,1.2,0.4c-0.4,0.6-1,0.9-2.1,0.8C179.6,575.8,180.3,575.8,180.2,575z"/>
		<line class="st1" x1="385.9" y1="492.9" x2="385.9" y2="492.5"/>
		<line class="st1" x1="388" y1="490.4" x2="388.2" y2="490.6"/>
		<line class="st1" x1="385.3" y1="489.2" x2="385.5" y2="489.6"/>
		<line class="st1" x1="343" y1="488.8" x2="342.6" y2="488.8"/>
		<path class="st2" d="M342.5,489.9c0.1-0.3,0.1-0.8,0.1-1.2"/>
		<line class="st1" x1="342.6" y1="488.8" x2="342.2" y2="488.8"/>
		<line class="st1" x1="283" y1="548.3" x2="282.6" y2="548.1"/>
		<line class="st1" x1="281.1" y1="549.2" x2="281.4" y2="549.6"/>
		<line class="st1" x1="280.9" y1="548.7" x2="281.1" y2="549.2"/>
		<path class="st2" d="M281.1,549.2c0.6,0,1.6-0.2,1.5-1"/>
		<line class="st1" x1="282.6" y1="548.1" x2="282.2" y2="548.3"/>
		<line class="st1" x1="256" y1="488.8" x2="256.2" y2="488.4"/>
		<line class="st1" x1="279.3" y1="460.9" x2="279.7" y2="460.9"/>
		<line class="st1" x1="278.9" y1="460.1" x2="278.9" y2="460.5"/>
		<path class="st2" d="M278.9,460.5c-0.3-0.2-0.7-0.4-1.2-0.4c-0.3-0.7,2-0.7,1.7,0"/>
		<line class="st1" x1="279.3" y1="460.1" x2="278.9" y2="460.1"/>
		<path class="st2" d="M278.9,460.1c0.4,0.2,0.6,0.5,0.8,0.8"/>
		<line class="st1" x1="279.7" y1="460.9" x2="279.7" y2="460.5"/>
		<line class="st1" x1="385.5" y1="488.8" x2="385.3" y2="489.2"/>
		<path class="st2" d="M386.9,490c-0.6,0-1.1-0.5-1.7-0.8l0.2,0.4c-0.4,0-0.8,0-1.2,0c-1,3.1-3.5,5.7-7.9,4.2
			c0.3-1.4-0.5-1.8-0.8-2.5c-0.6,0.5-0.6,1.6-1.2,2.1c-1.6-0.6-3.5-0.7-5-0.4c-0.7,0.1-1.2,0.9-2.1,1.2c-1.1,0.5-3.3,0.2-3.7,1.7
			c-1.7-0.5-2.1-2.4-5-1.7c-0.6-0.8-0.6-3.4,0-4.2c-1-0.6-2.1,2.4-2.5,3.7c-1.4,0-3.1-1-2.1-2.1c-0.7,0-1.4,0-2.1,0
			c-0.7-0.8,0-0.5,0-1.7c-1.8-1.1-2.2,0.8-3.7,0c0-0.3,0-0.6,0-0.8c-0.4-1.5,1.8-0.4,2.1-1.2c-0.1-0.6-1.2-0.1-1.2-0.8
			c-2,1.1-3.2,3.8-5.4,1.7c-0.1,0-0.3,0-0.4,0h-0.8c0.3-0.4,0.4-0.9,0.4-1.7c-1.3-0.2-0.9,1.4-1.2,2.1c-1.2-0.3-1.1,0.6-2.1,0.4
			c-0.6,1.6,1.1,0.8,0.8,2.1c-0.6,0.5-1.9,0.4-1.7,1.7c0.1,0.5,0.8,0.4,0.8,0c0.4,0,0.8,1.8,1.2,0.4c1.3,0.6-1.4,0.7-1.2,1.7
			c0.8,0.6,1.5,0.2,2.9,0c-0.7,0.7-0.9,1.9-1.7,2.5c0.1,0.5,0.8,0.4,1.2,0.4c-0.7,0.8-0.9,2.1-1.7,2.9c-1.6,0-2.6-0.4-3.7-0.8
			c-0.8-0.1,0.4,1.1-0.4,1.7c-0.2,0.1-1.2-0.2-1.2,0c-0.6,1.1,0.8,2.8-1.2,1.7c0,1,0.8,1.3,0,2.1c-1-2.3-1.2,1.8-2.5,0.4
			c-1.1,0.1,0.6,0.7,0,1.7c-0.6,0.4-1.3,0.6-1.2,1.7c-0.9,0.2-1.1-0.3-1.7-0.4c-0.6,0.1,0,0.7,0.4,0.8c-1.1,0.2-1.4,0.7-2.9,1.2
			c-0.2-0.4-0.4-0.7-0.8-0.8c0.1-1.3,0.9-1.8,2.5-1.7c0.1-1.3,1.4-2.4,2.1-4.2c-1.7,0.1-1.9,1.7-3.7,1.7c0-0.4-0.5-0.3-0.8-0.4
			c0-3.9,3.6-6.6,1.2-10.4c1.9-0.1,2.1-2.4,3.7-2.9c0.6-0.2,1,0.4,1.7,0.4c1.5,0,3.4-0.8,5,0c-0.3-2.1-3.5-1.2-4.6-2.5
			c0.5-1.7,1.7-2.7,2.9-3.7c-1.6-1.3-3.2,0.9-3.3,2.5c-1.8-0.1-2.1,0.8-2.5-0.8c-0.3,1-1,1.1-2.1,2.1c-1,0.9-1.7,2.3-3.3,2.9
			c0.4,0.8-1.2,1.4,0,1.7c-0.8,1-1.5,2.1-2.5,2.9c0.3,1.6,0.3,1.7-0.4,2.9c-1.5,0.3-1.8-0.7-3.3-0.4c0.3,1.5,2.4,1.2,2.9,2.5
			c0.1,2.1-2.2,1.7-3.3,2.5c0.2,0.8,1.9,0,1.2,1.7c-0.7,0.2-0.8-0.3-0.8-0.8c-0.7,0.4-0.5,1.7-2.1,1.2c0.4,3.3-3.1,2.7-2.1,6.7
			c2.9-0.4,3.3-0.1,5,1.2c-0.6,0.3-0.5,1.4-0.8,1.7c-0.6,0.6-1.2,0.5-1.7,0.8c-0.2,0.1-1.6,1.2-1.7,1.7c-0.1,0.3,0.7,0.7,0.4,1.2
			c-0.1,0.3-1.5,0.1-1.2,0.8c0.3,0.4,1,0.4,0.8,1.2c-0.6,0.3-1.1,0.1-1.7,0.4c-0.4,0.2-0.2,0.5,0,0.4c-0.2,0.1-2.6,0.9-2.9,1.2
			c-0.2,0.2,0.1,1,0,1.2c-0.1,0.2-1.4,0.3-0.8,1.2c-0.7,0.1-0.7-0.4-1.2-0.4c-0.5,0.8-1,1.5-1.2,2.5c-2.3-0.1-2.5,2-4.2,2.5
			c0.2,0.7,1.3,0.4,0.8,1.7c-0.1,0.6-0.4,1.7-1.2,2.1c-0.3,0.1-1-0.2-1.2,0c-0.9,0.6-1.6,2.1-2.5,1.2c-0.9,0.1-0.1,1.8-0.8,2.1
			c-1.1,0.8-1.4-1.1-2.5,0.4c-0.2,0.7,0.3,0.8,0.8,0.8c-1.5,0.8-3.6,1.1-4.6,2.5c0.4,1.2,1.3-0.2,2.1,0c-0.7,1.7-2.7,2-3.3,3.7
			c-1.6,0.2-3.1,0.5-3.3,2.1c-0.5,1.3-0.5-1.2,0-1.2c-1.5-0.3-2.2,0.3-2.9,0.8l-1.7,1.2c-0.5,0.5-0.8,1.2-2.1,0.8
			c-0.3,0.8-0.6,0.3-1.7,0.8c-0.2,0.1-1.4,1.8-2.1,0.8c-0.2-0.9,0.6-0.8,1.2-0.8c-0.4-0.6-0.4-1.6-1.2-1.7c-1.3-0.4-1.3,0.7-2.1,0.8
			c0,0.9-0.1,1.9-0.4,2.5c-0.2,0.4-1,0.1-1.2,0.4c-0.4,0.5,0.2,0.9-0.4,1.2c-0.5,0.3-1.2,1.1-1.7,0.8c-1.2-2.2-0.4-3.4,0.8-5.4
			c0.6-0.9,0.6-0.6,2.1-1.7c1-0.7,2.2-1.7,4.2-1.7c0.8,0.8,1.5,1.8,2.5,2.5c0.5-0.1,0.4-0.8,0.4-1.2c0.3,0.4,1.1,0.2,1.2,0.8
			l1.2-0.4c0.2-1.1-0.2-1.5-1.2-1.2c-0.4-3.1,0.8-3.2,2.5-5c0.3-0.3,0.5-1,0.8-1.2c1.5-1,4.1-0.7,4.6-2.9c0.7-0.1,0.7,0.4,1.2,0.4
			c1.2-0.1,0.8-1.7,0.8-2.9c1.4-1.6,2.9-3,4.2-4.6c0.9,0.2,2.3,1,2.5-0.4c-0.6-0.1-0.7-0.6-1.7-1.2c0.5-1.2,0.5-2.9,0.4-4.6
			c1,0,1.2-0.7,2.5-0.4c-0.1-0.9-1-0.9-2.1-0.8c-0.4-3,1.4-3.9,2.9-5c-1.2-1.9,0.9-2.2,0.4-4.6c-1,0.2-0.9,1.6-1.2,2.5
			c-1.8,1-3.8,1.7-5.4,2.9c-1.4,0.1-1.2-1.3-2.1-1.7c-0.3-1.1,0.8-0.8,0.8-1.7c1.3-0.4,0.6,1.4,1.7,1.2c1.6-1.9-2.6-1.5-2.5-3.3
			c-0.9,0.8-0.2,3.3-2.1,2.1c0.8,2.1-0.9,2.8,0.4,5.4c-1.2,0.5-1.4-1-2.1-1.7c-0.5-0.5-1.4-2.3-2.1-3.3c-0.6,0.2-1,0.6-1.2,1.2
			c-0.8-1-2-1.6-2.9-2.5c-1.1,1.3-2.7,1.5-4.2,2.5c-0.9,0.6-1.6,1.9-2.9,2.1c0.7-1.9-0.6-3.4,0.8-4.2c-0.3-1-1.4-1.1-1.7-2.1
			c0-1.3,0.9-1.6,1.2-2.5c0.5-1.2-0.7-2.1-1.2-3.3c-0.2-0.3,0.2-0.9,0-1.2c-0.1-0.3-0.8-0.6-0.8-0.8c-0.2-0.5,0.1-1.2,0-1.7
			c-0.1-0.2-0.8-0.9-0.8-0.8c0-1.8,1.3-2.7,2.5-4.2c-0.3-0.4-0.8-0.6-1.2-0.8c-1,1.5-1.4,3.6-2.9,4.6c-0.1,1.2,1.4,0.8,0.8,2.5
			c-0.4,0.8-0.8-0.2-1.2,0c-1.3,0.5-2.2,2-4.2,2.1c-0.8,0-1.4-0.7-2.5-0.4c-0.7-0.8,0-0.5,0-1.7c-0.8-1.3-2.5-1.7-2.5-3.7
			c-1.7,1.4-1.3-2.1-2.9-2.1c0.8-1,1.9-1.7,2.5-2.9c0.8,0.2,1,0.9,2.1,0.8c0.4,1.3-0.7,1.3-0.8,2.1c1.5,0.1,1.5-1.3,2.9-1.2
			c-0.2,0.9,0.3,1.1,0.4,1.7c3.2-0.4,1.3-2.6,0.8-4.6c-2,2.2-3.7,0.1-6.7,0c0.1-0.9,1.8-0.1,1.7-1.2c-0.1-0.6-1-0.3-1.7-0.4
			c0.5-0.2,0.5-2,0-0.8c-1.6-1.9,2.3-1.8,2.1-3.7c-0.6-0.7-1.9,1.4-2.9,1.7c0.1,1.3-1.1,1.4-0.8,2.9c-0.9-0.3,0.1-2.6-1.7-2.1
			c-0.5-1.6,1.5-1.5,0.4-2.5l0.4-0.8c-0.2-0.6-0.6-1-1.2-1.2c0.1-0.6,1-0.3,1.7-0.4c-0.4-3.6,1.9-4.5,2.9-6.7
			c1.7-0.3,1.4,1.3,3.3,0.8c-0.3-0.6-0.9-0.8-1.7-0.8c-0.1-1.4,1.6-0.9,1.7-2.1c-0.1-0.5-0.8-0.4-0.8,0c-0.9-0.3-0.4-2.6,0-2.9
			c0.9-0.2,1.1,0.3,1.7,0.4c1.1-0.4-1.1-0.8-0.4-2.1c1-1,2.5-0.1,3.3,0.4c-0.2,0.6-0.6,1-0.8,1.7c1.3-0.8,2.6,0,3.7-0.4
			c1.9-0.7,2.5-3,3.7-4.2c1.4,0.3,3,0.7,4.2,0.4c1.1-0.3,2.7-2.4,2.9-3.3c0.1-0.5-0.6-1.3-0.8-2.5c-0.1-0.6,0.2-1.5,0-2.1
			c-0.6-1.5-1.8-1.9-2.1-2.9c1.3,0.8,2.7-0.6,2.9-1.7c0.3-1.3-1.8-2-0.8-2.9c-1.8-0.4-1.9,0.9-2.5,1.7c-0.7-1.9-4.5,1.6-5.4,3.3
			c-1.1-0.5-0.7-2.4-2.5-2.1c-0.5,0.1-0.4,0.8,0,0.8c-0.2,0.9-0.6-0.4-0.8-0.4c-2-0.5-4.7,0.7-7.1,0.4c-2.2-0.2-3.3-1.4-5-1.7
			c-0.3-1.4,0.3-3.5-1.2-4.6c1-0.4,1.2-1.5,2.9-1.2c-0.3-2.5-3.6-1.6-5.8-2.9c-1-0.6-0.8-1.7-2.1-2.1c1-0.6,2.9-0.4,2.9-2.1
			c2.1,1.4,2.7-1.9,4.6-2.1c1.3-0.2,1.5,0.8,2.9,0.4c0.9-0.1-0.5-1,0-2.1c0.9-0.3,1.4-1.1,2.9-0.8c0.8-0.9,3.1-1.9,4.6-0.8
			c-0.5,1-0.2,2.9-1.7,2.9c0.7,0.6,1.4,1.1,1.7,2.1c1.1,0.6,3.3-0.8,4.2,0c0.1,0.1-0.1,0.8,0,0.8c0.9,0.1,2.7-1.5,3.3,0.4
			c1.3-0.4,1-2.3,2.1-2.9c1.5-0.6,0.3,1.4,1.2,1.2c0.7-0.4,1.1-1.5,0.4-2.1l0.4-0.4c1.2-0.1,2.7,0.2,3.3-0.4
			c0.2-1.3-0.6-1.6-0.8-2.5c-1,0.1-2,0.1-2.5-0.4c-1.5-0.2-1,1.5-2.5,1.2c0.3-1.1-0.8-0.8-0.8-1.7c-0.4-1.6,1.4-2,0.4-2.9
			c-0.8-0.8-2.9-0.2-2.5-2.1c-0.7,1.6-3.2,1.4-5,0.8c-0.4-7.1-5.9-9.1-9.6-12.9c0.8-1.4,1.1-3.4,1.7-5c6,0.5,8.3-0.1,10.4-3.7
			c0.2-0.3,0.7-1,0.8-1.2c0.3-0.7,0-2,0.4-2.9c0.9-1.8,2.7-2.8,2.9-4.6c3.3,0,5.2-1.5,6.7-3.3c1,0.1,0.2,1.8,0,2.1
			c0.7-0.1,0.7,0.4,1.2,0.4c0.4-1.2,1.1-2,2.1-2.5c-0.7-0.8-1.3,0.3-2.1-0.8c-0.2-1.3,1.1-1.1,1.2-2.1c0.5,0.1,0.4,0.8,0.4,1.2
			c1.4-1,3.2-0.6,4.6-1.2c2.1-1,3.2-3,4.2-5c1.7-0.2,1.3,1.8,3.3,1.2c0.3,1.6-0.9,1.6-1.7,2.1c0.2,0.6,0.6,1,1.2,1.2
			c1.4-0.1,1.8-1.2,2.1-2.5c0.6,0,1.3,1.8,1.2,0c0.7,0.6,0.3,2.4,1.7,2.5c1.4,0.2,1.8-0.7,2.5-1.2c1.5-0.5,3.3,0.8,3.7,0
			c0.6,0.6,0.1,1.8,0,2.5c2,0.5,4.9,2.9,6.7,0.4c0.7-0.2,0.7,0.5,1.2,0.4c0.9-0.2,1.3-1,2.1-1.2c0.2-0.1,0.7,0.5,1.2,0.4
			c0.1,0,2.7-0.6,2.9,0.8c1.5-1,3.2,0.8,5,0.8c1.1,0,2.5-1,4.2-0.8c1,0.1,1.9,1.3,2.9,1.2c1.2,0,3.4-0.9,3.7-1.2
			c0.3-0.3,0.5-0.6,0.4-1.2c0.9-0.5,1.3,0.5,2.1,0.4c1.1-0.1,0.7-1,1.7-0.8c0.7,0.1,1.1,1,1.7,1.2c0.3,0.2,0.9-0.2,1.2,0
			c0.2,0.1,0.3,0.8,0.4,0.8c0.2,0.1,0.8-0.5,1.2-0.4c0.1,0,1,1.5,2.5,0.8c2.1,6.7,4,14.6,6.2,21.7c0.5,1.6,1.3,4.7,2.1,7.1
			c0.9,2.9,2.3,7.6,3.3,11.2c3.2,11.1,7.1,23.9,10.4,35.4c0.5,1.8,1.6,4.4,2.1,7.1c0.2,1,0.9,1.9,1.2,2.9c0.5,1.7,0.3,3.8,1.7,5
			c2.5,0.6,2.8-1.4,4.6-0.4c1.5-0.7,3.2-3.4,4.2-2.5c0.5,0.5,0.1,1.2,0.1,1.9L386.9,490z"/>
		<path class="st2" d="M386.9,490c0.5,0,1,0.1,1.2,0.6"/>
		<line class="st1" x1="388.2" y1="490.6" x2="388.4" y2="490.4"/>
		<path class="st2" d="M385.9,492.9"/>
		<path class="st2" d="M399.2,495.9c-1.2-0.2-0.4,1.6-1.2,1.7c-0.4-1.4-1.7-1.9-2.1-3.3c-3-0.8-4.9-2.6-7.5-3.7H388
			c0.7,1.6-1.8,0.1-1.7,1.2c0.7-0.3,0.7,2,0,1.7c-0.1-0.3,0-0.8-0.4-0.8l-0.2-0.9c-0.4,0-0.5,0.5-0.4,0.6c0.1,0.3,0.4,0.5,0.6,0.7
			c0,0-0.8-0.2-1,0c-0.7,0.7,0.5,1.6,0.1,2.1c2.7,0.1,5,1.8,7.5,0.8c0.5,1.8,3.8,1,3.7,3.3c1.3-0.2,1.6,0.9,2.5,0
			c0.5,0.1,0.1,1.3,0,1.2c1.2,0.8,4.1,0.2,5.4,1.2c-0.7-2.5-0.2-1.9,2.1-1.7c0.3-1.3-1.1-0.8-0.8-2.1c-1.9,0.6-2.2,0.1-2.9-1.2
			c-1.5-0.4-2.2,0.7-2.9,0c0-0.1,0-0.3,0-0.4"/>
		<line class="st1" x1="399.2" y1="495.9" x2="399.2" y2="496.3"/>
		<path class="st2" d="M399.2,496.3c0.2-0.7,0.4-1.4,1.2-1.7"/>
		<line class="st1" x1="400.5" y1="494.6" x2="400.1" y2="494.6"/>
		<line class="st1" x1="407.1" y1="487.5" x2="406.8" y2="487.9"/>
		<line class="st1" x1="407.1" y1="488.6" x2="407.5" y2="488.4"/>
		<line class="st1" x1="417.1" y1="493.4" x2="416.7" y2="493.4"/>
		<line class="st1" x1="417.8" y1="494" x2="418" y2="493.8"/>
		<path class="st2" d="M437.1,513.1"/>
		<path class="st2" d="M437.1,513.1c-0.5,1.1,1.3,1.9,0,3.3c0,0-1.3-0.2-0.7-1.3C437,514,437.1,513.1,437.1,513.1"/>
		<path class="st2" d="M436.7,513.3"/>
		<path class="st2" d="M437.1,513.1"/>
		<path class="st2" d="M447.1,519.6c0.8,0,0.3,1.4,1.2,1.2c0.9-1.3,0.9-3.5,0.8-5.8c-2.3-1.1-2.8-3.9-3.3-6.7
			c-1.2-0.3-1.1,0.6-2.1,0.4c-1.4-1.6-3.7-0.8-5-0.8c-1.7,0-3.3-1.5-4.6,0c-0.1-1.9-2.2-1.7-2.5-3.3c-1-0.6-1.8,0.1-2.1-0.4
			c0.2-2.1-2-2.7-2.9-3.3c0,0-0.4-0.4-0.4-0.4c-2-2-4.4-4-6.7-5c-0.5-0.6-0.4-1.9-1.7-1.7h-0.4c-1.4,1.1-0.3,4.1,0.8,5
			c0.7-0.3-0.1-2,1.2-1.7c0,0.8,0,1.7,0,2.5c1,0,1.9-2.2,2.9-0.8c0.2,1-1.9-0.2-1.2,1.2c0.9,0.9,3.4,0.2,3.3,2.1c-0.3,0-0.6,0-0.8,0
			l0.2,0.4l-0.2,0.4c-0.3,2.1,1.5-0.6,1.7,0.8c-0.1,1.2-2,0.5-1.7,2.1c1.6-0.8,1.6-0.6,3.3,0c0-0.7,0.3-1.1,0.8-1.2
			c0.1,1,0.5,1.7,0.8,2.5c1.1,0.5,2.5-0.8,2.5,0c0,0.5-0.5,0.6-0.4,1.2c1.7-0.8,1,0.1,1.7,0.8c0.1,0.1,0.7-0.1,0.8,0
			c0.1,0.1,0.2,0.7,0.4,0.8c0.4,0.2,1.2-0.2,1.7,0c0.3,0.1,0.3,0.8,0.8,0.8c-0.1,0,1.2-0.9,1.2,0c-0.7,0.5-1.9,1.4-0.8,2.5
			c0,0,0.4,2.4,0.8,0c0.2-0.9,1.6-0.8,2.1-1.2c0.3-0.3,0.1-2.1,1.2-1.7c-0.4,1.7,1.2,1.7,1.7,2.1c1.7,1.4,1.5,3.6,3.3,4.6
			c-0.6,0.4-1.3,0.6-1.2,1.7c0.6,0,1.1,0,1.7,0c-0.1-1.3,0-2.5,0.8-2.9c0,0.9,0.3,2,0,2.9"/>
		<line class="st1" x1="417.5" y1="493.8" x2="417.8" y2="494"/>
		<line class="st1" x1="416.7" y1="493.4" x2="416.7" y2="493.8"/>
		<path class="st2" d="M416.7,493.8c-1,0.4,0.1,2.9-0.8,3.3c-1.3,0.2-1.5-0.7-2.9-0.4c-0.3-1.2-2.7-1.7-1.7-2.9
			c-0.9,0.2-1.1-0.3-1.7-0.4c-0.4-2.3-2.7-2.6-2.9-5h0.8c0.6,0.5,1.3,0.9,2.5,1.2c0.3,0.1,1.1,0.1,0.8,0c1.2,0.6,1.8,2,2.9,2.5
			c1.2,0.6,2.7-0.6,3.3,1.2L416.7,493.8z"/>
		<line class="st1" x1="406.7" y1="488.4" x2="407.1" y2="488.6"/>
		<path class="st2" d="M407.1,488.6c0-0.3-0.2-0.5-0.3-0.7"/>
		<line class="st1" x1="406.8" y1="487.9" x2="406.7" y2="488.4"/>
		<path class="st2" d="M406.7,488.4c-0.4,0.1-0.4-0.2-0.4-0.4c-1.1-0.3,0.3,2-0.8,1.7c2.2,3,4.1,6.2,6.2,9.2
			c-0.5,1.2-1.7-0.5-2.1-0.8c-1.6-0.4-1.2,1-2.5,0.8c1.6-1.6-3.3-3-0.8-4.2c-0.4-0.6-1.3-0.6-2.1-0.8c-1,0.3,0.8,1.1,0.4,2.1
			c-2.2,0.3-2.4-1.9-4.2-0.8l-0.4-0.4c0-0.6,1.4-1.1,1.7-2.1c0.2-0.8-0.5-3.4,0-4.6c0.4-0.9,2.3-2.1,2.5-2.1
			c0.5-0.1,2.4-0.5,2.9,1.7"/>
		<line class="st1" x1="400.5" y1="495" x2="400.5" y2="494.6"/>
		<line class="st1" x1="399.2" y1="496.3" x2="399.6" y2="496.3"/>
		<path class="st2" d="M345.3,500.2c0.2,0,0.3-0.2,0.4-0.4"/>
		<path class="st2" d="M425.9,508.8c0.5,0.9,1.2,1.6,2.1,2.1c0,1.1-1.6,0.6-1.7,1.7c-0.8-2.1-2.8-3-3.7-5c1.2,0,2.7-0.2,3.3,0.4"/>
		<line class="st1" x1="425.9" y1="507.9" x2="425.7" y2="508.3"/>
		<line class="st1" x1="425.7" y1="508.3" x2="425.9" y2="508.8"/>
		<path class="st2" d="M412.1,510c0.4-1.4,0.8,0.5,1.2,0.4C413.2,513.2,413.1,510,412.1,510z"/>
		<path class="st2" d="M440.9,518.3c-2.1-1.2,0-4.6-1.7-4.6c0.2-0.3,0.4-0.7,0.4-1.2c2.8,0.5,4.1,2.5,4.2,5.8
			c-1.3-0.3-1.1-2-2.1-2.5c-0.8,0,0,1,0,0.8C441.5,517.2,440.3,516.3,440.9,518.3z"/>
		<path class="st2" d="M430.5,515.4c3.4-0.2,5.6,1.7,4.6,4.6c0.6,0.3,1.1-0.5,2.9,0c0.7,1.2,1.6,2,1.7,3.7l-0.4-0.2l-0.4,0.2
			c-1.2,0.1-1.5-1.6-2.5-2.1c-0.4-0.2-0.9,0.3-0.8,0.4c-1.3-0.9-2.6-1.4-2.9-3.3c-0.8,0-0.5,1.1-1.7,0.8c0.6-1.8-0.2-2.3-0.8-3.7"/>
		<path class="st2" d="M430.5,515.8v-0.4l-0.1,0c-0.7-0.3-0.8-0.6-1.2-1.2c-0.2,0-0.3-0.1-0.6-0.1l1.5,1.7L430.5,515.8"/>
		<path class="st2" d="M320.9,530.4c-1.4,0.4,0,0.9-0.8,1.7c-1.5,0-1.8,1.2-2.5,2.1c-0.7-0.3-0.1-0.8,0-1.2
			c-0.7-0.4-1.1,0.8-1.2,0.8c-0.5,0-0.5-1.5-2.1-0.8c-0.9,0.4-0.2,1.4-0.8,0c-0.4-0.8-1.2-1.3-1.2-1.7c0-1.1,1.4-2.4,2.9-2.9
			c0.2,1.8,1.5,2.4,2.5,3.3c-0.7-0.7,0-1.8,0-2.5c0,0-0.1-1.6,0-1.2c-0.2-0.8-2-1-0.8-2.1c0.7,0.1,0.9,0.7,0.8,1.7
			c0.8,0.4,1.4-1.2,1.7,0c1.1,0,0.8-1.4,0.8-2.5c1.1-0.1,1.4,0.6,1.2,1.7c1.2-0.1,0.7-1.8,2.1-1.7c0.5,0.8-0.6,2.6,1.7,2.5
			c0,0.8-1.1,0.5-0.8,1.7c-1.1-0.4-2.8-0.7-3.3,0.4"/>
		<line class="st1" x1="320.9" y1="529.6" x2="320.7" y2="530"/>
		<line class="st1" x1="320.7" y1="530" x2="320.9" y2="530.4"/>
		<path class="st2" d="M321.3,532.5c-0.3,0.4-1,0.4-0.8,1.2C319.5,533.6,320.5,532.1,321.3,532.5z"/>
		<path class="st2" d="M317.6,534.6c0.8,0.3-0.2,0.6-0.4,0.8c-0.1,0.2,0.1,0.7,0,0.8c-0.1,0.1-1.2,0.9-1.2,0.8
			C315.7,536.7,317.2,535.7,317.6,534.6z"/>
		<path class="st2" d="M267.6,552.9c0.3,0.1,0.8,2.4,0,3.3c-1.2-0.1-0.5-2-2.1-1.7c-1.6-0.1,1.2-1,0.8,0
			C267.2,554.5,267.2,553.5,267.6,552.9z"/>
		<path class="st2" d="M243.5,566.6c-1,0.1-1.3-0.7-2.1-0.8c0.4-0.9,1-1.5,2.5-1.2c-0.1,1.2,1.2,1.4,1.7,0.8c1.1-0.8-0.8,1-1.2,1.2"
			/>
		<line class="st1" x1="244.3" y1="566.6" x2="243.9" y2="566.4"/>
		<path class="st2" d="M242.4,567.9c1,0.3,1.7-0.5,1.5-1.5"/>
		<line class="st1" x1="243.9" y1="566.4" x2="243.5" y2="566.6"/>
		<path class="st2" d="M241.4,569.1c-0.3,0.4-0.8,0.6-1.2,0.8C239.1,569.8,240.8,569.1,241.4,569.1z"/>
		<path class="st2" d="M172.7,574.1c0.3-1.3-1.1-0.8-0.8-2.1c1.1,0.7,2.1,1.5,0.8,2.5C172.2,574.5,172.4,574.1,172.7,574.1z"/>
		<path class="st2" d="M201,577.1C199.9,578.1,198.6,575.9,201,577.1L201,577.1z"/>
	</g>
	<g>
		<path class="st2" d="M451,466.4c0.2,1.5-0.5,2-0.8,2.9c-1.6,0.1-2.2-0.9-3.3-1.2C447.2,466.6,449.4,465.4,451,466.4z"/>
		<path class="st2" d="M465.1,472.2c0.1,1.8,2,1.8,2.1,3.7c-0.9,0.7-1.9-1.2-2.5-1.2c-0.2,0-0.6,0.7-0.4,0.8
			c-0.9-0.5-1.6-0.9-2.1-2.5C463.9,473.5,463.5,471.8,465.1,472.2z"/>
		<path class="st2" d="M479.3,480.2c2.4-0.2,4.2,0.3,4.6,2.1c-1,0.4-2,0.7-3.3,0.8c-0.3-0.8-0.5-1.7-1.2-2.1"/>
		<line class="st1" x1="479.3" y1="481" x2="479.5" y2="480.6"/>
		<path class="st2" d="M479.5,480.6c-0.3,0-0.5-0.2-0.7-0.3"/>
		<line class="st1" x1="479.5" y1="480.6" x2="479.3" y2="480.2"/>
		<path class="st2" d="M474.3,480.6c0.2-1,1.6,0,1.2,0.8C475,481.3,474.9,480.7,474.3,480.6z"/>
		<path class="st2" d="M486.4,487.2c1.2,0.6,2.6,1.1,3.7,1.7c1.7,0.8,3.2,1.3,4.2,2.9c0.3,0.5,0.1,0.5,0.4,0.8
			c0.3,0.4,0.5,0.9,0.8,1.2c0.2,0.2,0.8,0.8,0.8,1.7c-1.2-0.3-1.3,1.3-2.5,1.7c-0.6,0.2-1.6-0.3-2.1,0c-1.5,0.8-2.5,1.8-2.9,3.3
			c-1.2,0.1-1.3-0.9-2.5-0.8c0.1-2.8-0.2-5.1-1.2-6.7c0.4-1.4,1.3-2.3,2.1-3.3C487,488.9,486.2,488.6,486.4,487.2z"/>
		<path class="st2" d="M473.7,477.5c0.4,0.1,0.8,0.3,1.2,0.4"/>
	</g>
</g>
<g>
	<g>
		<g>
			<path class="st0" d="M531.6,561.4c-4-0.1-6.8-0.1-10.2,0c0,3.8,0,8.1,0,11.9c3.4-0.2,6.8-0.4,10.2-0.6c0.8,0,1.1-0.3,1.1-1.2
				c0-3,0-5.9,0-8.9C532.7,561.8,532.4,561.4,531.6,561.4z"/>
			<path class="st0" d="M650.9,542.3H501.4c-0.2,0-0.3,0.1-0.3,0.3v70.1c0,0.2,0.2,0.3,0.4,0.3c15.7-6,43.3-10,74.8-10
				c31.3,0,58.8,4,74.5,9.9c0.2,0.1,0.4-0.1,0.4-0.3v-70C651.2,542.4,651.1,542.3,650.9,542.3z M542.3,572.5c0,5.4-2.6,8.1-8,8.5
				c-4.3,0.3-8.6,0.6-12.9,1c0,4.5,0,9.1,0,13.6c0,0.1-0.1,0.3-0.2,0.3c-3,0.4-6,0.8-9,1.3c-0.2,0-0.3-0.1-0.3-0.3v-43.6
				c0-0.2,0.1-0.3,0.3-0.3h22.3c5.4,0,8,2.6,8,8C542.3,564.9,542.3,568.7,542.3,572.5z M575.2,553.4l-2.1,7.8c0,0.1-0.1,0.2-0.3,0.2
				c-5.2,0-10.6-0.1-15.8,0c0,2.4,0.1,4.5,0.1,6.9c5,0,9.1-0.1,13.7-0.1c0.2,0,0.3,0.2,0.3,0.3c-0.3,1.2-1.4,5.2-2.1,7.4
				c0,0.1-0.1,0.2-0.3,0.2c-3.9,0-7.8,0.1-11.7,0.2c0,2.7,0,5.4,0,8.1c5.9-0.2,11.9-0.4,17.9-0.4c0.2,0,0.3,0.2,0.3,0.4l-2,7.5
				c0,0.1-0.1,0.2-0.3,0.2c-8.3,0.1-16.9,0.4-25.2,1c-0.2,0-0.3-0.1-0.3-0.3c0-13.2,0-26.4,0.1-39.5c0-0.2,0.1-0.3,0.3-0.3h27.2
				C575.1,553.1,575.2,553.3,575.2,553.4z M609,561.1c0,0.2-0.1,0.3-0.3,0.3c-5.1,0-7.4,0-10.2,0c0,10.4,0,20.7,0,31.1
				c0,0.2-0.1,0.3-0.3,0.3c-3-0.2-6-0.3-9.1-0.4c-0.2,0-0.3-0.1-0.3-0.3c0-10.3,0-20.4,0-30.7c-3.4,0-6.8,0-10.3,0
				c-0.2,0-0.3-0.1-0.3-0.3c0-2.5,0-5.2,0-7.8c0-0.2,0.1-0.3,0.3-0.3h30.1c0.2,0,0.3,0.1,0.3,0.3L609,561.1L609,561.1z M641.2,553.4
				l-2.1,7.8c0,0.1-0.1,0.2-0.3,0.2c-7.7,0-9.4,0-16.2,0c0,2.5,0,5.6,0,8.1c4.3,0.3,8.2,0.5,13.5,0.8c0.2,0,0.3,0.2,0.3,0.3l-2,7.6
				c0,0.1-0.2,0.2-0.3,0.2c-4.7-0.5-6.3-0.6-11.5-1.1c0,2.8,0,6,0,8.8c6.3,0.7,12,1.3,17.5,2.2c0.2,0,0.3,0.2,0.2,0.4l-2.1,7.7
				c0,0.1-0.2,0.2-0.3,0.2c-8.1-1.2-16.5-2.2-24.6-2.9c-0.1,0-0.3-0.1-0.3-0.3c0-13.4-0.1-26.8-0.1-40.2c0-0.2,0.1-0.3,0.3-0.3H641
				C641.2,553.1,641.3,553.3,641.2,553.4z"/>
		</g>
		<g id="secondary_1_">
			<g>
				<path class="st0" d="M459.7,570.6l-4.7,1.7c-2.5,0.9-4,1.8-4,4.1v6.5H465v-4h-9.4v-1.7c0-0.5,0.3-0.7,0.8-0.9l4.6-1.7
					c2.5-0.9,4-1.8,4-4.1v-3.1c0-2.5-1.3-3.8-3.8-3.8h-6.1c-2.5,0-3.8,1.3-3.8,3.8v2.2h4.4V568c0-0.4,0.1-0.5,0.5-0.5h3.7
					c0.4,0,0.5,0.1,0.5,0.5v1.7C460.4,570.3,460.2,570.4,459.7,570.6z"/>
				<path class="st0" d="M482.5,582.8c2.6,0,3.8-1.2,3.8-3.8v-11.6c0-2.6-1.2-3.8-3.8-3.8h-7c-2.6,0-3.8,1.2-3.8,3.8V579
					c0,2.6,1.2,3.8,3.8,3.8L482.5,582.8L482.5,582.8z M476.2,568.1c0-0.4,0.1-0.5,0.5-0.5h4.4c0.4,0,0.5,0.1,0.5,0.5v10.3
					c0,0.4-0.1,0.5-0.5,0.5h-4.4c-0.4,0-0.5-0.1-0.5-0.5V568.1L476.2,568.1z"/>
				<rect x="451" y="553.1" class="st0" width="35.3" height="4"/>
				<rect x="451" y="589.1" class="st0" width="35.3" height="4"/>
				<path class="st0" d="M674.4,570.6l-4.7,1.7c-2.5,0.9-4,1.8-4,4.1v6.5h13.9v-4h-9.4v-1.7c0-0.5,0.3-0.7,0.8-0.9l4.6-1.7
					c2.5-0.9,4-1.8,4-4.1v-3.1c0-2.5-1.3-3.8-3.8-3.8h-6.1c-2.5,0-3.8,1.3-3.8,3.8v2.2h4.4V568c0-0.4,0.1-0.5,0.5-0.5h3.7
					c0.4,0,0.5,0.1,0.5,0.5v1.7C675.1,570.3,674.9,570.4,674.4,570.6z"/>
				<path class="st0" d="M697.2,582.8c2.6,0,3.8-1.2,3.8-3.8v-11.6c0-2.6-1.2-3.8-3.8-3.8h-7c-2.6,0-3.8,1.2-3.8,3.8V579
					c0,2.6,1.2,3.8,3.8,3.8L697.2,582.8L697.2,582.8z M690.9,568.1c0-0.4,0.1-0.5,0.5-0.5h4.4c0.4,0,0.5,0.1,0.5,0.5v10.3
					c0,0.4-0.1,0.5-0.5,0.5h-4.4c-0.4,0-0.5-0.1-0.5-0.5V568.1z"/>
				<rect x="665.7" y="553.1" class="st0" width="35.3" height="4"/>
				<rect x="665.7" y="589.1" class="st0" width="35.3" height="4"/>
			</g>
		</g>
	</g>
</g>
<line class="st3" x1="336.4" y1="459.6" x2="336.7" y2="459.2"/>
<line class="st3" x1="336.7" y1="459.2" x2="336.4" y2="458.7"/>
</svg>
