<svg xmlns="http://www.w3.org/2000/svg" width="856" height="380" viewBox="0 0 856 380"><path fill="#000000" d="M806.588 32.746c-4.14-.005-8.943 1.979-13.656 5.307-12.296 8.682-22.37 20.796-31.96 32.27-17.691 21.16-33.685 43.78-49.31 66.5-22.932 33.354-44.646 68.568-58.875 106.677-3.437 9.203-6.494 18.943-8.322 28.855-5.068 1.776-10.172 3.228-15.303 4.29-2.703.568-9.767 2-11.127-1.676-.599-1.62-.776-3.2-.61-4.715 3.345-.979 6.565-2.42 8.971-3.508 3.902-1.767 14.713-5.344 15.77-10.803 1.62-8.396-12.947-3.391-16.035-1.902-4.324 2.09-9.333 7.24-11.469 12.803a36.08 36.08 0 0 1-3.38.511c-6.495.667-7.23-4.865-5.475-9.609.709-1.923-1.819-2.908-3.1-1.814-12.787 10.808-25.677 21.86-39.953 30.662-2.244 1.39-11.307 7.563-9.697 1.328 1.797-7.061 6.746-13.89 10.886-19.781 1.219-1.755-1.494-3.803-2.912-2.272-8.11 8.735-20.37 14.12-30.843 19.35-7.73 3.86-18.959 11.344-27.647 9.531a5.106 5.106 0 0 1-.494-.113c7.543-5.729 14.279-12.48 19.65-19.99 2.168-.913 4.335-1.827 6.496-2.74 1.99-.84 1.432-3.891-.308-3.891a1.71 1.71 0 0 0-.701.162c-.583.246-1.168.488-1.75.734 2.99-5.062 5.366-10.405 6.941-15.98 1.787-6.312-1.312-11.822-8.234-8.88-14.409 6.144-29.579 22.172-31.955 38.241-8.656 3.267-17.373 6.357-26.186 9.154-4.437 1.404-8.976 2.789-13.568 3.961-.158-1.235-1.384-2.31-2.657-1.392-1.216.877-2.562 1.844-3.92 2.888-3.758.737-7.539 1.269-11.324 1.455-3.155.155-9.028-.56-9.101-3.255 8.595-13.404 18.36-26.13 28.304-38.41 8.536-10.558 17.463-20.84 26.823-30.673 3.082-3.245 4.72-9.256 7.08-13.177a99.91 99.91 0 0 1 3.445-5.317c10.761-7.652 21.345-15.559 31.84-23.492 14.215-10.733 29.032-21.535 41.39-34.451 1.397-1.459 7.882-9.183 1.788-9.412-6.302-.235-14.026 6.198-18.897 9.402-22.11 14.578-43.39 33.186-58.682 55.145a1113.826 1113.826 0 0 1-17.947 12.25c-4.385 2.937-35.126 23.703-57.361 31.468 9.12-10.926 18.548-21.53 27.73-31.968 20.11-22.844 41.146-44.73 59.563-69 10.65-14.032 21.316-29.135 27.353-45.832 2.026-5.584 4.29-14.418-1.63-18.48-1.443-.995-3.125-1.397-4.907-1.397-5.822-.006-12.806 4.329-16.738 6.683-15.777 9.454-29.245 23.105-41.803 36.35-16.63 17.525-31.895 36.52-46.056 56.088-9.636 13.313-19.142 27.38-25.58 42.584-17.104-6.401-40.227 7.092-53.811 15.232-10.516 6.303-24.327 14.949-35.22 25.565 5.294-8.691 10.1-17.644 13.798-26.809 1.421-3.521 1.618-10.516-4.074-6.932-7.136 4.468-12.494 13.682-16.729 20.616-4.869 7.978-10.39 18.3-9.166 27.957.088.698.245 1.395.448 2.072-.276.432-.569.86-.85 1.287-4.203 6.396-8.588 12.724-13.562 18.547-.927 1.088-5.74 6.949-6.079 4.246-1.16-9.21 3.766-20.616 6.725-29.23.719-2.079-2.286-3.094-3.406-1.422-13.594 20.27-28.787 42.286-49.522 56.125-7.208 4.812-19.734 8.343-15.687-4.703 2.26-7.334 7.282-14.318 11.178-20.875a621.375 621.375 0 0 1 6.14-10.106 2322.866 2322.866 0 0 0 27.39-28.508c17.047-18.042 36.594-36.391 47.907-58.658 6.744-13.281 15.564-25.63 23.512-38.224 2.776-4.391 5.868-8.81 7.972-13.57 1.246-2.809-.798-5.315-3.53-3.09-4.648 3.797-8.407 9.014-12.23 13.572-11.067 13.182-21.786 26.657-32.52 40.105-22.173 27.792-42.329 55.474-61.136 85.604-.152.24-.36.562-.625.947-3.874 3.932-7.765 7.85-11.672 11.756.047-.23.083-.458.11-.688.333-2.817-3.333-2.645-4.953-1.953-8.886 3.781-13.615 11.734-19.438 18.988-4.25 5.298-8.593 10.695-13.781 15.127-4.65 3.964-2.855-3.116-2.303-5.933 1.319-6.923 3.75-13.604 5.194-20.516 1.016-4.85 2.858-20.305-7.028-16.139-11.358 4.791-17.894 18.875-25.504 27.61-2.1 2.416-4.29 4.753-6.64 6.935a7.536 7.536 0 0 0-.903.97c.724-3.14 2.272-6.177 3.643-9.073 5.65-11.97 10.488-24.338 15.16-36.713 3.317-8.781 7.771-18.653 8.14-28.184.35-9.094-8.645-1.8-11.265 1.065-.14.15-.281.306-.416.457a443.875 443.875 0 0 0 10.281-23.348 404.002 404.002 0 0 0 3.02-7.642c6.677-1.416 13.308-2.86 19.871-4.287 2.343-.51 1.359-4.072-.996-3.563a842.415 842.415 0 0 1-17.275 3.574c5.77-15.672 10.405-32.077 11.681-48.603 1.199-15.65 2.125-44.777-16.63-51.14-1.933-.662-3.927-.948-5.948-.948-8.67.005-17.842 5.275-24.56 9.431-14.475 8.948-27.147 20.892-39.256 32.678-11.735 11.427-22.876 23.427-33.95 35.479-7.077 7.702-16.811 15.556-21.76 24.86-7.489 14.071 16.938 15.231 24.807 15.403 33.038.73 67.085-5.154 99.944-12.023-5.13 13.901-11.224 27.51-18.026 40.822-6.161 8.188-11.71 16.912-17.277 25.344-15.23 23.041-29.729 46.576-43.797 70.316-.02.027-.03.054-.057.08.006 0 .005.004.01.004-1.25 2.104 1.834 3.75 3.219 1.866 21.516-29.235 41.746-59.715 58.527-91.909a447.031 447.031 0 0 1 4.76-6.373c1.427-1.88 11.298-12.709 11.225-12.818 3.04 4.416-5.089 20.86-6.547 24.88-4.823 13.308-10.007 26.645-16.121 39.427-1.339 2.781-6.708 11.662-3.645 14.574 6.375 6.068 28.546-28.093 31.207-30.87 1.468-1.52 7.668-7.6 9.043-3.939 4.005 10.74-5.635 26.292-6.61 37.276-1.473 16.605 18.615-5.957 20.803-8.598 4.22-5.072 8.327-13.01 13.686-16.91a54.356 54.356 0 0 1 5.803-3.7c.473-.26.806-.458 1.025-.587-.432.312-1.144.9-1.556 1.597-2.4 4.074-5.625 7.689-8.616 11.334-1.484 1.803.907 4.339 2.647 2.604 4.281-4.24 8.547-8.505 12.797-12.781-7.556 12.761-14.36 28.522-2.4 30.746 8.415 1.552 17.529-6.116 23.425-10.903 13.713-11.12 25-25.42 35.197-39.988-2.724 8.801-4.666 18.777.069 21.313 6.562 3.516 16.953-14.573 19.375-17.985.678-.96 1.364-1.94 2.047-2.908a35.818 35.818 0 0 0-1.37 6.693c-1.994 19.214 23.028 20.63 36.116 19.428 16.937-1.557 33.743-6.213 50.129-12.625-.224.385-.436.77-.655 1.16-3.546 6.303-13.064 21.012-9.21 29.096 1.042 2.177 4.266.266 3.24-1.906-1.72-3.61 4.527-16.402 6.923-21.069a236.664 236.664 0 0 1 5.17-9.494c10.939-4.557 21.684-9.839 32.116-15.437-1.255 20.308-6.313 39.557-9.875 59.494-.187 1.052.27 1.968 1.308 2.312h.004c1.037.343 1.964-.4 2.303-1.318 3.65-9.572 6.41-19.161 11.05-28.432 3.038-6.067 6.394-11.981 9.975-17.771 1.463 1.688 3.842 2.81 6.297 3.162 3.556.518 7.238.38 10.922-.11-1.58 1.753-2.866 3.653-3.547 5.698-3.52 10.59 15.504 7.313 20.11 6.646 14.186-2.052 29.124-8.218 42.072-17.322 4.62 2.119 10.75 1.948 15.959-.125 13.27-5.292 26.73-12.558 38.765-20.308-3.025 4.912-5.422 10.25-4.552 14.615 2.432 12.213 39.422-18.208 52.109-28.994.005 3.656 1.584 6.973 5.506 8.525 2.052.817 4.464.864 6.943.484-.188 2.364.307 4.673 1.729 6.746 3.713 5.391 13.27 2.847 18.287 1.592 3.416-.854 6.801-1.926 10.135-3.144-1.34 8.968-1.567 18.03-.073 26.922 1.687 10.04 6.582 19.505 14.489 25.953 2.958 2.41 10.942 5.29 12.306 6.857 1.573 1.808 4.184-.843 2.621-2.635-1.166-1.354-4.02-1.9-5.582-2.654a36.617 36.617 0 0 1-10.771-8.006c-11.767-12.63-11.63-31.777-8.86-48.033 8.391-3.416 16.52-7.68 24.348-11.914 34.796-18.776 67.647-43.355 94.605-72.412 12.156-13.099 23.099-27.783 30.276-44.256 5.24-12.01 8.431-25.262 11.797-37.896 5.186-19.484 11.86-42.312 8.996-62.708-1.281-9.057-5.705-12.775-11.377-12.775zm-.233 3.54c9.088.48 8.765 17.28 7.727 27.632-2.51 24.957-9.93 49.667-17.555 73.437-12.272 38.234-47.705 68.385-78.595 91.598-20.402 15.328-44.276 32.24-69.276 41.863.032-.172.073-.343.104-.513 9.166-45.204 36.313-87.125 61.469-124.772 16.682-24.937 34.26-49.447 53.365-72.566 9.797-11.865 20.319-24.367 33.152-33.04 3.53-2.384 6.39-3.492 8.701-3.634.313-.02.615-.021.908-.006zM520.963 85.708c.714.012 1.417.08 2.105.209 9.49 1.776-3.161 24.744-4.959 28.113-11.822 22.158-28.355 41.923-44.724 60.803-20.839 24.041-43.254 47.363-63.692 72.145-1.797-6.198-4.585-11.926-8.793-16.708-2.062-2.333-4.326-4.12-6.738-5.437 2.527-5.516 5.703-10.755 8.219-15.178 10.76-18.88 24.155-36.328 37.822-53.177 15.213-18.766 31.433-36.932 49.838-52.645 6.865-5.869 20.208-18.302 30.922-18.125zm-371.192 39.02c2.467-.038 4.886.367 7.198 1.345 14.566 6.162 12.78 32.317 12.406 44.598-.296 9.697-2.577 19.38-5.041 28.719a295.112 295.112 0 0 1-7.13 23.078c-11.745 2.265-23.543 4.312-35.34 6.203-15.635 2.5-31.343 4.603-47.135 5.8-5.563.423-11.374.866-17.166.866-6.084 0-12.147-.489-17.86-2.035-12.364-3.324-2.208-12.78 2.844-18.25 11.73-12.678 23.291-25.516 35.312-37.938 13.151-13.588 26.839-26.907 42.079-38.203 7.567-5.603 19.145-14.023 29.833-14.183zm414.073 19.736c-.87 1.172-1.954 2.228-2.944 3.264-5.24 5.473-11.176 10.312-17.004 15.13-14.568 12.031-29.657 23.53-45.058 34.567a197.969 197.969 0 0 1 4.537-5.239c10.667-11.964 22.859-22.634 35.66-32.244 7.48-5.63 15.866-12.234 24.809-15.478zm-243.98 18.597c-3.297 5.386-6.728 10.688-10.124 16.012-5.302 8.323-10.729 16.628-15.474 25.29-6.479 11.87-14.135 21.917-23.13 32.193-13.083 14.937-26.657 29.484-40.495 43.787.87-1.344 1.733-2.7 2.613-4.047 8.693-13.453 17.365-26.808 27.303-39.39 19.312-24.465 37.844-50.934 59.306-73.845zM206.51 209.73a32.86 32.86 0 0 0-5.76.511c-2.328.422-1.334 3.984.963 3.563 9.027-1.61 19.167 1.238 23.725 9.713 1.125 2.093 4.281.223 3.156-1.871-4.427-8.234-13.204-11.916-22.084-11.916zm276.736 3.298c-1.901 3.76-3.35 8.233-6.043 11.077-3.943 4.156-7.766 8.417-11.553 12.718a547.824 547.824 0 0 0-19.597 23.471c-.51-.683-1.417-1.049-2.365-.477-10.256 6.178-20.647 12.148-31.22 17.772.307-7.77.157-15.995-1.218-23.813 14.75-4.364 31.443-15.139 37.313-18.556 11.858-6.89 23.38-14.369 34.683-22.192zm-102.812 12.756c2.588-.012 5.165.266 7.703.904.514.124 1.003.277 1.494.438-2.683 6.687-5.434 15.288-2.137 21.709 2.907 5.672 8.542 7.322 15.287 6.687-10.177 12.828-19.734 26.098-28.187 40.098a369.818 369.818 0 0 1-11.406 4.518c-16.324 6.129-33.912 11.373-51.495 11.373-.229 0-.459-.004-.699-.004-8.708-.068-20.495-2.247-22.635-12.256-.878-4.113.133-8.368 2.057-12.443 1.036.843 2.622 4.064 4.984 5.646 6.088 4.057 15.766-.11 21.438-2.459 2.188-.912 1.23-4.493-.988-3.572-5.043 2.1-17.974 7.89-20.97.021-.597-1.574-1.55-2.083-2.675-2.996 3.025-5.046 7.134-9.64 10.342-13.097 12.932-13.938 29.425-24.5 45.879-33.74 9.357-5.265 20.79-10.773 32.008-10.827zm12.222 2.586c7.923 4.016 12.033 12.517 14.09 22.006-2.667.641-5.132.994-7.293.994h-.021c-5.224-.005-8.745-2.071-9.422-7.228-.667-5.083.578-10.49 2.646-15.772zm-79.547 5.797c-.484 1.864-1.344 3.647-2.13 5.387-5.932 13.032-13.885 25.378-21.801 37.394-.156-5.645 3.28-12.718 5.072-16.468 3.583-7.52 8.344-14.623 13.688-21.014 1.552-1.86 3.229-3.778 5.171-5.299zm214.61 12.709c3.36-.421.402 7.264-.078 8.572-2.079 5.61-5.065 11.047-8.703 16.188-7.53 3.132-15.091 6.192-22.7 9.12.15-.85.322-1.679.533-2.439 2.552-9.254 10.265-16.717 17.141-22.879 3.405-3.052 8.88-7.942 13.807-8.562zm108.765 7.877c2.583-.072.75 1.916-2.39 3.951-4.526 2.928-9.803 5.505-15.21 7.11 3.022-5.422 9.913-9.443 15.07-10.657 1.104-.26 1.934-.387 2.53-.404zm-228.865.488c1.265 8.635 1.162 17.588.922 24.41-9.281 4.84-18.708 9.402-28.307 13.569 8.146-13.203 17.52-25.797 27.385-37.979zm34.797 9.719a485.113 485.113 0 0 0-14.875 20.422 343.203 343.203 0 0 0-3.764 5.596c-.51.052-.994.336-1.312.955a7.424 7.424 0 0 0-.75 2.207c-5.164 8.042-9.942 16.35-13.99 24.986 1.88-10.339 3.285-20.76 4.113-31.229.135-1.776.267-3.594.387-5.464 10.406-5.692 20.504-11.661 30.191-17.473zm71.738 12.836c-4.633 5.449-9.97 10.452-15.69 14.814-1.825-1.868-2.526-4.621-2.59-7.459a814.98 814.98 0 0 0 18.28-7.355zm-22.187 8.86c.238 3.488 1.585 6.164 3.637 8.064-7.318 5.202-15.15 9.36-22.844 12.088-7.536 2.677-15.897 3.963-23.834 4.625-3.755.313-11.04.688-7.53-4.645 1.502-2.28 3.6-4.327 5.825-6.174 3.29-.746 6.52-1.63 9.592-2.447 11.891-3.156 23.59-7.134 35.154-11.512zM115.54 306.405a620.013 620.013 0 0 1-6.478 10.194c2.14-3.411 4.3-6.808 6.478-10.194z"/></svg>
