<?xml version="1.0" standalone="no"?>
<!DOCTYPE svg PUBLIC "-//W3C//DTD SVG 20010904//EN"
 "http://www.w3.org/TR/2001/REC-SVG-20010904/DTD/svg10.dtd">
<svg version="1.0" xmlns="http://www.w3.org/2000/svg"
 width="700.000000pt" height="700.000000pt" viewBox="0 0 700.000000 700.000000"
 preserveAspectRatio="xMidYMid meet">
<metadata>
Created by potrace 1.11, written by Peter Selinger 2001-2013
</metadata>
<g transform="translate(0.000000,700.000000) scale(0.100000,-0.100000)"
fill="#000000" stroke="none">
<path d="M220 6133 c-3 -304 0 -1127 4 -1130 3 -4 1662 -7 1854 -4 l32 1 0
585 0 585 -945 0 -945 0 0 -37z"/>
<path d="M2570 3495 l0 -2677 1153 5 c633 3 1168 7 1187 10 19 3 60 8 90 11
116 12 348 48 445 70 267 59 582 192 767 323 120 86 269 235 340 343 65 97
137 247 163 335 9 33 21 71 26 85 49 143 62 509 25 679 -83 375 -327 691 -666
862 -47 23 -110 50 -140 60 l-54 16 76 36 c227 104 415 290 515 507 27 59 54
128 59 155 1 6 6 28 12 50 30 112 34 399 7 525 -3 14 -8 41 -11 60 -10 62 -72
237 -115 322 -85 172 -222 331 -394 458 -81 60 -116 82 -250 154 -104 57 -330
140 -476 176 -118 29 -120 30 -159 36 -19 3 -42 7 -50 9 -8 3 -33 7 -55 10
-22 4 -51 8 -64 10 -13 2 -67 9 -120 14 -53 6 -116 13 -141 17 -25 3 -523 8
-1107 11 l-1063 5 0 -2677z m2015 1441 c296 -33 461 -213 442 -482 -7 -98 -9
-109 -42 -177 -35 -74 -93 -130 -179 -172 -114 -56 -185 -66 -484 -69 -165 -1
-266 2 -269 8 -12 18 -7 887 4 894 15 9 441 7 528 -2z m190 -1900 c229 -54
366 -181 400 -371 10 -57 8 -169 -6 -234 -38 -187 -188 -309 -429 -351 -52 -9
-436 -16 -660 -11 l-35 1 2 487 c1 269 2 489 2 491 2 7 697 -5 726 -12z"/>
<path d="M220 3993 c-1 -54 -1 -316 -1 -583 l0 -485 946 -3 945 -2 0 585 0
585 -945 0 -945 0 0 -97z"/>
<path d="M248 2002 c-28 -3 -28 -4 -28 -75 -1 -79 -1 -869 0 -1009 l0 -88 945
0 945 0 0 585 0 585 -42 1 c-211 2 -1799 3 -1820 1z"/>
</g>
</svg>
