<svg xmlns="http://www.w3.org/2000/svg" viewBox="0 0 26.64 21.65"><defs><style>.cls-1{fill:#1d253c;}</style></defs><title>social-icon2</title><g id="Layer_2" data-name="Layer 2"><g id="Design"><path class="cls-1" d="M0,19.19a15.48,15.48,0,0,0,8.38,2.46A15.45,15.45,0,0,0,23.91,5.39a11,11,0,0,0,2.73-2.83,10.66,10.66,0,0,1-3.14.86,5.39,5.39,0,0,0,2.4-3,10.87,10.87,0,0,1-3.47,1.33,5.41,5.41,0,0,0-4-1.73,5.47,5.47,0,0,0-5.32,6.71A15.49,15.49,0,0,1,1.86,1,5.46,5.46,0,0,0,3.55,8.3a5.48,5.48,0,0,1-2.48-.69A5.47,5.47,0,0,0,5.45,13a5.49,5.49,0,0,1-2.46.1,5.45,5.45,0,0,0,5.1,3.79A11,11,0,0,1,0,19.19Z"/></g></g></svg>