<?xml version="1.0" encoding="utf-8"?>
<!-- Generator: Adobe Illustrator 23.0.3, SVG Export Plug-In . SVG Version: 6.00 Build 0)  -->
<svg version="1.1" id="Layer_1" xmlns="http://www.w3.org/2000/svg" xmlns:xlink="http://www.w3.org/1999/xlink" x="0px" y="0px"
	 viewBox="0 0 240 64.6" style="enable-background:new 0 0 240 64.6;" xml:space="preserve">
<style type="text/css">
	.st0{fill:#F2E4D6;}
</style>
<title>logo</title>
<g>
	<g>
		<path class="st0" d="M79.4,17.5c-3.7-0.1-6.2-0.1-9.4,0c0,3.5,0,7.4,0,10.9c3.1-0.2,6.2-0.4,9.3-0.5c0.7,0,1-0.3,1-1.1
			c0-2.7,0-5.4,0-8.1C80.4,17.8,80.2,17.5,79.4,17.5z"/>
		<path class="st0" d="M188.5,0H51.8c-0.1,0-0.3,0.1-0.3,0.3v64.1c0,0.2,0.2,0.3,0.3,0.2c14.3-5.5,39.6-9.2,68.4-9.2
			c28.6,0,53.8,3.6,68.1,9.1c0.2,0.1,0.3-0.1,0.3-0.2v-64C188.7,0.1,188.6,0,188.5,0z M89.2,27.7c0,5-2.4,7.4-7.3,7.8
			c-3.9,0.3-7.9,0.6-11.8,1c0,4.1,0,8.3,0,12.4c0,0.1-0.1,0.2-0.2,0.2c-2.7,0.4-5.5,0.8-8.2,1.2c-0.2,0-0.3-0.1-0.3-0.2V10.2
			c0-0.1,0.1-0.3,0.3-0.3h20.4c4.9,0,7.3,2.3,7.3,7.3C89.2,20.7,89.2,24.2,89.2,27.7z M119.3,10.2l-1.9,7.1c0,0.1-0.1,0.2-0.2,0.2
			c-4.7,0-9.7-0.1-14.4,0c0,2.2,0.1,4.2,0.1,6.3c4.6,0,8.3-0.1,12.5-0.1c0.2,0,0.3,0.2,0.2,0.3c-0.3,1.1-1.3,4.7-1.9,6.8
			c0,0.1-0.1,0.2-0.2,0.2c-3.6,0-7.1,0.1-10.7,0.2c0,2.5,0,4.9,0,7.4c5.4-0.2,10.9-0.3,16.3-0.3c0.2,0,0.3,0.2,0.2,0.3l-1.9,6.9
			c0,0.1-0.1,0.2-0.2,0.2c-7.6,0.1-15.4,0.4-23,0.9c-0.1,0-0.3-0.1-0.3-0.3c0-12.1,0-24.1,0.1-36.1c0-0.1,0.1-0.3,0.3-0.3H119
			C119.2,9.9,119.3,10.1,119.3,10.2z M150.2,17.3c0,0.1-0.1,0.3-0.3,0.3c-4.6,0-6.8,0-9.4,0c0,9.5,0,18.9,0,28.4
			c0,0.1-0.1,0.3-0.3,0.3c-2.8-0.1-5.5-0.3-8.3-0.3c-0.1,0-0.2-0.1-0.2-0.3c0-9.4,0-18.6,0-28c-3.1,0-6.3,0-9.4,0
			c-0.1,0-0.2-0.1-0.2-0.2c0-2.3,0-4.8,0-7.1c0-0.1,0.1-0.2,0.2-0.2h27.5c0.1,0,0.3,0.1,0.3,0.3L150.2,17.3L150.2,17.3z M179.6,10.2
			l-1.9,7.1c0,0.1-0.1,0.2-0.2,0.2c-7.1,0-8.6,0-14.8,0c0,2.3,0,5.1,0,7.4c3.9,0.2,7.5,0.4,12.3,0.7c0.2,0,0.3,0.2,0.2,0.3l-1.8,7
			c0,0.1-0.2,0.2-0.3,0.2c-4.3-0.5-5.8-0.6-10.5-1c0,2.6,0,5.5,0,8.1c5.7,0.6,11,1.2,16,2c0.1,0,0.2,0.2,0.2,0.3l-1.9,7
			c0,0.1-0.2,0.2-0.3,0.2c-7.4-1.1-15.1-2-22.5-2.6c-0.1,0-0.2-0.1-0.2-0.2c0-12.2-0.1-24.5-0.1-36.7c0-0.1,0.1-0.3,0.3-0.3h25.2
			C179.6,9.9,179.7,10.1,179.6,10.2z"/>
	</g>
	<g id="secondary">
		<g>
			<path class="st0" d="M13.7,25.9l-4.3,1.5c-2.3,0.8-3.6,1.6-3.6,3.7v5.9h12.7v-3.6H9.9v-1.6c0-0.5,0.2-0.6,0.7-0.8l4.2-1.5
				c2.3-0.8,3.6-1.6,3.6-3.7v-2.8c0-2.3-1.2-3.5-3.5-3.5H9.5c-2.3,0-3.5,1.2-3.5,3.5V25H10v-1.5c0-0.4,0.1-0.5,0.5-0.5h3.3
				c0.4,0,0.5,0.1,0.5,0.5v1.6C14.4,25.6,14.1,25.7,13.7,25.9z"/>
			<path class="st0" d="M34.5,37.1c2.3,0,3.5-1.1,3.5-3.5V22.9c0-2.4-1.1-3.5-3.5-3.5h-6.4c-2.3,0-3.5,1.1-3.5,3.5v10.6
				c0,2.3,1.1,3.5,3.5,3.5H34.5z M28.8,23.6c0-0.4,0.1-0.5,0.5-0.5h4.1c0.3,0,0.5,0.1,0.5,0.5V33c0,0.3-0.1,0.5-0.5,0.5h-4.1
				c-0.3,0-0.5-0.1-0.5-0.5V23.6z"/>
			<rect x="5.7" y="9.9" class="st0" width="32.3" height="3.7"/>
			<rect x="5.7" y="42.8" class="st0" width="32.3" height="3.7"/>
			<path class="st0" d="M209.9,25.9l-4.3,1.5c-2.3,0.8-3.6,1.6-3.6,3.7v5.9h12.7v-3.6h-8.6v-1.6c0-0.5,0.2-0.6,0.7-0.8l4.2-1.5
				c2.3-0.8,3.6-1.6,3.6-3.7v-2.8c0-2.3-1.2-3.5-3.5-3.5h-5.6c-2.3,0-3.5,1.2-3.5,3.5V25h4.1v-1.5c0-0.4,0.1-0.5,0.5-0.5h3.3
				c0.4,0,0.5,0.1,0.5,0.5v1.6C210.6,25.6,210.4,25.7,209.9,25.9z"/>
			<path class="st0" d="M230.8,37.1c2.3,0,3.5-1.1,3.5-3.5V22.9c0-2.4-1.1-3.5-3.5-3.5h-6.4c-2.3,0-3.5,1.1-3.5,3.5v10.6
				c0,2.3,1.1,3.5,3.5,3.5H230.8z M225.1,23.6c0-0.4,0.1-0.5,0.5-0.5h4.1c0.3,0,0.5,0.1,0.5,0.5V33c0,0.3-0.1,0.5-0.5,0.5h-4.1
				c-0.3,0-0.5-0.1-0.5-0.5V23.6z"/>
			<rect x="202" y="9.9" class="st0" width="32.3" height="3.7"/>
			<rect x="202" y="42.8" class="st0" width="32.3" height="3.7"/>
		</g>
	</g>
</g>
</svg>
