<?xml version="1.0" standalone="no"?>
<!DOCTYPE svg PUBLIC "-//W3C//DTD SVG 20010904//EN"
 "http://www.w3.org/TR/2001/REC-SVG-20010904/DTD/svg10.dtd">
<svg version="1.0" xmlns="http://www.w3.org/2000/svg"
 width="500.000000pt" height="500.000000pt" viewBox="0 0 500.000000 500.000000"
 preserveAspectRatio="xMidYMid meet">
<metadata>
Created by potrace 1.11, written by Peter Selinger 2001-2013
</metadata>
<g transform="translate(0.000000,500.000000) scale(0.100000,-0.100000)"
fill="#000000" stroke="none">
<path d="M0 2500 l0 -2500 2500 0 2500 0 0 2500 0 2500 -2500 0 -2500 0 0
-2500z m2480 1191 c0 -156 -5 -182 -39 -218 -12 -12 -21 -27 -21 -33 0 -5 -10
-20 -22 -32 -13 -13 -41 -50 -63 -83 -71 -106 -216 -261 -253 -270 -15 -4 -29
-10 -32 -14 -3 -4 -21 -17 -41 -29 -33 -20 -50 -22 -170 -22 -74 1 -195 5
-269 10 -74 5 -216 13 -315 16 -99 4 -188 10 -198 13 -29 11 97 185 233 321
173 173 358 295 575 378 173 67 377 109 543 111 l72 1 0 -149z m-1610 -1286
l0 -495 -100 0 -100 0 0 423 c0 258 -4 436 -10 459 -6 21 -24 47 -42 61 -50
40 -31 47 118 47 l134 0 0 -495z m1454 355 l46 -22 0 -83 0 -84 -52 32 c-44
27 -62 33 -127 35 -66 3 -80 1 -103 -18 -35 -27 -37 -75 -7 -114 11 -14 64
-52 116 -82 114 -68 158 -104 184 -156 63 -124 14 -272 -114 -341 -37 -19 -57
-22 -158 -22 -101 0 -122 3 -167 24 l-52 24 0 89 0 88 48 -34 c59 -42 101 -56
164 -56 86 0 138 39 138 104 0 36 -44 76 -155 141 -125 73 -169 117 -191 192
-39 133 22 246 159 295 72 26 206 20 271 -12z m-924 -267 l225 -276 3 277 2
276 85 0 85 0 -2 -427 -3 -428 -75 0 -75 0 -230 280 -230 281 -3 -283 -2 -283
-85 0 -85 0 0 370 c0 395 -3 423 -49 452 -12 7 -21 18 -21 25 0 10 29 13 118
13 l117 -1 225 -276z m1270 -83 l0 -360 170 0 170 0 0 -70 0 -70 -257 2 -258
3 -5 385 c-5 347 -7 389 -23 413 -9 15 -22 27 -27 27 -6 0 -10 7 -10 15 0 13
20 15 120 15 l120 0 0 -360z m940 295 l0 -65 -175 0 -175 0 0 -115 0 -115 170
0 171 0 -3 -62 -3 -63 -167 -3 -168 -2 0 -115 0 -115 180 0 180 0 0 -70 0 -70
-270 0 -270 0 0 374 c0 240 -4 384 -11 404 -6 17 -21 38 -35 47 -13 8 -24 20
-24 25 0 6 111 10 300 10 l300 0 0 -65z m620 0 l0 -65 -177 -2 -178 -3 -3
-112 -3 -113 176 0 176 0 -3 -62 -3 -63 -172 -3 -173 -2 0 -115 0 -115 185 0
185 0 0 -70 0 -70 -270 0 -270 0 0 358 c0 196 -5 375 -10 397 -5 22 -20 50
-34 62 -15 12 -26 27 -26 33 0 7 98 10 300 10 l300 0 0 -65z m-1630 -1020 c19
-23 -2 -164 -26 -182 -24 -17 -59 -16 -73 1 -17 20 2 151 25 177 21 23 57 25
74 4z m120 -7 c0 -13 -5 -50 -10 -83 -6 -35 -6 -63 -1 -68 15 -15 28 22 36 96
5 45 12 70 22 74 7 3 16 3 19 1 8 -9 -18 -163 -32 -185 -17 -26 -55 -30 -74
-8 -12 14 -9 88 7 168 7 32 33 37 33 5z m228 10 c16 -16 15 -60 -3 -84 -10
-13 -13 -33 -8 -66 4 -39 3 -48 -10 -48 -15 0 -27 28 -27 68 0 12 -4 22 -10
22 -5 0 -10 -10 -10 -22 0 -39 -12 -68 -26 -68 -17 0 -17 9 -2 121 l12 89 36
0 c20 0 41 -5 48 -12z m238 -28 c4 -22 10 -42 14 -45 3 -2 16 16 28 40 23 48
53 61 51 23 0 -13 -6 -59 -12 -103 -10 -64 -16 -80 -30 -83 -17 -3 -18 2 -12
45 6 48 6 48 -10 21 -20 -36 -30 -35 -43 5 l-10 32 -1 -30 c-2 -47 -12 -75
-27 -75 -17 0 -17 -2 -2 116 10 80 14 94 29 94 14 0 20 -10 25 -40z m254 25
c19 -22 3 -152 -21 -176 -24 -24 -65 -24 -78 0 -13 24 6 150 27 174 19 21 55
22 72 2z m137 -37 l10 -53 23 53 c17 36 30 52 43 52 15 0 18 -5 13 -27 -3 -16
-8 -50 -11 -78 -11 -88 -16 -105 -32 -105 -13 0 -15 9 -10 53 l6 52 -16 -33
c-20 -38 -36 -37 -44 4 -5 25 -7 22 -14 -24 -6 -41 -11 -52 -24 -50 -9 2 -15
10 -14 18 18 155 26 190 43 190 13 0 20 -13 27 -52z m257 37 c-4 -9 -19 -15
-35 -15 -26 0 -29 -4 -29 -30 0 -25 4 -30 25 -30 18 0 23 -4 19 -15 -4 -8 -17
-15 -30 -15 -20 0 -24 -5 -24 -30 0 -25 4 -30 25 -30 16 0 25 -6 25 -15 0 -11
-12 -15 -45 -15 -52 0 -50 -7 -33 121 l12 89 47 0 c39 0 47 -3 43 -15z m111
-37 c6 -41 10 -48 16 -33 4 11 8 35 8 53 1 25 5 32 21 32 18 0 20 -5 15 -32
-9 -58 -25 -163 -25 -170 0 -5 -7 -8 -15 -8 -13 0 -24 28 -38 95 -2 11 -7 -6
-12 -38 -6 -46 -11 -57 -24 -55 -9 2 -15 10 -14 18 18 157 26 190 43 190 14 0
20 -11 25 -52z m225 37 c0 -8 -9 -15 -19 -15 -17 0 -21 -12 -32 -90 -9 -67
-16 -90 -27 -90 -12 0 -13 12 -8 73 4 39 9 80 12 90 4 11 0 17 -10 17 -9 0
-16 7 -16 15 0 11 12 15 50 15 38 0 50 -4 50 -15z m40 -180 c0 -8 -7 -15 -15
-15 -8 0 -15 7 -15 15 0 8 7 15 15 15 8 0 15 -7 15 -15z"/>
<path d="M2546 1662 c-3 -5 -8 -39 -12 -77 -6 -54 -4 -67 6 -63 25 8 45 138
23 145 -6 2 -14 0 -17 -5z"/>
<path d="M2890 1640 c0 -35 25 -42 35 -10 8 24 -1 40 -21 40 -9 0 -14 -11 -14
-30z"/>
<path d="M3387 1663 c-12 -20 -18 -131 -8 -137 15 -9 28 28 32 88 3 31 0 51
-8 53 -6 2 -13 0 -16 -4z"/>
</g>
</svg>
