<?xml version="1.0" encoding="utf-8"?>
<!-- Generator: Adobe Illustrator 23.0.1, SVG Export Plug-In . SVG Version: 6.00 Build 0)  -->
<svg version="1.1" id="Layer_1" xmlns="http://www.w3.org/2000/svg" xmlns:xlink="http://www.w3.org/1999/xlink" x="0px" y="0px"
	 viewBox="0 0 932.9 455.73" style="enable-background:new 0 0 932.9 455.73;" xml:space="preserve">
<style type="text/css">
	.st0{fill:#004E7C;}
</style>
<path class="st0" d="M680.21,111.19c-4.52-2.33-8.15-6.22-13.17-7.72C671.29,106.27,675.06,109.87,680.21,111.19 M666.7,109.98
	c-0.88-0.82-1.38-1.28-1.95-1.81c0.82-0.76,1.54-0.62,2.32-0.17c1.79,1.03,3.59,2.06,5.4,3.06c0.48,0.27,1.04,0.41,1.55,0.6
	c0.08-0.14,0.15-0.27,0.23-0.41c-2.77-2.05-5.55-4.09-8.28-6.11c0.2-0.81,0.59-1.5,0.44-2.04c-0.12-0.44-0.86-0.75-1.38-1.02
	c-3.87-2.02-7.77-3.99-11.62-6.04c-5.19-2.75-10.32-5.62-15.54-8.31c-2.14-1.1-3.22-2.91-4.25-4.85c1.29-1.02,2.11-1.02,2.26,0.09
	c0.26,1.89,1.65,2.39,2.99,3.13c3.89,2.16,7.73,4.42,11.64,6.54c3.44,1.86,6.95,3.6,10.43,5.38c0.32,0.16,0.69,0.24,1.34,0.45
	c-0.25-1-0.44-1.76-0.62-2.51c0.19-0.06,0.39-0.19,0.45-0.14c4.78,4.23,9.94,7.86,15.77,10.53c2.86,1.31,5.67,2.72,8.48,4.12
	c0.59,0.29,1.11,0.74,1.73,1.17c-1.17,0.55-2.65,0.14-3.22,1.73c-0.41-0.12-1.04-0.51-1.61-0.43c-0.46,0.07-0.85,0.69-1.48,1.24
	c-1.11-0.39-2.49-1.32-4.05-0.39c1.1,1.3,3.49,1.44,3.43,3.77c-1.04,0.58-1.9,0.32-2.69-0.23c-2.2-1.52-4.66-2.26-7.3-2.56
	c-0.41-0.05-0.77-0.49-1.15-0.77c-0.42-0.31-0.78-0.72-1.24-0.94c-4.85-2.23-9.76-4.35-14.58-6.65c-3.52-1.68-6.94-3.57-10.39-5.39
	c-2.71-1.43-5.42-2.87-8.1-4.36c-1.54-0.86-3.08-1.74-4.49-2.79c-0.67-0.5-1.04-1.4-1.74-2.39c-3.64-0.33-7.61-0.68-11.57-1.04
	c-0.04,0.12-0.08,0.25-0.12,0.37c1.11,0.83,2.22,1.66,3.75,2.81c-2.18,0.21-3.58-0.61-4.72-1.32c-3.69-2.27-7.6-3.04-12.08-2.54
	c3.28,2.01,6.34,4.05,9.55,5.81c3.26,1.79,5.84,4.44,9.26,6.53c-1.31,0.58-2.3,0.38-3.31,0.19c-3.01-0.56-6.02-1.14-9.05-1.59
	c-3.46-0.52-6.87,0.06-10.26,0.68c-3.72,0.69-7.21,2.12-10.62,3.72c-2.71,1.27-5.47,1.84-8.46,1.24c-3.83-0.77-7.67-1.46-11.52-2.09
	c-1.88-0.31-3.8-0.52-5.71-0.6c-5.27-0.23-10.29-1.66-15.29-3.15c-3.59-1.07-7.2-2.12-10.75-3.17c-0.49,0.61-0.8,1.33-1.3,1.51
	c-0.47,0.16-1.16-0.21-1.72-0.43c-2.04-0.83-4-1.89-5.98-2.82c-3.64-1.71-6.94-4.16-10.34-6.35c-1.29-0.83-2.45-1.86-3.75-2.67
	c-1.01-0.63-0.97-1.39-0.7-2.43c2.83,1.75,5.55,3.44,8.29,5.11c1.7,1.04,3.35,2.22,5.17,3.01c2.01,0.87,4.17,1.41,6.28,2.01
	c3.17,0.9,6.37,1.72,9.55,2.57c0.36,0.09,0.73,0.13,1.29-0.14c-0.71-0.49-1.38-1.03-2.12-1.47c-4.57-2.69-9.18-5.31-13.71-8.06
	c-1.7-1.03-3.18-2.41-4.85-3.51c-1.19-0.78-1.55-1.79-1.38-3.33c0.42,0.15,1,0.18,1.1,0.42c0.57,1.29,1.68,1.94,2.8,2.61
	c7.04,4.23,14.07,8.47,21.1,12.72c1.2,0.73,1.19,0.74,1.33,2.38c5.2,1.92,10.63,2.82,16.15,3.27c4.54,0.37,8.97,1.21,13.37,2.34
	c2.28,0.59,4.66,0.95,7.05,0.5c0.52-0.1,1.07-0.2,1.53-0.44c5.51-2.83,11.32-4.73,17.47-5.53c2.93-0.38,5.83-0.02,8.72,0.44
	c0.67,0.11,1.35,0.2,2.17,0.01c-1.38-0.92-2.71-1.89-4.13-2.74c-3.36-2.02-6.79-3.92-10.12-5.98c-1.41-0.88-2.91-1.12-4.74-1.16
	c3.42-2.41,6.99-1.43,10.82-1.48c-3.18-2.46-6.76-3.75-10.05-6.05c1.51-0.85,2.57-0.54,3.57,0c2.9,1.58,5.85,3.08,8.64,4.84
	c1.97,1.24,3.97,1.92,6.28,1.87c1.06-0.02,2.13,0.18,3.56,0.31c-6.36-4.1-12.89-7.37-18.74-12.4c1.01-0.34,1.55-0.52,1.86-0.63
	c2.43,1.72,4.67,3.41,7.01,4.96c3.78,2.5,7.64,4.88,11.43,7.35c1.14,0.74,2.33,0.97,3.67,1.09c2.9,0.26,5.77,0.77,8.64,1.26
	c0.35,0.06,0.61,0.66,1.22,1.36c-1.26,0.16-2.05,0.26-2.84,0.36C634.79,94.86,660.82,108.27,666.7,109.98"/>
<path class="st0" d="M688.46,123.03c-0.34-0.31-0.59-0.74-0.87-0.76c-3.73-0.29-7.46-0.71-11.22-0.24c-1.19,0.15-2.5,0.21-3.61-0.16
	c-2.38-0.79-4.81-0.91-7.26-1c-0.26-0.01-0.52-0.08-1.31-0.21c0.74-0.33,0.99-0.53,1.24-0.53c2.37,0.03,4.74,0.11,7.11,0.13
	c0.75,0.01,1.52-0.05,2.23-0.26c3.77-1.1,7.52-1.19,11.37-0.27c2.35,0.56,4.72,1.47,7.21,0.97c1.71-0.34,3.49-0.64,5.06-1.36
	c1.5-0.69,2.9-0.78,4.45-0.55c1.59,0.24,3.2,0.58,4.78,0.52c3.58-0.14,7.07,0.42,10.42,1.46c2.18,0.68,4.37,0.79,6.56,1.04
	c3.73,0.42,7.46,0.78,10.92,2.43c1.98,0.94,4.08,1.21,6.27,1.18c1.03-0.01,2.14,0.25,3.09,0.67c2.51,1.11,4.87,2.57,7.44,3.48
	c1.26,0.45,2.85,0.02,4.28-0.1c1.67-0.15,3.33-0.62,4.98-0.55c3.71,0.16,7.33-0.43,10.97-0.92c0.86-0.12,1.74-0.57,2.48-1.06
	c2.2-1.45,4.48-2.62,7.08-3.22c2.31-0.53,4.54-1.42,6.85-1.95c1.16-0.27,2.43-0.16,3.65-0.08c0.52,0.04,1.02,0.45,1.46,1.13
	c-0.63,0.11-1.26,0.26-1.9,0.33c-5.45,0.61-10.68,1.82-15.39,4.88c-3.92,2.54-8.48,3.07-13,3.26c-2.61,0.11-5.19,0.08-7.73,0.82
	c-2.69,0.78-5.25,0.48-7.65-1.13c-2.06-1.38-4.42-2.09-6.83-2.63c-1.87-0.42-3.7-0.96-5.56-1.43c-1.86-0.47-3.72-0.92-5.58-1.35
	c-0.74-0.17-1.53-0.19-2.26-0.4c-3.64-1.06-7.41-1.09-11.13-1.48c-1.19-0.12-2.32-0.71-3.5-0.99c-1.85-0.44-3.71-0.88-5.58-1.16
	c-1.8-0.26-3.63-0.34-5.44-0.44c-0.5-0.03-1.08,0.05-1.5,0.28c-3.5,1.94-7.23,2.51-11.23,2.57c-3.17,0.05-6.32,1.09-9.49,1.67
	c-7.63,1.41-15.27,2.66-23.05,1.32c-3.9-0.67-7.4-2.51-10.94-4.15c-1.6-0.74-3.11-1.66-4.65-2.52c-0.33-0.19-0.58-0.5-0.88-0.74
	c-0.55-0.42-0.84-0.95-0.45-1.59c0.45-0.74,1.06-0.42,1.6-0.11c1.85,1.08,3.68,2.22,5.55,3.26c5.65,3.15,11.62,5.02,18.19,4.94
	c6.16-0.07,12.21-0.89,18.21-2.2C685.33,123.56,686.82,123.33,688.46,123.03"/>
<path class="st0" d="M810.08,21.67c-2.61-0.52-4.79,0.62-7.01,1.61c-1.22,0.55-2.44,0.84-3.79,0.48c-0.57-0.15-1.22-0.09-1.82-0.01
	c-1.68,0.23-2.87-0.35-3.8-1.79c-0.53-0.82-1.13-1.63-1.85-2.26c-0.39-0.34-1.27-0.58-1.65-0.37c-1.25,0.69-2.53,0.55-3.8,0.41
	c-2.19-0.24-4.37-0.57-6.54-0.97c-5.51-1.04-10.99-1.22-16.4,0.48c-3.15,0.99-6.27,1.94-9.63,2.03c-1.72,0.05-3.41,0.66-5.12,0.98
	c-1.57,0.29-3.23,0.34-4.71,0.87c-1.25,0.44-2.37,1.34-3.41,2.21c-0.33,0.28-0.36,1.13-0.26,1.67c0.16,0.82,0.63,1.57,0.82,2.39
	c0.39,1.62-0.85,3.06-2.27,2.44c-3.53-1.55-7.24-1.11-10.89-1.35c-0.92-0.06-1.85-0.07-2.76-0.2c-1.05-0.16-1.82-0.38-2.25-1.77
	c-0.39-1.26-1.68-2.36-2.78-3.27c-1.58-1.31-3.33-2.41-5.04-3.55c-5.8-3.86-12.26-5.47-19.16-5.66c-1.85-0.05-3.52,0.43-5.07,1.28
	c-2.75,1.52-5.5,3.06-8.09,4.82c-2.78,1.9-5.42,4.02-8.04,6.14c-0.6,0.49-1.11,1.32-1.27,2.08c-0.25,1.17-0.84,1.84-1.8,2.49
	c-1.06,0.72-1.71,0.25-2.68-0.19c-2.69-1.22-6.76,1.2-7.74,4.44c-0.42,1.38-0.63,2.83-1.74,3.94c-0.67,0.66-1.33,1.03-2.25,0.78
	c-1.93-0.53-3.85-1.06-5.76-1.66c-0.49-0.15-0.93-0.52-1.35-0.85c-0.56-0.45-1.12-1.07-0.55-1.74c0.37-0.44,1.11-0.72,1.7-0.76
	c0.57-0.04,1.17,0.31,1.75,0.51c0.95,0.31,1.89,0.63,2.83,0.95c1,0.34,1.75,0.17,2.32-0.83c0.53-0.93,1.28-1.73,1.83-2.64
	c1.3-2.16,3.32-3.01,5.67-3.49c1.46-0.3,2.88-0.79,4.27-1.33c0.43-0.17,0.79-0.71,1.02-1.17c0.68-1.37,1.75-2.27,3.04-3.04
	c2.63-1.55,5.22-3.18,7.82-4.78c2.74-1.68,5.54-3.26,8.19-5.08c3.54-2.44,7.37-2.29,11.31-1.71c1.37,0.2,2.76,0.32,4.09,0.67
	c1.62,0.42,3.3,0.82,4.74,1.62c3.68,2.05,7.29,4.22,10.81,6.53c1.1,0.72,1.99,1.94,2.62,3.12c0.55,1.03,1.23,1.49,2.28,1.61
	c2.97,0.32,5.94,0.6,8.9,0.93c1.28,0.15,2.56,0.38,3.84,0.58c0.84-1.07,0.33-2.14,0.2-3.15c-0.17-1.27,0.15-2.11,1.24-2.93
	c2.15-1.6,4.62-2.07,7.13-2.26c5.22-0.4,10.37-1.09,15.43-2.42c5.98-1.58,12.08-2.04,18.25-1.65c0.43,0.03,1.02,0.08,1.25,0.35
	c1.19,1.41,2.68,0.88,4.07,0.67c0.98-0.15,1.95-0.47,2.87-0.85c1.89-0.77,3.45-0.32,4.82,1.08c0.27,0.27,0.57,0.54,0.76,0.86
	c1.39,2.35,3.98,2.67,6.18,3.61c0.43,0.18,1.06,0.02,1.56-0.11c1.48-0.39,2.95-0.84,4.42-1.29
	C807.99,20.82,809.06,20.77,810.08,21.67"/>
<path class="st0" d="M825.62,111.8c-1.27-0.45-2.55-0.89-3.82-1.37c-2.95-1.1-5.84-2.35-8.84-3.29c-5.21-1.64-10.1-4.02-14.94-6.45
	c-4.99-2.51-9.83-5.34-14.69-8.11c-2.12-1.21-4.13-2.62-6.18-3.95c-0.45-0.29-1.01-0.58-1.23-1.02c-0.27-0.56-0.51-1.39-0.27-1.86
	c0.24-0.46,1.06-0.76,1.67-0.84c0.72-0.09,1.37,0.27,1.31,1.19c-0.07,1.11,0.71,1.63,1.48,2.15c2.56,1.7,5.07,3.47,7.69,5.07
	c11.79,7.2,24.43,12.57,37.56,16.78c4.05,1.3,8.27,2.07,12.41,3.08c0.08,0.02,0.15,0.03,0.23,0.04c1.87,0.21,2.79-0.11,2.95-1
	c0.16-0.91-0.93-2.74-2.02-3.09c-1.75-0.57-3.56-0.94-5.32-1.5c-3.49-1.12-7.01-2.2-10.43-3.52c-4.93-1.89-9.87-3.8-14.66-6.03
	c-3.33-1.55-6.39-3.65-9.59-5.48c-1.66-0.95-3.33-1.84-4.49-3.44c-0.85-1.17-0.81-1.66,0.5-2.74c0.69,0.95,1.26,2.04,2.11,2.83
	c0.89,0.82,2.03,1.37,3.09,1.97c4.21,2.38,8.31,4.99,12.67,7.04c7.43,3.5,15.15,6.36,23.02,8.72c3.88,1.16,7.87,1.92,11.81,2.88
	c1.17,0.28,2.32,0.63,3.49,0.94c-0.02,0.16-0.04,0.32-0.06,0.49c-2.63-0.27-5.26-0.54-8.02-0.82c0,0.62-0.04,0.98,0.01,1.32
	c0.26,1.72-0.34,2.74-2.08,2.78c-2.2,0.06-4.47,0.02-6.61-0.44c-2.35-0.5-4.53-0.79-6.93-0.07c-1.45,0.43-3.21,0.16-4.75-0.17
	c-2.7-0.57-5.37-1.33-8-2.18c-3.72-1.2-7.48-2.34-11.06-3.91c-5.82-2.55-11.47-5.49-17.26-8.14c-6.6-3.02-12.38-7.42-18.66-10.96
	c-0.33-0.18-0.59-0.47-0.93-0.76c0.37-0.72,0.79-1.14,1.61-0.72c1.56,0.8,3.24,1.44,4.67,2.43c6.59,4.54,13.52,8.5,20.65,12.08
	c7.97,4,16.29,7.18,24.78,9.89C820.76,112.36,823.14,112.57,825.62,111.8"/>
<path class="st0" d="M542.68,48.39c-1,1.97-1.96,3.96-3.02,5.89c-0.34,0.61-0.63,1.1-0.58,1.88c0.08,1.26-0.52,1.84-1.68,2.02
	c-2.04,0.3-4.1,0.52-6.12,0.9c-3.26,0.61-6.42-0.18-9.62-0.47c-1.83-0.17-3.67-0.07-5.51-0.1c-1.84-0.03-3.68-0.08-5.52-0.1
	c-2.45-0.03-4.92-0.23-7.36-0.01c-4.38,0.4-7.54,2.79-9.67,6.59c-0.47,0.84-0.72,1.69-0.2,2.61c0.71,1.24,0.8,2.36-0.17,3.61
	c-0.46,0.6-0.52,1.58-0.59,2.4c-0.13,1.43-0.74,2.43-2.04,3.1c-0.88,0.45-1.63,1.14-2.46,1.69c-1.02,0.68-1.99,1.57-3.12,1.93
	c-1.71,0.55-3.13,1.23-4.39,2.65c-1.28,1.44-3.35,1.3-5.2,1.31c-1,0-2-0.15-2.99-0.09c-2.25,0.12-4.42,0.52-6.13,2.2
	c-0.88,0.86-1.84,1.63-2.75,2.44c0.61,2.15,0.56,2.25-1.6,3.07c-0.33-0.91-0.73-1.79-0.96-2.72c-0.2-0.79,0.09-1.45,0.83-1.97
	c0.81-0.57,1.61-1.23,2.22-2c2.17-2.72,5.11-3.5,8.39-3.49c1.15,0,2.31-0.01,3.46,0.04c1.69,0.06,3.15-0.33,4.36-1.64
	c0.52-0.56,1.27-0.67,2.21-0.64c1.08,0.03,2.25-0.8,3.27-1.43c0.83-0.51,1.43-1.39,2.25-1.92c3.3-2.12,3.86-5.35,3.59-8.84
	c-0.17-2.16,0.03-3.97,2.29-4.98c0.38-0.17,0.66-0.63,0.94-1c2.12-2.8,5.12-4.07,8.42-4.76c2.1-0.44,4.21-0.55,6.4-0.35
	c3.11,0.28,6.26,0.07,9.69,0.07c-0.43-0.63-0.73-1.07-1.04-1.53c1.22-0.71,2.46-1.44,3.71-2.17c0.56,1.65-1.24,2.26-1.71,3.65
	c4.39,0.65,8.61,1.22,12.84-0.03c0.35-0.1,0.86-0.27,0.96-0.53c0.55-1.46,2.01-1.78,3.05-2.62c1.18-0.96,2.19-2.12,3.29-3.18
	c0.64-0.62,1.29-1.21,1.94-1.82C542.44,48.14,542.56,48.27,542.68,48.39"/>
<path class="st0" d="M640.41,37.05c-5.37-3.92-11.02-7.03-17.53-8.41c-5.79-1.23-11.59-2.32-17.53-2.49
	c-1.46-0.04-2.92-0.19-4.37-0.13c-5.01,0.21-8.74,2.55-11.18,6.93c-0.22,0.4-0.42,0.82-0.66,1.21c-0.07,0.11-0.26,0.15-0.4,0.22
	c-2.12-1.2-2.23-1.91-0.49-3.45c0.34-0.3,0.74-0.52,1.12-0.78c1.64-1.11,3.38-2.1,4.89-3.36c1.2-1,2.25-1.93,3.96-1.98
	c1.98-0.06,3.95-0.59,5.92-0.57c2.75,0.03,5.49,0.38,8.24,0.59c1.68,0.13,3.36,0.24,5.03,0.41c1.58,0.17,3.21,0.22,4.73,0.66
	c4.56,1.31,9.09,2.78,13.62,4.21c1.02,0.32,2.01,0.76,3.01,1.13c3.49,1.28,4.51,4.49,6.15,7.61c1.36,0.69,3.03,1.53,4.9,2.47
	c-1.83,0.27-3.27-0.11-4.86-0.73c-3.68-1.45-7.52-2.52-11.29-3.75c-4.22-1.38-8.43-2.78-12.66-4.15c-0.94-0.3-1.92-0.51-2.88-0.76
	c-1.24-0.32-2.47-0.62-3.66-1.13C623.39,31.81,631.9,34.43,640.41,37.05"/>
<path class="st0" d="M753,122.42c-3.47-2.85-6.96-5.7-10.41-8.57c-0.69-0.57-1.33-1.21-1.9-1.9c-0.12-0.14,0.17-0.63,0.25-0.89
	c1.29,0.86,2.5,1.64,3.67,2.46c1.87,1.31,3.74,2.63,5.58,3.99c1.3,0.96,2.57,1.95,3.8,2.99c0.9,0.76,1.71,1.36,3.06,1.06
	c0.65-0.15,1.48,0.48,2.65,0.91c-0.86,0.39-1.24,0.56-1.76,0.8c2,1.45,3.94,2.86,5.88,4.26c-0.09,0.15-0.18,0.31-0.27,0.46
	c-0.55-0.18-1.13-0.3-1.64-0.56c-4.36-2.3-8.99-3.4-13.93-3.23c-2.58,0.09-4.92-0.68-7.27-1.82c-4.92-2.38-9.54-5.25-14.14-8.16
	c-1.36-0.86-2.64-1.84-3.97-2.76c-1.39-0.96-2.79-1.9-4.17-2.86c-0.47-0.33-0.89-0.71-1.73-1.39c1.88-0.09,3.16,0.15,4.3,0.89
	c2.38,1.54,4.73,3.12,7.08,4.72c4.57,3.11,9.14,6.22,14.26,8.39c1.59,0.67,3.28,1.13,5.4,1.85c-4.65-3.16-8.87-5.94-13-8.86
	c-4.1-2.9-8.1-5.94-12.47-9.16c1.48-0.11,2.42,0.07,3.5,0.56c3.87,1.72,6.72,4.81,10.09,7.19c4.76,3.36,9.5,6.74,14.77,9.29
	c0.67,0.32,1.36,0.57,2.05,0.85C752.8,122.77,752.9,122.6,753,122.42"/>
<path class="st0" d="M541.14,71.8c3.52,2.16,5.61,5.91,9.19,8.05c4.78-1.56,9.08,0.37,13.38,2.29c-3.44-0.88-6.85-1.93-10.58-2.07
	c-0.29,1.09,0.01,1.78,0.98,2.26c3.37,1.66,6.7,3.4,10.09,5.01c4.4,2.09,8.84,4.1,13.7,6.35c-3.54,0.39-6-1.75-8.96-1.95
	c3.12,1.48,6.24,2.95,9.36,4.43c-6.33-0.53-11.69-4.05-17.86-5.18c2.28,1.51,4.55,3.02,6.83,4.53
	c-4.32-0.62-25.93-13.71-28.28-16.89c1.13-0.42,2.07-0.11,2.99,0.49c2.87,1.91,5.73,3.84,8.63,5.7c1.46,0.94,2.96,1.84,4.52,2.6
	c0.7,0.34,1.58,0.29,2.45,0.13c-2.04-1.45-4.15-2.8-6.09-4.36c-3.51-2.84-7.27-5.43-9.88-9.24
	C541.21,73.35,540.45,72.84,541.14,71.8"/>
<path class="st0" d="M925.79,71.22c0.73-0.29,1.46-0.61,2.2-0.87c2.59-0.88,3.06-1.55,2.73-4.22c-0.49-3.98-1.72-7.76-3.24-11.46
	c-0.99-2.4-1.94-4.78-3.66-6.82c-2.59-3.07-5.99-4.69-11.34-2.22c-0.49,0.22-0.97,0.47-1.47,0.66c-2.31,0.83-4.98-0.85-4.84-3.29
	c0.14-2.36-0.8-4.34-1.57-6.38c-0.68-1.82-2.35-2.52-4.1-3.01c-2.38-0.67-4.59-1.68-6.5-3.32c-2.14-1.84-3.64-4.11-4.7-6.69
	c-0.09-0.21,0.08-0.54,0.16-0.95c1.51,0.44,2.59,1.23,3.27,2.45c1.8,3.25,4.61,5.07,8.13,5.91c3.95,0.95,5.99,3.72,7.1,7.38
	c0.31,1.03,0.53,2.09,0.9,3.09c0.76,2.08,1.64,2.59,3.68,1.84c1.71-0.63,3.42-0.69,5.19-0.78c3.54-0.18,5.97,1.6,7.96,4.22
	c2.49,3.29,3.9,7.08,4.98,11.02c0.6,2.21,1.34,4.4,1.89,6.62c0.27,1.1,0.28,2.26,0.34,3.4c0.07,1.29-0.62,2.31-1.7,2.79
	c-1.65,0.74-3.44,1.05-5.25,1.11C925.9,71.54,925.84,71.38,925.79,71.22"/>
<path class="st0" d="M500.96,92.52c0.09,0.27,0.17,0.54,0.34,1.07c-1.34-0.06-2.81-0.8-3.42,1.2c1.99,0.69,3.97,1.52,6.02,2.05
	c1.44,0.37,2.87,0.11,4.04-1.07c0.78-0.78,1.81-1.12,3.13-0.8c-0.53,1.7-2.49,1.23-3.47,2.35c1.08,1.13,2.45,1.62,3.81,1.96
	c5.6,1.4,11.28,2.22,17.09,1.94c5.21-0.25,10.42-0.39,15.63-0.54c1.07-0.03,2.16-0.03,3.22,0.13c0.7,0.1,1.35,0.51,2.48,0.96
	c-2.36,1.02-4.35,1.11-6.3,1.25c-7.51,0.55-15.03,0.74-22.53-0.1c-3.57-0.4-7.14-0.9-10.6-2.1c-3.9-1.35-7.92-2.36-11.89-3.53
	c-0.37-0.11-0.79-0.16-1.08-0.38c-2.48-1.9-5.1-1.04-7.69-0.41c-2.04,0.49-4.03,0.55-6.1-0.27c0.1-0.49,0.19-0.91,0.26-1.26
	c2.36-0.22,4.7-0.05,6.74-0.74c2.68-0.92,5.59-0.18,8.17-1.51c0.61-0.31,1.47-0.14,2.21-0.19C501,92.55,500.96,92.52,500.96,92.52"
	/>
<path class="st0" d="M822.74,15.29c1.15-0.9,0.91-2.01,0.48-3.24c-0.57-1.61-0.33-3.21,0.68-4.6c1.26-1.73,2.57-3.33,4.89-3.87
	c3.41-0.8,6.73-2,10.15-2.78c2.15-0.49,4.4-0.61,6.61-0.78c3.22-0.23,5.93,1.27,8.73,2.81c1.19-1.06,2.64-1.29,4.22-1.25
	c1.2,0.03,2.41-0.21,3.61-0.38c1.69-0.23,3.34-0.34,4.94,0.47c1.16,0.59,2.11,1.41,2.22,2.72c0.25,3.12,2.46,4.35,4.92,5.43
	c0.8,0.35,1.55,0.83,2.16,1.59c-2.22-0.75-4.49-1.4-6.64-2.31c-0.83-0.35-1.42-1.3-2.05-2.03c-0.24-0.27-0.31-0.7-0.46-1.05
	c-1.21-2.77-1.86-3.15-4.91-2.85c-0.38,0.04-0.76,0.11-1.13,0.2c-1.26,0.31-2.51,0.64-3.71,0.95c0,0.95,0.13,1.79-0.05,2.56
	c-0.12,0.49-0.63,1.07-1.1,1.24c-0.31,0.11-1.08-0.34-1.26-0.72c-1.69-3.59-4.99-4.63-8.44-5.2c-1.69-0.28-3.49,0.11-5.24,0.2
	c-1.9,0.1-3.79,0.23-5.69,0.28c-2.69,0.08-4.99,1.22-7.16,2.62c-2.5,1.62-3.35,4.32-2.44,7.19c0.07,0.22,0.21,0.42,0.27,0.64
	c0.34,1.31,0.06,2.44-0.78,2.89C824.52,16.58,823.63,16.28,822.74,15.29"/>
<path class="st0" d="M665.88,117.71c-0.42-0.08-0.87-0.09-1.26-0.24c-6.25-2.51-12.51-4.99-18.41-8.27c-1.26-0.7-2.5-0.67-3.93-0.05
	c-2.22,0.97-4.6,1.57-6.93,2.3c-0.33,0.1-0.72,0.01-1.12,0.01c0.28-1.48,0.28-1.48,1.8-2.71c-1.12-0.4-2.29-0.71-3.35-1.24
	c-0.46-0.23-0.69-0.9-1.03-1.37c0.55-0.33,1.06-0.85,1.65-0.94c0.63-0.1,1.32,0.2,1.99,0.34c1.15,0.24,2.31,0.5,3.5,0.56
	c-2.5-2.36-5.77-2.43-8.92-2.86c0.02-0.15,0.03-0.3,0.05-0.45c0.37-0.06,0.74-0.14,1.11-0.17c0.36-0.03,0.73-0.01,1.19-0.01
	c-2.27-1.79-4.43-3.49-6.52-5.14c0.47-1.4,1.35-1.43,1.82-0.72c1.47,2.25,3.95,2.73,6.07,3.89c1.96,1.07,3.86,2.05,6.21,2.17
	c1.28,0.07,2.54,0.97,3.77,1.56c0.3,0.15,0.71,0.55,0.69,0.81c-0.09,1.24,0.84,1.55,1.65,1.93c5.11,2.46,10.23,4.89,15.35,7.33
	c1.18,0.56,2.38,1.06,3.54,1.66c0.5,0.26,0.89,0.71,1.33,1.07C666.05,117.36,665.96,117.54,665.88,117.71"/>
<path class="st0" d="M697.95,110.2c-5.7-0.95-10.33-3.28-14.98-5.63c-4.09-2.06-8.42-3.62-12.55-5.61
	c-5.91-2.84-11.76-5.8-17.56-8.86c-2.91-1.54-5.65-3.4-8.42-5.18c-0.6-0.39-1.17-1.03-1.45-1.68c-0.3-0.69-0.23-1.53,0.65-1.98
	c0.87-0.44,1.46,0,1.99,0.63c0.05,0.06,0.12,0.12,0.13,0.19c0.27,2.94,3.08,3.38,4.88,4.59c3.35,2.26,7.02,4.07,10.64,5.92
	c5.45,2.8,10.92,5.57,16.46,8.18c5.69,2.68,11.49,5.13,17.23,7.71C695.86,108.88,696.68,109.46,697.95,110.2"/>
<path class="st0" d="M543.5,47.3c1.92-2.45,3.97-4.48,7.5-4.51c2.48-0.02,4.86,0.32,7.28,0.67c4.78,0.69,9.59,1.16,14.35,1.93
	c6.01,0.97,12.07,0.8,18.12,1.03c1.84,0.07,3.67,0.29,5.5,0.48c0.7,0.08,1.5,0.26,1.25,1.24c-0.22,0.85-0.98,0.91-1.7,0.74
	c-3.93-0.95-7.92-0.74-11.92-0.85c-3.98-0.11-7.96-0.6-11.92-1.06c-6.86-0.79-13.72-1.65-20.57-2.55
	C548.21,44.01,545.73,45.21,543.5,47.3"/>
<path class="st0" d="M817.22,90.58c0.75,0.18,1.57,0.24,2.25,0.56c1.52,0.72,3.01,1.54,4.47,2.39c12.5,7.28,25.82,12.5,39.88,15.86
	c3.32,0.79,5.63,0.83,8.12,0.22c-0.17-0.92-0.34-1.84-0.51-2.77c1.22-0.25,1.56,0.53,1.65,1.27c0.13,1.02-0.15,2.15-1.18,2.52
	c-1.19,0.42-2.56,0.79-3.78,0.62c-3.18-0.45-6.36-1.06-9.47-1.89c-3.77-1-7.47-2.26-11.18-3.45c-1.09-0.35-2.15-0.82-3.23-1.2
	c-6.44-2.27-12.54-5.33-18.78-8.06c-0.83-0.36-1.53-1.01-2.32-1.48c-1.63-0.98-3.3-1.9-4.91-2.9c-0.47-0.3-0.82-0.8-1.22-1.21
	C817.08,90.9,817.15,90.74,817.22,90.58"/>
<path class="st0" d="M833.53,87.02c0.82,0,1.49-0.1,2.12,0.03c0.87,0.18,0.79,0.87,0.8,1.62c0,0.35,0.68,0.77,1.13,1.01
	c2.71,1.43,5.43,2.86,8.18,4.21c8.21,4.03,16.59,7.62,25.65,9.33c1.55,0.29,3.12,0.45,4.88,0.7c-0.28-1-0.48-1.69-0.69-2.44
	c1.75,0.14,2.91,1.34,2.56,2.7c-0.11,0.46-0.76,1.08-1.19,1.1c-1.44,0.06-2.92-0.02-4.34-0.25c-1.66-0.27-3.27-0.87-4.93-1.14
	c-5.59-0.91-10.71-3.26-15.89-5.32c-4.73-1.88-9.26-4.31-13.78-6.68C836.12,90.91,834.25,89.64,833.53,87.02"/>
<path class="st0" d="M575.5,85.51c-0.05,0.1-0.09,0.2-0.14,0.3c0.45,0.21,0.9,0.42,1.35,0.63c0.05-0.1,0.09-0.2,0.14-0.3
	C576.4,85.94,575.95,85.72,575.5,85.51 M585.12,89.33c-0.1,1.33,1.07,1.31,1.82,1.62c2.48,1.01,5.02,1.89,7.51,2.87
	c0.9,0.35,1.73,0.85,2.49,1.66c-0.54-0.08-1.1-0.08-1.6-0.25c-3.82-1.32-7.67-2.57-11.43-4.05c-4.97-1.96-9.88-4.1-14.8-6.18
	c-0.77-0.33-1.55-0.71-2.21-1.22c-0.29-0.23-0.27-0.84-0.54-1.83c2.81,1.16,5.1,2.11,7.89,3.27c-0.88-1.14-1.44-1.87-2.05-2.66
	c2.18,0.78,4.3,1.45,6.36,2.3c2.12,0.88,4.21,1.84,6.23,2.93c1.95,1.05,4.27,1.45,5.79,3.3C588.56,91.06,586.81,90.27,585.12,89.33
	c-1.46-0.46-2.92-0.94-4.37-1.41C582.12,88.69,583.32,90.1,585.12,89.33"/>
<path class="st0" d="M708.56,100.41c-14.68-6.09-29.23-12.45-42.74-21.24c0.52-0.2,1.02-0.58,1.34-0.47
	c1.36,0.47,2.72,0.99,3.98,1.67c5.68,3.04,11.3,6.2,17,9.19c2.31,1.21,4.82,2.02,7.17,3.15c3.94,1.9,7.84,3.89,11.73,5.88
	c0.67,0.34,1.24,0.88,1.85,1.33C708.77,100.08,708.67,100.25,708.56,100.41"/>
<path class="st0" d="M705.17,24.63c4.05,1.26,6.4,4.17,9.18,6.49c0.57,0.48,1.18,1.03,1.87,1.25c2.39,0.78,4.4,2.14,6.24,3.8
	c1.08,0.97,2.22,1.89,3.27,2.9c1.06,1.01,1.97,2.13,2.17,3.96c-3.5-2.17-5.65-5.6-9.08-7.48c3.75,5,8.08,9.55,10.59,15.37
	c0.14,0.32,0.16,0.7-0.04,1.17c-0.77-1-1.54-2.01-2.31-3.01c-4.37-5.62-8.63-11.32-13.59-16.45c-1.58-1.64-3.18-3.26-4.84-4.81
	c-0.54-0.5-1.41-0.64-1.97-1.12C706.12,26.22,705.79,25.51,705.17,24.63"/>
<path class="st0" d="M863.09,33.11c1.74,0.51,3.58,0.81,5.21,1.55c7.48,3.42,14.57,7.53,21.24,12.33c1.8,1.29,3.4,2.85,5.14,4.33
	c0.19-0.28,0.35-0.51,0.52-0.77c1.44,0.65,2.51,1.71,3.25,3.08c0.44,0.81,0.49,1.78-0.43,2.18c-0.42,0.18-1.33-0.19-1.72-0.6
	c-0.76-0.81-1.31-1.81-1.96-2.77c-0.92-0.47-2.1-0.86-3.01-1.58c-6.66-5.24-13.78-9.71-21.4-13.42c-2.39-1.16-4.7-2.46-7.05-3.69
	C862.95,33.54,863.02,33.32,863.09,33.11"/>
<path class="st0" d="M706.09,108.51c-1.78-0.53-3.63-0.89-5.33-1.61c-11.2-4.79-22.31-9.77-33.08-15.49
	c-1.53-0.81-2.99-1.75-4.46-2.61c0.6-1.38,1.31-1.02,2.02-0.66c2.87,1.46,5.73,2.95,8.62,4.38c6.38,3.15,12.76,6.31,19.19,9.37
	c4.38,2.09,8.84,4.03,13.26,6.03C706.24,108.11,706.17,108.31,706.09,108.51"/>
<path class="st0" d="M664.11,81.33c1.16-0.66,1.89-0.63,2.8-0.06c4.1,2.56,8.23,5.06,12.39,7.51c3.43,2.02,6.9,3.95,10.38,5.87
	c4.96,2.75,9.95,5.45,14.92,8.18c0.38,0.21,0.69,0.52,1.28,0.97c-0.63,0-0.98,0.1-1.22-0.02c-3.92-1.86-7.88-3.67-11.74-5.65
	c-3.68-1.88-7.3-3.87-10.87-5.95c-5.43-3.16-10.8-6.43-16.2-9.66C665.33,82.24,664.86,81.86,664.11,81.33"/>
<path class="st0" d="M577.8,34.8c-1.3,0.28-2.13-0.42-2.87-0.96c-2.21-1.61-4.77-2.26-7.36-2.36c-7.08-0.28-14.13,0.11-20.93,2.42
	c-1.37,0.47-2.68,1.14-4.02,1.7c-0.38,0.16-0.78,0.28-1.43,0.04c0.43-0.32,0.81-0.72,1.28-0.96c4.4-2.24,8.97-3.92,13.95-4.33
	c3.27-0.27,6.54-0.83,9.81-0.88c3.32-0.05,6.55,0.77,9.51,2.35C577.18,32.59,577.41,33.06,577.8,34.8"/>
<path class="st0" d="M533.15,82.28c2.12-0.92,3.66-0.08,5.13,0.84c3.06,1.9,6.06,3.89,9.11,5.8c3.62,2.28,7.27,4.51,10.89,6.79
	c0.69,0.43,1.3,0.99,2.1,1.62c-1.3,1.09-2.33,0.58-3.25,0.01c-1.63-1-3.16-2.16-4.79-3.17c-2.26-1.41-4.6-2.71-6.86-4.12
	c-2.85-1.78-5.65-3.63-8.48-5.43C535.74,83.81,534.43,83.06,533.15,82.28"/>
<path class="st0" d="M899.15,51.08c-6.66-8.02-15.35-12.61-24.89-16.59c4.55-0.34,7.98,1.4,11.32,3.28
	c4.2,2.37,8.32,4.88,11.62,8.49C898.31,47.48,899.53,48.71,899.15,51.08"/>
<path class="st0" d="M892.32,116.48c2.32-1.13,4.6-2.36,6.98-3.35c1.46-0.61,3.06-1.05,4.63-1.22c2.41-0.27,4.2-1.42,5.55-3.3
	c1.66-2.32,2.89-4.85,3.5-7.66c0.1-0.46,0.38-0.89,0.77-1.27c0.58,2.6,0.37,5.08-1.08,7.31c-0.99,1.53-2.04,3.07-3.32,4.35
	c-0.87,0.87-2.1,1.54-3.29,1.89c-4.33,1.28-8.71,2.4-13.07,3.56c-0.2,0.05-0.43,0.01-0.65,0.01
	C892.34,116.69,892.33,116.58,892.32,116.48"/>
<path class="st0" d="M768.29,101.1c-4.53,0.13-19.48-5.27-24.18-8.55c-0.05-0.73-0.09-1.47-0.13-2.09c2.56,1.27,5.16,2.64,7.82,3.84
	c2.64,1.2,5.35,2.27,8.05,3.32C762.55,98.68,765.49,99.17,768.29,101.1"/>
<path class="st0" d="M757.89,87.62c1.72,0.77,3.15,1.3,4.46,2.02c6.12,3.37,12.21,6.8,18.57,10.35c-1.19,0.47-2.03,0.15-2.81-0.21
	c-6.24-2.87-12.52-5.67-18.34-9.36C758.49,89.62,758.49,89.61,757.89,87.62"/>
<path class="st0" d="M874.33,96.85c3.05-0.52,5.99,0.13,8.92,0.77c5.39,1.17,10.82,2.09,16.34,2.36c1.82,0.09,3.65,0.01,5.64,0.01
	c-1.1,1.31-2.56,1.4-3.93,1.4c-2.29,0-4.61-0.05-6.87-0.37c-4.24-0.59-8.48-1.3-12.68-2.13C879.25,98.38,876.81,97.53,874.33,96.85"
	/>
<path class="st0" d="M888.3,59.16c-0.72-0.3-1.5-0.5-2.16-0.9c-3.73-2.29-7.33-4.79-11.16-6.88c-2.33-1.27-4.99-1.94-7.87-3.01
	c0.62-0.17,0.96-0.38,1.28-0.34c1.14,0.11,2.34,0.11,3.4,0.49c4.34,1.56,8.49,3.53,12.3,6.17c0.94,0.66,1.93,1.27,2.79,2.01
	c0.66,0.57,1.17,1.32,1.74,1.99C888.52,58.85,888.41,59.01,888.3,59.16"/>
<path class="st0" d="M515.58,91.47c-0.67-0.52-1.5-1.15-2.49-1.91c0.56-0.42,0.89-0.67,1.34-1c1.16,2.33,3.15,3.29,5.39,4.07
	c2.02,0.7,3.91,1.76,5.85,2.68c0.83,0.39,1.56,1.07,1.04,1.96c-0.29,0.5-1.25,0.65-1.93,0.85c-0.23,0.07-0.59-0.14-0.84-0.3
	c-2.6-1.61-5.2-3.22-7.76-4.89C515.9,92.73,515.86,92.18,515.58,91.47"/>
<path class="st0" d="M620.09,37.69c4.26-0.13,15.36,4.4,18.49,7.8c-2.09-0.65-3.73-1.02-5.26-1.66c-4.29-1.81-8.52-3.73-12.77-5.62
	C620.36,38.13,620.26,37.89,620.09,37.69"/>
<path class="st0" d="M858.32,62.84c-3.72-1.24-7.09-1.12-10.44-1.24c-0.09,0-0.17-0.23-0.7-0.81c0.41-0.18,0.8-0.49,1.22-0.53
	c2.03-0.19,4.11-0.58,6.1-0.35C855.84,60.08,857.81,60.05,858.32,62.84"/>
<path class="st0" d="M500.96,92.52c0,0,0.04,0.03,0.04,0.03c-2.02-1.3-4.04-2.59-6.09-3.91c0.71-0.93,1.33-1.27,2.28-0.72
	c1.72,0.98,3.51,1.83,5.2,2.84c0.42,0.25,0.88,0.98,0.81,1.4c-0.14,0.79-0.88,0.97-1.64,0.7C501.35,92.78,501.16,92.63,500.96,92.52
	"/>
<path class="st0" d="M725.84,56.41c-0.39-0.12-0.57-0.12-0.66-0.22c-2.69-2.89-5.4-5.78-8.04-8.72c-0.44-0.49-0.59-1.24-0.65-2.01
	C720.38,48.42,723.67,51.82,725.84,56.41"/>
<path class="st0" d="M631.72,46.31c-1.52,0.9-2.69,0.84-4,0.38c-2.9-1.01-5.84-1.86-8.73-2.96c2.2-0.74,4.3-0.14,6.36,0.42
	C627.42,44.71,629.43,45.53,631.72,46.31"/>
<path class="st0" d="M767.28,117.34c0.59,0.07,1.24,0,1.75,0.23c1.44,0.67,2.85,1.41,4.22,2.21c0.99,0.58,1.9,1.31,2.9,2.02h-4.19
	C771.48,120.75,769.26,118.31,767.28,117.34"/>
<path class="st0" d="M717.33,65.45c0.26,0.94,0.6,1.46,0.48,1.86c-0.8,2.9-2.39,5.37-4.39,7.61
	C714.28,71.75,715.52,68.76,717.33,65.45"/>
<path class="st0" d="M865.4,54.36c-1,0.81-1.95,0.36-2.95-0.1c-1.54-0.7-3.12-1.32-4.7-1.98C860.45,52.24,863.24,51.92,865.4,54.36"
	/>
<path class="st0" d="M531.69,45.06c-0.32,2.64-2.54,3.57-3.5,5.5c-0.58-0.33-1.02-0.59-1.74-1
	C529.49,49.44,528.91,45.72,531.69,45.06"/>
<path class="st0" d="M477.24,91.68c2.38-0.4,3.24,1.28,4.54,2.19c-0.08,0.14-0.16,0.29-0.24,0.43
	C480.2,93.48,478.85,92.66,477.24,91.68"/>
<path class="st0" d="M727.91,117.85c-1.77-0.32-2.91-0.97-3.86-2.01C725.47,115.95,726.66,116.52,727.91,117.85"/>
<path class="st0" d="M869.93,95.65c-0.82-0.29-1.64-0.58-2.45-0.86c0.06-0.18,0.13-0.35,0.19-0.53c0.82,0.32,1.65,0.63,2.47,0.95
	C870.07,95.35,870,95.5,869.93,95.65"/>
<path class="st0" d="M717.46,112.31c0.86,0.39,1.73,0.78,2.59,1.16c-0.07,0.17-0.14,0.33-0.21,0.5l-2.64-1.05
	C717.29,112.72,717.38,112.52,717.46,112.31"/>
<path class="st0" d="M710.27,108.96c0.81,0.25,1.62,0.49,2.44,0.74c-0.04,0.15-0.08,0.29-0.13,0.44c-0.82-0.23-1.64-0.45-2.45-0.68
	L710.27,108.96z"/>
<path class="st0" d="M815.56,19.06c0.05,0.74,0.88,1.88-1.18,1.66c0.48-0.63,0.85-1.11,1.23-1.6L815.56,19.06z"/>
<path class="st0" d="M664.59,87.37c-0.59-0.34-1.18-0.69-1.95-1.14c1.3-0.54,1.72,0.24,2.26,0.77
	C664.79,87.12,664.69,87.24,664.59,87.37"/>
<path class="st0" d="M454.31,90.48c-0.07-0.42-0.14-0.83-0.21-1.25c0.16-0.03,0.32-0.05,0.49-0.08c0.07,0.42,0.14,0.83,0.21,1.25
	C454.63,90.42,454.47,90.45,454.31,90.48"/>
<path class="st0" d="M815.61,19.12c0.28-0.57,0.56-1.15,0.84-1.72c0.16,0.1,0.31,0.2,0.47,0.3c-0.46,0.45-0.91,0.91-1.36,1.36
	C815.56,19.06,815.61,19.12,815.61,19.12"/>
<path class="st0" d="M692.57,113.54c0.44,0.19,0.88,0.39,1.32,0.58l-0.11,0.34c-0.47-0.14-0.94-0.29-1.41-0.43
	C692.44,113.87,692.51,113.7,692.57,113.54"/>
<path class="st0" d="M422.97,435.43c-4.29-2.21-7.75-5.92-12.52-7.34C414.49,430.75,418.08,434.17,422.97,435.43 M410.13,434.28
	c-0.84-0.78-1.31-1.22-1.85-1.73c0.77-0.72,1.46-0.59,2.21-0.16c1.7,0.98,3.41,1.96,5.13,2.9c0.46,0.25,0.98,0.39,1.48,0.58
	c0.07-0.13,0.15-0.26,0.22-0.39c-2.64-1.95-5.27-3.89-7.87-5.81c0.19-0.77,0.56-1.43,0.41-1.94c-0.11-0.42-0.82-0.71-1.31-0.97
	c-3.68-1.92-7.38-3.79-11.05-5.74c-4.93-2.62-9.81-5.34-14.77-7.9c-2.03-1.05-3.06-2.77-4.04-4.61c1.23-0.97,2-0.97,2.15,0.08
	c0.25,1.8,1.57,2.27,2.84,2.98c3.7,2.05,7.35,4.2,11.07,6.22c3.27,1.77,6.6,3.42,9.92,5.11c0.31,0.16,0.66,0.22,1.27,0.43
	c-0.24-0.95-0.42-1.67-0.59-2.38c0.18-0.06,0.37-0.18,0.42-0.13c4.54,4.02,9.45,7.48,14.99,10.01c2.72,1.24,5.39,2.58,8.07,3.92
	c0.56,0.28,1.05,0.7,1.65,1.11c-1.11,0.52-2.52,0.13-3.06,1.64c-0.39-0.12-0.99-0.49-1.53-0.41c-0.44,0.06-0.81,0.65-1.4,1.18
	c-1.06-0.37-2.37-1.26-3.85-0.37c1.05,1.23,3.32,1.37,3.26,3.58c-0.99,0.55-1.81,0.3-2.56-0.22c-2.09-1.45-4.43-2.15-6.94-2.43
	c-0.39-0.04-0.74-0.47-1.09-0.73c-0.4-0.29-0.74-0.69-1.18-0.89c-4.62-2.12-9.28-4.14-13.86-6.33c-3.35-1.6-6.6-3.39-9.88-5.13
	c-2.58-1.36-5.15-2.73-7.7-4.15c-1.46-0.81-2.93-1.65-4.27-2.65c-0.64-0.47-0.99-1.33-1.65-2.27c-3.46-0.31-7.23-0.65-11-0.99
	c-0.04,0.12-0.08,0.24-0.12,0.35c1.06,0.79,2.11,1.58,3.57,2.67c-2.07,0.2-3.4-0.58-4.49-1.25c-3.51-2.16-7.22-2.89-11.48-2.41
	c3.12,1.91,6.02,3.85,9.07,5.52c3.1,1.7,5.55,4.22,8.8,6.2c-1.25,0.55-2.19,0.36-3.15,0.18c-2.86-0.53-5.72-1.08-8.6-1.52
	c-3.29-0.5-6.54,0.05-9.75,0.65c-3.54,0.65-6.85,2.02-10.1,3.54c-2.57,1.2-5.2,1.75-8.04,1.18c-3.64-0.73-7.29-1.39-10.95-1.99
	c-1.79-0.3-3.61-0.49-5.42-0.57c-5.01-0.22-9.78-1.58-14.54-2.99c-3.42-1.02-6.84-2.02-10.22-3.01c-0.47,0.58-0.76,1.27-1.23,1.44
	c-0.44,0.16-1.1-0.2-1.63-0.41c-1.94-0.79-3.8-1.79-5.69-2.68c-3.46-1.63-6.59-3.96-9.83-6.04c-1.22-0.79-2.33-1.77-3.56-2.54
	c-0.96-0.6-0.92-1.32-0.67-2.31c2.69,1.66,5.28,3.28,7.88,4.86c1.62,0.99,3.19,2.11,4.92,2.86c1.91,0.83,3.96,1.34,5.97,1.91
	c3.02,0.85,6.05,1.64,9.08,2.44c0.34,0.09,0.7,0.13,1.23-0.13c-0.67-0.47-1.31-0.98-2.02-1.39c-4.34-2.56-8.72-5.05-13.03-7.66
	c-1.61-0.98-3.02-2.29-4.61-3.34c-1.13-0.74-1.48-1.7-1.31-3.16c0.4,0.14,0.95,0.17,1.05,0.4c0.55,1.23,1.6,1.84,2.67,2.49
	c6.69,4.02,13.38,8.05,20.06,12.09c1.14,0.69,1.14,0.7,1.26,2.26c4.94,1.82,10.11,2.68,15.35,3.1c4.31,0.35,8.53,1.15,12.71,2.22
	c2.17,0.56,4.43,0.9,6.7,0.48c0.5-0.09,1.02-0.19,1.46-0.42c5.24-2.69,10.76-4.5,16.61-5.26c2.78-0.36,5.54-0.02,8.29,0.42
	c0.64,0.1,1.28,0.19,2.06,0.01c-1.31-0.87-2.58-1.8-3.93-2.61c-3.19-1.92-6.45-3.72-9.62-5.69c-1.34-0.83-2.76-1.06-4.51-1.1
	c3.25-2.29,6.64-1.36,10.29-1.41c-3.02-2.34-6.42-3.57-9.55-5.75c1.43-0.81,2.44-0.52,3.39,0c2.76,1.5,5.56,2.93,8.21,4.6
	c1.87,1.18,3.77,1.82,5.97,1.78c1.01-0.02,2.02,0.17,3.39,0.3c-6.05-3.89-12.26-7.01-17.81-11.79c0.96-0.32,1.47-0.49,1.77-0.59
	c2.31,1.64,4.44,3.24,6.67,4.71c3.59,2.37,7.26,4.63,10.87,6.99c1.08,0.71,2.21,0.92,3.49,1.03c2.75,0.25,5.49,0.73,8.22,1.2
	c0.33,0.06,0.58,0.62,1.16,1.3c-1.2,0.15-1.95,0.25-2.7,0.34C379.8,419.91,404.54,432.65,410.13,434.28"/>
<path class="st0" d="M430.82,446.68c-0.33-0.3-0.56-0.7-0.83-0.72c-3.55-0.28-7.09-0.68-10.67-0.23c-1.13,0.14-2.38,0.2-3.43-0.15
	c-2.27-0.75-4.57-0.87-6.9-0.95c-0.25-0.01-0.49-0.08-1.24-0.2c0.71-0.31,0.94-0.5,1.17-0.5c2.25,0.03,4.51,0.11,6.76,0.12
	c0.71,0,1.45-0.05,2.12-0.24c3.58-1.05,7.15-1.13,10.8-0.26c2.23,0.54,4.48,1.4,6.85,0.93c1.63-0.33,3.32-0.61,4.81-1.29
	c1.43-0.65,2.76-0.74,4.23-0.52c1.51,0.23,3.04,0.55,4.55,0.49c3.4-0.14,6.72,0.4,9.91,1.39c2.08,0.64,4.15,0.75,6.24,0.99
	c3.55,0.4,7.09,0.74,10.38,2.31c1.88,0.89,3.88,1.15,5.96,1.13c0.98-0.01,2.03,0.24,2.93,0.64c2.38,1.05,4.63,2.45,7.07,3.31
	c1.2,0.42,2.71,0.02,4.07-0.1c1.58-0.14,3.16-0.59,4.73-0.53c3.53,0.15,6.97-0.41,10.43-0.87c0.82-0.11,1.65-0.54,2.36-1.01
	c2.09-1.38,4.26-2.49,6.73-3.06c2.2-0.51,4.31-1.35,6.51-1.85c1.11-0.25,2.31-0.16,3.47-0.08c0.5,0.03,0.97,0.42,1.39,1.08
	c-0.6,0.11-1.2,0.25-1.81,0.32c-5.18,0.58-10.15,1.73-14.63,4.64c-3.72,2.42-8.06,2.92-12.35,3.1c-2.48,0.11-4.93,0.07-7.35,0.78
	c-2.56,0.74-4.99,0.45-7.28-1.07c-1.96-1.31-4.2-1.98-6.49-2.5c-1.77-0.4-3.52-0.91-5.29-1.35c-1.77-0.44-3.54-0.87-5.31-1.28
	c-0.71-0.16-1.45-0.18-2.15-0.38c-3.46-1.01-7.04-1.04-10.58-1.41c-1.13-0.12-2.21-0.68-3.33-0.94c-1.76-0.42-3.52-0.84-5.31-1.1
	c-1.71-0.25-3.45-0.32-5.18-0.42c-0.47-0.03-1.02,0.05-1.43,0.27c-3.33,1.85-6.87,2.38-10.67,2.45c-3.01,0.05-6.01,1.04-9.02,1.59
	c-7.25,1.34-14.52,2.53-21.91,1.26c-3.71-0.64-7.03-2.39-10.4-3.94c-1.52-0.7-2.96-1.57-4.42-2.39c-0.31-0.18-0.55-0.48-0.84-0.7
	c-0.52-0.4-0.8-0.9-0.42-1.51c0.43-0.7,1.01-0.4,1.52-0.1c1.76,1.02,3.49,2.11,5.27,3.1c5.37,2.99,11.04,4.77,17.29,4.69
	c5.86-0.07,11.61-0.84,17.31-2.09C427.84,447.19,429.26,446.97,430.82,446.68"/>
<path class="st0" d="M546.42,350.33c-2.48-0.49-4.56,0.59-6.66,1.53c-1.16,0.52-2.32,0.8-3.61,0.46c-0.54-0.14-1.16-0.08-1.73-0.01
	c-1.6,0.22-2.73-0.33-3.62-1.7c-0.5-0.78-1.07-1.55-1.76-2.15c-0.37-0.32-1.21-0.55-1.57-0.35c-1.19,0.65-2.41,0.53-3.61,0.39
	c-2.08-0.23-4.16-0.54-6.21-0.93c-5.24-0.98-10.45-1.16-15.59,0.45c-2.99,0.94-5.96,1.84-9.15,1.93c-1.63,0.05-3.24,0.63-4.87,0.93
	c-1.5,0.28-3.07,0.33-4.48,0.83c-1.19,0.42-2.25,1.28-3.24,2.1c-0.32,0.27-0.34,1.07-0.25,1.58c0.15,0.78,0.6,1.49,0.78,2.27
	c0.37,1.54-0.81,2.91-2.15,2.32c-3.35-1.48-6.88-1.06-10.35-1.28c-0.88-0.06-1.76-0.07-2.62-0.19c-1-0.15-1.73-0.36-2.14-1.68
	c-0.37-1.2-1.59-2.24-2.64-3.11c-1.5-1.24-3.16-2.29-4.79-3.38c-5.51-3.67-11.65-5.2-18.21-5.38c-1.76-0.05-3.35,0.4-4.82,1.22
	c-2.61,1.45-5.23,2.91-7.69,4.59c-2.65,1.8-5.15,3.82-7.64,5.84c-0.57,0.46-1.05,1.26-1.21,1.98c-0.24,1.11-0.8,1.75-1.71,2.37
	c-1.01,0.69-1.63,0.24-2.55-0.18c-2.56-1.16-6.43,1.14-7.36,4.22c-0.4,1.32-0.6,2.69-1.65,3.75c-0.63,0.63-1.27,0.98-2.13,0.74
	c-1.83-0.51-3.66-1.01-5.47-1.57c-0.47-0.15-0.89-0.5-1.28-0.81c-0.53-0.43-1.07-1.02-0.52-1.65c0.35-0.41,1.05-0.68,1.62-0.72
	c0.54-0.04,1.11,0.3,1.67,0.48c0.9,0.3,1.8,0.6,2.69,0.9c0.95,0.33,1.67,0.16,2.21-0.79c0.5-0.88,1.21-1.64,1.74-2.51
	c1.23-2.05,3.16-2.86,5.39-3.32c1.38-0.28,2.74-0.75,4.06-1.27c0.41-0.16,0.75-0.68,0.97-1.11c0.64-1.3,1.66-2.16,2.89-2.89
	c2.5-1.47,4.96-3.03,7.44-4.55c2.6-1.6,5.27-3.1,7.78-4.83c3.36-2.32,7.01-2.18,10.75-1.62c1.3,0.19,2.62,0.3,3.88,0.63
	c1.54,0.4,3.14,0.78,4.51,1.54c3.49,1.94,6.93,4.02,10.27,6.21c1.04,0.69,1.9,1.84,2.5,2.96c0.52,0.98,1.17,1.42,2.17,1.53
	c2.82,0.3,5.64,0.57,8.46,0.89c1.22,0.14,2.43,0.36,3.65,0.55c0.8-1.02,0.32-2.04,0.19-2.99c-0.17-1.21,0.14-2.01,1.18-2.78
	c2.04-1.52,4.39-1.97,6.78-2.15c4.96-0.38,9.86-1.03,14.67-2.3c5.69-1.5,11.49-1.94,17.35-1.57c0.41,0.03,0.97,0.07,1.19,0.34
	c1.13,1.34,2.54,0.84,3.87,0.64c0.93-0.14,1.85-0.45,2.73-0.81c1.79-0.74,3.28-0.3,4.58,1.03c0.25,0.26,0.54,0.51,0.72,0.82
	c1.32,2.24,3.78,2.54,5.88,3.44c0.41,0.17,1.01,0.02,1.49-0.1c1.41-0.37,2.81-0.79,4.2-1.22
	C544.43,349.53,545.46,349.47,546.42,350.33"/>
<path class="st0" d="M561.19,436.01c-1.21-0.43-2.42-0.85-3.63-1.3c-2.8-1.05-5.55-2.23-8.4-3.13c-4.95-1.56-9.6-3.82-14.2-6.14
	c-4.75-2.39-9.34-5.08-13.96-7.71c-2.02-1.15-3.93-2.49-5.88-3.76c-0.43-0.28-0.96-0.55-1.16-0.97c-0.26-0.53-0.48-1.32-0.25-1.77
	c0.23-0.43,1.01-0.73,1.59-0.8c0.68-0.08,1.3,0.26,1.25,1.13c-0.06,1.06,0.68,1.55,1.41,2.04c2.43,1.62,4.82,3.3,7.31,4.82
	c11.21,6.85,23.22,11.95,35.7,15.95c3.85,1.23,7.86,1.97,11.8,2.93c0.07,0.02,0.14,0.03,0.22,0.04c1.78,0.19,2.65-0.1,2.8-0.95
	c0.15-0.86-0.89-2.6-1.92-2.94c-1.66-0.54-3.39-0.89-5.05-1.43c-3.32-1.07-6.66-2.09-9.92-3.34c-4.69-1.8-9.38-3.61-13.93-5.73
	c-3.16-1.47-6.08-3.47-9.11-5.21c-1.57-0.9-3.17-1.75-4.27-3.27c-0.81-1.11-0.77-1.58,0.47-2.61c0.66,0.91,1.2,1.94,2,2.69
	c0.84,0.78,1.93,1.3,2.94,1.88c4,2.26,7.9,4.74,12.04,6.7c7.07,3.32,14.4,6.04,21.88,8.28c3.68,1.11,7.48,1.83,11.22,2.74
	c1.11,0.27,2.21,0.6,3.32,0.9c-0.02,0.15-0.04,0.31-0.06,0.46c-2.5-0.26-5-0.51-7.63-0.78c0,0.59-0.04,0.93,0.01,1.26
	c0.25,1.63-0.32,2.6-1.97,2.65c-2.1,0.05-4.25,0.02-6.29-0.41c-2.24-0.47-4.3-0.75-6.59-0.07c-1.38,0.41-3.05,0.15-4.52-0.16
	c-2.57-0.54-5.1-1.26-7.6-2.07c-3.53-1.15-7.11-2.23-10.51-3.71c-5.54-2.42-10.91-5.22-16.4-7.73c-6.28-2.87-11.76-7.05-17.74-10.42
	c-0.31-0.17-0.56-0.45-0.89-0.72c0.35-0.68,0.75-1.08,1.53-0.68c1.48,0.76,3.08,1.37,4.44,2.31c6.26,4.31,12.85,8.08,19.63,11.48
	c7.57,3.8,15.48,6.82,23.55,9.4C556.58,436.54,558.84,436.74,561.19,436.01"/>
<path class="st0" d="M292.23,375.73c-0.95,1.87-1.86,3.76-2.87,5.6c-0.32,0.58-0.6,1.05-0.56,1.79c0.07,1.2-0.49,1.75-1.6,1.91
	c-1.94,0.29-3.9,0.49-5.82,0.86c-3.1,0.58-6.1-0.17-9.14-0.45c-1.73-0.16-3.49-0.07-5.24-0.1c-1.75-0.03-3.5-0.07-5.25-0.09
	c-2.33-0.03-4.68-0.22-6.99-0.01c-4.16,0.38-7.17,2.65-9.19,6.26c-0.45,0.8-0.69,1.61-0.19,2.48c0.67,1.18,0.76,2.24-0.16,3.43
	c-0.44,0.57-0.49,1.5-0.56,2.28c-0.13,1.36-0.7,2.31-1.94,2.95c-0.83,0.43-1.55,1.08-2.34,1.61c-0.97,0.64-1.89,1.49-2.96,1.83
	c-1.63,0.52-2.98,1.17-4.17,2.52c-1.22,1.36-3.19,1.24-4.95,1.24c-0.95,0-1.9-0.14-2.84-0.09c-2.14,0.11-4.2,0.49-5.83,2.09
	c-0.83,0.82-1.75,1.55-2.61,2.32c0.58,2.05,0.54,2.14-1.52,2.92c-0.31-0.86-0.69-1.7-0.91-2.59c-0.19-0.75,0.08-1.38,0.79-1.87
	c0.77-0.54,1.52-1.17,2.11-1.9c2.06-2.59,4.85-3.32,7.97-3.32c1.1,0,2.19-0.01,3.29,0.04c1.61,0.06,2.99-0.32,4.15-1.56
	c0.49-0.54,1.21-0.63,2.1-0.61c1.03,0.03,2.14-0.76,3.11-1.36c0.79-0.49,1.36-1.32,2.14-1.82c3.14-2.01,3.67-5.08,3.42-8.41
	c-0.16-2.06,0.03-3.78,2.17-4.73c0.36-0.16,0.62-0.6,0.89-0.95c2.02-2.66,4.87-3.87,8-4.53c2-0.42,4-0.52,6.08-0.33
	c2.95,0.26,5.95,0.07,9.21,0.07c-0.41-0.6-0.69-1.02-0.99-1.45c1.16-0.68,2.34-1.37,3.53-2.06c0.53,1.56-1.18,2.15-1.63,3.47
	c4.17,0.62,8.19,1.16,12.21-0.03c0.33-0.1,0.81-0.26,0.91-0.51c0.52-1.39,1.91-1.69,2.9-2.49c1.12-0.91,2.08-2.01,3.13-3.02
	c0.6-0.59,1.23-1.15,1.84-1.73C292.01,375.49,292.12,375.61,292.23,375.73"/>
<path class="st0" d="M385.14,364.95c-5.11-3.73-10.47-6.68-16.66-7.99c-5.51-1.17-11.02-2.2-16.66-2.36
	c-1.38-0.04-2.77-0.18-4.15-0.13c-4.76,0.2-8.3,2.42-10.62,6.59c-0.21,0.38-0.4,0.78-0.63,1.15c-0.07,0.11-0.25,0.14-0.38,0.21
	c-2.02-1.14-2.12-1.81-0.46-3.28c0.32-0.28,0.71-0.49,1.06-0.74c1.56-1.05,3.21-2,4.65-3.2c1.14-0.95,2.14-1.84,3.76-1.88
	c1.88-0.05,3.75-0.56,5.62-0.55c2.61,0.03,5.22,0.36,7.83,0.56c1.59,0.12,3.19,0.23,4.78,0.39c1.5,0.16,3.05,0.21,4.49,0.62
	c4.34,1.25,8.64,2.64,12.94,4c0.97,0.31,1.91,0.72,2.86,1.07c3.32,1.22,4.29,4.27,5.85,7.24c1.29,0.65,2.88,1.45,4.66,2.35
	c-1.74,0.26-3.11-0.1-4.62-0.7c-3.5-1.38-7.15-2.39-10.73-3.57c-4.01-1.31-8.02-2.64-12.03-3.95c-0.9-0.29-1.82-0.49-2.73-0.72
	c-1.18-0.3-2.35-0.59-3.48-1.07C368.96,359.97,377.05,362.46,385.14,364.95"/>
<path class="st0" d="M492.16,446.1c-3.3-2.71-6.61-5.42-9.9-8.15c-0.65-0.54-1.27-1.15-1.81-1.8c-0.11-0.14,0.17-0.6,0.24-0.84
	c1.23,0.82,2.37,1.56,3.48,2.34c1.78,1.25,3.56,2.5,5.31,3.79c1.23,0.91,2.44,1.86,3.61,2.84c0.86,0.72,1.62,1.29,2.91,1
	c0.62-0.14,1.41,0.46,2.52,0.87c-0.82,0.37-1.18,0.54-1.67,0.76c1.9,1.38,3.74,2.72,5.58,4.05c-0.08,0.15-0.17,0.29-0.25,0.44
	c-0.52-0.17-1.08-0.28-1.56-0.53c-4.15-2.19-8.55-3.23-13.25-3.07c-2.46,0.08-4.67-0.65-6.91-1.73c-4.68-2.27-9.06-4.99-13.44-7.76
	c-1.29-0.82-2.51-1.75-3.77-2.62c-1.32-0.91-2.65-1.8-3.96-2.72c-0.44-0.31-0.85-0.67-1.64-1.32c1.79-0.09,3.01,0.15,4.08,0.85
	c2.26,1.47,4.5,2.97,6.73,4.49c4.34,2.96,8.69,5.91,13.55,7.97c1.51,0.64,3.12,1.08,5.14,1.76c-4.42-3-8.44-5.65-12.36-8.42
	c-3.9-2.76-7.7-5.65-11.85-8.7c1.41-0.11,2.3,0.07,3.33,0.53c3.68,1.64,6.39,4.57,9.6,6.84c4.53,3.2,9.04,6.41,14.04,8.83
	c0.63,0.3,1.3,0.54,1.95,0.81C491.97,446.43,492.07,446.27,492.16,446.1"/>
<path class="st0" d="M290.77,397.98c3.34,2.05,5.34,5.62,8.73,7.65c4.55-1.48,8.63,0.35,12.72,2.17c-3.27-0.84-6.51-1.84-10.05-1.96
	c-0.27,1.04,0,1.69,0.94,2.15c3.2,1.58,6.37,3.23,9.59,4.76c4.18,1.99,8.4,3.9,13.02,6.03c-3.36,0.38-5.7-1.66-8.52-1.85
	c2.97,1.41,5.93,2.81,8.9,4.21c-6.02-0.51-11.11-3.85-16.98-4.93c2.17,1.44,4.33,2.87,6.5,4.31c-4.11-0.59-24.65-13.03-26.88-16.06
	c1.08-0.4,1.97-0.11,2.84,0.47c2.73,1.82,5.45,3.65,8.21,5.42c1.39,0.89,2.81,1.75,4.3,2.47c0.66,0.32,1.5,0.28,2.33,0.12
	c-1.94-1.38-3.95-2.66-5.79-4.15c-3.34-2.7-6.91-5.16-9.39-8.78C290.84,399.46,290.12,398.98,290.77,397.98"/>
<path class="st0" d="M656.42,397.43c0.7-0.28,1.39-0.58,2.1-0.82c2.46-0.83,2.91-1.47,2.6-4.02c-0.47-3.79-1.64-7.38-3.08-10.89
	c-0.94-2.28-1.84-4.54-3.48-6.48c-2.46-2.92-5.69-4.46-10.78-2.11c-0.46,0.21-0.92,0.45-1.4,0.62c-2.19,0.79-4.74-0.81-4.6-3.13
	c0.13-2.24-0.76-4.12-1.49-6.07c-0.65-1.73-2.23-2.39-3.9-2.86c-2.26-0.64-4.36-1.6-6.18-3.15c-2.03-1.75-3.46-3.91-4.47-6.36
	c-0.08-0.2,0.08-0.51,0.15-0.91c1.43,0.41,2.46,1.17,3.1,2.33c1.71,3.09,4.38,4.81,7.72,5.62c3.76,0.9,5.69,3.54,6.75,7.02
	c0.3,0.98,0.51,1.98,0.85,2.94c0.72,1.98,1.56,2.47,3.5,1.75c1.62-0.6,3.25-0.66,4.93-0.74c3.37-0.17,5.68,1.52,7.57,4.02
	c2.37,3.13,3.71,6.73,4.73,10.48c0.57,2.11,1.28,4.18,1.8,6.3c0.26,1.04,0.27,2.15,0.32,3.23c0.06,1.23-0.59,2.2-1.61,2.66
	c-1.56,0.7-3.27,1-4.99,1.05C656.52,397.74,656.47,397.58,656.42,397.43"/>
<path class="st0" d="M252.58,417.68c0.08,0.26,0.16,0.51,0.32,1.01c-1.27-0.06-2.67-0.76-3.25,1.14c1.89,0.66,3.77,1.45,5.72,1.95
	c1.36,0.35,2.73,0.11,3.84-1.02c0.74-0.75,1.72-1.07,2.97-0.76c-0.51,1.61-2.37,1.17-3.3,2.24c1.02,1.07,2.33,1.54,3.62,1.86
	c5.33,1.33,10.72,2.11,16.25,1.85c4.95-0.24,9.9-0.37,14.86-0.52c1.02-0.03,2.05-0.03,3.06,0.12c0.66,0.1,1.28,0.48,2.35,0.92
	c-2.24,0.97-4.14,1.05-5.99,1.19c-7.14,0.52-14.29,0.7-21.41-0.09c-3.39-0.38-6.79-0.86-10.07-1.99c-3.71-1.28-7.53-2.25-11.3-3.35
	c-0.35-0.1-0.75-0.15-1.03-0.36c-2.36-1.8-4.85-0.99-7.31-0.39c-1.94,0.47-3.83,0.53-5.8-0.26c0.1-0.47,0.18-0.86,0.24-1.2
	c2.24-0.21,4.47-0.04,6.4-0.71c2.55-0.87,5.32-0.18,7.76-1.44c0.58-0.3,1.4-0.13,2.1-0.18L252.58,417.68z"/>
<path class="st0" d="M558.46,344.27c1.09-0.86,0.87-1.92,0.46-3.08c-0.54-1.53-0.32-3.05,0.64-4.37c1.2-1.65,2.44-3.17,4.65-3.68
	c3.24-0.76,6.4-1.9,9.65-2.65c2.04-0.47,4.18-0.58,6.28-0.74c3.06-0.22,5.64,1.21,8.3,2.67c1.13-1.01,2.51-1.22,4.02-1.19
	c1.14,0.02,2.29-0.2,3.43-0.36c1.6-0.22,3.17-0.33,4.69,0.45c1.1,0.56,2.01,1.33,2.11,2.58c0.24,2.97,2.34,4.14,4.68,5.16
	c0.76,0.33,1.47,0.79,2.05,1.51c-2.11-0.71-4.27-1.33-6.31-2.2c-0.78-0.34-1.34-1.24-1.95-1.93c-0.23-0.26-0.29-0.66-0.44-0.99
	c-1.15-2.63-1.77-2.99-4.67-2.71c-0.36,0.04-0.72,0.1-1.08,0.19c-1.19,0.3-2.38,0.61-3.52,0.91c0,0.9,0.13,1.7-0.05,2.43
	c-0.11,0.47-0.6,1.02-1.05,1.18c-0.29,0.1-1.03-0.32-1.2-0.68c-1.6-3.41-4.74-4.41-8.02-4.94c-1.61-0.26-3.32,0.1-4.98,0.19
	c-1.8,0.09-3.61,0.22-5.41,0.27c-2.55,0.08-4.74,1.16-6.81,2.49c-2.38,1.54-3.19,4.11-2.31,6.83c0.07,0.21,0.2,0.4,0.25,0.6
	c0.32,1.24,0.06,2.32-0.74,2.75C560.16,345.49,559.31,345.2,558.46,344.27"/>
<path class="st0" d="M409.35,441.62c-0.4-0.07-0.82-0.08-1.19-0.23c-5.94-2.39-11.89-4.74-17.5-7.86c-1.2-0.67-2.37-0.64-3.73-0.05
	c-2.11,0.92-4.38,1.5-6.58,2.18c-0.32,0.1-0.69,0.01-1.06,0.01c0.27-1.4,0.27-1.4,1.71-2.57c-1.06-0.38-2.18-0.68-3.19-1.18
	c-0.44-0.22-0.66-0.86-0.98-1.31c0.52-0.31,1.01-0.81,1.56-0.89c0.6-0.09,1.26,0.19,1.89,0.33c1.1,0.23,2.19,0.48,3.33,0.53
	c-2.38-2.25-5.49-2.31-8.48-2.72c0.02-0.14,0.03-0.29,0.05-0.43c0.35-0.06,0.7-0.13,1.06-0.16c0.34-0.03,0.69-0.01,1.14-0.01
	c-2.16-1.7-4.21-3.32-6.2-4.88c0.45-1.33,1.29-1.36,1.73-0.69c1.4,2.14,3.76,2.6,5.77,3.69c1.87,1.02,3.67,1.95,5.9,2.07
	c1.22,0.06,2.41,0.92,3.59,1.48c0.29,0.14,0.68,0.53,0.66,0.77c-0.09,1.18,0.8,1.47,1.57,1.84c4.86,2.33,9.72,4.65,14.59,6.97
	c1.12,0.53,2.27,1.01,3.36,1.58c0.47,0.25,0.85,0.67,1.27,1.02C409.51,441.29,409.43,441.46,409.35,441.62"/>
<path class="st0" d="M439.84,434.48c-5.42-0.91-9.82-3.12-14.24-5.35c-3.89-1.96-8.01-3.44-11.93-5.33
	c-5.61-2.7-11.18-5.51-16.69-8.42c-2.77-1.46-5.37-3.23-8.01-4.93c-0.58-0.37-1.11-0.98-1.38-1.6c-0.28-0.66-0.22-1.46,0.62-1.88
	c0.83-0.42,1.39,0,1.89,0.59c0.05,0.06,0.12,0.12,0.12,0.18c0.26,2.79,2.93,3.22,4.64,4.37c3.19,2.15,6.68,3.87,10.11,5.63
	c5.18,2.66,10.38,5.3,15.65,7.77c5.41,2.54,10.92,4.87,16.38,7.33C437.85,433.23,438.63,433.78,439.84,434.48"/>
<path class="st0" d="M293.01,374.69c1.83-2.33,3.77-4.25,7.13-4.28c2.36-0.02,4.62,0.31,6.92,0.64c4.54,0.66,9.11,1.11,13.64,1.84
	c5.72,0.92,11.47,0.76,17.22,0.98c1.75,0.07,3.49,0.27,5.23,0.46c0.67,0.07,1.42,0.25,1.19,1.18c-0.21,0.8-0.93,0.87-1.61,0.7
	c-3.74-0.9-7.53-0.71-11.33-0.81c-3.79-0.1-7.57-0.57-11.33-1.01c-6.52-0.75-13.04-1.57-19.55-2.42
	C297.49,371.56,295.14,372.71,293.01,374.69"/>
<path class="st0" d="M553.22,415.83c0.72,0.17,1.49,0.23,2.14,0.53c1.45,0.69,2.86,1.46,4.25,2.27
	c11.88,6.92,24.54,11.89,37.91,15.07c3.15,0.75,5.35,0.79,7.72,0.21c-0.16-0.87-0.32-1.75-0.49-2.64c1.16-0.24,1.48,0.5,1.57,1.21
	c0.12,0.97-0.14,2.05-1.12,2.39c-1.13,0.4-2.44,0.75-3.59,0.59c-3.02-0.43-6.04-1.01-9-1.79c-3.58-0.95-7.1-2.15-10.63-3.28
	c-1.04-0.33-2.04-0.78-3.07-1.14c-6.12-2.16-11.92-5.07-17.86-7.66c-0.79-0.34-1.46-0.96-2.2-1.4c-1.55-0.93-3.13-1.8-4.67-2.76
	c-0.45-0.28-0.78-0.76-1.16-1.15C553.08,416.14,553.15,415.98,553.22,415.83"/>
<path class="st0" d="M568.72,412.45c0.78,0,1.42-0.1,2.01,0.02c0.82,0.17,0.75,0.83,0.76,1.54c0,0.33,0.65,0.73,1.08,0.96
	c2.58,1.36,5.16,2.72,7.77,4.01c7.81,3.83,15.77,7.24,24.38,8.87c1.47,0.28,2.97,0.43,4.64,0.67c-0.27-0.95-0.46-1.61-0.66-2.32
	c1.67,0.14,2.76,1.27,2.44,2.57c-0.11,0.43-0.73,1.03-1.13,1.05c-1.37,0.05-2.77-0.02-4.13-0.23c-1.58-0.26-3.11-0.82-4.69-1.08
	c-5.31-0.86-10.18-3.1-15.1-5.06c-4.5-1.79-8.8-4.1-13.1-6.35C571.18,416.14,569.4,414.94,568.72,412.45"/>
<path class="st0" d="M323.43,411.02c-0.04,0.1-0.09,0.19-0.13,0.29c0.43,0.2,0.85,0.4,1.28,0.6c0.04-0.09,0.09-0.19,0.13-0.28
	C324.29,411.42,323.86,411.22,323.43,411.02 M332.58,414.64c-0.1,1.26,1.02,1.25,1.73,1.54c2.36,0.96,4.77,1.8,7.14,2.73
	c0.85,0.33,1.65,0.81,2.37,1.58c-0.51-0.08-1.05-0.07-1.52-0.24c-3.63-1.26-7.29-2.45-10.86-3.85c-4.73-1.86-9.39-3.89-14.07-5.88
	c-0.74-0.31-1.48-0.67-2.1-1.16c-0.27-0.21-0.26-0.8-0.52-1.74c2.67,1.11,4.85,2.01,7.5,3.11c-0.84-1.09-1.37-1.78-1.95-2.53
	c2.07,0.74,4.09,1.38,6.04,2.18c2.01,0.83,4,1.75,5.92,2.78c1.85,1,4.06,1.38,5.5,3.14C335.85,416.29,334.19,415.54,332.58,414.64
	c-1.39-0.44-2.77-0.89-4.15-1.34C329.73,414.04,330.87,415.38,332.58,414.64"/>
<path class="st0" d="M449.92,425.18c-13.95-5.79-27.78-11.83-40.63-20.19c0.49-0.19,0.97-0.55,1.27-0.45
	c1.29,0.45,2.58,0.94,3.78,1.58c5.4,2.89,10.74,5.89,16.16,8.74c2.19,1.15,4.58,1.92,6.81,2.99c3.75,1.8,7.45,3.7,11.15,5.59
	c0.63,0.33,1.17,0.84,1.76,1.26C450.12,424.86,450.02,425.02,449.92,425.18"/>
<path class="st0" d="M446.7,353.14c3.85,1.2,6.08,3.96,8.72,6.17c0.55,0.46,1.13,0.98,1.78,1.19c2.27,0.74,4.18,2.03,5.93,3.61
	c1.03,0.92,2.11,1.8,3.11,2.75c1.01,0.96,1.87,2.02,2.07,3.77c-3.32-2.06-5.37-5.33-8.63-7.11c3.56,4.75,7.69,9.08,10.07,14.61
	c0.13,0.31,0.15,0.66-0.04,1.11c-0.73-0.95-1.46-1.91-2.2-2.86c-4.15-5.34-8.21-10.76-12.92-15.64c-1.5-1.55-3.02-3.1-4.6-4.57
	c-0.51-0.48-1.34-0.61-1.87-1.07C447.6,354.65,447.29,353.98,446.7,353.14"/>
<path class="st0" d="M596.82,361.2c1.66,0.48,3.4,0.77,4.95,1.48c7.11,3.25,13.85,7.15,20.2,11.72c1.71,1.23,3.23,2.71,4.88,4.12
	c0.18-0.27,0.33-0.49,0.5-0.73c1.37,0.62,2.38,1.63,3.09,2.93c0.42,0.77,0.47,1.69-0.41,2.07c-0.4,0.18-1.27-0.18-1.64-0.57
	c-0.72-0.77-1.24-1.72-1.87-2.63c-0.88-0.45-1.99-0.82-2.86-1.5c-6.33-4.98-13.1-9.23-20.34-12.76c-2.27-1.1-4.47-2.33-6.71-3.51
	C596.68,361.61,596.75,361.41,596.82,361.2"/>
<path class="st0" d="M447.58,432.88c-1.69-0.5-3.45-0.84-5.07-1.53c-10.65-4.55-21.21-9.29-31.44-14.72
	c-1.45-0.77-2.84-1.66-4.24-2.48c0.57-1.31,1.25-0.97,1.92-0.63c2.73,1.39,5.44,2.81,8.19,4.16c6.07,2.99,12.13,5.99,18.24,8.91
	c4.17,1.99,8.4,3.82,12.6,5.73C447.71,432.5,447.65,432.69,447.58,432.88"/>
<path class="st0" d="M407.67,407.04c1.1-0.62,1.8-0.59,2.66-0.06c3.89,2.43,7.82,4.81,11.78,7.14c3.26,1.92,6.56,3.75,9.87,5.58
	c4.72,2.61,9.46,5.18,14.18,7.78c0.36,0.2,0.66,0.5,1.21,0.93c-0.6,0-0.93,0.1-1.16-0.01c-3.73-1.77-7.49-3.49-11.16-5.37
	c-3.49-1.79-6.94-3.68-10.33-5.65c-5.17-3-10.27-6.11-15.4-9.18C408.82,407.9,408.38,407.54,407.67,407.04"/>
<path class="st0" d="M325.62,362.81c-1.24,0.27-2.03-0.4-2.73-0.91c-2.1-1.53-4.54-2.15-6.99-2.25c-6.73-0.27-13.43,0.11-19.89,2.3
	c-1.31,0.44-2.54,1.08-3.82,1.62c-0.36,0.15-0.75,0.27-1.36,0.04c0.41-0.31,0.77-0.69,1.22-0.91c4.18-2.13,8.53-3.73,13.26-4.12
	c3.11-0.26,6.21-0.79,9.32-0.83c3.15-0.05,6.23,0.73,9.04,2.24C325.03,360.71,325.25,361.15,325.62,362.81"/>
<path class="st0" d="M283.17,407.95c2.01-0.88,3.48-0.08,4.88,0.79c2.91,1.81,5.76,3.69,8.66,5.52c3.44,2.17,6.91,4.29,10.35,6.45
	c0.65,0.41,1.23,0.95,1.99,1.54c-1.23,1.04-2.22,0.55-3.09,0.01c-1.55-0.95-3-2.05-4.55-3.01c-2.15-1.34-4.37-2.58-6.52-3.92
	c-2.71-1.69-5.37-3.45-8.06-5.16C285.64,409.4,284.4,408.68,283.17,407.95"/>
<path class="st0" d="M631.09,378.28c-6.33-7.63-14.59-11.98-23.66-15.77c4.33-0.32,7.59,1.33,10.76,3.12
	c3.99,2.25,7.91,4.64,11.04,8.07C630.29,374.87,631.46,376.04,631.09,378.28"/>
<path class="st0" d="M624.61,440.46c2.21-1.07,4.38-2.25,6.64-3.19c1.39-0.58,2.91-0.99,4.41-1.16c2.29-0.25,3.99-1.35,5.27-3.14
	c1.57-2.2,2.75-4.61,3.33-7.28c0.1-0.44,0.36-0.84,0.73-1.21c0.55,2.47,0.36,4.83-1.02,6.95c-0.95,1.45-1.94,2.92-3.16,4.14
	c-0.82,0.83-2,1.46-3.13,1.8c-4.11,1.22-8.27,2.28-12.42,3.39c-0.19,0.05-0.41,0.01-0.62,0.01
	C624.62,440.66,624.61,440.56,624.61,440.46"/>
<path class="st0" d="M506.7,425.83c-4.31,0.13-18.52-5.01-22.98-8.13c-0.04-0.69-0.09-1.4-0.13-1.98c2.44,1.2,4.9,2.51,7.44,3.65
	c2.51,1.14,5.08,2.15,7.65,3.16C501.24,423.53,504.04,424,506.7,425.83"/>
<path class="st0" d="M496.81,413.02c1.64,0.73,2.99,1.23,4.24,1.92c5.82,3.2,11.6,6.46,17.66,9.84c-1.13,0.45-1.93,0.14-2.67-0.2
	c-5.93-2.73-11.9-5.39-17.44-8.89C497.39,414.92,497.39,414.92,496.81,413.02"/>
<path class="st0" d="M607.5,421.79c2.9-0.5,5.69,0.12,8.48,0.73c5.13,1.11,10.29,1.99,15.53,2.24c1.73,0.08,3.46,0.01,5.37,0.01
	c-1.04,1.24-2.43,1.33-3.74,1.33c-2.18,0-4.38-0.05-6.53-0.35c-4.03-0.56-8.06-1.23-12.05-2.03
	C612.18,423.25,609.85,422.45,607.5,421.79"/>
<path class="st0" d="M620.78,385.97c-0.69-0.28-1.43-0.47-2.05-0.86c-3.54-2.17-6.97-4.55-10.61-6.54
	c-2.22-1.21-4.75-1.84-7.48-2.86c0.59-0.17,0.91-0.36,1.22-0.33c1.08,0.1,2.22,0.11,3.23,0.47c4.13,1.48,8.07,3.35,11.69,5.87
	c0.9,0.62,1.83,1.2,2.66,1.91c0.63,0.54,1.11,1.25,1.66,1.89C620.99,385.67,620.88,385.82,620.78,385.97"/>
<path class="st0" d="M266.48,416.68c-0.64-0.49-1.42-1.09-2.37-1.82c0.53-0.4,0.85-0.64,1.27-0.95c1.1,2.22,2.99,3.13,5.12,3.87
	c1.92,0.66,3.72,1.67,5.56,2.55c0.79,0.37,1.49,1.01,0.99,1.86c-0.28,0.47-1.18,0.61-1.84,0.81c-0.22,0.06-0.56-0.14-0.8-0.29
	c-2.47-1.53-4.94-3.06-7.38-4.65C266.78,417.88,266.74,417.36,266.48,416.68"/>
<path class="st0" d="M365.82,365.56c4.05-0.12,14.61,4.18,17.57,7.42c-1.99-0.62-3.55-0.97-5-1.58c-4.07-1.72-8.1-3.55-12.14-5.35
	C366.08,365.98,365.98,365.75,365.82,365.56"/>
<path class="st0" d="M592.28,389.46c-3.53-1.18-6.74-1.06-9.92-1.17c-0.09,0-0.16-0.22-0.67-0.77c0.39-0.17,0.76-0.46,1.16-0.5
	c1.93-0.18,3.9-0.55,5.8-0.33C589.92,386.84,591.79,386.81,592.28,389.46"/>
<path class="st0" d="M252.58,417.68l0.04,0.02c-1.92-1.23-3.85-2.47-5.79-3.71c0.67-0.88,1.26-1.2,2.17-0.69
	c1.63,0.93,3.33,1.74,4.94,2.7c0.4,0.24,0.84,0.93,0.77,1.33c-0.13,0.75-0.84,0.92-1.56,0.67
	C252.95,417.93,252.77,417.79,252.58,417.68"/>
<path class="st0" d="M466.35,383.35c-0.37-0.12-0.55-0.12-0.63-0.21c-2.56-2.75-5.13-5.49-7.64-8.29c-0.42-0.47-0.56-1.18-0.61-1.91
	C461.16,375.75,464.29,378.99,466.35,383.35"/>
<path class="st0" d="M376.87,373.76c-1.44,0.86-2.56,0.8-3.8,0.36c-2.75-0.96-5.55-1.77-8.29-2.81c2.09-0.7,4.09-0.13,6.04,0.4
	C372.79,372.23,374.7,373.01,376.87,373.76"/>
<path class="st0" d="M505.74,441.27c0.56,0.07,1.18,0,1.66,0.22c1.37,0.63,2.71,1.34,4.01,2.1c0.94,0.56,1.8,1.25,2.76,1.92h-3.99
	C509.73,444.51,507.62,442.2,505.74,441.27"/>
<path class="st0" d="M458.26,391.95c0.25,0.89,0.57,1.39,0.46,1.77c-0.76,2.76-2.27,5.11-4.18,7.23
	C455.36,397.94,456.54,395.09,458.26,391.95"/>
<path class="st0" d="M599.01,381.41c-0.95,0.77-1.85,0.34-2.8-0.09c-1.47-0.67-2.97-1.26-4.46-1.88
	C594.31,379.39,596.96,379.09,599.01,381.41"/>
<path class="st0" d="M281.79,372.56c-0.3,2.51-2.42,3.39-3.32,5.23c-0.55-0.31-0.97-0.56-1.66-0.95
	C279.7,376.72,279.15,373.19,281.79,372.56"/>
<path class="st0" d="M230.03,416.88c2.26-0.38,3.08,1.22,4.32,2.08c-0.08,0.14-0.15,0.27-0.23,0.41
	C232.84,418.59,231.56,417.81,230.03,416.88"/>
<path class="st0" d="M468.31,441.76c-1.68-0.3-2.77-0.93-3.67-1.91C466,439.95,467.13,440.49,468.31,441.76"/>
<path class="st0" d="M603.32,420.65c-0.78-0.27-1.56-0.55-2.33-0.82c0.06-0.17,0.12-0.34,0.18-0.5c0.78,0.3,1.56,0.6,2.34,0.91
	C603.45,420.37,603.39,420.51,603.32,420.65"/>
<path class="st0" d="M458.39,436.49c0.82,0.37,1.64,0.74,2.46,1.11c-0.07,0.16-0.13,0.32-0.2,0.47c-0.84-0.33-1.67-0.66-2.51-0.99
	C458.22,436.88,458.3,436.69,458.39,436.49"/>
<path class="st0" d="M451.55,433.31c0.77,0.23,1.54,0.47,2.32,0.7c-0.04,0.14-0.08,0.28-0.12,0.42c-0.78-0.22-1.56-0.43-2.33-0.64
	C451.46,433.62,451.51,433.46,451.55,433.31"/>
<path class="st0" d="M551.64,347.85c0.05,0.7,0.83,1.79-1.12,1.57c0.46-0.6,0.81-1.06,1.17-1.52L551.64,347.85z"/>
<path class="st0" d="M408.12,412.78c-0.56-0.33-1.12-0.65-1.85-1.08c1.24-0.51,1.63,0.23,2.15,0.73
	C408.32,412.55,408.22,412.66,408.12,412.78"/>
<path class="st0" d="M208.23,415.74c-0.07-0.4-0.13-0.79-0.2-1.19c0.15-0.03,0.31-0.05,0.46-0.08c0.07,0.4,0.13,0.79,0.2,1.19
	C208.54,415.69,208.38,415.71,208.23,415.74"/>
<path class="st0" d="M551.69,347.9c0.27-0.54,0.53-1.09,0.8-1.64c0.15,0.09,0.3,0.19,0.44,0.28c-0.43,0.43-0.86,0.86-1.3,1.3
	C551.64,347.85,551.69,347.9,551.69,347.9"/>
<path class="st0" d="M434.72,437.66c0.42,0.19,0.84,0.37,1.26,0.55c-0.04,0.11-0.07,0.22-0.11,0.33c-0.45-0.14-0.89-0.27-1.34-0.41
	C434.6,437.97,434.66,437.81,434.72,437.66"/>
<path class="st0" d="M315.47,230.05c0.03,0.22,0.07,0.43,0.1,0.65c-0.41,0.03-0.81,0.06-1.22,0.09c-0.03-0.11-0.06-0.22-0.09-0.34
	C314.67,230.32,315.07,230.18,315.47,230.05 M352.41,230.24c0.06,0.16,0.12,0.33,0.19,0.49c-0.65,0.37-1.29,0.74-1.94,1.11
	c-0.08-0.16-0.17-0.32-0.25-0.48C351.07,230.99,351.74,230.61,352.41,230.24 M307.21,229.68c0.37,0.48,0.73,0.95,1.16,1.51
	c-0.93,0.75-1.79,1.44-2.84,2.29c0.61,0.02,1,0.04,1.4,0.05c-0.04,0.21-0.02,0.41-0.1,0.48c-1.38,1.26-2.86,2.27-4.77,2.67
	c-1.02,0.21-1.96,0.86-2.87,1.42c-0.31,0.19-0.68,0.82-0.58,1.07c0.46,1.12-0.3,1.52-0.99,2.05c-3.37,2.57-6.73,5.15-10.08,7.74
	c-0.72,0.56-1.38,1.19-2.07,1.79c0.09,0.13,0.18,0.25,0.27,0.38c1.56-1.02,3.14-2,4.67-3.07c4.09-2.87,8.21-5.7,12.21-8.7
	c1.41-1.06,2.94-1.52,4.51-1.44c6.23,0.28,12.46,0.77,18.69,1.14c3.23,0.19,6.47,0.3,10.26,0.47c-1.77,0.85-3.13,1.54-4.52,2.15
	c-1.41,0.62-2.85,1.18-4.3,1.71c-1.47,0.54-3.18,0.53-4.56,1.98c3.9,0.02,7.2-1.22,10.43-2.68c8.65-3.9,16.99-8.4,25.06-13.38
	c3.19-1.97,6.25-4.14,9.37-6.21c4.41-2.94,8.99-5.58,13.6-8.18c0.84-0.47,1.66-1,2.61-1.3c-9.86,10.62-20.96,19.23-35.64,22.17
	c3.83,0.42,7.29-0.56,10.76-1.86c3.27-1.23,6.2-2.96,9.09-4.87c5.79-3.83,11.19-8.13,16.12-13.03c1.04-1.03,2.12-2.08,2.91-3.29
	c1.81-2.78,4.46-4.41,7.29-5.89c1.91-1,3.85-1.98,5.67-3.12c1.35-0.84,2.54-1.92,3.93-2.99c-0.77-0.24-1.35-0.25-2.1,0.21
	c-1.84,1.12-3.78,2.08-5.69,3.07c-0.64,0.33-1.35,0.54-2.24,0.49c0.56-0.88,1.12-1.76,1.68-2.63c-0.93-0.85-1.6-0.52-2.21,0.26
	c-1.1,1.39-2.27,2.73-3.31,4.17c-0.97,1.34-2.12,2.39-3.54,3.26c-2.21,1.36-4.33,2.87-6.63,4.14c2.65-2.54,5.3-5.07,7.95-7.61
	c-0.04-0.11-0.08-0.22-0.13-0.34c-0.38,0.06-0.86,0-1.13,0.21c-3.37,2.69-6.63,5.51-10.06,8.1c-3.34,2.52-6.35,5.52-10.41,7.05
	c-1.77,0.67-3.36,1.87-4.97,2.92c-1.09,0.72-2.16,1.04-3.49,0.8c-0.89-0.16-1.86-0.09-2.76,0.08c-0.51,0.09-0.94,0.59-1.83,1.2
	c1.35,0.25,2.14,0.4,3.26,0.61c-5.57,2.57-10.87,5.03-16.18,7.48c0.04,0.11,0.09,0.21,0.13,0.31c1.07-0.28,2.13-0.57,3.2-0.85
	c-2.91,2.39-6.14,3.9-9.92,3.73c-4.62-0.21-9.23-0.56-13.84-0.82c-3.84-0.22-7.68-0.38-11.51-0.59c-0.12-0.01-0.24-0.15-0.58-0.37
	c1.39-1.13,2.7-2.25,4.09-3.27c0.3-0.22,0.89-0.16,1.32-0.08c5.94,1.03,11.88,1.52,17.95,1.12c3.16-0.21,6.27-0.46,9.76-1.18
	c-1.59-0.73-2.88-0.64-4.19-0.54c-2.31,0.17-4.61,0.34-6.92,0.45c-0.83,0.04-1.67-0.09-2.64-0.16c-0.04-0.85-0.08-1.56-0.11-2.32
	c-1.66-0.1-2.03,1.2-2.67,2.36c-1.5-0.18-3-0.35-4.85-0.57c1.78-1.59,3.84-1.95,5.59-2.88c4-2.12,8.01-4.22,11.59-7.04
	c0.84-0.67,1.8-1.19,2.66-1.83c0.73-0.54,1.39-1.17,2.2-1.85c-0.97-0.5-1.66-0.54-2.45,0.01c-2.53,1.75-5.2,3.32-7.65,5.17
	c-3.36,2.54-7.17,4.21-10.92,5.99c-0.8,0.38-1.86,0.22-2.8,0.31c-0.05-0.2-0.11-0.39-0.16-0.59c3.02-1.74,6.04-3.48,9.26-5.33
	c-0.05,0.58-0.07,0.85-0.11,1.46c0.99-0.78,1.92-1.32,2.62-2.08c2.98-3.23,6.98-4.98,10.52-7.39c5.6-3.83,11.3-7.52,16.91-11.32
	c0.65-0.44,1.06-1.23,1.46-2c-4.52,1.92-8.5,4.74-12.43,7.5c-3.97,2.77-8.32,4.88-12.2,7.81c-3.9,2.95-8.36,5.15-12.82,7.41
	c0.48-0.46,0.94-0.96,1.45-1.39c2.5-2.05,4.52-4.52,6.13-7.42c-0.92,0.73-1.86,1.44-2.75,2.21c-4.07,3.52-8.13,7.05-12.2,10.57
	c-1.06,0.91-2.22,1.22-3.64,0.88c-0.75-0.18-1.61,0.06-2.42,0.12L307.21,229.68z"/>
<path class="st0" d="M291.75,219.41c1.54-1.57,3.05-3.16,4.63-4.69c1.37-1.33,1.46-1.3,3.35,0.12
	C297.42,216.94,295.5,219.53,291.75,219.41 M251.66,226.75c-6.85,1.09-10.68,0.75-14.04-1.19
	C242.28,226.13,247.09,224.83,251.66,226.75 M254.83,226.08c0.04-0.11,0.07-0.21,0.11-0.32l20.12-3.28
	c-0.79,1.18-1.74,1.45-2.69,1.62c-2.27,0.4-4.55,0.78-6.83,1.1c-2.86,0.41-5.61,1.55-8.58,1.16
	C256.26,226.27,255.54,226.17,254.83,226.08 M279.05,220.46c-1.66,0.27-3.32,0.55-4.98,0.8c-5.78,0.85-11.55,1.82-17.36,2.47
	c-4.61,0.52-9.2,0.39-13.67-1.32c-2.44-0.93-5.09-1.26-7.59-2.06c-2.64-0.84-5.25-1.82-7.79-2.92c-1.48-0.64-2.75-0.68-4.31,0.46
	c2.88,1.64,5.88,2.47,8.87,3.3c2.95,0.82,5.91,1.57,8.87,2.35c-0.01,0.16-0.03,0.31-0.04,0.47c-0.9-0.03-1.82,0.03-2.7-0.1
	c-2.33-0.36-4.82-0.16-6.8-1.88c-0.25-0.22-0.81-0.12-1.23-0.11c-0.43,0.02-0.89,0.23-1.3,0.14c-3.81-0.75-7.5-1.88-10.48-4.51
	c-1.54-1.36-2.77-3.01-3.55-5.29c3.74,1.17,6.97,3.21,11.23,2.78c-1.53-0.69-2.7-1.23-3.89-1.74c-1.2-0.52-2.41-1.03-3.63-1.52
	c-6.13-2.47-5.5-2.18-6.51-8.21c-0.25-1.5-0.49-3.01-0.75-4.59c-1.21-0.04-1.68,0.64-1.58,1.71c0.12,1.3,0.4,2.59,0.57,3.89
	c0.16,1.21,0.22,2.44,0.41,3.64c0.14,0.86,0.11,1.79,1.07,2.38c0.47,0.29,0.79,0.93,1,1.49c2.07,5.5,6.36,8.54,11.61,10.48
	c1.51,0.56,3.09,0.95,4.65,1.4c1.39,0.41,2.66,0.99,3.99,2.39c-3.4-0.44-6.29-1.18-9.07-2.23c-2.29-0.86-4.45-2.08-6.67-3.15
	c-0.14-0.07-0.33-0.24-0.4-0.2c-1.75,0.92-3.77-0.57-5.96,0.7c2.58,1.4,4.72,2.83,7.14,3.76c0.7-0.88,0.7-0.88,1.91,0.25
	c-0.22,0.07-0.42,0.13-0.61,0.19c1.02,0.48,1.99,1.14,3.07,1.4c5.4,1.33,10.94,1.69,16.46,2.15c0.59,0.05,1.17,0.33,1.74,0.55
	c1.91,0.73,3.85,1.28,6.05,0.87c-0.53-0.31-1.06-0.62-1.59-0.94c6.24,0.49,12.39-1.7,18.68-0.44c-0.01-0.49-0.01-0.83-0.02-1.2
	c0.24-0.09,0.45-0.2,0.67-0.23c1.3-0.18,2.68-0.08,3.62-1.36c0.22-0.3,0.83-0.37,1.28-0.42c5.13-0.61,10.15-1.77,15.14-3.11
	c0.74-0.2,1.46-0.67,1.81,0.75c1.28-2.07,3.37-1.7,5.36-1.91c-0.81,0.65-1.61,1.3-2.43,1.94c-1.21,0.95-2.38,1.96-3.65,2.83
	c-0.94,0.64-1.94,1.3-3.02,1.6c-2.37,0.67-4.79,1.21-7.23,1.59c-1.01,0.16-2.27,0.04-3.13-0.44c-1.75-0.99-2.99-0.74-4.07,0.93
	c1.61,1.4,3.75,1.04,5.63,1.52c1.03,0.26,2.15,0.15,3.22,0.18c0.38,0.01,0.79,0.04,1.14-0.09c2.86-1.03,5.71-2.09,8.55-3.16
	c5.12-1.91,10.29-3.71,14.96-6.65c1.09-0.68,2.41-0.98,3.58-1.54c0.82-0.39,1.57-0.92,2.45-1.44c-0.81-0.8-1.36-0.24-1.94,0.01
	c-5.03,2.15-10.06,4.3-15.09,6.45c-0.41,0.18-0.85,0.3-1.36,0.29c2.23-1.54,4.28-3.26,6.58-4.72c1.67-1.06,3.54-1.29,5.14-2.28
	c0.43-0.27,0.82-0.59,1.12-1.24c-0.79,0.03-1.58,0.05-2.53,0.08c2.44-3.52,6.51-5.41,8.73-8.98c-0.13-0.15-0.26-0.3-0.4-0.45
	c-2.54,1.9-5.08,3.81-7.78,5.83c-0.61-0.37-1.3-0.8-1.98-1.22c1.34-2.41,3.61-4.13,4.08-7.46c-0.65,0.55-0.97,0.71-1.15,0.97
	c-3.69,5.14-7.9,9.82-12.75,13.9c-0.65,0.55-1.6,0.86-2.45,1.03c-2.57,0.5-5.17,0.87-7.85,1.31c-0.21-0.89,1.73-1.04,0.86-2.16
	L279.05,220.46z"/>
<path class="st0" d="M248.67,134.04c1.41-1.76,2.82-3.53,4.4-5.5c-1.62,0.12-2.65,1.1-3.6,1.88c-3.58,2.92-7.05,5.98-10.5,9.05
	c-0.84,0.74-1.44,1.74-2.37,2.88c-1.36,0.04-3.13,0.08-4.89,0.16c-0.69,0.03-1.47,0-2.05,0.31c-2.9,1.55-5.77,0.62-8.53-0.18
	c-2.04-0.59-3.98-1.65-5.84-2.72c-2.22-1.29-4.53-1.88-7.04-1.49c-4.57,0.71-9.12,1.58-13.7,2.21c-3.16,0.43-6.31,1.06-9.51-0.28
	c-1.33-0.56-3.02-0.49-4.52-0.39c-2.37,0.16-3.28,0.2-4.93-0.6c0.96-0.38,1.7-0.72,2.48-0.97c5.97-1.89,11.85-3.97,17.21-7.3
	c1.93-1.2,4.08-1.4,6.24-0.71c1.38,0.44,2.66,0.42,4.04,0c2.88-0.88,5.79-1.63,8.7-2.42c0.45-0.12,0.91-0.26,1.36-0.26
	c5.74,0.08,10.71-2.66,15.98-4.32c1.03-0.33,1.92-1.09,2.79-1.88c-1.25-0.5-2.37-0.33-3.51,0.02c-3.09,0.95-6.17,2.01-9.31,2.77
	c-5.68,1.37-11.41,2.58-17.13,3.77c-0.86,0.18-1.92,0.21-2.69-0.14c-2.25-1.03-4.32-0.43-6.17,0.69c-5.44,3.29-11.16,5.87-17.28,7.6
	c-1.85,0.52-3.64,1.26-5.47,1.87c-0.74,0.25-1.3,0.72-1.17,1.49c0.09,0.5,0.49,1.07,0.92,1.37c2.76,1.95,5.74,1.32,8.62,0.41
	c0.99-0.31,1.81-0.54,2.87-0.29c1.62,0.38,3.24,0.68,4.85,1.18c2.9,0.9,5.82,0.07,8.71-0.36c3.66-0.54,7.3-1.26,10.97-1.79
	c2.43-0.35,4.7,0.14,6.86,1.45c4.74,2.89,6.18,3.33,10.82,3.82c0.4,0.56,0.83,1.16,1.41,1.96c0.63-1.17,1.5-1.36,2.67-1.23
	c2.29,0.26,4.62,0.26,6.92,0.41c1.14,0.07,2.27,0.24,3.62,0.38c-0.27-1.2-0.72-1.94-2.05-1.95c-1.74-0.02-3.47-0.14-5.22-0.59
	c0.44-0.07,0.88-0.19,1.33-0.21c5.13-0.23,10.06-1.51,14.96-2.87c0.7-0.2,1.32-0.66,1.99-0.99c0.33-0.16,0.7-0.46,1.02-0.42
	c2.06,0.22,3.32-1.14,4.38-2.47c0.72-0.91,1.52-1.4,2.49-1.87c2.97-1.42,5.68-3.15,7.54-6.02c0.82-1.26,1.08-2.47,0.8-3.91
	c-0.44-2.25-0.4-2.31,1.68-3.39c2.71-1.41,5.03-3.25,6.76-5.8c1.72-2.53,1.77-4.15-0.25-6.46c-1.66-1.91-3.46-3.75-5.41-5.34
	c-1.49-1.21-3.36-1.74-5.41-0.75c0.18,0.32,0.24,0.62,0.39,0.67c3.56,1.13,6.1,3.74,8.82,6.06c2.03,1.73,2.1,3.33,0.33,5.34
	c-1.97,2.24-4.38,3.86-7.15,4.94c-2.31,0.91-3.03,2.1-2.15,4.49c0.6,1.63,0.18,2.75-0.82,3.99c-2.16,2.69-4.74,4.58-8.22,5.16
	c-0.59,0.1-1.46,0.6-1.57,1.07c-0.64,2.63-2.9,3.5-4.91,4.12c-3.88,1.19-7.91,1.86-12.07,2.4c0.16-0.14,0.32-0.29,0.49-0.43
	c2.68-2.06,5.36-4.13,8.06-6.18c0.36-0.27,0.81-0.42,1.21-0.63C248.17,134.6,248.42,134.32,248.67,134.04"/>
<path class="st0" d="M247.6,238.42c-1.84,0.93-3.68,1.87-5.62,2.85c-0.22-0.48-0.37-0.81-0.64-1.4c-1.52,0.6-3.17,1.02-4.59,1.85
	c-5.13,2.97-10.19,6.07-15.27,9.13c-0.18,0.11-0.3,0.34-0.7,0.81c1.13-0.29,1.96-0.45,2.75-0.71c0.95-0.31,1.89-0.68,2.81-1.07
	c0.84-0.35,1.66-0.77,2.56-1.2l0.2,1.26c6.83-3.57,13.6-7.02,20.28-10.65c2.08-1.13,4.22-1.38,6.45-1.42
	c2.23-0.04,4.45,0.03,6.68-0.01c0.73-0.01,1.45-0.22,2.43-0.38c-1.61-1.75-3.25-0.48-4.73-0.6c-1.58-0.13-3.16-0.22-4.9-0.67
	c1.73-1.02,3.45-2.04,5.28-3.12c-0.4-0.43-0.75-0.79-1.21-1.28c-1.55,0.9-3.16,1.66-4.58,2.68c-2.39,1.72-5.05,2.19-7.87,2.1
	c-5.39-0.17-10.79-0.38-16.18-0.58c-0.46-0.02-0.91-0.14-1.37-0.19c-1.4-0.14-2.45-0.7-2.58-2.11c-9.55,4.89-19,9.72-28.45,14.54
	c-0.31,0.16-0.71,0.13-1.2-0.1c4.13-2.88,8.28-5.71,12.37-8.64c4.07-2.92,8.06-5.93,12.25-9.03c-0.01-0.03-0.05-0.32-0.16-0.57
	c-0.09-0.2-0.27-0.35-0.47-0.59c-2.68,0.93-4.78,2.79-7,4.41c-5.67,4.13-11.24,8.4-16.88,12.57c-1.35,1-2.9,1.72-4.21,2.77
	c-1.02,0.81-1.99,0.91-3.2,0.69c-4.47-0.8-8.99-1.36-13.42-2.32c-4.21-0.91-8.33-2.19-12.49-3.32c-0.22-0.06-0.45-0.14-0.64-0.27
	c-2.63-1.75-5.4-3.32-7.82-5.32c-2.63-2.18-4.23-5.12-4.64-8.58c-1.65,2.7-1.18,4.71,1.13,7.61c1.13,1.42,2.61,2.65,4.12,3.68
	c5.87,4.02,12.31,6.69,19.37,7.83c4.41,0.71,8.79,1.74,13.23,2.23c6.18,0.67,12.41,1.08,18.62,1.38c3.05,0.15,6.13-0.15,9.2-0.34
	c0.8-0.05,1.59-0.43,2.38-0.65c-0.01-0.17-0.03-0.35-0.04-0.52c-3.41,0.03-6.82,0.06-10.23,0.1c-0.03-0.12-0.07-0.24-0.1-0.36
	c0.64-0.34,1.25-0.79,1.93-1.02c5.22-1.76,10.04-4.34,14.61-7.37c0.92-0.61,1.48-1.78,2.29-2.79c-7.13,3.24-13.59,7.4-20.88,10.36
	c-0.24-0.52-0.41-0.89-0.61-1.32c-1.61-0.16-2.46,0.86-3.11,2.25c-1.53-0.15-3.02-0.3-4.91-0.48c1.31-0.8,2.21-1.57,3.24-1.95
	c6.33-2.31,11.92-6.05,17.93-8.99c1.87-0.91,3.69-1.93,5.57-2.81c0.5-0.23,1.4-0.41,1.71-0.15c1.66,1.42,3.65,1.06,5.52,1.12
	c4.85,0.14,9.71,0.11,14.57,0.16c0.37,0,0.75,0.08,1.12,0.12C247.52,238.16,247.56,238.29,247.6,238.42"/>
<path class="st0" d="M163.8,199.81c-0.11,1.53,0.82,2.43,1.96,3.17c1.32,0.86,2.8,1.17,4.86,1.26c-1.58-1.33-3.36-1.71-4.07-3.17
	c0.52-1.05,0.92-2.01,1.45-2.88c0.3-0.5,0.74-1.01,1.24-1.26c3.11-1.52,6.27-2.96,9.4-4.46c2.56-1.23,5.1-2.52,7.64-3.8
	c0.23-0.12,0.4-0.37,0.5-0.73c-6.64,1.92-12.88,4.79-19.14,7.76c-0.42-0.64-0.71-1.08-1.02-1.55c4.27-5.84,9.45-10.66,16.09-14.6
	c-3.2,0.17-5.07,1.38-12.91,8.03c-0.11-0.39-0.21-0.71-0.35-1.22c-2.05,0.54-3.1-0.71-3.93-2.31c4.41-1.89,8.72-3.74,13.03-5.58
	c0-0.1-0.01-0.2-0.01-0.3c-0.47,0-0.98-0.11-1.4,0.02c-3.17,0.97-6.34,1.96-9.48,3.02c-0.7,0.24-1.34,0.74-1.94,1.2
	c-0.74,0.58-1.34,0.62-1.98-0.16c-1.12-1.37-1.96-2.84-1.49-4.66c0.47-1.85-0.26-3.44-0.91-5.04c-0.76-1.85-1.64-3.65-2.44-5.48
	c-0.19-0.42-0.33-0.87-0.42-1.32c-0.6-2.91,0.45-4.24,3.4-4.33c3.16-0.1,6.31-0.25,9.47-0.23c0.84,0.01,1.8,0.4,2.48,0.91
	c2.86,2.12,6.11,2.55,9.47,2.22c1.09-0.11,2.1-1.07,3.18-1.65c-0.43-1.47-1.22-1.7-2.36-1.42c-1.72,0.42-3.42,0.88-5.24,0.38
	c-1.36-0.37-2.67-0.66-3.66-1.78c-0.88-1-1.98-1.2-3.34-1.09c-3.91,0.31-7.83,0.45-11.76,0.63c-3.04,0.14-4.79,2.23-3.9,5.14
	c0.72,2.33,1.87,4.52,2.84,6.78c0.24,0.57,0.53,1.12,0.75,1.69c0.88,2.22,0.49,3.62-1.58,4.81c-1.25,0.72-2.66,1.21-4.05,1.65
	c-3.44,1.11-6.87,2.15-10.04,4.05c-2.72,1.63-5.8,1.99-9.09,0.35c-0.53,0.59-1.19,1.2-1.7,1.92c-1.41,1.98-3.2,2.75-5.59,2.03
	c-0.95-0.29-1.94-0.51-2.92-0.66c-2.19-0.34-3.71,0.41-4.78,2.33c-0.53,0.94-0.94,1.95-1.5,2.87c-0.35,0.58-0.77,1.24-1.33,1.53
	c-1.16,0.6-1.54,1.58-1.8,2.81c1.58-1.12,3.12-2.18,4.62-3.29c0.36-0.26,0.61-0.68,0.87-1.06c1.55-2.27,3.05-2.9,5.73-2.24
	c1.53,0.38,3.03,0.57,4.54,0.05c0.5-0.17,1.06-0.32,1.44-0.65c2.34-2.05,5.11-2.75,8.11-2.56c1.65,0.1,3.2-0.3,4.37-1.21
	c2.88-2.25,6.31-3.17,9.61-4.43c1.72-0.65,3.42-1.33,5.1-1.99c0.27,0.3,0.47,0.44,0.56,0.64c1.01,2,1.99,3.95,4.15,5.08
	c0.97,0.51,1.63,1.59,2.31,2.28c-0.8,1.3-1.51,2.48-2.26,3.71c-0.65-0.25-1.12-0.43-1.6-0.61c-0.05,0.13-0.17,0.27-0.15,0.37
	c0.26,1.15-0.16,2.02-0.84,2.96c-1.9,2.64-3.39,5.47-3.7,8.83c-0.32,3.42,1.52,6.46,4.81,7.49c-0.82-1.62-1.7-3.18-2.38-4.82
	c-0.31-0.74-0.5-1.71-0.29-2.44c0.74-2.56,1.09-5.32,3.13-7.24c0.79,0.22,1.55,0.44,2.75,0.77c-1.39,1.06-2.46,1.87-3.56,2.71
	c0.24,0.36,0.09,1.3,1.1,0.77c0.69-0.33,1.37-0.66,2.05-0.99C165.51,199.98,164.55,199.6,163.8,199.81"/>
<path class="st0" d="M296.15,117.53c-0.6-2.21-1.99-2.28-3.28-2.11c-2.85,0.36-5.58,1.26-8.07,2.68c-2.97,1.69-3.53,4.7-1.51,7.39
	c0.23,0.31,0.48,0.6,0.72,0.91c2.04,2.58,1.88,5.04-0.97,6.8c-3.46,2.14-7.2,3.83-10.79,5.76c-1.49,0.8-3.01,1.58-4.35,2.6
	c-1.44,1.09-1.45,1.84-0.58,3.4c1.07,1.91,0.73,3.24-1.16,4.34c-0.6,0.35-1.25,0.61-1.9,0.85c-0.96,0.36-1.65,0.87-2.27,1.8
	c-0.65,0.97-1.52,1.88-3.2,1.67c-1.54-0.19-3.18,0.44-4.78,0.71c-6.56,1.09-13.14,1.44-19.78,0.8c-3.37-0.32-6.72,0.06-10.11,0.5
	c-6.23,0.81-12.12,2.91-18.24,4.06c-2.56,0.48-5.21,0.55-7.81,0.79c-1.73,0.16-3.46,0.31-5.72,0.5c5.17,1.69,9.81,1.2,14.44,0.21
	c6.48-1.4,12.92-3.08,19.45-4.14c3.53-0.57,7.25-0.39,10.84-0.06c5.67,0.52,11.26,0.24,16.81-0.85c1.38-0.27,2.7-0.84,4.57-1.43
	c-1.66,1.53-2.95,2.6-4.09,3.81c-0.82,0.88-2.12,1.7-1.22,3.26c-0.91,0.97-0.42,2.46-1.62,3.48c-2.4,2.02-4.54,4.36-6.77,6.58
	c-0.22,0.22-0.31,0.58-0.15,1.2c1.45-1.05,2.92-2.07,4.34-3.17c4.88-3.77,9.73-7.58,14.61-11.36c2.92-2.26,5.85-4.51,8.82-6.7
	c1.36-1,2.84-1.84,4.23-2.81c1.94-1.36,3.84-2.78,5.68-4.33c-1.84,0.31-3.49,1.19-4.96,2.22c-5.19,3.6-10.28,7.36-15.43,11.02
	c-2.55,1.82-5.16,3.56-7.74,5.34c-0.1-0.13-0.21-0.25-0.31-0.38c2.31-2.23,4.5-4.6,6.96-6.66c2.53-2.13,5.24-4.08,8.01-5.88
	c2.71-1.77,5.52-3.42,8.43-4.82c2.96-1.42,6.09-2.48,9.36-3.78c-1.99-0.75-3.62-0.36-5.22,0.29c-3.76,1.55-7.5,3.13-11.26,4.69
	c-1.37-3.01-0.89-4.32,2.17-5.85c3.36-1.68,6.71-3.39,10.06-5.11c2.35-1.2,4.48-4.76,4.01-7.28c-0.31-1.62-1.18-3.16-1.95-4.66
	c-0.75-1.46-0.17-2.8,0.75-3.56c1.21-0.99,2.8-1.73,4.33-2.05c1.23-0.26,2.64-0.62,4.03,0.25C294,118.76,295.19,117.9,296.15,117.53
	"/>
<path class="st0" d="M462.37,211.19c-0.23,0.35-0.37,0.82-0.69,1.02c-4.58,2.85-9.1,5.83-13.81,8.45
	c-4.15,2.31-8.61,2.19-12.98,0.46c-2.34-0.92-4.6-2.05-7.38-3.31c4.36-2.15,8.12-4.17,11.74-7.11c-2.77,0.07-4.7,1.35-6.71,2.35
	c-2,0.99-3.91,2.18-5.91,3.17c-0.75,0.37-1.66,0.43-2.6,0.66c-0.14,0.24-0.31,0.92-0.75,1.19c-4.28,2.62-8.59,5.19-13.7,5.85
	c-1.39,0.18-2.53,0.71-3.27,1.9c-2.82,4.54-7.29,6.75-12.07,8.47c-5.99,2.16-12.19,1.77-18.52,1.13c5.4-3.58,10.8-7.15,16.44-10.9
	c-1.26-0.75-1.93-0.04-2.56,0.34c-2.9,1.75-5.76,3.58-8.64,5.37c-2.69,1.66-5.35,3.36-8.09,4.93c-0.59,0.33-1.47,0.2-2.22,0.19
	c-2.54-0.03-5.09-0.3-7.61-0.11c-1.8,0.14-3.57,0.83-5.34,1.34c-1,0.29-1.97,0.72-2.79,1.03c1.38,1.42,2.97,0.62,4.61,0.35
	c2.64-0.44,5.32-0.61,8.06-0.91c-0.04,0.44,0,0.62-0.07,0.68c-0.48,0.46-1.46,0.9-0.82,1.59c0.46,0.49,1.53,0.68,2.26,0.58
	c0.7-0.1,1.44-0.63,1.94-1.18c0.98-1.06,2.19-1.13,3.41-0.97c5.79,0.78,11.58,0.45,17.28-0.53c6.07-1.05,11.43-3.65,15.28-8.73
	c0.87-1.15,1.98-1.87,3.4-2.24c5.27-1.39,10.09-3.8,14.59-6.82c1.34-0.9,2.42-1.03,3.79-0.14c1.55,1,3.23,1.8,4.86,2.67
	c4.78,2.55,9.71,2.97,14.65,0.64c2.78-1.31,5.47-2.84,8.05-4.5c3.68-2.38,7.25-4.94,10.82-7.5c0.79-0.57,1.37-1.43,2.38-2.52
	c-0.88-0.01-1.41-0.18-1.74,0c-1.22,0.66-2.36,1.46-3.54,2.17c-0.58,0.35-1.2,0.66-1.8,0.99L462.37,211.19z"/>
<path class="st0" d="M287.17,208.22c1.38-0.93,2.85-1.75,4.12-2.8c4.17-3.43,8.22-7.01,11.7-11.15c1.47-1.75,2.59-3.81,3.71-5.82
	c1.16-2.1,3.04-3.28,4.83-4.61c0.11,0.12,0.21,0.24,0.31,0.36c-1.1,0.91-2.21,1.8-3.29,2.73c-1.3,1.13-1.44,2.02-0.62,3.61
	c9.7-10.61,21.64-17.44,35.69-20.92c-0.3-0.6-0.49-0.99-0.8-1.63c0.63-0.21,1.26-0.66,1.82-0.58c2.11,0.33,4.19,0.84,6.74,1.38
	c-7.57,2.89-14.6,5.89-21.35,9.52c-6.71,3.6-13.54,6.96-19.53,12.32c0.62,0.17,1.02,0.41,1.35,0.33c0.5-0.13,1.01-0.42,1.41-0.75
	c4.21-3.44,9.01-5.95,13.76-8.5c5.49-2.95,11.03-5.83,16.66-8.5c3.12-1.48,6.43-2.61,9.75-3.58c1.39-0.41,3.03-0.12,4.55,0.02
	c4.06,0.38,8.1,0.88,12.16,1.24c0.95,0.08,1.93-0.19,2.97-0.74c-0.33-0.19-0.65-0.52-1-0.56c-1.3-0.15-2.61-0.17-3.91-0.3
	c-2.9-0.3-5.97-0.16-8.67-1.07c-3.47-1.18-7.14-0.34-10.5-1.63c-0.51-0.2-0.96-0.56-1.86-1.1c-2.21,0.32-4.77-0.3-7.27-1.51
	c-2.63-1.27-5.34-2.39-8.03-3.54c-1.37-0.58-1.76-0.43-2.62,1.03c3.8,2.35,7.97,3.77,12.72,4.94c-0.76,0.53-1.07,0.8-1.43,0.98
	c-2.06,1.03-4.11,2.08-6.2,3.05c-1.6,0.74-3.26,1.35-4.86,2.09c-4.12,1.91-8.3,3.72-12.31,5.85c-3.94,2.1-7.77,4.44-10.9,7.73
	c-0.75,0.79-1.45,1.52-1.48,2.76c-0.02,0.59-0.56,1.22-0.97,1.74c-4.29,5.51-9.27,10.33-14.68,14.72c-0.87,0.71-1.66,1.5-2.49,2.26
	C286.83,207.79,287,208.01,287.17,208.22"/>
<path class="st0" d="M84.5,231.81c2.17-2.41,3.9-5.24,7.53-4.48c0.18,2.6-0.67,3.85-3.04,4.18C87.51,231.71,86,231.71,84.5,231.81
	 M100.34,208.18c-2.15,3.66-3.7,7.7-6.8,11.3C93.74,214.11,95.47,210.19,100.34,208.18 M105.18,208.23c0.76-1.05,1.53-2.1,2.28-3.16
	c0.55-0.77,1.09-1.55,1.68-2.39c-1.34-0.74-2.15,0.16-2.44,0.65c-1.21,2.08-3.28,2.33-5.23,2.63c-3.8,0.58-6.49,2.64-8.56,5.7
	c-1.27,1.87-1.56,4.01-1.5,6.2c0.04,1.62,0.18,3.23,0.28,5c-1.68,0.94-3.2,2.23-5.27,2.55c-0.63,0.1-1.24,0.6-1.75,1.03
	c-1.06,0.9-2.16,1.79-3.03,2.85c-0.58,0.71-0.79,1.72-1.33,3c-2.62,0.28-5.54,1.75-8.78,0.93c-0.34-0.09-0.76,0-1.1,0.11
	c-1.61,0.51-3.21,1.05-4.81,1.6c-0.36,0.12-0.85,0.22-1.03,0.49c-0.94,1.43-2.51,1.81-3.93,2.13c-3.61,0.8-6.25,2.87-8.36,5.75
	c-1.26,1.71-2.72,3.11-4.73,3.95c-0.75,0.31-1.38,0.98-1.97,1.58c-0.45,0.45-1.21,1.15-0.49,1.71c0.8,0.62,0.52,0.97,0.07,1.47
	c-0.69,0.76,0.23,1.61,0.25,1.6c2.22-1.45,4.4-2.97,6.77-4.61c-0.1-0.25-0.29-0.7-0.41-0.98c1.15-1.67,2.16-3.36,3.41-4.84
	c0.71-0.85,1.73-1.57,2.75-2.02c3.8-1.7,7.57-3.51,11.51-4.81c2.98-0.98,6.17-1.38,9.3-1.8c2.44-0.33,4.92-0.33,7.39-0.44
	c1.95-0.08,3.83-0.38,5.6-1.25c1.88-0.92,2.58-2.11,2.34-4.22c-0.29-2.65,0.02-3.18,2.47-4.18c1.25-0.51,1.3-0.56,2.13-1.95
	c-1.72-0.25-3.1,0.6-4.65,1.29c-0.1-0.62-0.3-1.12-0.23-1.59c0.08-0.53,0.36-1.46,0.6-1.48c1.64-0.09,2.07-1.51,2.79-2.48
	c2.14-2.9,4.09-5.95,6.2-8.87c0.41-0.56,1.23-0.83,1.86-1.23L105.18,208.23z"/>
<path class="st0" d="M512.83,190.58c4.4-4.03,10.26-3.87,15.3-6.04c-0.38-1.01-0.97-1.32-1.93-1.35c-2.48-0.07-4.57-0.85-6.1-3.06
	c-1.83-2.65-4.09-5.01-5.89-7.68c-2.34-3.47-5.41-4.86-9.49-4.18c-1.37,0.23-2.68,0.18-4.07-0.23c-1.76-0.52-3.63-0.67-5.47-0.86
	c-0.52-0.05-1.09,0.29-2.07,0.59c0.75,0.5,1.06,0.81,1.43,0.93c2.12,0.69,4.24,1.45,6.41,1.96c1.25,0.29,2.62,0.36,3.89,0.16
	c3.07-0.47,5.52,0.68,7.46,2.8c2.53,2.78,4.83,5.78,7.23,8.69c0.44,0.53,0.89,1.05,1.47,1.75c-0.66,0.31-1.23,0.72-1.86,0.85
	c-2.45,0.53-4.63,1.65-6.77,2.9c-2.29,1.33-2.7,2.24-1.72,4.62c0.45,1.08,0.25,2.04-0.46,2.79c-1.37,1.45-2.67,3.09-4.34,4.08
	c-2.57,1.52-5.34,2.68-8.33,3.33c-5.02,1.09-10.05,1.36-15.14,0.72c-0.08-0.01-0.15-0.04-0.23-0.04c-0.75-0.03-1.64-0.28-1.87,0.8
	c-0.17,0.8,0.49,1.31,1.68,1.37c1.16,0.05,2.31,0.12,3.47,0.13c7.82,0.04,15.39-1.02,22.22-5.21c2.27-1.4,3.99-3.36,5.52-5.5
	c0.55-0.76,0.73-1.69,0.32-2.63C513.26,191.76,513.09,191.26,512.83,190.58"/>
<path class="st0" d="M189.49,267.46c0.06-1.15,0.1-1.99,0.14-2.78c-1.18,0.43-0.73,1.74-0.93,2.8c-2.09,0.66-4.12,1.39-6.2,1.89
	c-0.62,0.15-1.46-0.25-2.09-0.6c-2.01-1.12-3.93-2.4-5.95-3.48c-1.44-0.77-2.4-0.07-2.72,1.91c0.5,0.26,1.03,0.55,1.57,0.81
	c1.65,0.8,3.36,1.49,4.94,2.4c2.71,1.57,5.62,2.16,8.67,1.84c2.28-0.24,4.55-0.55,6.69-1.62c2.77-1.39,5.79-2,8.88-2.3
	c3.16-0.31,6.14,0.31,8.98,1.64c0.43,0.2,0.74,0.67,1.18,1.08c0.24-0.04,0.54-0.11,0.84-0.13c1.22-0.1,2.54,0.06,3.64-0.35
	c0.93-0.35,1.54-1.49,2.44-2.02c1.72-1.01,3.55-1.82,5.33-2.73c3.97-2.04,7.97-4.03,11.59-6.66c1.23-0.89,2.37-1.91,3.37-3.21
	c-0.31,0.08-0.64,0.11-0.91,0.25c-4.01,2.13-8.01,4.28-12.02,6.41c-2.04,1.08-4.07,2.18-6.14,3.18c-1.8,0.87-3.61,1.79-5.51,2.36
	c-1.02,0.31-2.27,0.08-3.37-0.14c-2.56-0.51-5.09-1.17-7.64-1.74c-0.51-0.11-1.06-0.08-1.59-0.09c-1-0.01-2.16,0.86-2.89-0.56
	c-1.22,0.14-2.45,0.22-3.66,0.45C194.07,266.43,192.05,266.91,189.49,267.46"/>
<path class="st0" d="M156.32,274.28c-0.95-0.06-1.9-0.19-2.85-0.15c-2.98,0.12-5.96,0.31-8.94,0.44c-1.36,0.06-1.71-0.12-2.78-1.19
	c0.82-1.17,2.17-1.01,3.32-1.27c2.32-0.53,4.66-0.97,6.98-1.52c0.71-0.17,1.36-0.6,1.99-1.13c-7.41,0.23-14.7,2.06-22.24,1.6
	c0.26,0.58,0.53,1.16,0.89,1.96c1.8,0.03,3.71,0.05,5.73,0.08c0.21,0.56,0.41,1.12,0.63,1.72c-0.23,0.13-0.41,0.29-0.61,0.33
	c-2.02,0.41-4.03,1.09-5.73-0.97c-0.66-0.8-1.81-0.74-2.83-0.39c-0.73,0.25-1.53,0.35-2.19,0.73c-2.09,1.18-4.21,0.8-6.25,0.08
	c-1.68-0.59-3.14-0.16-4.7,0.33c-2.27,0.71-4.57,1.3-6.88,1.89c-1.16,0.3-2.49,0.17-3.35,1.55c1.01,0.93,2.25,0.82,3.41,0.76
	c1.3-0.07,2.59-0.45,3.89-0.55c1.9-0.15,3.83-0.07,5.72-0.27c3.02-0.33,6.17,0.11,9.01-1.33c1.33-0.67,2.28-0.5,3.52,0.45
	c1.6,1.22,3.51,1.8,5.5,0.34c1.86-1.36,3.98-1.68,6.32-1.45c3.02,0.3,8.94,0.12,12.48-1.49
	C156.35,274.63,156.34,274.46,156.32,274.28"/>
<path class="st0" d="M268.45,102.01c-1.97-1.9-3.89-0.98-5.43-0.33c-2.76,1.17-5.38,2.81-7.23,5.24c-1.04,1.37-2.39,2.23-3.81,2.87
	c-3.41,1.53-6.91,1.97-10.46,0.18c-0.92-0.46-2.07-0.64-3.11-0.62c-4.48,0.08-8.91-0.24-13.29-1.22c-1.78-0.4-3.52-1.06-5.31-1.37
	c-1.1-0.19-2.35-0.18-3.42,0.13c-2.62,0.76-5.29,0.9-7.98,1.07c-2.03,0.13-3.56,1.35-5.12,2.44c-1.32,0.93-1.13,2.3,0.45,2.64
	c1.45,0.31,3,0.15,4.51,0.14c0.59-0.01,1.17-0.25,1.76-0.3c2.67-0.24,5.34-0.43,8-0.7c0.64-0.07,1.25-0.41,1.88-0.63
	c-0.02-0.18-0.04-0.36-0.06-0.54c-1.15,0.01-2.31-0.03-3.46,0.04c-2.3,0.16-4.59,0.41-6.89,0.57c-0.67,0.04-1.35-0.13-2.22-0.22
	c0.63-1.01,1.49-1.07,2.26-1.19c2.9-0.47,5.79-0.96,8.7-1.3c1.11-0.13,2.4-0.17,3.39,0.26c3.49,1.49,7.19,1.55,10.86,1.89
	c1.61,0.15,3.22,0.3,4.82,0.48c3.34,0.38,6.68,0.86,10.03,1.15c2.87,0.25,5.51-0.81,7.93-2.15c1.12-0.62,1.82-2.01,2.73-3.03
	c2.43-2.74,5.42-4.48,9.04-5.11C267.41,102.34,267.77,102.2,268.45,102.01"/>
<path class="st0" d="M85.01,277.22c-1.28-0.05-2.56-0.11-4.22-0.18c0.55-0.55,0.89-1,1.33-1.32c3.76-2.71,7.52-5.4,11.3-8.08
	c1.41-1,2.69-2.07,3.18-4.07c-1.11,0.69-2.11,1.31-3.12,1.93c-0.98,0.6-2.02,1.13-2.96,1.81c-3.64,2.61-7.29,5.2-10.85,7.91
	c-1.61,1.23-3.21,1.77-5.31,1.05c0.58-0.97,1.44-1.66,2.27-2.38c2.08-1.82,4.36-3.48,6.17-5.54c1.03-1.18,2.19-2.16,3.29-3.3
	c-1.5,0.27-2.74,0.94-3.89,1.9c-3.43,2.86-6.88,5.69-10.37,8.46c-0.48,0.38-1.29,0.58-1.91,0.5c-3.45-0.41-6.89-0.86-10.31-1.44
	c-1.12-0.19-2.14-0.86-3.25-1.17c-2.3-0.65-4.62-1.2-6.93-1.8c-0.87-0.23-1.49-0.04-1.77,1.18c2.41,0.81,4.78,1.6,7.38,2.47
	c-0.63,0.41-1.06,0.7-1.59,1.05c0.31,0.16,0.46,0.3,0.54,0.27c1.78-0.72,3.56-0.64,5.43-0.28c2.95,0.57,5.93,0.94,8.97,1.4
	c-1.94,2.05-3.52,2.61-5.28,1.95c-0.84,1.51-0.74,1.96,0.72,2.1c0.95,0.09,2.01-0.03,2.89-0.38c1.06-0.42,1.98-1.17,2.96-1.78
	c0.63-0.39,1.27-0.78,1.95-1.19c0.29,0.8,0.35,1.65,0.76,1.89c0.47,0.27,1.27,0.06,1.9-0.08c1.04-0.23,2.04-0.63,3.07-0.86
	c1.57-0.35,3.16-0.58,4.73-0.91c0.97-0.2,1.93-0.5,2.9-0.75C85.01,277.47,85.01,277.34,85.01,277.22"/>
<path class="st0" d="M285.65,232.4c-2.7,2.45-4.98,5.77-9.77,5.47C278.98,235.23,282.43,234.08,285.65,232.4 M275.7,244.58
	c0.49-0.08,1.01-0.02,1.34-0.24c5.79-3.86,11.55-7.75,17.35-11.66c-1.25-0.16-3.22,0.31-4.74,1.02c-1.53,0.71-3.1,1.33-4.91,1.65
	c2.44-2.22,4.88-4.44,7.68-6.98c-1.67-0.24-2.71-0.15-3.73,0.39c-5.72,3.03-11.73,5.56-16.98,9.38c-2.17,1.58-4.4,2.33-6.94,2.76
	c-3.34,0.56-6.64,1.38-9.97,1.99c-1.58,0.29-3.2,0.33-4.8,0.49c-0.44,0.05-0.88,0.14-1.47,0.24l0.42,2.58
	c5.86-1.29,11.54-2.54,17.39-3.83c0.07,0.65,0.12,1.14,0.17,1.62c0.13,0.03,0.31,0.13,0.38,0.08c0.5-0.34,0.97-0.73,1.48-1.06
	c2.07-1.35,4.18-2.47,6.72-2.83c2.42-0.34,4.78-1.12,7.45-1.78C281.02,241.54,277.29,241.82,275.7,244.58"/>
<path class="st0" d="M412.47,139.04c1.25,0.13,2.16,0.19,3.07,0.33c0.88,0.13,1.75,0.34,2.94,0.57c-1.24-1.13-3.67-2.31-5.46-2.65
	c-4.05-0.77-8.13-0.58-12.21-0.44c-1.62,0.06-2.55,1.17-3.47,2.27c3.5-0.19,7-0.38,10.51-0.57c0.01,0.15,0.02,0.29,0.02,0.44
	c-2.13,0.22-4.26,0.59-6.4,0.63c-3.62,0.07-6.84,1.64-10.26,2.46c-0.44,0.11-1.06,0.26-1.23,0.58c-1.48,2.87-4.66,2.83-7.01,4.19
	c-1.33,0.77-2.75,1.37-4.11,2.08c-0.22,0.11-0.36,0.38-0.84,0.9c3.56-0.11,6.51-1.83,9.84-0.89c-1.28,0.6-2.55,1.2-3.89,1.83
	c0.19,1.02,0.99,1.01,1.72,0.71c2.63-1.08,5.23-2.22,7.83-3.36c0.48-0.21,0.91-0.62,1.4-0.7c3.81-0.62,7.31-2.19,10.87-3.57
	c0.09-0.03,0.11-0.26,0.22-0.58c-3.23-0.02-6.14,0.76-9.01,2.1c-2.35,1.1-4.84,1.99-7.35,2.65c-1.3,0.34-2.53-0.66-3.93-1.2
	c0.41-0.36,0.57-0.63,0.74-0.64c3.36-0.14,6.35-1.69,9.48-2.65c4.35-1.34,8.67-2.61,13.24-2.82
	C410.57,140.62,411.77,140.27,412.47,139.04"/>
<path class="st0" d="M203.82,255.24c-0.8-1.04-2.04-0.75-3.07-0.9c-6.16-0.93-12.33-1.7-18.42-3.12
	c-5.02-1.17-10.15-1.88-15.18-3.02c-3.75-0.85-7.41-2.09-11.12-3.13c-2.89-0.81-5.77-1.66-8.69-2.33c-3.52-0.8-7.1-1.39-10.63-2.17
	c-0.77-0.17-1.42-0.86-2.19-1.15c-0.4-0.15-0.93,0.03-1.41,0.07c0.2,0.41,0.31,0.93,0.63,1.21c1.28,1.14,2.68,1.99,4.5,2.16
	c1.75,0.17,3.47,0.72,5.22,1.02c5.48,0.95,10.78,2.57,16.11,4.11c4.8,1.39,9.71,2.44,14.62,3.39c6.5,1.26,13.05,2.23,19.57,3.4
	c3.34,0.6,6.69,0.67,10.06,0.45L203.82,255.24z"/>
<path class="st0" d="M499.03,183.98c-1.22,0.6-2.54,1.05-3.63,1.83c-3.82,2.73-7.56,5.56-11.33,8.36c-1.48,1.1-2.93,2.24-4.44,3.3
	c-0.78,0.55-1.66,0.95-2.49,1.42c-0.13-0.18-0.25-0.36-0.38-0.53c0.95-0.82,1.86-1.7,2.86-2.46c4.74-3.57,9.51-7.1,14.27-10.65
	c0.73-0.55,1.55-1.07,1.35-2.39c-0.35,0.11-0.71,0.14-0.97,0.32c-2.66,1.81-5.29,3.66-7.95,5.47c-4.2,2.85-8.42,5.69-12.13,9.19
	c-0.38,0.36-0.73,0.82-0.89,1.3c-0.41,1.2,0.08,2.22,1.26,2.15c1.32-0.08,2.32,0.42,3.39,1.03c2.86-4.19,7.24-6.41,11.05-9.32
	c3.06-2.32,6.33-4.39,8.8-7.41c0.43-0.52,0.77-1.11,1.15-1.66L499.03,183.98z"/>
<path class="st0" d="M307.16,229.74c0.28-0.59,0.45-1.27,0.86-1.74c1.01-1.15,2.04-2.31,3.23-3.26c0.88-0.71,2.02-1.08,3.02-1.63
	c2.36-1.29,4.72-2.6,7.08-3.89c0.5-0.27,1.07-0.43,1.51-0.78c0.56-0.45,1.65-0.79,0.71-1.97c0.97-0.71,2-1.46,3.04-2.22
	c1.7,0.82,1.7,0.82,3.53,0.1c-0.17-0.75-0.35-1.54-0.55-2.42c3.24-2.45,6.55-4.94,9.95-7.51c-0.7-0.91-1.36-0.85-2.06-0.33
	c-1.68,1.23-3.31,2.51-5.02,3.7c-5.34,3.74-10.71,7.45-16.06,11.17c-0.57,0.4-1.22,0.73-1.66,1.24c-1.86,2.15-4.38,3.04-6.95,3.88
	c-1,0.33-1.97,0.76-2.95,1.14c0.03,0.15,0.07,0.29,0.1,0.44c1.05-0.1,2.1-0.21,3.52-0.35c-1.8,2.9-4.7,4.18-6.8,6.29
	c-2.12,2.14-4.49,4.03-7.03,6.28c1.33,0.24,1.75-0.42,2.32-0.86c2.85-2.23,5.72-4.44,8.61-6.62c0.47-0.36,1.11-0.49,1.67-0.73
	L307.16,229.74z"/>
<path class="st0" d="M308.43,141.18c-3.43,1.08-6.86,2.16-10.29,3.24C301.34,142.62,304.64,141.13,308.43,141.18 M307.9,144.54
	c-0.32-0.48-0.6-0.85-0.57-0.87c0.27-0.24,0.56-0.5,0.9-0.62c1.81-0.63,3.62-1.26,5.46-1.81c1.28-0.38,2.54-0.38,3.78,0.35
	c0.75,0.44,1.67,0.58,2.55,0.72c-4.02-3.49-8.69-4.14-13.68-2.96c-2.24,0.53-4.45,1.25-6.58,2.13c-1.39,0.57-2.61,1.57-3.9,2.39
	c-1.59,1-3.14,2.07-4.77,3.01c-1.66,0.96-3.41,1.76-5.07,2.72c-0.6,0.35-1.02,0.99-1.53,1.49c0.1,0.15,0.2,0.29,0.3,0.44
	c1.45-0.56,2.88-1.16,4.34-1.69c2.1-0.75,4.2-1.47,6.32-2.15c1.83-0.59,3.66-1.17,5.52-1.64
	C303.27,145.49,305.59,145.04,307.9,144.54"/>
<path class="st0" d="M214.97,261.98c-2.32-0.23-4.47-0.22-6.51-0.7c-2.65-0.61-5.32-0.35-7.98-0.58c-2.68-0.24-5.37-0.37-8.06-0.56
	c-1.22-0.09-2.44-0.25-3.66-0.35c-1.12-0.1-2.25-0.65-3.34,0.12c-0.69-0.87-1.75-1.03-2.7-1.17c-4.11-0.61-8.24-1.09-12.36-1.6
	c-1.37-0.17-2.74-0.31-4.16-0.46c-0.54,1.25,0.15,1.7,1.21,1.82c2.06,0.23,4.13,0.41,6.2,0.61c0.61,0.06,1.21,0.12,1.81,0.44
	c-1.01,0.01-2.02-0.03-3.03,0.03c-0.77,0.04-0.77,0.09-0.87,1.51c0.53-0.17,0.98-0.32,1.52-0.49c0.16,0.38,0.33,0.76,0.52,1.19
	c5.33,0.01,10.64-0.09,15.95,0.05c6.31,0.17,12.62,0.57,18.92,0.82c1.9,0.07,3.82-0.04,5.72-0.11
	C214.39,262.53,214.6,262.24,214.97,261.98"/>
<path class="st0" d="M296.54,112.08c1.2-0.93,1.44-2.79,3.6-2.46c-0.06-0.78-0.15-1.23-0.13-1.66c0.06-1.19,1.11-2.33,2.39-2.33
	c0.96,0,2.03,0.18,2.87,0.64c3.9,2.12,3.88,2.16,8.36,1.66c0.17,0.17,0.44,0.35,0.57,0.6c1.6,3.05,4.22,4.9,7.38,5.94
	c3.2,1.05,5.63,3.08,7.72,5.57c1.95,2.32,2.07,2.48,5.26,3.18c0.41-0.81,0.64-1.68-0.44-2.07c-3.01-1.1-5.05-3.44-7.33-5.48
	c-1.84-1.65-3.66-3.29-6.11-4.02c-2.59-0.78-4.24-2.68-5.67-4.84c-1.04-1.57-1.72-1.92-3.46-1.28c-2.23,0.82-4.03,0.28-5.8-1.09
	c-1.66-1.28-3.52-1.48-5.4-0.49c-0.45,0.24-0.98,0.63-1.15,1.07C298.25,107.35,297.41,109.72,296.54,112.08"/>
<path class="st0" d="M457.79,207.37c0.28,0.02,0.65,0.17,0.83,0.04c3.79-2.73,7.55-5.51,11.35-8.24c2.05-1.47,4.19-2.8,6.22-4.29
	c2.29-1.68,4.53-3.44,6.73-5.24c1.85-1.51,3.63-3.09,5.4-4.69c1.05-0.96,2.25-1.79,2.56-3.39c0.09-0.45,0.87-0.77,1.36-1.13
	c0.4-0.3,0.82-0.56,1.67-1.13c-0.84,0.02-1.25-0.09-1.39,0.06c-2.17,2.28-5.23,3.09-7.79,4.74c-0.32,0.21-0.63,0.44-0.92,0.7
	c-5.29,4.59-10.55,9.22-15.87,13.78c-1.87,1.6-3.91,2.99-5.83,4.54c-1.53,1.23-2.99,2.55-4.48,3.83
	C457.69,207.07,457.74,207.22,457.79,207.37"/>
<path class="st0" d="M382.69,196.21c-0.29-0.51-0.5-0.88-0.77-1.36c-0.5,0.26-0.93,0.42-1.28,0.68
	c-14.97,11.06-29.97,22.08-45.4,32.51c0.08,0.15,0.16,0.3,0.23,0.45c0.99-0.44,2.01-0.82,2.96-1.34c5.01-2.73,9.84-5.75,14.44-9.11
	c5.59-4.09,11.15-8.21,16.74-12.3C373.91,202.58,378.22,199.47,382.69,196.21"/>
<path class="st0" d="M165.03,242.34c2.23,0.93,4.3,2.22,6.75,2.66c3.63,0.66,7.24,1.44,10.87,2.06c2.01,0.34,4.06,0.46,6.09,0.68
	c0.04-0.18,0.08-0.37,0.12-0.55c-1.1-0.38-2.21-0.76-3.37-1.16c5.37-2.36,10.62-4.67,15.87-6.98c0.06,0.07,0.13,0.13,0.19,0.2
	c-0.92,0.94-1.85,1.88-2.76,2.81c2.75-0.46,8.9-5.31,10.52-7.5c1.54,0.96,2.64,0.16,3.91-1.43c-1.56,0.96-2.83,1.41-4.22,0.74
	c-0.16-0.08-0.45,0.04-0.65,0.13c-2.75,1.2-5.51,2.4-8.24,3.63c-4.5,2.02-8.98,4.06-13.47,6.1c-0.63,0.29-1.26,0.58-1.87,0.91
	c-1.7,0.91-3.38,1.12-5.33,0.64c-2.5-0.61-5.08-0.94-7.53-1.79c-1.67-0.58-3.36-1.09-5.05-1.6c-0.53-0.16-1.1-0.2-1.65-0.29
	C165.15,241.84,165.09,242.09,165.03,242.34"/>
<path class="st0" d="M452.11,177.66c-1.49,1.66-3.21,2.99-5.12,4.19c-2.92,1.84-5.63,4.01-8.44,6.03
	c-4.49,3.23-9.02,6.43-13.48,9.71c-1.02,0.75-1.85,1.74-2.76,2.62l-0.06-0.05c0.38-0.04,0.75-0.09,1.66-0.2
	c-5.29,4.31-11.46,6.33-16.36,10.18c1.44,0.09,1.48,0.03,3.12-0.81c1.82-0.93,3.7-1.77,5.55-2.64c0.15-0.04,0.28-0.11,0.39-0.22
	c1.77-1.32,3.56-2.64,5.32-3.98c0.69-0.53,1.39,0.07,2.21-0.14c2.36-0.63,4.14-1.65,5-4.11c-0.67,0.03-1.41,0.07-2.14,0.11
	c-0.07-0.17-0.14-0.33-0.21-0.5c1.22-0.84,2.33-2.01,3.68-2.46c2.45-0.81,4.14-2.61,6.12-4.02c3.88-2.77,7.77-5.54,11.5-8.5
	c1.54-1.21,2.71-2.89,4.01-4.39c0.14-0.16-0.02-0.57-0.04-0.87L452.11,177.66z"/>
<path class="st0" d="M453.58,182.08c-11.9,9.45-23.56,18.71-35.22,27.97c0.03,0.07,0.07,0.13,0.1,0.2c0.82-0.37,1.67-0.69,2.46-1.12
	c0.91-0.49,1.61-1.17,2.9-0.55c1.19,0.58,2.87-0.59,2.79-1.9c-0.05-0.81,0.2-1.12,0.69-1.46c3.14-2.19,6.32-4.33,9.43-6.58
	c1.03-0.74,1.85-1.76,2.77-2.66c0.61-0.59,1.17-1.23,1.82-1.76c4.31-3.49,8.46-7.14,12.26-11.2
	C453.65,182.94,453.58,182.72,453.58,182.08"/>
<path class="st0" d="M383.88,122.44c-0.97-0.69-1.87-1.49-2.91-2.04c-2.48-1.3-5.18-2.15-7.95-2.25c-3.04-0.11-6.01,0.72-8.43,2.66
	c-1.67,1.33-3.36,1.65-5.38,1.36c-1.43-0.21-2.91-0.25-4.36-0.15c-2,0.14-3.94,0.28-5.97,0.04c-1.94-0.23-3.96,0.28-5.96,0.54
	c4.27,0.71,8.38,2.52,12.91,1.5c1.43-0.32,3.05,0.07,4.56,0.29c2.4,0.35,4.45-0.26,6.05-2.04c1.52-1.69,3.47-2.19,5.57-2.22
	c3.53-0.05,6.84,0.93,10.04,2.37c0.46,0.21,0.96,0.35,1.44,0.52C383.62,122.83,383.75,122.64,383.88,122.44"/>
<path class="st0" d="M61.48,279.9c-4.73,0.17-8.96,1.58-13.21,2.92c-4.55,1.44-9.24,2.33-13.98,2.67c-2.09,0.15-4.25-0.49-6.35-0.87
	c-2.45-0.45-4.87-1.02-7.73-1.62c0.99,1.5,2.18,2.07,3.36,2.34c2.98,0.69,5.98,1.37,9.01,1.7c6.49,0.71,12.68-0.93,18.72-3.05
	c2.67-0.94,5.23-2.18,8.04-2.75C60.03,281.11,60.61,280.47,61.48,279.9"/>
<path class="st0" d="M446.46,167.33c-0.98,0.48-1.64,0.66-2.1,1.06c-2.65,2.34-5.22,4.78-7.89,7.09c-3.08,2.67-6.2,5.29-9.37,7.85
	c-5.26,4.25-10.58,8.42-15.86,12.64c-0.28,0.23-0.49,0.55-0.84,0.95C415.05,196.08,442.65,173.51,446.46,167.33"/>
<path class="st0" d="M118.58,204.41c-0.55-0.13-0.95-0.23-1.6-0.39c3.12-3,5.94-6.03,9.96-7.48c0.37-1.2-0.26-1.65-1.24-1.56
	c-0.66,0.06-1.38,0.32-1.91,0.72c-3.5,2.64-6.92,5.36-9.57,8.94c-2.23,3.02-4.62,5.92-6.9,8.91c-1.47,1.93-2.15,3.42-2,6.52
	c0.77-0.53,1.24-1.16,1.49-1.9c0.87-2.5,2.25-4.61,4.24-6.41C113.61,209.45,115.99,206.95,118.58,204.41"/>
<path class="st0" d="M419.51,197.2c0.39-0.13,0.84-0.18,1.16-0.41c2.29-1.67,4.56-3.36,6.81-5.09c2.07-1.59,4.17-3.15,6.12-4.87
	c5.94-5.24,11.83-10.54,17.74-15.82c0.46-0.41,0.99-0.74,1.4-1.19c0.73-0.8,0.45-1.36-0.83-1.76c-5.23,4.88-10.47,9.98-15.93,14.81
	c-5.43,4.81-11.09,9.36-16.66,14.02C419.38,196.99,419.45,197.09,419.51,197.2"/>
<path class="st0" d="M110.44,271.86c4.43-1.74,8.38-4.21,12.03-7.16c1.53-1.24,3.29-2.21,4.28-4.1c0.44-0.84,1.38-1.55,2.54-1.16
	c3.5,1.16,7.15,0.84,10.74,1.16c2.67,0.24,5.38,0.09,8.07,0.03c0.78-0.02,1.56-0.31,2.33-0.48c-0.02-0.22-0.03-0.43-0.05-0.65
	c-2.37-0.08-4.74-0.13-7.11-0.25c-1.38-0.07-2.74-0.25-4.12-0.37c-2.84-0.25-5.68-0.46-8.51-0.76c-0.46-0.05-0.89-0.46-1.54-0.82
	c-0.31,0.21-0.95,0.45-1.27,0.92c-1.46,2.11-3.76,3.12-5.76,4.53c-3.09,2.16-6.15,4.37-9.17,6.63
	C111.99,270.08,111.25,271.03,110.44,271.86"/>
<path class="st0" d="M279.23,253.2c-1.97,0.11-3.94,0.25-5.91,0.31c-3.84,0.13-7.69,0.36-11.52,0.26c-3.25-0.08-6.45,0.02-9.67,0.49
	c-2.73,0.4-5.51,0.47-8.27,0.57c-1.16,0.04-2.11,0.26-2.73,1.42c0.71,0.83,1.71,0.61,2.55,0.58c2.3-0.09,4.63-0.13,6.88-0.55
	c4.82-0.88,9.65-0.83,14.51-0.74c4.54,0.08,9.08,0.03,13.45-1.49c0.27-0.09,0.53-0.21,0.79-0.32
	C279.27,253.56,279.25,253.38,279.23,253.2"/>
<path class="st0" d="M322.87,136.01c0.62-0.3,1.01-0.37,1.25-0.61c3.58-3.68,8.08-4.83,13.03-4.87c5.05-0.03,9.98,0.73,14.77,2.3
	c1.28,0.42,2.42,1.27,3.62,1.93c0.66,0.36,1.3,0.75,2.17,1.25c-0.04-1.24-0.77-1.71-1.42-2.13c-4.27-2.73-8.85-4.58-13.99-4.69
	c-3.15-0.07-6.31-0.13-9.46,0c-2.58,0.11-4.95,0.99-7.09,2.52C324.32,132.73,323.43,134.02,322.87,136.01"/>
<path class="st0" d="M433.78,204.32c2.51,0.33,4.36-1.01,6.28-2.08c3.75-2.11,7.45-4.31,11.18-6.46c3.54-2.04,7.1-4.04,10.62-6.1
	c0.84-0.49,1.57-1.16,2.77-2.06c-0.79-0.05-1.1-0.17-1.31-0.07c-2.33,1.13-4.83,1.81-7.04,3.28c-3.53,2.34-7.26,4.36-10.92,6.51
	c-3.59,2.11-7.18,4.19-10.77,6.3C434.3,203.81,434.05,204.09,433.78,204.32"/>
<path class="st0" d="M9.33,281.93c-1.58-0.13-2.84-0.15-4.07-0.36c-0.84-0.14-2,0.23-2.37-0.98c-0.36-1.17,0.45-1.89,1.22-2.54
	c2.37-1.97,4.75-3.91,7.15-5.84c0.88-0.7,1.82-1.32,2.7-1.95c-0.54-1.17-1.25-0.86-1.85-0.54c-1.02,0.54-2.04,1.11-2.95,1.8
	c-2.69,2.05-5.4,4.1-7.97,6.3c-1.92,1.65-1.44,3.96,0.91,4.94C4.48,283.76,6.81,283.75,9.33,281.93"/>
<path class="st0" d="M437.15,215.13c1.73,0.68,3.05-0.04,3.61-0.92c1.37-2.14,3.67-2.83,5.57-4.07c2.76-1.8,5.84-3.1,8.65-4.82
	c3.72-2.28,7.31-4.76,10.95-7.15c-0.06-0.14-0.13-0.28-0.19-0.41c-0.85,0.24-1.79,0.34-2.53,0.76c-3,1.72-5.94,3.56-8.91,5.34
	c-4.22,2.54-8.45,5.06-12.66,7.61c-1.25,0.76-2.47,1.56-3.65,2.41C437.66,214.1,437.51,214.57,437.15,215.13"/>
<path class="st0" d="M404.03,186.66c0.79-0.5,0.49-1.15-0.04-1.66c-1.22-1.15-2.71-1.88-4.4-1.67c-5.42,0.67-10.75,1.89-15.8,3.98
	c-2.55,1.06-5.04,2.17-7.78,2.67c-0.77,0.14-1.22,0.68-0.41,1.68c1.11-0.51,2.28-0.99,3.4-1.57c1-0.52,1.96-0.89,3.12-1.11
	c3.31-0.63,6.53-1.76,9.83-2.44c2.77-0.57,5.61-0.95,8.44-1.08C401.56,185.4,402.76,186.22,404.03,186.66"/>
<path class="st0" d="M138.92,263.22c0.29,0.84,0.5,1.45,0.82,2.39c2.46,0.09,5.04,0.33,7.61,0.23c2.53-0.1,5.05-0.5,7.56-0.85
	c2.53-0.34,5.18-0.16,7.54-1.55c-1.54-0.59-3.1-0.47-4.65-0.35c-3.61,0.26-7.2,0.62-10.81,0.82c-1.76,0.1-3.54-0.02-5.3-0.14
	C140.83,263.72,139.98,263.44,138.92,263.22"/>
<path class="st0" d="M458.51,149.94c-2.06-2.67-4.09-5.36-6.18-8c-0.81-1.03-2-1.46-3.28-1.42c-3.11,0.1-6.02,1.13-8.92,2.16
	c-0.23,0.08-0.36,0.44-0.57,0.7c0.84,0.78,1.72,0.7,2.65,0.56c2.05-0.31,4.11-0.55,6.16-0.8c1.07-0.13,1.91,0.34,2.72,1.01
	c2.41,2,4.86,3.95,7.29,5.92L458.51,149.94z"/>
<path class="st0" d="M235.04,250.65c-0.49,0.21-1,0.37-1.46,0.63c-2.99,1.7-5.09,4.4-7.58,6.67c-1.13,1.03-2.45,1.83-3.64,2.8
	c-0.8,0.64-1.75,1.25-2.21,2.11c-0.53,0.99-1.23,1.4-2.29,1.38c0.24,0.88,0.53,1.1,1.19,0.65c2.34-1.58,4.8-3,7.02-4.73
	c2.3-1.79,4.41-3.83,6.53-5.84c1-0.95,1.81-2.08,2.71-3.13C235.22,251.01,235.13,250.83,235.04,250.65"/>
<path class="st0" d="M279.01,220.44c0.56-0.17,1.2-0.22,1.68-0.52c2.14-1.35,4.35-2.63,6.34-4.19c3.21-2.52,6.27-5.22,9.37-7.87
	c1.7-1.44,3.4-2.89,4.48-5.33c-0.62,0.35-1.01,0.5-1.32,0.76c-3.45,2.96-6.87,5.96-10.35,8.89c-2.18,1.83-4.46,3.53-6.67,5.32
	c-1.18,0.96-2.31,1.98-3.47,2.96C279.05,220.46,279.01,220.44,279.01,220.44"/>
<path class="st0" d="M394.11,217c2.39-1.31,5.07-2.29,7.12-4c4.02-3.35,8.67-5.71,12.79-8.87c0.52-0.4,0.98-0.88,1.72-1.55
	c-0.64-0.04-1-0.18-1.19-0.05c-7.15,4.31-14.05,9-20.75,13.97C393.89,216.67,394,216.83,394.11,217"/>
<path class="st0" d="M343.45,182.27c-3.45,0.55-6.46,2.07-9.33,3.87c-2.28,1.43-4.5,2.97-6.76,4.44c-1.27,0.83-2.19,1.84-2.19,3.84
	C331.28,190.02,336.93,185.49,343.45,182.27"/>
<path class="st0" d="M362.64,141.11c0.86,2.35-0.33,3.53-2.45,4.43c2.51-0.42,4.62-0.23,6.31,1.85c0.11-0.22,0.23-0.43,0.34-0.65
	c-0.53-0.64-1.07-1.28-1.82-2.18c3.73-2.25,7.97-3.49,10.84-6.91c-3.82,1.74-7.64,3.48-11.59,5.28
	C363.75,142.33,363.2,141.72,362.64,141.11"/>
<path class="st0" d="M248.54,218.57c-1.68-0.69-3.35-1.4-5.04-2.07c-1.14-0.45-2.27-0.93-3.45-1.23c-2.05-0.53-3.85-1.51-5.55-2.73
	c-1.35-0.97-2.76-1.86-4.28-2.88c-0.77,0.51-0.89,1.29,0.04,2.02c1.2,0.94,2.4,1.95,3.77,2.58c2.65,1.22,5.45,2.1,8.1,3.3
	c2.1,0.94,4.24,1.09,6.46,0.96L248.54,218.57z"/>
<path class="st0" d="M112.39,258.37c-4.79,4.09-9.5,8.11-14.22,12.14c0.02,0.06,0.05,0.11,0.07,0.17c1.18-0.51,2.44-0.9,3.52-1.57
	c3.8-2.34,7.33-5.04,10.37-8.33C112.82,260.04,112.81,260.02,112.39,258.37"/>
<path class="st0" d="M498.21,190.79c-0.28,0.06-0.6,0.05-0.84,0.2c-2.88,1.76-5.76,3.51-8.59,5.35c-0.64,0.42-1.08,1.15-1.7,1.84
	c0.77,0.64,1.28,1.06,1.97,1.63c1.66-1.49,3.24-2.9,4.81-4.32c1.56-1.4,3.11-2.81,4.66-4.21
	C498.42,191.11,498.31,190.95,498.21,190.79"/>
<path class="st0" d="M168.41,201.19c5.38-1.43,8.93-5.28,13.36-7.59c0.77-0.4,1.59-0.71,2.61-1.16
	C181.18,191.83,172.75,196.5,168.41,201.19"/>
<path class="st0" d="M248.58,218.51c-0.13,1.22,0.72,1.62,1.65,1.84c3.07,0.74,6.16,1.31,9.34,1.17c1.3-0.06,2.61,0.11,3.91,0.11
	c0.54,0,1.08-0.16,1.55-0.6c-5.5-0.82-11-1.63-16.5-2.45C248.54,218.57,248.58,218.51,248.58,218.51"/>
<path class="st0" d="M416.61,206.48c-0.11,0.11-0.24,0.18-0.39,0.22c-2.47,1.8-4.95,3.58-7.41,5.4c-0.83,0.62-1.58,1.34-2.15,2.33
	c0.61-0.25,1.28-0.42,1.83-0.77c3.29-2.09,6.55-4.22,9.82-6.33c0.96-0.62,1.32-1.38,0.59-2.4l0,0.02
	C418.6,206.13,417.44,206.06,416.61,206.48"/>
<path class="st0" d="M478.81,163.59c5.21-0.82,10.23-1.26,15.36,0.15C491.27,160.7,480.68,160.48,478.81,163.59"/>
<path class="st0" d="M286.56,153.68c1.06,0.27,1.84,0.52,2.64,0.66c0.5,0.08,1.08,0.14,1.53-0.04c2.99-1.14,5.96-2.36,9.43-3.75
	c-1.78-0.46-3.02-0.35-4.24,0.06c-1.74,0.59-3.44,1.3-5.19,1.87c-0.86,0.28-1.81,0.3-2.69,0.51
	C287.57,153.11,287.15,153.39,286.56,153.68"/>
<path class="st0" d="M355.33,177.76c2.16-0.74,4.32-1.5,6.49-2.2c1.08-0.35,2.2-0.66,3.32-0.85c1.66-0.28,3.26-0.61,4.77-1.98
	c-1.9-0.36-3.37,0.1-4.8,0.86c-0.46,0.24-0.98,0.7-1.4,0.63c-2.63-0.45-4.75,0.93-6.98,1.86c-0.61,0.25-1.07,0.87-1.6,1.32
	C355.19,177.52,355.26,177.64,355.33,177.76"/>
<path class="st0" d="M403.98,216.12c-0.61,0.09-1.39-0.03-1.79,0.3c-2.65,2.18-5.79,3.59-8.52,5.62c-0.46,0.34-0.86,0.77-1.65,1.5
	c2.97-0.1,4.52-1.91,6.36-3.06c1.93-1.2,3.76-2.57,5.63-3.86C403.99,216.46,403.98,216.29,403.98,216.12"/>
<path class="st0" d="M432.01,206.33c-4.98,1.05-8.53,4.56-12.56,7.25C424.06,211.89,428.13,209.29,432.01,206.33"/>
<path class="st0" d="M158.62,230.94c-2,1.71,0.07,6.43,3.62,8.68c0.29-1.09,0.2-1.04-1.69-4.11
	C159.73,234.18,159.3,232.6,158.62,230.94"/>
<path class="st0" d="M430.25,192.19c-3.9,1.17-6.71,4.06-10.45,6.43C422.46,198.41,427.55,195.26,430.25,192.19"/>
<path class="st0" d="M248.67,134.04c-0.25,0.28-0.5,0.56-0.75,0.84c-0.34,0.63-0.69,1.26-1.13,2.08c2.29-0.3,4.77-2.44,7.23-6.04
	c-1.26-0.12-1.99,0.61-2.78,1.24C250.4,132.8,249.53,133.41,248.67,134.04"/>
<path class="st0" d="M311.7,145.66c-3.82,0.09-7.7,0.07-10.27,3.78C304.85,148.18,308.28,146.92,311.7,145.66"/>
<path class="st0" d="M468.83,158.1c-2.6-0.93-4.77-0.93-10.28,0.03C460.97,159.46,462.42,159.46,468.83,158.1"/>
<path class="st0" d="M372.62,198.65c-3.33,2.19-6.42,4.21-9.63,6.32c1.46,0.24,1.55,0.19,3.47-1.16c1.12-0.78,2.37-1.39,3.4-2.27
	C370.79,200.77,372.47,200.75,372.62,198.65"/>
<path class="st0" d="M270.73,246.47c-1.57-1.48-2.91-0.47-4.3-0.25c-1.37,0.21-2.73,0.44-4.14,0.67c0.74,1.89,0.74,1.89,2.14,1.06
	c0.25-0.15,0.5-0.36,0.77-0.41C267.04,247.16,268.89,246.82,270.73,246.47"/>
<path class="st0" d="M253.14,134.5c2.35-1.81,5.06-3.2,6.46-5.95C256.75,129.8,254.88,132.11,253.14,134.5"/>
<path class="st0" d="M228.84,204.87c0.42,0.66,0.73,1.44,1.29,1.94c1.82,1.64,3.77,3.1,6.31,3.54c-1.26-0.87-2.6-1.65-3.75-2.63
	c-1.17-1-2.16-2.21-3.23-3.33C229.25,204.55,229.05,204.71,228.84,204.87"/>
<path class="st0" d="M382.46,232.89c0.59,0.08,1.08,0.26,1.53,0.18c1.38-0.25,2.69-1.31,4.08-3.12
	C385.97,229.81,383.76,230.9,382.46,232.89"/>
<path class="st0" d="M360.37,136.45c3.46-0.69,6.24-1.87,9.4-3.19C367.2,133.25,361.96,134.98,360.37,136.45"/>
<path class="st0" d="M432.73,140.19c0.8-0.42,1.56-0.71,2.18-1.17c0.65-0.48,1.18-1.13,1.69-1.64
	C433.95,136.82,432.55,137.65,432.73,140.19"/>
<path class="st0" d="M363.2,198.06c-1.11,0.79-2.3,1.64-3.68,2.63c1.59,0.57,3.25,0.12,4.12-0.91
	C364.11,199.22,364.09,198.68,363.2,198.06"/>
<path class="st0" d="M456.15,188.1c1.81-1.07,4.16-1.54,4.83-4.41C458.73,184.81,457.56,186.6,456.15,188.1"/>
<path class="st0" d="M472.07,182.2c-1.26,0.78-2.52,1.56-3.93,2.44C470.18,185.21,471.85,184.29,472.07,182.2"/>
<path class="st0" d="M288.99,156.8c0.98,1.49,1.8,1.73,3.66,1.09C290.68,156.43,290.39,156.35,288.99,156.8"/>
<path class="st0" d="M103.33,212.69c-2,0.93-2.59,2.49-3.49,4.43C101.57,215.83,102.56,214.6,103.33,212.69"/>
<path class="st0" d="M243.95,213.98c-0.91-1.36-2.12-1.7-3.69-1.88c0.15,0.51,0.16,1.02,0.36,1.12
	C241.61,213.71,242.58,214.36,243.95,213.98"/>
<path class="st0" d="M501.9,188.67c1-0.47,2.02-0.89,2.96-1.46c0.25-0.15,0.24-0.74,0.35-1.13c-0.41-0.03-0.98-0.25-1.2-0.07
	c-0.84,0.7-1.57,1.54-2.35,2.33C501.74,188.46,501.82,188.56,501.9,188.67"/>
<path class="st0" d="M220.07,253.85c-2.41,0.25-4.82,0.49-7.23,0.74C215.36,255.24,217.78,254.79,220.07,253.85"/>
<path class="st0" d="M283.36,251.83c-1.41-0.34-2.27-0.13-2.62,1.18C282.36,253.53,282.36,253.53,283.36,251.83"/>
<path class="st0" d="M498.96,183.92c1.15-0.86,3.05-0.87,3.29-3.09c-1.44,0.85-2.93,1.33-3.22,3.15
	C499.03,183.98,498.96,183.92,498.96,183.92"/>
<path class="st0" d="M125.52,198.94c-1.51-0.13-2.4,0.37-3.32,1.57C123.77,200.55,124.77,200.27,125.52,198.94"/>
<path class="st0" d="M45.18,270.89c-0.63-0.08-1.26-0.15-2.05-0.25c-0.08,0.65-0.15,1.2-0.24,1.85c0.88-0.46,1.61-0.85,2.34-1.23
	C45.22,271.14,45.2,271.01,45.18,270.89"/>
<path class="st0" d="M242.59,140.25c0.52,0.27,0.88,0.6,1.09,0.52c0.87-0.33,1.55-0.89,1.48-2.19
	C244.32,139.13,243.57,139.61,242.59,140.25"/>
<path class="st0" d="M266.25,233.42l4.33-0.71c-0.04-0.18-0.08-0.35-0.13-0.53c-1.48,0.38-2.96,0.76-4.43,1.14
	C266.1,233.36,266.17,233.39,266.25,233.42"/>
<path class="st0" d="M446.26,195.79c1.13-0.71,2.03-1.28,3.23-2.04C447.36,193.99,447.15,194.13,446.26,195.79"/>
<path class="st0" d="M473.92,208.7c-1.26,0.06-2.52,0.12-3.78,0.17c0,0.12,0,0.23,0,0.35c1.24,0,2.49,0,3.73,0
	C473.89,209.04,473.9,208.87,473.92,208.7"/>
<path class="st0" d="M434.72,194.82c0.75-0.61,1.5-1.22,2.25-1.82l-0.34-0.44c-0.77,0.59-1.54,1.18-2.31,1.77
	C434.45,194.48,434.59,194.65,434.72,194.82"/>
<path class="st0" d="M159.2,225.54c-1.8,0.55-1.49,1.52-1.14,2.52C158.37,227.38,158.68,226.69,159.2,225.54"/>
<path class="st0" d="M105.25,208.16c0.21,0.81,0.42,1.62,0.63,2.42c0.16-0.06,0.32-0.11,0.48-0.17c-0.46-0.7,0.59-2.05-1.18-2.19
	C105.18,208.23,105.25,208.16,105.25,208.16"/>
<path class="st0" d="M229.76,216c-0.64-0.25-1.27-0.5-2.35-0.91c0.36,1.08,0.45,1.62,1.28,1.14
	C229.05,216.16,229.41,216.08,229.76,216"/>
<path class="st0" d="M295.3,229.02c-0.53,0.59-1.05,1.19-1.72,1.94C294.97,230.98,294.84,229.69,295.3,229.02"/>
<path class="st0" d="M229.76,216c-0.35,0.08-0.71,0.15-1.06,0.23c0.53,1.36,1.49,0.35,2.21,0.65c0.04-0.16,0.08-0.33,0.13-0.49
	C230.61,216.26,230.19,216.13,229.76,216"/>
<path class="st0" d="M159.63,255.46c0.96,0.27,1.91,0.53,2.87,0.8c0.04-0.15,0.09-0.31,0.13-0.46c-0.93-0.31-1.87-0.62-2.8-0.93
	C159.77,255.06,159.7,255.26,159.63,255.46"/>
<path class="st0" d="M411.14,215.14l-1.91,0.31C410.05,216.1,410.61,216.42,411.14,215.14"/>
<path class="st0" d="M347.31,226.06c1.01-0.22,2.02-0.45,3.03-0.67c-0.01-0.06-0.02-0.12-0.03-0.18c-1.04,0.08-2.08,0.16-3.12,0.24
	C347.22,225.65,347.26,225.85,347.31,226.06"/>
<path class="st0" d="M290.07,199.31c0.37-0.41,0.74-0.83,1.11-1.24c-0.14-0.14-0.29-0.28-0.43-0.42c-0.38,0.39-0.76,0.78-1.14,1.17
	C289.76,198.98,289.92,199.14,290.07,199.31"/>
<path class="st0" d="M234.48,139.58c0.9,0.18,1.12-0.48,1.51-1.67c-0.86,0.54-1.34,0.84-1.82,1.13
	C234.27,139.22,234.37,139.4,234.48,139.58"/>
<path class="st0" d="M366.76,233.18c-0.57,0.28-1.14,0.57-1.72,0.85c0.07,0.14,0.15,0.28,0.22,0.42c0.56-0.31,1.12-0.61,1.68-0.92
	C366.88,233.41,366.82,233.29,366.76,233.18"/>
<path class="st0" d="M203.83,255.24c0.84,0.02,1.68,0.04,2.52,0.06c-0.01-0.16-0.02-0.31-0.03-0.47c-0.83,0.14-1.66,0.27-2.5,0.41
	C203.82,255.24,203.83,255.24,203.83,255.24"/>
<path class="st0" d="M223.15,257.2c-0.74,0.27-1.48,0.55-2.22,0.82c0.05,0.13,0.1,0.26,0.16,0.39c0.74-0.29,1.48-0.58,2.22-0.87
	C223.25,257.42,223.2,257.31,223.15,257.2"/>
<path class="st0" d="M212.51,220.51c-0.55-1.19-1.01-1.42-1.66-0.95c-0.11,0.08-0.11,0.57-0.07,0.58
	C211.23,220.27,211.69,220.35,212.51,220.51"/>
<path class="st0" d="M167.8,179.08l2.1-0.34c-0.01-0.09-0.03-0.18-0.04-0.27l-2.12,0.34C167.76,178.9,167.78,178.99,167.8,179.08"/>
<path class="st0" d="M448.23,189.58c0.52-0.31,1.03-0.63,1.55-0.94c-0.06-0.11-0.12-0.21-0.19-0.32c-0.53,0.29-1.05,0.59-1.58,0.88
	C448.09,189.33,448.16,189.46,448.23,189.58"/>
<path class="st0" d="M418.9,204.92c0.94,0.78,1.81,0.52,2.66-0.16c-0.99-1.37-1.74,0.51-2.65,0.18
	C418.9,204.94,418.9,204.92,418.9,204.92"/>
<path class="st0" d="M208.87,271.47c1.31,0.67,1.79,0.35,2.24-0.81C210.33,270.94,209.8,271.14,208.87,271.47"/>
<path class="st0" d="M452.08,177.63c0.84,0.3,1.45,0.05,2.06-1.21c-0.91,0.57-1.46,0.91-2.02,1.25
	C452.11,177.66,452.08,177.63,452.08,177.63"/>
<path class="st0" d="M462.34,211.24c0.27-0.53,0.54-1.06,0.98-1.94c-0.72,0.5-1.21,0.84-1.94,1.36c0.51,0.26,0.76,0.38,1.01,0.52
	C462.37,211.19,462.34,211.24,462.34,211.24"/>
<path class="st0" d="M422.31,200.21c-0.63,0.16-1.26,0.33-1.89,0.49c0.07,0.17,0.13,0.34,0.19,0.51c0.55-0.35,1.09-0.7,1.64-1.05
	C422.25,200.16,422.31,200.21,422.31,200.21"/>
<path class="st0" d="M31.64,268.65c-0.26,0.41-0.51,0.83-0.77,1.24c0.09,0.07,0.18,0.14,0.27,0.21c0.19-0.23,0.42-0.44,0.56-0.69
	c0.11-0.19,0.13-0.44,0.19-0.67C31.82,268.71,31.73,268.68,31.64,268.65"/>
<path class="st0" d="M228.45,139.2l-0.87-0.5c-0.08,0.19-0.26,0.52-0.23,0.55c0.26,0.19,0.56,0.31,0.85,0.45
	C228.29,139.53,228.37,139.36,228.45,139.2"/>
<path class="st0" d="M459.57,175.24c-0.42,0.43-0.84,0.86-1.26,1.29c0.12,0.12,0.23,0.24,0.35,0.36c0.43-0.42,0.86-0.84,1.29-1.25
	C459.83,175.5,459.7,175.37,459.57,175.24"/>
</svg>
