<?xml version="1.0" encoding="utf-8"?>
<!-- Generator: Adobe Illustrator 23.0.3, SVG Export Plug-In . SVG Version: 6.00 Build 0)  -->
<svg version="1.1" id="Layer_1" xmlns="http://www.w3.org/2000/svg" xmlns:xlink="http://www.w3.org/1999/xlink" x="0px" y="0px"
	 viewBox="0 0 444.1 449.9" style="enable-background:new 0 0 444.1 449.9;" xml:space="preserve">
<style type="text/css">
	.st0{fill:#F2BA42;}
</style>
<title>Asset 1</title>
<g>
	<g>
		<g>
			<g>
				<path class="st0" d="M48.3,295.1l5.5,11.3c1.2,2.5,1.9,4.7,2.2,6.6c0.3,1.9,0.1,3.5-0.3,4.9c-0.4,1.4-1.2,2.5-2.2,3.5
					c-1,1-2.2,1.8-3.6,2.4c-1.4,0.7-2.9,1.2-4.4,1.4c-1.5,0.2-2.9,0.1-4.4-0.3c-1.4-0.5-2.8-1.4-4.2-2.7c-1.3-1.3-2.6-3.2-3.8-5.7
					l-3.4-7l-13.1,6.4l-2.1-4.3L48.3,295.1z M36.8,314.7c0.8,1.6,1.6,2.9,2.4,3.9c0.8,0.9,1.7,1.5,2.6,1.9c0.9,0.3,1.8,0.4,2.8,0.2
					c1-0.2,1.9-0.5,3-1c1.1-0.5,2-1.1,2.7-1.8c0.7-0.7,1.2-1.4,1.4-2.3c0.2-0.9,0.2-1.9,0-3.1c-0.2-1.2-0.8-2.6-1.6-4.2l-3.4-6.9
					l-13.3,6.5L36.8,314.7z"/>
				<path class="st0" d="M67,329.2l2.9,4.2l-22.5,33.6l-3-4.3l6.3-9.3l-9.3-13.2l-10.8,2.8l-2.9-4.2L67,329.2z M53.5,349.7
					l10.5-15.4l-18,4.7L53.5,349.7z"/>
				<path class="st0" d="M80.5,347.3l8.7,8.7c2,2,3.4,3.9,4.2,5.6c0.8,1.7,1.2,3.3,1.3,4.8c0,1.4-0.3,2.7-0.9,3.9
					c-0.6,1.2-1.4,2.2-2.3,3.1c-1.7,1.7-3.5,2.8-5.4,3.3c-1.9,0.5-4,0.2-6.3-0.7l-6.4,17.5l-3.8-3.9l6.2-16.2
					c-0.4-0.3-0.7-0.6-1.1-1c-0.4-0.4-0.7-0.7-1-1l-5.3-5.3l-11.1,11l-3.4-3.4L80.5,347.3z M76.9,369c1.2,1.2,2.3,2.1,3.3,2.6
					c1,0.5,1.9,0.8,2.8,0.8c0.9,0,1.7-0.2,2.5-0.7c0.8-0.4,1.6-1,2.4-1.8c0.7-0.7,1.3-1.5,1.7-2.3c0.4-0.8,0.5-1.6,0.4-2.5
					s-0.4-1.9-1-2.9c-0.6-1-1.6-2.2-2.8-3.5l-5.2-5.2l-9.7,9.7L76.9,369z"/>
				<path class="st0" d="M112.7,376.1l4.2,2.9l-9.6,39.2l-4.3-3l2.8-10.9l-13.2-9.3l-9.3,6.3l-4.2-2.9L112.7,376.1z M106.9,400
					l4.6-18.1l-15.4,10.5L106.9,400z"/>
				<path class="st0" d="M143.6,394.5l11.8,4.5c2.6,1,4.6,2.1,6.1,3.3s2.5,2.5,3.1,3.8c0.6,1.3,0.9,2.7,0.7,4.1
					c-0.1,1.4-0.4,2.8-1,4.2c-0.6,1.5-1.3,2.8-2.2,4c-0.9,1.2-2.1,2.1-3.4,2.7c-1.4,0.6-3,0.9-4.9,0.9c-1.9,0-4.1-0.6-6.7-1.6
					l-7.3-2.8l-5.2,13.6l-4.5-1.7L143.6,394.5z M148.6,416.7c1.7,0.7,3.2,1,4.4,1.1c1.3,0.1,2.3-0.1,3.2-0.4c0.9-0.4,1.6-1,2.2-1.7
					c0.6-0.8,1.1-1.7,1.5-2.8c0.4-1.1,0.7-2.2,0.7-3.1c0.1-1-0.1-1.8-0.6-2.6s-1.2-1.6-2.2-2.3c-1-0.7-2.3-1.4-4-2l-7.2-2.7
					l-5.3,13.8L148.6,416.7z"/>
				<path class="st0" d="M173.9,405.4l12.1,2.3c2.7,0.5,5,1.3,6.6,2.2c1.6,1,2.9,2,3.7,3.2c0.8,1.2,1.3,2.4,1.5,3.7
					c0.1,1.3,0.1,2.6-0.1,3.9c-0.4,2.4-1.3,4.2-2.6,5.7c-1.3,1.5-3.2,2.4-5.6,3l4.5,18.1l-5.3-1l-4-16.8c-0.4,0-1-0.1-1.5-0.1
					c-0.5-0.1-1-0.1-1.4-0.2l-7.3-1.4l-3,15.3l-4.7-0.9L173.9,405.4z M183.1,425.4c1.6,0.3,3,0.4,4.2,0.3s2.1-0.4,2.8-0.9
					c0.7-0.5,1.3-1.1,1.7-1.9c0.4-0.8,0.7-1.8,0.9-2.8c0.2-1,0.2-2,0.1-2.8c-0.1-0.8-0.5-1.6-1-2.3s-1.4-1.3-2.5-1.8
					c-1.1-0.5-2.5-0.9-4.3-1.3l-7.2-1.4l-2.6,13.5L183.1,425.4z"/>
				<path class="st0" d="M205.9,410.9l24.4,0.6l-0.1,4.3l-19.5-0.4l-0.3,11.8l18.4,0.4l-0.1,4.3l-18.4-0.4l-0.3,13l20.5,0.5
					l-0.9,4.2l-24.6-0.6L205.9,410.9z"/>
				<path class="st0" d="M243,437.4c0.8,2.5,2.1,4.3,3.9,5.2s4.4,1.1,7.6,0.7c1.6-0.2,3-0.6,4-1.1c1-0.5,1.9-1.1,2.4-1.9
					c0.6-0.7,0.9-1.5,1.1-2.3c0.1-0.9,0.2-1.7,0-2.6c-0.1-0.7-0.3-1.4-0.6-2.1c-0.3-0.7-0.7-1.2-1.3-1.7c-0.6-0.5-1.3-0.9-2.3-1.2
					c-1-0.3-2.1-0.4-3.6-0.5l-4.8-0.1c-1.9-0.1-3.6-0.2-5.1-0.5c-1.5-0.3-2.8-0.8-3.9-1.5c-1.1-0.7-2-1.6-2.7-2.7
					c-0.7-1.1-1.1-2.6-1.4-4.3c-0.2-1.7-0.1-3.3,0.4-4.6c0.5-1.4,1.3-2.6,2.4-3.6c1.1-1,2.4-1.9,4.1-2.6c1.6-0.7,3.4-1.1,5.3-1.4
					c2.5-0.4,4.6-0.4,6.3-0.1c1.7,0.3,3.2,0.8,4.4,1.6c1.2,0.7,2.1,1.7,2.8,2.7c0.7,1.1,1.3,2.2,1.7,3.4l-4.4,1.6
					c-0.4-1-0.9-1.9-1.5-2.6c-0.6-0.7-1.2-1.3-2-1.8c-0.8-0.4-1.7-0.7-2.8-0.8c-1.1-0.1-2.4-0.1-3.9,0.1c-1.7,0.2-3.1,0.6-4.2,1.1
					c-1.1,0.5-2,1-2.6,1.7c-0.6,0.6-1,1.3-1.2,2.2c-0.2,0.8-0.2,1.6-0.1,2.4c0.1,0.9,0.4,1.7,0.7,2.3c0.3,0.7,0.8,1.2,1.4,1.6
					c0.6,0.4,1.4,0.7,2.3,1c0.9,0.2,2,0.3,3.3,0.4l5.3,0.2c4,0.2,7,1,9,2.4c2.1,1.4,3.3,3.8,3.8,7.1c0.2,1.5,0.1,2.9-0.2,4.3
					c-0.4,1.4-1.1,2.7-2.1,3.8c-1,1.1-2.3,2.1-3.9,2.9c-1.6,0.8-3.6,1.4-5.9,1.7c-2.2,0.3-4.2,0.4-6.1,0.2c-1.9-0.2-3.5-0.6-5-1.4
					c-1.5-0.7-2.7-1.8-3.7-3.1c-1-1.3-1.8-3-2.2-5L243,437.4z"/>
				<path class="st0" d="M269.6,405.1l4.7-1.3l10,36.3l-4.7,1.3L269.6,405.1z"/>
				<path class="st0" d="M282.1,401.9l12.1-5.2c2.5-1.1,4.9-1.7,7.2-1.9s4.4,0.2,6.4,1c2,0.8,3.8,2.2,5.5,4c1.6,1.8,3.1,4.2,4.3,7
					c1.3,2.9,1.9,5.6,2.1,8.2c0.1,2.5-0.2,4.8-1.1,6.9s-2.2,4-4,5.6c-1.8,1.6-4,3-6.7,4.2l-11,4.7L282.1,401.9z M306.5,427.8
					c4.3-1.9,6.9-4.4,7.9-7.6c0.9-3.3,0.5-7-1.3-11.2c-0.9-2.1-1.9-3.9-3.1-5.3c-1.1-1.5-2.4-2.6-3.8-3.3c-1.4-0.7-3-1.1-4.7-1.1
					s-3.6,0.5-5.6,1.3l-7.6,3.3l11.5,26.9L306.5,427.8z"/>
				<path class="st0" d="M315.5,386.6l20.3-13.4l2.4,3.6l-16.3,10.8l6.5,9.8l15.4-10.2l2.4,3.6l-15.4,10.2l7.2,10.8l17.1-11.3l1.7,4
					L336.3,418L315.5,386.6z"/>
				<path class="st0" d="M340.6,369.4l3.5-3.3l34.5,8.4L358,352.9l3.4-3.2l26,27.2l-3.3,3.2l-34.5-8.2l20.5,21.5l-3.4,3.2
					L340.6,369.4z"/>
				<path class="st0" d="M375,339l-7.3,10l-3.5-2.5l17.6-24.1l3.5,2.5l-7.3,10l26.9,19.7l-2.9,3.9L375,339z"/>
				<path class="st0" d="M383.9,318.5l11-21.8l3.8,1.9l-8.8,17.4l10.5,5.3l8.3-16.5l3.9,1.9l-8.3,16.5l11.6,5.8l9.2-18.3l3.5,2.6
					l-11.1,21.9L383.9,318.5z"/>
			</g>
			<g>
				<g>
					<path class="st0" d="M17.2,135.4l5.9-11.6c1.3-2.6,2.6-4.5,4-5.9s2.8-2.3,4.2-2.8c1.4-0.5,2.8-0.6,4.3-0.3s2.8,0.7,4.2,1.4
						c1.5,0.7,2.7,1.6,3.9,2.7s1.9,2.3,2.5,3.8c0.5,1.5,0.7,3.2,0.4,5.1c-0.2,1.9-1,4.2-2.3,6.7l-3.6,7.2l13.4,6.8l-2.2,4.4
						L17.2,135.4z M40.5,132.6c0.8-1.7,1.4-3.2,1.6-4.4c0.2-1.3,0.2-2.4-0.1-3.3c-0.3-0.9-0.8-1.7-1.6-2.4c-0.7-0.7-1.6-1.3-2.7-1.8
						c-1.1-0.6-2.2-0.9-3.1-1.1c-1-0.2-1.9-0.1-2.8,0.3c-0.9,0.4-1.7,1-2.5,2c-0.8,1-1.6,2.2-2.5,3.9l-3.6,7.1l13.7,6.9L40.5,132.6z
						"/>
					<path class="st0" d="M38.4,97.4l15.4-19.9l3.5,2.7L45,96.1l9.7,7.4l11.7-15.1l3.5,2.7l-11.7,15.1l10.6,8.2l12.9-16.7l3,3.3
						l-15.5,20L38.4,97.4z"/>
					<path class="st0" d="M75.7,62.1l-9.6,8.5l-3-3.3l23-20.3l3,3.3l-9.6,8.5l22.7,25.8l-3.8,3.3L75.7,62.1z"/>
					<path class="st0" d="M98.2,38.5l21.6-12.8l2.2,3.8l-17.3,10.3l6.2,10.5l16.4-9.7l2.3,3.8l-16.4,9.7l6.8,11.5l18.2-10.8l1.6,4.2
						L118,71.9L98.2,38.5z"/>
					<path class="st0" d="M152.3,12.1l12.5-3.3c2.7-0.7,4.9-1,6.8-1c1.9,0.1,3.4,0.4,4.6,1c1.2,0.6,2.2,1.4,2.9,2.5
						c0.7,1.1,1.2,2.3,1.6,3.6c0.4,1.7,0.5,3.4,0,4.9c-0.4,1.6-1.5,3.1-3.2,4.5c1.4,0.1,2.6,0.4,3.6,0.9c1,0.4,1.9,1,2.6,1.6
						c0.7,0.7,1.3,1.4,1.7,2.2c0.4,0.8,0.7,1.7,1,2.6c0.4,1.6,0.5,3,0.4,4.5c-0.1,1.4-0.6,2.8-1.4,4.1c-0.8,1.3-2,2.4-3.6,3.4
						c-1.6,1-3.6,1.9-6.2,2.5l-13.4,3.6L152.3,12.1z M169.6,24.6c2.8-0.7,4.8-1.8,5.7-3.2c1-1.3,1.2-3,0.6-5c-0.5-2-1.6-3.3-3.1-3.9
						c-1.6-0.6-3.9-0.4-7.1,0.4l-7.6,2l3.1,11.9L169.6,24.6z M174.4,42.2c1.7-0.4,3.1-1,4.2-1.6s1.9-1.3,2.4-2.1
						c0.5-0.7,0.8-1.6,0.9-2.5c0.1-0.9-0.1-1.9-0.4-2.9c-0.6-2.2-1.7-3.7-3.3-4.6c-1.6-0.8-3.9-0.8-7,0l-8.9,2.4l3.6,13.6
						L174.4,42.2z"/>
					<path class="st0" d="M193.7,2.9l5-0.4l1.7,23.4c0.3,4,1.3,7,2.9,8.8c1.6,1.9,4.2,2.7,7.7,2.4c3.5-0.3,5.9-1.4,7.2-3.6
						c1.3-2.1,1.8-5.2,1.5-9.1L218,1.2l5-0.4l1.7,23.4c0.2,2.9,0.1,5.4-0.4,7.5s-1.3,3.9-2.5,5.3c-1.1,1.4-2.6,2.5-4.4,3.3
						c-1.8,0.7-3.8,1.2-6.1,1.4c-4.7,0.3-8.4-0.7-11.1-3.1c-2.7-2.4-4.3-6.5-4.8-12.4L193.7,2.9z"/>
					<path class="st0" d="M247.9,7.4l-12.7-1.7l0.6-4.4l30.5,4l-0.6,4.4l-12.7-1.7l-4.5,34.1l-5-0.7L247.9,7.4z"/>
					<path class="st0" d="M285.3,15.2L273,11.3l1.3-4.2l29.3,9.3l-1.3,4.2l-12.2-3.9l-10.4,32.8l-4.8-1.5L285.3,15.2z"/>
					<path class="st0" d="M315.7,22.1l4.5,2.2l-16.8,35l-4.5-2.2L315.7,22.1z"/>
					<path class="st0" d="M338.7,57.1l12,8.2l-8.8,12.8c-1.3,0.2-2.7,0.2-4,0.1c-1.3-0.1-2.7-0.4-4-0.7c-1.3-0.4-2.6-0.8-3.9-1.4
						c-1.3-0.6-2.4-1.3-3.5-2c-2.4-1.6-4.2-3.4-5.5-5.5c-1.3-2-2.1-4.2-2.4-6.5c-0.3-2.3,0-4.7,0.7-7.3c0.8-2.5,2.1-5.1,3.9-7.7
						c1.9-2.7,3.9-4.8,6-6.4c2.2-1.6,4.4-2.7,6.6-3.3c2.3-0.6,4.5-0.6,6.8-0.1c2.3,0.5,4.5,1.4,6.5,2.8c1.8,1.2,3.2,2.5,4.3,3.9
						s1.8,2.8,2.2,4.3c0.4,1.5,0.6,3,0.4,4.5c-0.1,1.6-0.5,3.1-1.1,4.7l-4.5-2.1c0.4-1.1,0.7-2.2,0.8-3.2c0.1-1,0.1-2.1-0.2-3
						c-0.2-1-0.7-1.9-1.4-2.9c-0.7-0.9-1.7-1.8-3-2.7c-1.7-1.2-3.3-1.8-5-2.1c-1.7-0.2-3.4,0-5,0.6c-1.6,0.6-3.2,1.6-4.8,2.9
						s-3,3-4.4,5c-1.3,2-2.4,3.9-3.1,5.8c-0.7,1.9-1,3.8-0.9,5.5c0.1,1.8,0.6,3.4,1.4,5c0.9,1.5,2.2,2.9,4,4.2
						c1.6,1.1,3.3,1.9,5,2.5c1.7,0.6,3.4,0.9,5.1,0.8l5.3-7.7l-8.1-5.6L338.7,57.1z"/>
					<path class="st0" d="M373.9,61.4l3.6,3.5l-26.8,28.1l-3.6-3.5L373.9,61.4z"/>
					<path class="st0" d="M390.8,78.5l15.4,19.9l-3.5,2.7l-12.3-15.9l-9.6,7.5l11.7,15.1l-3.5,2.7l-11.7-15.1l-10.6,8.2l13,16.7
						l-4,2.1l-15.5-20L390.8,78.5z"/>
					<path class="st0" d="M405.4,135.3l6.5,13l-14,6.9c-1.3-0.5-2.4-1.1-3.6-1.9c-1.1-0.7-2.2-1.6-3.2-2.6c-1-1-1.9-2-2.7-3.1
						c-0.8-1.1-1.5-2.3-2.1-3.4c-1.3-2.6-2-5-2.2-7.5s0.2-4.7,1.1-6.8c0.9-2.2,2.3-4.2,4.2-6c1.9-1.8,4.3-3.5,7.1-4.9
						c2.9-1.5,5.7-2.4,8.4-2.7c2.7-0.4,5.1-0.2,7.3,0.4c2.2,0.6,4.2,1.7,6,3.2c1.8,1.5,3.2,3.4,4.3,5.7c1,1.9,1.6,3.8,1.9,5.5
						c0.3,1.7,0.2,3.3-0.1,4.8c-0.4,1.5-1,2.9-1.9,4.2c-0.9,1.3-2,2.5-3.3,3.6l-2.9-4c0.9-0.7,1.6-1.6,2.3-2.4
						c0.6-0.9,1.1-1.8,1.3-2.7c0.3-1,0.3-2.1,0.1-3.2c-0.2-1.2-0.6-2.4-1.3-3.8c-0.9-1.8-2-3.2-3.4-4.2s-2.9-1.7-4.6-1.9
						c-1.7-0.3-3.6-0.2-5.6,0.2c-2,0.4-4.1,1.1-6.2,2.2c-2.2,1.1-4,2.3-5.5,3.6c-1.6,1.3-2.7,2.8-3.5,4.4c-0.8,1.6-1.2,3.3-1.1,5
						c0,1.8,0.5,3.6,1.5,5.6c0.9,1.8,1.9,3.3,3.1,4.6c1.2,1.3,2.5,2.4,4.1,3.2l8.3-4.1l-4.4-8.8L405.4,135.3z"/>
				</g>
			</g>
		</g>
	</g>
	<g>
		<g>
			<path class="st0" d="M143.2,202.9c-7.2-0.2-12.1-0.2-18.2,0c0,6.8,0,14.3,0,21.2c6.1-0.4,12.1-0.7,18.2-1
				c1.4-0.1,1.9-0.5,1.9-2.1c0-5.3,0-10.5,0-15.8C145.1,203.6,144.6,202.9,143.2,202.9z"/>
			<path class="st0" d="M355.2,168.9H89.5c-0.3,0-0.5,0.2-0.5,0.5v124.5c0,0.4,0.3,0.6,0.7,0.4c27.8-10.7,76.9-17.8,132.9-17.8
				c55.6,0,104.5,7,132.4,17.6c0.3,0.1,0.7-0.1,0.7-0.4V169.4C355.6,169.1,355.4,168.9,355.2,168.9z M162.2,222.7
				c0,9.7-4.7,14.4-14.2,15.1c-7.7,0.5-15.3,1.1-23,1.9c0,8,0,16.1,0,24.1c0,0.2-0.2,0.4-0.4,0.5c-5.3,0.7-10.7,1.5-16,2.3
				c-0.3,0.1-0.6-0.2-0.6-0.5v-77.4c0-0.3,0.2-0.5,0.5-0.5h39.6c9.6,0,14.2,4.5,14.2,14.2C162.2,209.1,162.2,215.9,162.2,222.7z
				 M220.6,188.8l-3.7,13.8c-0.1,0.2-0.2,0.4-0.5,0.4c-9.2,0-18.8-0.1-28,0c0,4.2,0.1,8.1,0.1,12.3c9,0,16.1-0.1,24.4-0.2
				c0.3,0,0.6,0.3,0.5,0.6c-0.6,2.1-2.5,9.2-3.7,13.2c-0.1,0.2-0.2,0.3-0.4,0.3c-6.9,0.1-13.9,0.2-20.8,0.4c0,4.8,0,9.6,0,14.3
				c10.6-0.4,21.1-0.6,31.7-0.7c0.3,0,0.6,0.3,0.5,0.6l-3.6,13.3c-0.1,0.2-0.2,0.4-0.5,0.4c-14.8,0.1-30,0.7-44.7,1.8
				c-0.3,0-0.5-0.2-0.5-0.5c0-23.4,0.1-46.8,0.1-70.2c0-0.3,0.2-0.5,0.5-0.5h48.3C220.5,188.2,220.7,188.5,220.6,188.8z
				 M280.7,202.4c0,0.3-0.2,0.5-0.5,0.5c-9,0.1-13.2-0.1-18.2,0c0,18.4,0.1,36.7,0.1,55.2c0,0.3-0.2,0.5-0.5,0.5
				c-5.4-0.3-10.7-0.5-16.1-0.7c-0.3,0-0.5-0.2-0.5-0.5c0-18.3,0-36.2-0.1-54.5c-6.1,0-12.2,0-18.2,0c-0.3,0-0.5-0.2-0.5-0.5
				c0-4.5,0-9.3,0-13.8c0-0.3,0.2-0.5,0.5-0.5h53.5c0.3,0,0.5,0.2,0.5,0.5L280.7,202.4L280.7,202.4z M338,188.8l-3.7,13.8
				c-0.1,0.2-0.3,0.4-0.5,0.4c-13.7,0-16.7,0-28.7,0c0,4.5,0,9.9,0,14.4c7.6,0.5,14.6,0.8,24,1.4c0.3,0,0.5,0.3,0.4,0.6l-3.5,13.6
				c-0.1,0.2-0.3,0.4-0.5,0.4c-8.3-1-11.3-1.1-20.4-1.9c0,5,0,10.7,0,15.7c11.2,1.2,21.4,2.4,31,4c0.3,0.1,0.5,0.3,0.4,0.6
				l-3.7,13.6c-0.1,0.2-0.3,0.4-0.5,0.4c-14.4-2.2-29.3-3.9-43.7-5.1c-0.2,0-0.4-0.2-0.4-0.5c-0.1-23.8-0.1-47.6-0.1-71.3
				c0-0.3,0.2-0.5,0.5-0.5h49.1C337.8,188.2,338.1,188.5,338,188.8z"/>
		</g>
		<g>
			<g>
				<path class="st0" d="M15.4,219.2l-8.3,3c-4.5,1.6-7,3.1-7,7.3v11.5h24.8v-7.1H8.2v-3.1c0-0.9,0.4-1.2,1.4-1.5l8.2-3
					c4.5-1.6,7-3.2,7-7.3v-5.5c0-4.5-2.2-6.7-6.7-6.7H7.3c-4.5,0-6.7,2.2-6.7,6.7v4h7.9v-2.9c0-0.7,0.2-0.9,0.9-0.9h6.5
					c0.7,0,0.9,0.2,0.9,0.9v3.1C16.8,218.6,16.3,218.8,15.4,219.2z"/>
				<path class="st0" d="M56,240.9c4.5,0,6.7-2.2,6.7-6.7v-20.7c0-4.6-2.2-6.7-6.7-6.7H43.5c-4.5,0-6.7,2.2-6.7,6.7v20.7
					c0,4.5,2.2,6.7,6.7,6.7H56z M44.8,214.7c0-0.7,0.2-0.9,0.9-0.9h7.9c0.7,0,0.9,0.2,0.9,0.9V233c0,0.7-0.2,0.9-0.9,0.9h-7.9
					c-0.7,0-0.9-0.2-0.9-0.9V214.7z"/>
				<rect x="0" y="188.1" class="st0" width="62.7" height="7.1"/>
				<rect x="0" y="252.1" class="st0" width="62.7" height="7.1"/>
				<path class="st0" d="M396.8,219.2l-8.3,3c-4.5,1.6-7,3.1-7,7.3v11.5h24.8v-7.1h-16.7v-3.1c0-0.9,0.4-1.2,1.4-1.5l8.2-3
					c4.5-1.6,7-3.2,7-7.3v-5.5c0-4.5-2.2-6.7-6.7-6.7h-10.8c-4.5,0-6.7,2.2-6.7,6.7v4h7.9v-2.9c0-0.7,0.2-0.9,0.9-0.9h6.5
					c0.7,0,0.9,0.2,0.9,0.9v3.1C398.1,218.6,397.7,218.8,396.8,219.2z"/>
				<path class="st0" d="M437.3,240.9c4.5,0,6.7-2.2,6.7-6.7v-20.7c0-4.6-2.2-6.7-6.7-6.7h-12.5c-4.5,0-6.7,2.2-6.7,6.7v20.7
					c0,4.5,2.2,6.7,6.7,6.7H437.3z M426.2,214.7c0-0.7,0.2-0.9,0.9-0.9h7.9c0.7,0,0.9,0.2,0.9,0.9V233c0,0.7-0.2,0.9-0.9,0.9h-7.9
					c-0.7,0-0.9-0.2-0.9-0.9V214.7z"/>
				<rect x="381.4" y="188.1" class="st0" width="62.7" height="7.1"/>
				<rect x="381.4" y="252.1" class="st0" width="62.7" height="7.1"/>
			</g>
		</g>
	</g>
</g>
</svg>
