<?xml version="1.0" encoding="UTF-8"?>
<svg width="135px" height="56px" viewBox="0 0 135 56" version="1.1" xmlns="http://www.w3.org/2000/svg" xmlns:xlink="http://www.w3.org/1999/xlink">
    <!-- Generator: Sketch 54.1 (76490) - https://sketchapp.com -->
    <title>Group 24</title>
    <desc>Created with Sketch.</desc>
    <defs>
        <polygon id="path-1" points="0.00497664137 0.12853886 27.5880114 0.12853886 27.5880114 37.6377451 0.00497664137 37.6377451"></polygon>
        <polygon id="path-3" points="0 56 134.082349 56 134.082349 0.12853886 0 0.12853886"></polygon>
    </defs>
    <g id="Symbols" stroke="none" stroke-width="1" fill="none" fill-rule="evenodd">
        <g id="nav-/-full" transform="translate(-35.000000, -35.000000)">
            <g id="Group-12">
                <g id="Group-24" transform="translate(35.000000, 35.000000)">
                    <polygon id="Fill-1" fill="#224192" points="104.341176 0 104.341176 36.4998329 114.040756 36.4998329 114.040756 20.3501007 133.724906 37 134.152941 37 134.152941 0.500454747 124.405772 0.500454747 124.405772 16.6498993 104.816528 0"></polygon>
                    <g id="Group-23">
                        <path d="M72.7190353,0.22002487 C75.9557454,1.54893679 78.7047988,4.40203523 80.5196501,8.16651192 L100.874654,8.16651192 L100.874654,0.22002487 L72.7190353,0.22002487 Z" id="Fill-2" fill="#EB2026"></path>
                        <path d="M80.5061266,29.1716767 C78.8716786,32.6761741 76.435829,35.4175627 73.5474838,36.9179565 L100.874654,36.9179565 L100.874654,29.1716767 L80.5061266,29.1716767 Z" id="Fill-4" fill="#EB2026"></path>
                        <path d="M82.4964857,14.8989306 C82.6847325,16.1564642 82.7837244,17.4583917 82.7837244,18.7919461 C82.7837244,20.3381845 82.6468668,21.840029 82.395871,23.2821016 L100.874627,23.2821016 L100.874627,14.8989306 L82.4964857,14.8989306 Z" id="Fill-6" fill="#EB2026"></path>
                        <g id="Group-10">
                            <mask id="mask-2" fill="white">
                                <use xlink:href="#path-1"></use>
                            </mask>
                            <g id="Clip-9"></g>
                            <path d="M9.66858639,22.0607503 L9.66858639,28.9896622 L13.213632,28.9896622 C15.1561449,28.9896622 17.0983874,28.1560456 17.0983874,25.5510301 C17.0983874,22.894657 15.1561449,22.0607503 13.213632,22.0607503 L9.66858639,22.0607503 Z M9.66858639,8.77627358 L9.66858639,15.1840663 L12.4849867,15.1840663 C14.4277702,15.1840663 16.1271309,14.4026777 16.1271309,12.0062839 C16.1271309,9.55795233 14.4277702,8.77627358 12.4849867,8.77627358 L9.66858639,8.77627358 Z M0.00497664137,0.128480829 L11.9023951,0.128480829 C19.8179596,0.128480829 26.3251887,3.30626321 26.3251887,10.9121078 C26.3251887,14.7674031 24.0913799,17.0074031 21.8088866,17.9451855 C24.6258279,18.7788021 27.5880114,21.9046466 27.5880114,26.3327088 C27.5880114,34.3032788 21.4204922,37.6377451 12.6794544,37.6377451 L0.00497664137,37.6377451 L0.00497664137,0.128480829 Z" id="Fill-8" fill="#224192" mask="url(#mask-2)"></path>
                        </g>
                        <mask id="mask-4" fill="white">
                            <use xlink:href="#path-3"></use>
                        </mask>
                        <g id="Clip-12"></g>
                        <polygon id="Fill-11" fill="#224192" mask="url(#mask-4)" points="31.1908293 37.637513 41.3402025 37.637513 41.3402025 0.12853886 31.1908293 0.12853886"></polygon>
                        <path d="M55.9456983,9.29745078 L55.9456983,28.468601 L57.8879408,28.468601 C64.6380516,28.468601 67.9404859,23.8841451 67.9404859,18.8830259 C67.9404859,13.9338446 64.6380516,9.29745078 57.8879408,9.29745078 L55.9456983,9.29745078 Z M45.7963251,37.637513 L45.7963251,0.12853886 L58.0337239,0.12853886 C70.5624185,0.12853886 78.1866872,8.15104663 78.1866872,18.8830259 C78.1866872,29.666943 70.5624185,37.637513 58.0337239,37.637513 L45.7963251,37.637513 Z" id="Fill-13" fill="#224192" mask="url(#mask-4)"></path>
                        <path d="M3.19857396,45.1246839 L3.19857396,48.5560622 L4.35212697,48.5560622 C5.33095659,48.5560622 6.08232125,48.0497409 6.08232125,46.8310881 C6.08232125,45.6498653 5.31337607,45.1246839 4.33481691,45.1246839 L3.19857396,45.1246839 Z M3.19857396,51.4436891 L3.19857396,55.7374093 L0,55.7374093 L0,42.237057 L4.19498411,42.237057 C7.21856421,42.237057 9.31605626,43.7745907 9.31605626,46.8310881 C9.31605626,49.9247254 7.21856421,51.4436891 4.19498411,51.4436891 L3.19857396,51.4436891 Z" id="Fill-14" fill="#224192" mask="url(#mask-4)"></path>
                        <path d="M18.2454221,45.1246839 L18.2454221,48.5560622 L19.8533641,48.5560622 C20.8146132,48.5560622 21.5483973,48.068601 21.5483973,46.8310881 C21.5483973,45.6498653 20.7973031,45.1246839 19.8357836,45.1246839 L18.2454221,45.1246839 Z M19.6959508,42.237057 C22.7024913,42.237057 24.7821323,43.7934508 24.7821323,46.8310881 C24.7821323,48.7809326 23.8557738,50.0750259 22.4750263,50.7310674 L25.0093268,55.7374093 L21.6709201,55.7374093 L19.6432092,51.2936788 L18.2454221,51.2936788 L18.2454221,55.7374093 L15.1166293,55.7374093 L15.1166293,42.237057 L19.6959508,42.237057 Z" id="Fill-15" fill="#224192" mask="url(#mask-4)"></path>
                        <polygon id="Fill-16" fill="#224192" mask="url(#mask-4)" points="31.7538659 55.7373223 31.7538659 42.2372601 40.0031899 42.2372601 40.0031899 45.1245969 34.9524399 45.1245969 34.9524399 47.5247627 39.2694058 47.5247627 39.2694058 50.2623793 34.9524399 50.2623793 34.9524399 52.8496953 40.2655455 52.8496953 40.2655455 55.7373223"></polygon>
                        <path d="M46.9927205,55.2685181 L46.9927205,51.9685803 C47.8839179,52.4749016 48.9501092,52.8497824 49.9640999,52.9437927 C50.3135467,52.9812228 50.6456834,52.9812228 50.9602396,52.9623627 C51.9912699,52.8872124 52.5681816,52.5874819 52.5681816,52.0245803 C52.5681816,51.3122487 51.7816559,50.9559378 50.2434951,50.3370363 C48.1286929,49.4746943 46.7657964,48.5372021 46.7657964,46.0624663 C46.7657964,43.5871503 48.6704436,41.9750466 51.5368809,41.9750466 C52.7953761,41.9750466 54.0536009,42.237057 54.8925977,42.6119378 L54.8925977,45.7810155 C54.141233,45.2746943 52.952519,44.9372435 51.7992364,44.9372435 C50.6456834,44.9372435 49.9116288,45.3687047 49.9116288,46.0433161 C49.9116288,46.6810777 50.6456834,47.1125389 52.1137926,47.7497202 C54.2283243,48.6497824 55.6791234,49.6058446 55.6791234,52.0060104 C55.6791234,54.4998964 53.9313486,56 50.8028263,56 C49.3698781,56 47.9366595,55.6999793 46.9927205,55.2685181" id="Fill-17" fill="#224192" mask="url(#mask-4)"></path>
                        <polygon id="Fill-18" fill="#224192" mask="url(#mask-4)" points="62.756259 55.7371192 65.954833 55.7371192 65.954833 42.237057 62.756259 42.237057"></polygon>
                        <path d="M76.6671347,45.1246839 L76.6671347,52.8497824 L77.6632744,52.8497824 C80.2151554,52.8497824 81.5783224,51.0873782 81.5783224,48.9875233 C81.5783224,46.8870881 80.2151554,45.1246839 77.6459643,45.1246839 L76.6671347,45.1246839 Z M73.4685607,55.7374093 L73.4685607,42.237057 L77.6808549,42.237057 C82.085453,42.237057 84.8120574,45.0872539 84.8120574,48.9875233 C84.8120574,52.9057824 82.085453,55.7374093 77.6981649,55.7374093 L73.4685607,55.7374093 Z" id="Fill-19" fill="#224192" mask="url(#mask-4)"></path>
                        <polygon id="Fill-20" fill="#224192" mask="url(#mask-4)" points="91.6433361 55.7373223 91.6433361 42.2372601 99.8926601 42.2372601 99.8926601 45.1245969 94.8419101 45.1245969 94.8419101 47.5247627 99.158876 47.5247627 99.158876 50.2623793 94.8419101 50.2623793 94.8419101 52.8496953 100.155016 52.8496953 100.155016 55.7373223"></polygon>
                        <path d="M117.561414,55.9249078 L111.112065,49.8313534 L110.098075,48.931001 L110.098075,55.7374674 L106.969823,55.7374674 L106.969823,42.0496746 L107.109656,42.0496746 L113.506533,48.1249492 C113.85598,48.4246798 114.188117,48.7621306 114.537563,49.0435813 L114.537563,42.237115 L117.683937,42.237115 L117.683937,55.9249078 L117.561414,55.9249078 Z" id="Fill-21" fill="#224192" mask="url(#mask-4)"></path>
                        <polygon id="Fill-22" fill="#224192" mask="url(#mask-4)" points="130.719978 45.1246839 130.719978 55.7374093 127.503824 55.7374093 127.503824 45.1246839 124.148377 45.1246839 124.148377 42.237057 134.075695 42.237057 134.075695 45.1246839"></polygon>
                    </g>
                </g>
            </g>
        </g>
    </g>
</svg>