<?xml version="1.0" encoding="utf-8"?>
<!-- Generator: Adobe Illustrator 22.1.0, SVG Export Plug-In . SVG Version: 6.00 Build 0)  -->
<svg version="1.1" id="Layer_1" xmlns="http://www.w3.org/2000/svg" xmlns:xlink="http://www.w3.org/1999/xlink" x="0px" y="0px"
	 viewBox="0 0 480 363" style="enable-background:new 0 0 480 363;" xml:space="preserve">
<style type="text/css">
	.st0{fill:#CDDAE8;}
</style>
<g>
	<path class="st0" d="M262.9,171.8C262.9,171.8,262.9,171.8,262.9,171.8C262.9,171.8,262.9,171.8,262.9,171.8
		C262.9,171.8,262.9,171.8,262.9,171.8z"/>
	<path class="st0" d="M461.7,311.9c-1-9.1-5.2-17.3-9.1-25.4c-5.9-12.2-12.4-24.1-19.5-35.7c-12.6-20.4-27.4-39.6-43.9-57
		c-1.8-1.9-3.7-3.8-5.6-5.7c13-6.6,26.3-12.4,39.5-17.5c13.8-5.4,17.7-8.3,31.8-12.9c0.4-0.2,4.8-9.6,1.4-8.5
		c-27.4,9-55.5,17.9-81.9,29.8c-17.9-16.7-37.8-31.5-59.6-42.5c-3.5-1.8-7.1-3.4-10.7-4.9c-1.3-0.5-3.9-2-5.4-1.9
		c-2.3,0.2-2.1,3.6-2.4,5.6c-0.9,6.2-1.7,12.4-3.9,18.3c-2.5,6.9-6.8,13.3-13.6,16.6c-3.8,1.8-8.6,3-12.8,2.4
		c-0.9-0.1-1.6-0.5-2.4-0.7c-0.1,0-0.3-0.1-0.5-0.1c0.7,0.3,0.8,1.3,0,0c-0.5-0.1-1-0.2-0.2-0.1c0.1,0,0.1,0,0.2,0.1
		c0-0.1-0.1-0.2-0.2-0.3c-0.5-0.9-1-1.7-1.5-2.6c-4-7.3-7.3-15.7-14.3-20.8c-6.7-4.9-16.6,2.8-20.5,8.2c-0.3,0.4-1.7,3.2-3.3,6.3
		c-1.8-4.8-4.1-9.5-6.8-13.8c-4.4-7-13.4-20.5-23.2-19.6c-8.7,0.8-14.1,13-17.4,19.6c-2.7,5.4-5.1,11-7.5,16.6
		c-1.3,3-2.3,7.6-4.3,10.6c-0.3-0.9-0.6-1.8-0.8-2.7c-2.1-7.3-3.6-14.8-5.1-22.2c-1.7-8.5-4.8-15.6-12-21.3
		c-3.9-3.1-6.3-3.1-10.1-0.3c-3.3,2.4-6.1,5.6-8.5,8.8c-10,13.2-17,29.3-22.4,44.9c0,0,0,0,0,0c0.3-5.6,0.6-11.2,0.9-16.8
		c0.4-8.4,0.7-16.9,1-25.3c1.6,0,3.2,0.1,4.8,0.2c2,0.1,5.5-3.9,5.2-4.3c0,0,4.6-7.2,2.2-7.3c-3.9-0.2-7.8-0.3-11.8-0.4
		c0.1-5.9,0.2-11.8,0.3-17.8c0.2-22,0.2-44.5-3.4-66.3c-1.8-11.1-4.9-21.4-12.8-29.7c-3.8-4-8-7.2-13.3-4.2
		c-1.4,0.8-2.6,1.8-3.8,2.9c-7.1,6.3-13.1,14.3-18.5,22.1c-5,7.1-9.4,14.6-13.4,22.4c-0.2-0.8-0.3-1.6-0.5-2.3
		c-0.8-2.9-3.1-5.6-5.1-7.7c-0.4-0.4-5.1-4.2-4.8-2.8c2.3,8.8,3.2,18.1,3.8,27.2c-6.3,15-11,30.7-14.4,46.6
		c-2.1,10-3.7,20.2-4.8,30.5c-3.5,2.3-6.9,4.8-10,7.8c-0.5,0.5,1.5,5.8,4.6,4.5c1.5-0.6,3-1.2,4.5-1.7c-0.6,9.1-0.7,18.2-0.2,27.3
		c0.3,5.7,0.5,11.8,2.3,17.2c1,3.1,8.1,14.9,11.5,11.8c1-0.9,1.3-4.3,1.6-5.3c1.5-5.5,3-11.1,4.3-16.7c2.4-10.3,4.5-20.6,6.2-31
		c0.6-3.9,1.2-7.9,1.7-11.8c1.4-0.4,2.8-0.8,4.2-1.1c20.1-5.2,32.1-8.9,49.2-9.6c-0.4,9.9-0.9,19.8-1.4,29.7
		c-0.2,4.1,0.1,8.8-2.3,12.4c-0.6,1-1.4,2-2.5,2.5c-1,0.5-1.8,0.4-2.2,0.3c-1.3-1.2-2.6-2.2-3.2-1.7c-1.2,1,3.3,6.3,3.7,6.7
		c3.3,3.8,9.1,10.2,13.6,4.2c2.2-3,2.5-7.2,2.7-10.8c0,0,0-0.1,0-0.1c0.3,2,2.7,4.5,3.7,5.7c0.3,0.4,5.6,5.7,6,4.8
		c4.3-12.3,9.7-24.5,16.3-35.8c3.9-6.7,8.6-14,15.2-18.4c0.5-0.3,1-0.7,1.6-1c0.3,1.3,0.6,2.5,0.8,3.8c2.6,12.9,4.8,28.1,13,38.8
		c2.8,3.7,8.7,11.5,12.1,4.6c4.6-9.2,7.8-19.1,12.5-28.2c3.3-6.3,10.3-20.7,19.6-17.2c2.4,0.9,2.2,1.1,3.3,2.7
		c1.7,2.8,3.1,5.9,4.2,8.9c2.5,6.4,4,13.2,4.6,20c0.3,3.4,6,10.3,9.3,11.1c0.1,0,0.2,0.1,0.4,0.1c0.2,0,0.3,0,0.5,0
		c2.9-5.2,4.1-11,7.6-16c2.3-3.3,5.2-6.2,8.8-8c1.8-0.9,3.6-1.1,5.5-1.5c0.3,0.4,0.7,0.7,1,0.8c3.1,6,7,11.9,11.5,16.7
		c6.2,6.7,12.2,9.5,21.2,7.1c14.2-3.7,19.2-18.4,21.3-31.4c0.3-2,0.1-9.2,1.9-10.6c-0.1,0,0,0.1,0.8,0.2c0.8,0.1,1.7,0.6,2.4,0.8
		c20.1,7.4,38.8,20.5,55.2,34c1.7,1.4,3.4,2.9,5.1,4.3c-15.8,7.4-30.9,15.9-44.8,26.4c-17.5,13.1-35.2,30.6-39.1,53.1
		c-2.5,14.2,2.1,28.1,9.8,40c5.4,8.3,12.1,16.1,19.8,22.3c23.5,18.8,56.6,26.9,86.3,27.1C425.7,349.8,465.1,343.2,461.7,311.9z
		 M93.8,22.3c0-0.1-0.1-0.2-0.3-0.3C93.7,22,93.8,22.1,93.8,22.3z M89.5,17.7C89.5,17.7,89.5,17.7,89.5,17.7
		C89.5,17.7,89.5,17.6,89.5,17.7z M89.5,17.6C89.2,17.3,89.3,17.3,89.5,17.6L89.5,17.6z M36.2,110.7c-0.5,10.2-1.5,20.5-2.8,30.6
		c-1.4,0.6-2.9,1.3-4.4,2C30.7,132.3,33.1,121.3,36.2,110.7z M23.2,209.6C23.2,209.6,23.1,209.6,23.2,209.6
		C23.1,209.5,23.1,209.6,23.2,209.6z M29.6,164.8c-1.3,6.9-2.8,13.8-4.5,20.6c0.1-9.6,0.8-19.3,2-28.8c1.4-0.4,2.8-0.9,4.2-1.3
		C30.7,158.5,30.2,161.7,29.6,164.8z M45,137c0.7-8,1.2-16.1,1.4-24.1c0.2-9.7,0.2-19.6-0.5-29.4c1.5-3.6,3.1-7.1,4.8-10.6
		c6.4-13,14.2-25.3,23.4-36.5c3.3-4,6.7-8.1,10.7-11.4c2-1.7,4.2-3.1,6.5-3.3c0.5,1.4,0.9,2.9,1.3,4.3c3.9,15.5,4.4,32.1,4.9,48
		c0.5,18.4,0.3,36.9-0.3,55.3C79.4,129.7,61.4,131.9,45,137z M447.9,318.9c-6.8,10.4-19.8,15-31.5,17.2c-15.9,3.1-32.6,2.3-48.5-0.5
		c-16.4-2.8-32.8-7.9-47.2-16.3c-3.3-1.9-6.5-4-9.5-6.4c-0.3-0.2-0.5-0.4-0.8-0.6c0,0-0.1,0-0.1-0.1c0,0,0,0-0.1,0
		c-0.5-0.5-1-1-1.6-1.5c-0.2-0.2-0.3-0.3-0.4-0.4c-0.1-0.1-0.2-0.2-0.3-0.4c-0.5-0.6-1.3-1.4-1.5-1.7c0,0,0,0,0,0
		c-0.2-0.2-0.3-0.3-0.5-0.5c0,0-0.1-0.1-0.1-0.1c-0.4-0.5-0.7-0.9-1.1-1.4c-0.1-0.1-0.2-0.2-0.3-0.3c-0.4-0.6-0.7-1.1-1.1-1.6
		c-0.2-0.4-0.8-1.3-0.8-1.3c-1.5-2.6-2.1-3.8-3.2-6.3c-2.4-5.9-3.6-12-3.5-18.5c0.3-19.3,12.6-35.8,26.2-48.5
		c17.1-16,37.3-29.1,58.4-40c26.2,25.2,47.1,55.7,62.9,88.5C449.5,290.8,456.6,305.8,447.9,318.9z"/>
</g>
</svg>
