<svg id="Layer_1" data-name="Layer 1" xmlns="http://www.w3.org/2000/svg" viewBox="0 0 2000.49 360"><defs><style>.cls-1{fill:#09f;}.cls-2{fill:#db3136;}.cls-3{fill:#fff;}</style></defs><title>Cory-Rise_020119</title><rect class="cls-1" x="1000.33" width="1000.25" height="360"/><path d="M1201.65,209.05c32.52-28.18,39.89-45.52,39.89-86.71v-16c0-29.91-6.5-48.12-19.08-60.7-13.44-13.44-31.21-21.68-82.81-21.68h-3c-47.26,0-64.17,7.81-77.17,20.81-19.52,19.52-22.12,48.57-22.12,102.77h61.14c.43-47.26,1.73-62.88,9.1-70.25,3.91-3.9,7.81-5.63,19.08-5.63h.87c11.7,0,16,1.3,20.38,5.63,3.9,3.91,6.93,11.28,6.93,29.05v7.38c0,20.81-2.6,29.48-18.64,46.82l-79.78,85.85c-16,17.35-20.81,27.32-20.81,53.77v31.65h208.55v-50.3l-129.64,3.47Z"/><path d="M1946.12,67.71c-15.17-30.36-38.15-43.8-96.26-43.8h-5.63c-58.1,0-81.08,13.44-96.26,43.8-12.14,24.28-16,55.49-16,112.3s3.9,88,16,112.29c15.18,30.35,38.16,43.79,96.26,43.79h5.63c58.11,0,81.09-13.44,96.26-43.79,12.14-24.28,16-55.5,16-112.29S1958.26,92,1946.12,67.71Zm-82.81,216.36c-3.9,3.9-6.51,5.2-15.61,5.2h-1.3c-9.11,0-11.71-1.3-15.61-5.2-6.94-6.94-12.14-25.15-12.14-104.06s5.2-97.13,12.14-104.07c3.9-3.9,6.5-5.2,15.61-5.2h1.3c9.1,0,11.71,1.3,15.61,5.2,6.93,6.94,12.14,25.15,12.14,104.07S1870.24,277.13,1863.31,284.07Z"/><path d="M1379,23.91h-5.64c-58.1,0-81.08,13.44-96.25,43.8-12.14,24.28-16,55.49-16,112.3s3.91,88,16,112.29c15.17,30.35,38.15,43.79,96.25,43.79H1379c58.1,0,81.08-13.44,96.26-43.79,12.14-24.28,16-55.5,16-112.29s-3.9-88-16-112.3C1460.07,37.35,1437.09,23.91,1379,23.91Zm13.44,260.16c-3.9,3.9-6.5,5.2-15.61,5.2h-1.3c-9.11,0-11.71-1.3-15.61-5.2-6.94-6.94-12.14-25.15-12.14-104.06s5.2-97.13,12.14-104.07c3.9-3.9,6.5-5.2,15.61-5.2h1.3c9.11,0,11.71,1.3,15.61,5.2,6.94,6.94,12.14,25.15,12.14,104.07S1399.37,277.13,1392.43,284.07Z"/><path d="M1672.53,209.05c32.52-28.18,39.89-45.52,39.89-86.71v-16c0-29.91-6.51-48.12-19.08-60.7-13.44-13.44-31.22-21.68-82.82-21.68h-3c-47.26,0-64.17,7.81-77.18,20.81-19.51,19.52-22.11,48.57-22.11,102.77h61.13c.43-47.26,1.74-62.88,9.11-70.25,3.9-3.9,7.8-5.63,19.08-5.63h.86c11.71,0,16,1.3,20.38,5.63,3.91,3.91,6.94,11.28,6.94,29.05v7.38c0,20.81-2.6,29.48-18.65,46.82l-79.78,85.85c-16,17.35-20.81,27.32-20.81,53.77v31.65H1715v-50.3l-129.64,3.47Z"/><rect class="cls-2" width="1000.25" height="360"/><path class="cls-3" d="M179,282.76c-4.77,4.77-10.4,5.64-18.64,5.64h-2.17c-12.14,0-18.65-.87-23.41-5.64-7.37-7.37-14.31-23.41-14.31-102.76s6.94-95.39,14.31-102.76c4.76-4.77,11.27-5.63,23.41-5.63h2.17c8.24,0,13.87.86,18.64,5.63,6.94,6.94,11.27,24.28,12.14,66.77h61.14c0-46-6.5-81.51-25.58-100.59-13.44-13.44-33-19.51-66.77-19.51H146c-58.54,0-81.52,14.31-96.26,43.79-12.14,24.28-16,55.5-16,112.3s3.9,88,16,112.3C64.52,321.79,87.5,336.09,146,336.09h13.88c33.81,0,53.33-6.07,66.77-19.51,18.64-18.64,26-53.76,26-102.33H191.56C190.7,259.35,185.49,276.26,179,282.76Z"/><path class="cls-3" d="M391,23.91h-5.63c-58.11,0-81.95,13.44-97.13,43.79-12.14,24.28-16,55.5-16,112.3s3.9,88,16,112.3c15.18,30.35,39,43.79,97.13,43.79H391c58.1,0,81.95-13.44,97.12-43.79C500.27,268,504.18,236.8,504.18,180s-3.91-88-16.05-112.3C473,37.35,449.11,23.91,391,23.91Zm14.31,260.15c-3.9,3.91-7.37,5.21-16.48,5.21h-1.3c-9.1,0-12.57-1.3-16.48-5.21-6.93-6.93-12.13-25.15-12.13-104.06s5.2-97.12,12.13-104.06c3.91-3.9,7.38-5.2,16.48-5.2h1.3c9.11,0,12.58,1.3,16.48,5.2,6.94,6.94,12.14,25.15,12.14,104.06S412.26,277.13,405.32,284.06Z"/><polygon class="cls-3" points="918.25 28.25 881.39 151.82 879.23 151.82 840.64 28.25 747.85 28.25 747.85 29.11 821.99 231.6 821.99 331.76 908.71 331.76 908.71 230.73 982.85 29.11 982.85 28.25 918.25 28.25"/><path class="cls-3" d="M726.6,190.84c14.74-14.74,22.55-32.52,22.55-67.2,0-45.53-13.44-71.55-37.72-83.69-15.61-7.8-40.33-11.7-80.22-11.7H530.62V331.76h85.85V221.62h4.33l50.74,110.14h95.39v-1.3L702.75,205.58C713.6,201.25,721,196.48,726.6,190.84Zm-72-20.38c-5.63,5.64-12.13,6.07-25.14,6.07h-13V75.94h13.44c13,0,19.08.43,24.71,6.07,6.07,6.07,9.54,16.91,9.54,44.23S660.26,164.83,654.62,170.46Z"/></svg>