<svg width="226px" height="91px" viewBox="0 0 226 91" version="1.1" xmlns="http://www.w3.org/2000/svg" xmlns:xlink="http://www.w3.org/1999/xlink">
    <!-- Generator: Sketch 53 (72520) - https://sketchapp.com -->
    <title>logo</title>
    <desc>Created with Sketch.</desc>
    <defs>
        <filter x="-1.1%" y="-2.8%" width="102.2%" height="105.6%" filterUnits="objectBoundingBox" id="filter-1">
            <feOffset dx="0" dy="1" in="SourceAlpha" result="shadowOffsetOuter1"></feOffset>
            <feColorMatrix values="0 0 0 0 0   0 0 0 0 0.2   0 0 0 0 0.412  0 0 0 0.296929633 0" type="matrix" in="shadowOffsetOuter1" result="shadowMatrixOuter1"></feColorMatrix>
            <feMerge>
                <feMergeNode in="shadowMatrixOuter1"></feMergeNode>
                <feMergeNode in="SourceGraphic"></feMergeNode>
            </feMerge>
        </filter>
        <polygon id="path-2" points="0.504291667 0.136529412 132.857958 0.136529412 132.857958 20 0.504291667 20"></polygon>
        <polygon id="path-4" points="0 0.268835821 225.923499 0.268835821 225.923499 75.6407015 0 75.6407015"></polygon>
    </defs>
    <g id="Page-1" stroke="none" stroke-width="1" fill="none" fill-rule="evenodd">
        <g id="A" transform="translate(-122.000000, -58.000000)">
            <g id="HERO" transform="translate(-6.000000, 0.000000)">
                <g id="NAV" transform="translate(128.000000, 29.000000)">
                    <g id="logo" filter="url(#filter-1)" transform="translate(0.000000, 29.000000)">
                        <g id="Group-3" transform="translate(33.000000, 70.000000)">
                            <mask id="mask-3" fill="white">
                                <use xlink:href="#path-2"></use>
                            </mask>
                            <g id="Clip-2"></g>
                            <path class="america" d="M122.823458,5.67417647 L120.445208,12.1447647 L125.148625,12.1447647 L122.823458,5.67417647 Z M127.836625,19.493 L126.385875,15.7912353 L119.152542,15.7912353 L117.779958,19.493 L112.868292,19.493 L120.709458,0.643588235 L125.090875,0.643588235 L132.857958,19.493 L127.836625,19.493 Z M109.171708,19.1618235 C107.960125,19.7206471 106.557792,20.0000588 104.975208,20.0000588 C103.532042,20.0000588 102.197958,19.7594706 100.975875,19.2782941 C99.7514583,18.8006471 98.6909583,18.1212353 97.7949583,17.2441765 C96.8960417,16.3635882 96.1937083,15.3135882 95.6809583,14.0882941 C95.1717083,12.8635882 94.9167917,11.5147647 94.9167917,10.0424118 C94.9167917,8.53417647 95.1752083,7.16594118 95.6937917,5.94064706 C96.2129583,4.71535294 96.9310417,3.67594118 97.846875,2.81476471 C98.762125,1.95358824 99.8354583,1.29005882 101.066292,0.828882353 C102.300625,0.367705882 103.628292,0.136529412 105.052792,0.136529412 C106.374625,0.136529412 107.673125,0.373588235 108.949458,0.844764706 C110.225208,1.313 111.260042,2.00182353 112.049292,2.90535294 L108.987958,5.99594118 C108.566208,5.40770588 108.011458,4.97594118 107.325458,4.68947059 C106.638292,4.40711765 105.932458,4.26417647 105.214375,4.26417647 C104.421042,4.26417647 103.695958,4.41064706 103.035042,4.703 C102.374708,4.99535294 101.807708,5.40123529 101.330542,5.91476471 C100.856875,6.43182353 100.485875,7.03888235 100.222208,7.73829412 C99.9579583,8.44005882 99.8255417,9.20711765 99.8255417,10.0424118 C99.8255417,10.8935882 99.9579583,11.6735882 100.222208,12.3853529 C100.485875,13.0935882 100.850458,13.7012353 101.317708,14.2088824 C101.784958,14.7153529 102.342625,15.1088824 102.993625,15.3918235 C103.644625,15.6777059 104.360375,15.8206471 105.133292,15.8206471 C106.032792,15.8206471 106.812708,15.6418235 107.482958,15.2877059 C108.153208,14.9300588 108.688708,14.4718235 109.094125,13.903 L112.236542,16.8835882 C111.408208,17.8424118 110.386792,18.603 109.171708,19.1618235 L109.171708,19.1618235 Z M86.0705417,19.493 L90.6112083,19.493 L90.6112083,0.643588235 L86.0705417,0.643588235 L86.0705417,19.493 Z M77.069125,6.42182353 C77.069125,5.97652941 76.9787083,5.61888235 76.7920417,5.343 C76.605375,5.06652941 76.3662083,4.85535294 76.0762917,4.703 C75.782875,4.55358824 75.4579583,4.45241176 75.093375,4.39711765 C74.732875,4.34476471 74.381125,4.31888235 74.0462917,4.31888235 L71.6324583,4.31888235 L71.6324583,8.70947059 L73.7820417,8.70947059 C74.1524583,8.70947059 74.5327917,8.68005882 74.9224583,8.61888235 C75.3092083,8.55417647 75.663875,8.443 75.9829583,8.28417647 C76.3020417,8.12476471 76.563375,7.89358824 76.7657917,7.59182353 C76.969375,7.28947059 77.069125,6.89947059 77.069125,6.42182353 L77.069125,6.42182353 Z M77.2557917,19.493 L73.1987083,12.0112353 L71.658125,12.0112353 L71.658125,19.493 L67.2492917,19.493 L67.2492917,0.643588235 L74.3782083,0.643588235 C75.2742083,0.643588235 76.150375,0.737705882 77.0049583,0.923 C77.858375,1.10829412 78.6225417,1.423 79.3027083,1.86829412 C79.979375,2.31064706 80.5207083,2.89888235 80.9237917,3.62711765 C81.3297917,4.35476471 81.5327917,5.25829412 81.5327917,6.34064706 C81.5327917,7.61770588 81.1880417,8.69358824 80.5014583,9.56123529 C79.814875,10.4324118 78.8640417,11.053 77.6524583,11.4265294 L82.5349583,19.493 L77.2557917,19.493 Z M49.9009583,19.493 L49.9009583,0.643588235 L62.4665417,0.643588235 L62.4665417,4.47829412 L54.257875,4.47829412 L54.257875,8.04358824 L62.0185417,8.04358824 L62.0185417,11.693 L54.257875,11.693 L54.257875,15.6059412 L62.9437083,15.6059412 L62.9437083,19.493 L49.9009583,19.493 Z M40.319125,19.493 L40.425875,6.15535294 L40.3447917,6.15535294 L35.4879583,19.493 L32.3204583,19.493 L27.5954583,6.15535294 L27.5149583,6.15535294 L27.621125,19.493 L23.370375,19.493 L23.370375,0.643588235 L29.7934583,0.643588235 L34.050625,12.7300588 L34.153875,12.7300588 L38.227875,0.643588235 L44.757125,0.643588235 L44.757125,19.493 L40.319125,19.493 Z M10.4594583,5.67417647 L8.08120833,12.1447647 L12.7834583,12.1447647 L10.4594583,5.67417647 Z M15.474375,19.493 L14.0242083,15.7912353 L6.789125,15.7912353 L5.41595833,19.493 L0.504291667,19.493 L8.34545833,0.643588235 L12.728625,0.643588235 L20.4922083,19.493 L15.474375,19.493 Z" id="Fill-1" fill="#1988FF" mask="url(#mask-3)"></path>
                        </g>
                        <path d="M18.648378,86.1092215 L19.9195055,82.5817731 L21.3470611,77.9643345 L20.2538557,77.8785085 L18.8263001,80.101974 L18.69256,80.0373184 C19.7636745,77.8350234 20.85688,76.7026924 21.7046964,76.7026924 C22.1280075,76.7026924 23.310174,77.5580915 23.310174,78.2418386 C23.310174,78.8403319 22.7746168,80.1654852 21.9494884,82.2830986 L22.0169555,82.2830986 C23.5334721,79.5029085 24.3144185,77.9855049 25.0278978,77.3658413 C25.496585,76.9384278 25.9204932,76.6809498 26.4781414,76.7026924 C27.4155159,76.7662036 28.0621251,77.4728377 27.9952551,78.263009 C27.950476,79.0754951 27.3032697,79.6751327 26.6118815,79.652818 C25.563455,79.6104771 25.1401439,78.348835 26.1879733,77.6645157 L25.563455,77.4293525 C24.9389367,77.7074287 24.4481585,78.2841794 21.8378394,83.0097587 L20.7673219,86.2162179 L18.648378,86.1092215 Z M15.5484748,82.4965193 C15.9270069,81.3847865 16.0834349,79.9520646 16.0834349,79.1830637 C16.0834349,77.7926825 15.6595268,77.0660224 15.0350085,77.0660224 C14.1203221,77.0660224 12.8038185,78.9044153 12.0461572,81.1707937 C11.688522,82.2390413 11.532691,83.3942592 11.532691,84.1644045 C11.532691,85.3819893 11.9339111,86.1303919 12.5811174,86.1303919 C13.763881,86.1303919 14.8338014,84.6770717 15.5484748,82.4965193 L15.5484748,82.4965193 Z M9.63644814,82.4536063 C9.63644814,79.8027274 12.2915463,76.7662036 14.6111003,76.7662036 C16.4846551,76.7662036 18.0244568,78.5410852 18.0244568,80.7428081 C18.0244568,83.4366 15.3693586,86.4084682 12.9160646,86.4084682 C11.0198218,86.4084682 9.63644814,84.6347309 9.63644814,82.4536063 L9.63644814,82.4536063 Z M0,88.653104 C0,88.1398646 0.46809017,87.5202009 1.20425749,87.5202009 C2.05207387,87.5202009 2.83302023,88.5678502 2.02998288,89.5302457 C2.02998288,89.5302457 2.29746298,89.7436664 2.56554013,89.7436664 C3.45753849,89.7436664 3.99309574,88.418513 5.10779516,83.2443498 L6.22309164,77.8996789 L4.32744586,77.8567659 L4.728666,77.0025112 L6.49116879,76.9813408 C6.89298599,75.463365 7.53959524,73.9442449 8.45428164,73.0682476 C9.14566993,72.3839283 10.0830444,72 11.2204318,72 C12.4915594,72 13.2951938,72.5984933 13.2951938,73.4315776 C13.2951938,74.0735561 12.6706755,74.5856512 12.0682482,74.5856512 C10.8860817,74.5856512 10.5284465,73.26107 11.64434,72.4909247 C11.64434,72.4909247 11.2425228,72.2134206 10.8860817,72.2134206 C9.68063012,72.2134206 9.01192988,74.2446359 8.4315936,77.0025112 L10.7296536,77.0236816 L10.3953035,77.8785085 L8.25307452,77.8785085 L6.89298599,83.5012556 C6.24577968,86.1733049 5.59857337,87.9270161 4.39431588,89.0805175 C3.70292759,89.7648368 2.76555315,90 1.91773677,90 C0.824531282,90 0,89.4655901 0,88.653104 L0,88.653104 Z" id="Fill-4" fill="#FCFFF5"></path>
                        <g id="Group-8">
                            <mask id="mask-5" fill="white">
                                <use xlink:href="#path-4"></use>
                            </mask>
                            <g id="Clip-7"></g>
                            <path d="M225.923499,13.2259851 L225.923499,14.9195373 C220.342408,17.4598657 214.587876,26.6910299 211.360806,34.1435672 L198.020382,65.3086716 C196.101426,69.8811493 193.572796,75.6407015 182.149576,75.6407015 C174.389075,75.6407015 170.726941,71.5747015 170.726941,67.2557463 C170.726941,62.259597 175.610176,57.0932985 185.113855,57.5169701 C184.155545,59.295597 183.719313,61.6674776 183.719313,64.0382239 C183.719313,68.2726716 185.202036,72.3369701 188.602548,72.3369701 C191.131178,72.3369701 194.095457,70.3893284 196.274868,65.0540149 L176.568486,26.4369403 C173.167974,19.7466716 171.772848,15.343209 167.326429,14.9195373 L167.326429,13.2259851 L200.025183,13.2259851 L200.025183,14.9195373 C190.956568,15.4277164 190.1717,18.7308806 194.705716,27.1141343 L204.211147,45.4074478 L209.530031,33.8894776 C213.627814,24.6588806 211.884052,15.5967313 203.600305,14.9195373 L203.600305,13.2259851 L225.923499,13.2259851 Z M20.3172248,41.5961045 C21.1896899,38.1233582 22.6724134,34.2280746 24.4155917,29.9091194 L30.2583049,15.5967313 L40.9836693,41.5961045 L20.3172248,41.5961045 Z M161.313778,49.3872388 L161.313778,26.2679254 C161.313778,17.2908507 155.995478,12.3786418 146.66524,12.3786418 C139.339804,12.3786418 133.410661,17.1212687 130.446382,23.3039254 C129.312295,16.1899851 124.25445,12.3786418 116.0583,12.3786418 C107.861566,12.3786418 101.496191,18.2221343 98.8799638,25.4205821 L98.8799638,13.2259851 L74.8135917,13.2259851 L74.8135917,14.9195373 C81.1789664,15.4277164 82.3994832,18.0531194 82.3994832,23.3884328 L82.3994832,49.3872388 C82.3994832,54.7350299 81.2075814,57.278194 75.0617829,57.8328806 C66.3482274,57.4364328 64.212615,52.2196567 61.9975814,46.6773284 L43.5122997,0.268552239 L33.8334264,0.268552239 L22.9328682,27.9609104 C14.8243152,48.6255373 7.06381395,56.5856866 0,57.8555672 L0,59.5491194 L31.5664186,59.5491194 L31.5664186,57.8555672 C20.5788475,56.6707612 18.3124238,51.5044627 19.9685891,43.2890896 L41.6809406,43.2890896 L42.8150284,45.9995672 C46.4765788,54.891 45.9539173,57.1789403 36.5360827,57.8555672 L36.5360827,59.5491194 L74.8135917,59.5491194 L75.6883928,59.5491194 L104.025406,59.5491194 L104.025406,57.8555672 C98.5313282,57.3473881 98.8799638,54.9766418 98.8799638,50.4886716 L98.8799638,32.7035373 C99.1415866,25.1664925 104.896703,20.1703433 108.646434,20.1703433 C112.483178,20.1703433 114.226357,22.625597 114.226357,26.9451194 L114.226357,50.4886716 C114.226357,54.9766418 114.489147,57.3473881 108.995654,57.8555672 L108.995654,59.5491194 L135.852863,59.5491194 L135.852863,57.8555672 C130.358202,57.3473881 130.620408,54.9766418 130.620408,50.4886716 L130.620408,27.537806 C132.539364,22.9647612 136.463121,20.1703433 139.253375,20.1703433 C143.177132,20.1703433 144.833881,22.625597 144.833881,26.9451194 L144.833881,50.4886716 C144.833881,54.9766418 145.182517,57.3473881 139.689607,57.8555672 L139.689607,59.5491194 L168.900253,59.5491194 L168.900253,57.8555672 C162.534879,57.3473881 161.313778,54.8070597 161.313778,49.3872388 L161.313778,49.3872388 Z" id="Fill-6" fill="#FCFFF5" mask="url(#mask-5)"></path>
                        </g>
                    </g>
                </g>
            </g>
        </g>
    </g>
</svg>