<?xml version="1.0" standalone="no"?>
<!DOCTYPE svg PUBLIC "-//W3C//DTD SVG 20010904//EN"
 "http://www.w3.org/TR/2001/REC-SVG-20010904/DTD/svg10.dtd">
<svg version="1.0" xmlns="http://www.w3.org/2000/svg"
 width="623.000000pt" height="623.000000pt" viewBox="0 0 623.000000 623.000000"
 preserveAspectRatio="xMidYMid meet">
<metadata>
Created by potrace 1.11, written by Peter Selinger 2001-2013
</metadata>
<g transform="translate(0.000000,623.000000) scale(0.100000,-0.100000)"
fill="#000000" stroke="none">
<path d="M1141 5128 c-11 -3 -22 -12 -26 -18 -4 -7 -9 -249 -11 -539 -1 -289
-3 -585 -4 -658 -1 -72 1 -136 5 -142 3 -6 2 -11 -2 -11 -10 0 -9 -83 1 -99 4
-6 4 -11 -1 -11 -4 0 -9 -268 -10 -597 -1 -534 0 -598 15 -612 13 -14 53 -16
281 -18 146 -1 300 -2 341 -3 41 -1 80 -1 85 0 6 1 28 1 50 1 250 -5 483 -3
493 3 7 4 12 4 12 -1 0 -4 190 -9 423 -10 232 -1 472 -2 534 -3 61 -1 116 0
121 4 6 3 13 2 16 -3 3 -5 21 -6 40 -1 19 4 37 5 40 2 3 -3 252 -6 553 -8 302
-1 622 -3 713 -4 91 -1 170 -1 175 0 6 1 15 1 20 0 6 -1 46 -2 91 -2 90 -1
138 7 129 22 -3 6 -1 10 5 10 7 0 10 18 9 48 -1 27 1 54 5 60 4 7 2 12 -6 12
-8 0 -9 3 -3 8 12 8 13 81 2 99 -4 6 -3 15 3 18 8 5 8 11 1 19 -6 7 -8 16 -5
19 10 9 11 78 3 109 -4 16 -3 30 2 34 6 4 6 10 0 18 -6 7 -8 16 -4 20 12 12
11 550 -1 558 -8 5 -8 8 0 8 7 0 11 138 13 458 6 1065 6 1161 -6 1173 -6 6
-28 12 -47 13 -20 0 -36 5 -36 9 0 5 -5 5 -11 2 -17 -11 -59 -13 -59 -3 0 5
-9 4 -20 -2 -13 -7 -20 -7 -20 -1 0 7 -9 7 -25 1 -13 -5 -26 -6 -29 -1 -5 8
-70 6 -84 -3 -5 -3 -14 -1 -22 4 -7 4 -24 4 -37 -1 -12 -5 -23 -5 -23 -1 0 6
-87 8 -115 2 -5 -1 -14 -1 -20 0 -27 7 -125 5 -125 -3 0 -4 -6 -5 -12 0 -17
10 -128 11 -134 1 -3 -4 -13 -4 -22 0 -21 10 -53 9 -70 -2 -7 -4 -18 -3 -25 2
-16 13 -98 12 -90 -1 4 -6 1 -7 -8 -1 -21 14 -150 14 -142 0 5 -8 3 -8 -8 0
-20 16 -279 17 -279 1 0 -9 -2 -9 -8 0 -6 9 -38 12 -110 10 -56 -1 -102 0
-102 3 0 4 -220 4 -355 0 -104 -3 -1308 10 -1315 15 -5 3 -11 1 -15 -5 -4 -6
-12 -7 -23 -1 -9 5 -26 5 -39 0 -12 -4 -24 -5 -27 -1 -5 9 -70 7 -85 -3 -6 -3
-11 -3 -11 2 0 10 -523 11 -549 1z m480 -327 c6 -20 17 -49 24 -66 36 -86 76
-197 78 -215 1 -11 4 -20 7 -20 3 0 17 -31 30 -70 13 -38 28 -70 33 -70 4 0 6
-4 3 -9 -5 -8 7 -44 44 -136 5 -11 20 -51 34 -90 14 -38 31 -83 37 -100 7 -16
13 -32 14 -35 9 -34 38 -109 56 -142 5 -10 9 -22 9 -27 0 -5 5 -22 12 -38 6
-15 12 -32 14 -38 1 -5 15 -45 32 -87 16 -42 27 -79 24 -82 -3 -3 -1 -6 5 -6
6 0 16 -23 23 -50 7 -28 16 -53 21 -56 5 -3 9 -12 9 -20 0 -8 9 -34 20 -56 11
-23 20 -49 20 -58 0 -8 7 -26 16 -38 8 -12 12 -22 8 -22 -3 0 -2 -6 4 -12 16
-20 24 -80 26 -197 0 -64 -3 -107 -8 -103 -6 3 -6 -3 -2 -14 13 -33 15 -54 5
-54 -6 0 -7 -5 -3 -12 8 -13 9 -107 0 -115 -2 -3 -1 -15 4 -27 18 -48 5 -51
-202 -51 -106 0 -201 3 -210 8 -9 4 -19 3 -23 -2 -5 -9 -49 -6 -66 5 -4 2 -10
1 -12 -3 -3 -5 -64 -6 -137 -3 -73 3 -134 2 -137 -3 -2 -4 -9 -4 -15 -1 -17
11 -98 10 -98 -1 -1 -5 -7 0 -14 13 -8 15 -10 38 -6 60 3 20 3 54 -1 75 -3 20
-4 37 0 37 3 0 7 307 8 683 4 1082 6 1272 10 1280 2 4 69 6 148 5 l145 -1 11
-36z m794 29 c6 -1 12 -1 15 0 14 7 240 4 240 -3 0 -5 5 -5 11 -2 11 8 52 -29
42 -38 -3 -3 -1 -12 3 -19 5 -7 9 -15 9 -18 1 -3 11 -27 23 -54 13 -28 25 -60
28 -73 3 -12 12 -27 19 -33 8 -6 12 -17 9 -25 -3 -7 -1 -16 5 -20 6 -3 11 -14
11 -24 0 -10 7 -24 15 -31 8 -6 14 -15 13 -18 -1 -8 8 -34 30 -82 16 -35 18
-42 21 -61 0 -5 6 -7 13 -3 6 4 8 3 5 -4 -8 -11 31 -122 43 -122 4 0 7 -6 7
-12 0 -7 35 -96 79 -198 43 -102 79 -187 79 -190 0 -3 6 -15 13 -27 7 -13 10
-23 6 -23 -4 0 1 -9 12 -21 10 -12 18 -23 16 -25 -1 -2 5 -20 13 -40 8 -20 15
-40 15 -45 0 -5 4 -9 10 -9 5 0 7 -6 4 -14 -3 -8 0 -17 5 -21 6 -3 9 -10 7
-14 -3 -4 2 -17 12 -27 10 -10 17 -26 17 -34 -1 -8 7 -31 17 -50 16 -34 40
-89 42 -100 1 -3 11 -25 23 -50 11 -25 26 -62 33 -82 6 -21 16 -40 21 -43 5
-4 9 -15 9 -26 0 -10 5 -19 12 -19 6 0 9 -3 6 -6 -6 -5 6 -35 75 -194 16 -36
39 -91 42 -100 4 -11 19 -47 36 -85 10 -23 19 -47 21 -55 2 -11 -43 -13 -272
-12 -637 5 -675 5 -685 16 -10 11 -13 20 -21 61 -2 11 -8 21 -14 23 -6 2 -8 8
-5 13 3 4 -3 30 -14 56 -22 54 -33 84 -36 96 -2 4 -4 10 -5 15 -1 4 -2 10 -1
15 0 4 -4 7 -11 7 -6 0 -9 3 -5 6 3 3 -3 26 -13 50 -11 24 -19 45 -19 47 1 3
-12 40 -21 62 -5 11 -16 40 -24 65 -8 25 -23 68 -34 95 -11 28 -20 52 -20 55
0 3 -6 19 -13 35 -7 17 -13 37 -15 45 -2 8 -7 23 -12 35 -21 42 -42 105 -36
105 4 0 1 6 -5 14 -7 8 -14 23 -16 35 -2 11 -10 35 -18 53 -21 47 -29 70 -34
93 -2 10 -7 22 -11 25 -4 3 -9 14 -10 25 -2 11 -7 22 -10 25 -4 3 -8 14 -10
25 -1 11 -7 29 -11 40 -5 11 -14 36 -21 55 -7 19 -16 44 -20 55 -18 44 -23 60
-22 68 1 4 -3 7 -9 7 -5 0 -8 4 -5 8 3 5 -1 21 -9 35 -8 15 -14 31 -15 35 -1
13 -11 47 -20 67 -19 42 -110 300 -110 312 0 7 -4 13 -10 13 -5 0 -9 3 -8 8 2
4 -8 36 -20 72 -27 75 -31 88 -33 98 0 4 -4 12 -9 17 -4 6 -11 24 -14 41 l-7
30 268 -1 c147 -1 273 -3 278 -5z m1803 -10 c96 -1 176 1 179 4 3 3 13 2 22
-2 9 -5 27 -7 41 -6 46 5 50 -2 29 -45 -10 -22 -19 -45 -19 -51 0 -5 -4 -18
-10 -28 -14 -25 -68 -168 -72 -189 -2 -10 -6 -21 -11 -24 -4 -3 -9 -14 -11
-25 -2 -10 -10 -32 -17 -49 -7 -16 -13 -32 -14 -35 -1 -3 -7 -18 -13 -33 -7
-16 -12 -30 -12 -32 0 -2 -5 -16 -12 -32 -6 -15 -12 -31 -13 -35 -2 -5 -4 -10
-5 -13 -1 -3 -3 -8 -4 -12 -1 -5 -7 -18 -14 -30 -7 -13 -11 -23 -8 -23 3 0 -1
-12 -9 -27 -8 -15 -12 -30 -9 -35 3 -4 0 -8 -5 -8 -6 0 -11 -8 -11 -18 0 -9
-9 -34 -20 -55 -11 -20 -19 -40 -18 -44 1 -5 -4 -19 -12 -33 -7 -14 -13 -27
-13 -30 0 -5 -1 -10 -30 -85 -17 -46 -28 -78 -28 -85 -1 -3 -5 -11 -11 -17 -6
-7 -7 -13 -4 -13 4 0 0 -10 -8 -22 -9 -12 -16 -28 -16 -34 0 -6 -8 -29 -17
-50 -9 -22 -18 -42 -19 -46 -1 -5 -3 -10 -4 -13 -1 -3 -3 -8 -4 -12 -1 -5 -9
-24 -18 -43 -20 -47 -42 -115 -37 -116 2 0 -4 -8 -13 -17 -9 -10 -15 -26 -13
-37 2 -11 0 -20 -6 -20 -5 0 -9 -6 -9 -13 0 -8 -7 -28 -16 -45 -8 -18 -13 -36
-9 -42 3 -5 2 -10 -4 -10 -6 0 -14 -12 -17 -27 -4 -16 -10 -32 -14 -38 -10
-14 -35 -88 -32 -97 1 -5 -2 -8 -7 -8 -5 0 -12 -16 -15 -35 -4 -19 -11 -35
-16 -35 -5 0 -6 -12 -4 -27 l5 -27 -20 26 c-12 14 -21 31 -21 38 0 6 -9 32
-21 58 -11 26 -24 56 -28 67 -5 11 -19 45 -31 75 -12 30 -27 66 -32 80 -6 14
-14 33 -19 42 -5 10 -9 24 -9 32 0 8 -5 16 -10 18 -6 2 -12 13 -13 26 0 12 -5
22 -9 22 -4 0 -8 6 -8 14 0 14 -41 118 -50 126 -3 3 -7 14 -8 25 -2 11 -8 23
-14 26 -5 3 -9 10 -8 15 1 8 -3 23 -14 54 -1 3 -12 27 -24 54 -12 27 -22 55
-22 62 0 8 -5 14 -12 14 -6 0 -9 3 -5 6 3 4 -1 21 -10 38 -9 17 -17 39 -18 48
-1 10 -10 28 -21 40 -10 12 -14 18 -7 15 7 -4 5 6 -5 25 -43 84 -44 106 -12
173 26 54 69 179 64 186 -3 5 -2 9 3 9 4 0 18 28 31 63 13 34 30 74 38 90 8
15 12 27 8 27 -3 0 -2 6 3 13 10 12 24 60 22 73 0 4 3 10 8 13 5 3 17 29 27
56 18 48 32 83 60 150 l13 30 214 -2 c118 -1 292 -2 387 -3z m867 -615 c-2
-335 -4 -614 -5 -620 -1 -5 -1 -12 0 -15 6 -16 4 -62 -3 -67 -4 -2 -3 -11 4
-19 6 -8 7 -14 2 -14 -5 0 -8 -15 -6 -32 5 -43 3 -130 -3 -139 -2 -4 0 -10 6
-14 6 -4 7 -11 4 -17 -10 -16 -11 -338 -2 -365 4 -12 4 -24 0 -27 -4 -2 -7
-51 -7 -108 l0 -103 -110 0 c-62 0 -113 4 -117 10 -5 7 -8 7 -8 0 0 -6 -35
-10 -84 -10 -46 0 -82 3 -79 7 2 5 -7 4 -20 -1 -13 -5 -30 -5 -37 -1 -8 5 -17
7 -20 5 -10 -6 -83 -7 -107 -1 -13 2 -25 1 -28 -4 -4 -6 -40 -7 -40 0 0 1 -19
2 -42 3 -24 2 -43 0 -43 -3 0 -3 -13 -5 -29 -5 -16 0 -27 3 -25 6 5 8 -81 3
-95 -5 -6 -4 -11 -3 -11 3 0 6 -6 8 -13 5 -11 -4 -13 19 -12 116 1 66 4 123 8
126 3 4 2 15 -3 25 -6 10 -6 20 -1 23 4 3 12 20 16 38 4 18 9 38 10 43 2 6 4
17 6 25 2 8 6 17 9 20 3 3 23 59 44 125 21 66 41 129 46 140 4 11 19 54 31 95
13 41 27 80 32 87 5 7 6 17 2 23 -3 5 -2 10 3 10 9 0 34 84 32 104 -1 5 2 12
7 15 5 3 19 42 33 86 13 44 28 85 33 92 5 7 6 17 2 23 -3 5 -2 10 3 10 5 0 9
6 9 13 1 6 23 78 51 159 27 81 47 149 44 152 -3 3 0 6 6 6 7 0 11 3 11 8 -1 4
0 9 1 12 1 3 3 13 5 23 2 10 7 26 11 35 4 9 8 20 9 25 2 4 3 8 4 10 2 1 4 12
7 24 8 44 9 48 17 54 4 3 9 16 10 27 1 12 5 22 9 22 4 0 8 9 8 19 0 11 10 45
21 78 12 32 24 65 27 73 3 8 6 20 7 25 10 43 47 140 55 145 6 4 77 6 159 6
l149 0 -3 -611z"/>
<path d="M1223 1992 c-22 -3 -23 -8 -23 -88 l0 -84 345 0 346 0 -2 -85 -2 -85
-343 0 -344 0 0 -260 0 -260 430 0 431 0 -3 86 -3 87 -343 0 -343 0 3 86 3 86
343 0 342 0 0 257 c0 239 -1 258 -17 259 -58 3 -802 3 -820 1z"/>
<path d="M2253 1992 l-23 -3 0 -430 0 -429 430 0 c337 0 430 3 431 13 0 6 2
198 2 426 2 342 0 414 -12 419 -14 5 -791 9 -828 4z m667 -431 l0 -260 -257 2
-258 2 -1 250 c0 138 1 253 3 258 2 4 119 7 259 7 l254 0 0 -259z"/>
<path d="M3270 1990 c-4 -3 -8 -42 -8 -87 l-1 -83 345 0 344 0 0 -85 0 -85
-343 0 -344 0 0 -260 0 -260 431 2 430 3 1 83 1 82 -30 1 c-17 0 -171 1 -343
1 -225 0 -313 3 -315 12 -3 9 -2 138 1 156 1 3 155 5 343 5 l343 0 0 259 0
259 -423 1 c-233 1 -427 -1 -432 -4z"/>
<path d="M4309 1992 c-12 -2 -14 -67 -13 -430 l1 -427 430 -3 431 -2 0 430 c0
317 -3 430 -11 431 -38 2 -826 4 -838 1z m677 -422 c0 -135 -1 -250 -3 -256
-3 -8 -80 -12 -259 -12 l-254 0 0 259 0 259 257 -2 258 -3 1 -245z"/>
</g>
</svg>
