<svg id="Layer_1" data-name="Layer 1" xmlns="http://www.w3.org/2000/svg" viewBox="0 0 30 25"><defs><style>.cls-1{fill:#fff;}</style></defs><title>ico_twtr</title><path class="cls-1" d="M29.8,3.2a12.37,12.37,0,0,1-3.54,1A6.16,6.16,0,0,0,29,.77a12.1,12.1,0,0,1-3.91,1.49A6.16,6.16,0,0,0,14.41,6.47a5.83,5.83,0,0,0,.16,1.4A17.45,17.45,0,0,1,1.88,1.44,6.17,6.17,0,0,0,3.79,9.66,6.12,6.12,0,0,1,1,8.89V9a6.15,6.15,0,0,0,4.94,6,5.81,5.81,0,0,1-1.62.22,6.25,6.25,0,0,1-1.16-.11,6.13,6.13,0,0,0,5.75,4.27A12.31,12.31,0,0,1,1.26,22,11.8,11.8,0,0,1-.2,21.93,17.38,17.38,0,0,0,9.23,24.7c11.32,0,17.51-9.38,17.51-17.51,0-.27,0-.54,0-.8A12.59,12.59,0,0,0,29.8,3.2"/></svg>