<svg id="Layer_1" data-name="Layer 1" xmlns="http://www.w3.org/2000/svg" viewBox="0 0 30 30"><defs><style>.cls-1,.cls-2,.cls-3{fill:none;stroke-linecap:round;}.cls-1{stroke:#c8202f;}.cls-1,.cls-3{stroke-linejoin:round;}.cls-2,.cls-3{stroke:#282b6a;}.cls-2{stroke-miterlimit:10;}</style></defs><title>ico_money</title><ellipse class="cls-1" cx="8" cy="15.5" rx="6.5" ry="1.5"/><path class="cls-1" d="M1.5,15.5V18c0,.7,3,1.5,6.5,1.5s6.5-.8,6.5-1.5V15.5"/><path class="cls-1" d="M1.5,18v2.5c0,.7,3,1.5,6.5,1.5s6.5-.8,6.5-1.5V18"/><path class="cls-1" d="M1.5,20.5V23c0,.7,3,1.5,6.5,1.5s6.5-.8,6.5-1.5V20.5"/><path class="cls-1" d="M1.5,23v2.5c0,.7,3,1.5,6.5,1.5s6.5-.8,6.5-1.5V23"/><path class="cls-1" d="M1.5,25.5V28c0,.7,3,1.5,6.5,1.5s6.5-.8,6.5-1.5V25.5"/><polyline class="cls-2" points="0.5 11.5 0.5 0.5 29.5 0.5 29.5 18.5 19 18.5"/><circle class="cls-3" cx="15" cy="9.5" r="3.5"/><circle class="cls-3" cx="23.5" cy="12.5" r="1"/><circle class="cls-3" cx="6.5" cy="6.5" r="1"/><path class="cls-2" d="M2.5,11.5V5A2.49,2.49,0,0,1,5,2.5H25A2.49,2.49,0,0,1,27.5,5v9A2.49,2.49,0,0,1,25,16.5H19"/></svg>