<?xml version="1.0" encoding="utf-8"?>
<!-- Generator: Adobe Illustrator 19.2.1, SVG Export Plug-In . SVG Version: 6.00 Build 0)  -->
<svg version="1.1" id="Layer_1" xmlns="http://www.w3.org/2000/svg" xmlns:xlink="http://www.w3.org/1999/xlink" x="0px" y="0px"
	 viewBox="0 0 30 30" style="enable-background:new 0 0 30 30;" xml:space="preserve">
<style type="text/css">
	.st0{fill:#FFFFFF;}
</style>
<title>ico_money</title>
<g>
	<path class="st0" d="M8,17.5c-0.7,0-7-0.1-7-2c0-1.9,6.3-2,7-2s7,0.1,7,2C15,17.4,8.7,17.5,8,17.5z M2,15.5c0.4,0.4,2.5,1,6,1
		s5.6-0.6,6-1c-0.4-0.4-2.5-1-6-1S2.4,15.1,2,15.5z"/>
</g>
<g>
	<path class="st0" d="M8,20c-2.3,0-7-0.5-7-2v-2.5C1,15.2,1.2,15,1.5,15S2,15.2,2,15.5v2.4C2.4,18.3,4.7,19,8,19s5.6-0.7,6-1.1v-2.4
		c0-0.3,0.2-0.5,0.5-0.5s0.5,0.2,0.5,0.5V18C15,19.5,10.3,20,8,20z"/>
</g>
<g>
	<path class="st0" d="M8,22.5c-2.3,0-7-0.5-7-2V18c0-0.3,0.2-0.5,0.5-0.5S2,17.7,2,18v2.4c0.4,0.4,2.7,1.1,6,1.1s5.6-0.7,6-1.1V18
		c0-0.3,0.2-0.5,0.5-0.5S15,17.7,15,18v2.5C15,22,10.3,22.5,8,22.5z"/>
</g>
<g>
	<path class="st0" d="M8,25c-2.3,0-7-0.5-7-2v-2.5C1,20.2,1.2,20,1.5,20S2,20.2,2,20.5v2.4C2.4,23.3,4.7,24,8,24s5.6-0.7,6-1.1v-2.4
		c0-0.3,0.2-0.5,0.5-0.5s0.5,0.2,0.5,0.5V23C15,24.5,10.3,25,8,25z"/>
</g>
<g>
	<path class="st0" d="M8,27.5c-2.3,0-7-0.5-7-2V23c0-0.3,0.2-0.5,0.5-0.5S2,22.7,2,23v2.4c0.4,0.4,2.7,1.1,6,1.1s5.6-0.7,6-1.1V23
		c0-0.3,0.2-0.5,0.5-0.5S15,22.7,15,23v2.5C15,27,10.3,27.5,8,27.5z"/>
</g>
<g>
	<path class="st0" d="M8,30c-2.3,0-7-0.5-7-2v-2.5C1,25.2,1.2,25,1.5,25S2,25.2,2,25.5v2.4C2.4,28.3,4.7,29,8,29s5.6-0.7,6-1.1v-2.4
		c0-0.3,0.2-0.5,0.5-0.5s0.5,0.2,0.5,0.5V28C15,29.5,10.3,30,8,30z"/>
</g>
<g>
	<path class="st0" d="M30,19H19c-0.3,0-0.5-0.2-0.5-0.5S18.7,18,19,18h10V1H1v10.5C1,11.8,0.8,12,0.5,12S0,11.8,0,11.5V0h30V19z"/>
</g>
<g>
	<path class="st0" d="M15,13.5c-2.2,0-4-1.8-4-4s1.8-4,4-4c2.2,0,4,1.8,4,4S17.2,13.5,15,13.5z M15,6.5c-1.7,0-3,1.3-3,3s1.3,3,3,3
		s3-1.3,3-3S16.7,6.5,15,6.5z"/>
</g>
<g>
	<path class="st0" d="M23.5,14c-0.8,0-1.5-0.7-1.5-1.5s0.7-1.5,1.5-1.5s1.5,0.7,1.5,1.5S24.3,14,23.5,14z M23.5,12
		c-0.3,0-0.5,0.2-0.5,0.5s0.2,0.5,0.5,0.5s0.5-0.2,0.5-0.5S23.8,12,23.5,12z"/>
</g>
<g>
	<path class="st0" d="M6.5,8C5.7,8,5,7.3,5,6.5S5.7,5,6.5,5S8,5.7,8,6.5S7.3,8,6.5,8z M6.5,6C6.2,6,6,6.2,6,6.5S6.2,7,6.5,7
		S7,6.8,7,6.5S6.8,6,6.5,6z"/>
</g>
<g>
	<path class="st0" d="M25,17h-6c-0.3,0-0.5-0.2-0.5-0.5S18.7,16,19,16h6c0.5,0,1-0.2,1.4-0.6C26.8,15,27,14.5,27,14V5
		c0-1.1-0.9-2-2-2c0,0,0,0,0,0H5C3.9,3,3,3.9,3,5v6.5C3,11.8,2.8,12,2.5,12S2,11.8,2,11.5V5c0-1.6,1.3-3,3-3h20c0,0,0,0,0,0
		c1.6,0,3,1.3,3,3v9c0,0.8-0.3,1.5-0.9,2.1C26.6,16.7,25.8,17,25,17z"/>
</g>
</svg>
