<svg id="Layer_1" data-name="Layer 1" xmlns="http://www.w3.org/2000/svg" viewBox="0 0 25 25"><defs><style>.cls-1{fill:#fff;}</style></defs><title>ico_ig</title><path class="cls-1" d="M20.18,0H4.88A4.83,4.83,0,0,0,.06,4.83V20.12a4.83,4.83,0,0,0,4.82,4.81h15.3A4.82,4.82,0,0,0,25,20.12V4.83A4.82,4.82,0,0,0,20.18,0Zm1.38,2.88h.55V7.11H17.9V2.9ZM9,9.91a4.38,4.38,0,1,1-.83,2.56A4.41,4.41,0,0,1,9,9.91Zm13.6,10.21a2.39,2.39,0,0,1-2.39,2.38H4.88a2.39,2.39,0,0,1-2.39-2.38V9.91H6.22a6.82,6.82,0,1,0,12.63,0h3.72Z"/></svg>