<?xml version="1.0" encoding="utf-8"?>
<!-- Generator: Adobe Illustrator 19.2.1, SVG Export Plug-In . SVG Version: 6.00 Build 0)  -->
<svg version="1.1" id="Layer_1" xmlns="http://www.w3.org/2000/svg" xmlns:xlink="http://www.w3.org/1999/xlink" x="0px" y="0px"
	 viewBox="0 0 18 30" style="enable-background:new 0 0 18 30;" xml:space="preserve">
<style type="text/css">
	.st0{fill:#FFFFFF;}
</style>
<title>ico_phone</title>
<g>
	<path class="st0" d="M14.5,30h-11C1.6,30,0,28.4,0,26.5v-23C0,1.6,1.6,0,3.5,0h11C16.4,0,18,1.6,18,3.5v23C18,28.4,16.4,30,14.5,30
		z M3.5,1C2.1,1,1,2.1,1,3.5v23C1,27.9,2.1,29,3.5,29h11c1.4,0,2.5-1.1,2.5-2.5v-23C17,2.1,15.9,1,14.5,1H3.5z"/>
</g>
<g>
	<path class="st0" d="M17.5,6h-17C0.2,6,0,5.8,0,5.5S0.2,5,0.5,5h17C17.8,5,18,5.2,18,5.5S17.8,6,17.5,6z"/>
</g>
<g>
	<path class="st0" d="M17.5,25h-17C0.2,25,0,24.8,0,24.5S0.2,24,0.5,24h17c0.3,0,0.5,0.2,0.5,0.5S17.8,25,17.5,25z"/>
</g>
<g>
	<path class="st0" d="M12.5,4h-7C5.2,4,5,3.8,5,3.5S5.2,3,5.5,3h7C12.8,3,13,3.2,13,3.5S12.8,4,12.5,4z"/>
</g>
<g>
	<path class="st0" d="M9,28.5c-0.8,0-1.5-0.7-1.5-1.5s0.7-1.5,1.5-1.5s1.5,0.7,1.5,1.5S9.8,28.5,9,28.5z M9,26.5
		c-0.3,0-0.5,0.2-0.5,0.5s0.2,0.5,0.5,0.5s0.5-0.2,0.5-0.5S9.3,26.5,9,26.5z"/>
</g>
</svg>
