<svg id="Layer_1" data-name="Layer 1" xmlns="http://www.w3.org/2000/svg" viewBox="0 0 30 26"><defs><style>.cls-1{fill:#fff;}</style></defs><title>ico_youtube</title><path class="cls-1" d="M21.14,3.18V8.9a2,2,0,0,1-.47.41.88.88,0,0,1-.44.16.36.36,0,0,1-.3-.12A.55.55,0,0,1,19.82,9V3.18H18.28V9.47a1.61,1.61,0,0,0,.27,1,1,1,0,0,0,.8.33,2.06,2.06,0,0,0,.91-.22,3.53,3.53,0,0,0,.88-.72v.84h1.54V3.18Zm-4.71.37A2.19,2.19,0,0,0,14.86,3a2.58,2.58,0,0,0-1.68.53,1.75,1.75,0,0,0-.61,1.39v3.9a2,2,0,0,0,.6,1.53,2.29,2.29,0,0,0,1.62.57,2.27,2.27,0,0,0,1.64-.56A1.9,1.9,0,0,0,17,8.84V5A1.82,1.82,0,0,0,16.43,3.55ZM15.47,9a.63.63,0,0,1-.18.47.68.68,0,0,1-.5.18.61.61,0,0,1-.47-.18A.64.64,0,0,1,14.15,9V4.85a.46.46,0,0,1,.18-.39.65.65,0,0,1,.46-.16.79.79,0,0,1,.5.16.46.46,0,0,1,.18.39ZM10.69.51,9.62,4.59H9.49L8.38.51H6.62L8.69,6.68v4h1.74V6.48l2-6Zm12,18a1,1,0,0,1,.14.6v.7h-1.2v-.7a.9.9,0,0,1,.14-.6.55.55,0,0,1,.47-.2A.54.54,0,0,1,22.71,18.49Zm-4.75,0a.5.5,0,0,0-.42-.18.61.61,0,0,0-.29.06,1,1,0,0,0-.28.21v4.26a.9.9,0,0,0,.33.24.71.71,0,0,0,.31.08A.42.42,0,0,0,18,23a.7.7,0,0,0,.12-.47V19A.71.71,0,0,0,18,18.46Zm0,0a.5.5,0,0,0-.42-.18.61.61,0,0,0-.29.06,1,1,0,0,0-.28.21v4.26a.9.9,0,0,0,.33.24.71.71,0,0,0,.31.08A.42.42,0,0,0,18,23a.7.7,0,0,0,.12-.47V19A.71.71,0,0,0,18,18.46Zm7.76-5.28H4.28A4.31,4.31,0,0,0,0,17.47v4.38a4.29,4.29,0,0,0,4.28,4.27H25.72A4.3,4.3,0,0,0,30,21.85V17.47A4.31,4.31,0,0,0,25.72,13.18Zm-15.66,3H8.45v7.92H6.91V16.19H5.32V14.84h4.74Zm4.5,7.92H13.18v-.75a2.64,2.64,0,0,1-.78.63,1.62,1.62,0,0,1-.79.23.85.85,0,0,1-.72-.32,1.44,1.44,0,0,1-.23-.91V17.26H12v5.26a.56.56,0,0,0,.09.35.3.3,0,0,0,.27.11.71.71,0,0,0,.38-.15,1.24,1.24,0,0,0,.42-.37v-5.2h1.38Zm5-1.42a1.74,1.74,0,0,1-.32,1.12,1.14,1.14,0,0,1-.93.39,1.52,1.52,0,0,1-.72-.15,1.67,1.67,0,0,1-.58-.47v.53H15.59V14.84H17v3a2.31,2.31,0,0,1,.58-.47,1.55,1.55,0,0,1,.64-.16,1.17,1.17,0,0,1,1,.44,2,2,0,0,1,.35,1.27Zm4.75-1.83H21.65v1.29a1.47,1.47,0,0,0,.12.74.51.51,0,0,0,.47.21.54.54,0,0,0,.47-.18,1.41,1.41,0,0,0,.14-.77v-.32h1.42v.35a2.12,2.12,0,0,1-.53,1.58,2,2,0,0,1-1.53.53,1.86,1.86,0,0,1-1.45-.56,2.17,2.17,0,0,1-.53-1.55V19.11a1.92,1.92,0,0,1,.59-1.45,2.06,2.06,0,0,1,1.5-.56,1.88,1.88,0,0,1,1.43.53,2,2,0,0,1,.52,1.48Zm-6.73-2.58a.61.61,0,0,0-.29.06,1,1,0,0,0-.28.21v4.26a.9.9,0,0,0,.33.24.71.71,0,0,0,.31.08A.42.42,0,0,0,18,23a.7.7,0,0,0,.12-.47V19a.71.71,0,0,0-.15-.51A.5.5,0,0,0,17.54,18.28Zm.42.18a.5.5,0,0,0-.42-.18.61.61,0,0,0-.29.06,1,1,0,0,0-.28.21v4.26a.9.9,0,0,0,.33.24.71.71,0,0,0,.31.08A.42.42,0,0,0,18,23a.7.7,0,0,0,.12-.47V19A.71.71,0,0,0,18,18.46Zm0,0a.5.5,0,0,0-.42-.18.61.61,0,0,0-.29.06,1,1,0,0,0-.28.21v4.26a.9.9,0,0,0,.33.24.71.71,0,0,0,.31.08A.42.42,0,0,0,18,23a.7.7,0,0,0,.12-.47V19A.71.71,0,0,0,18,18.46Z"/></svg>