<?xml version="1.0" encoding="utf-8"?>
<!-- Generator: Adobe Illustrator 19.2.1, SVG Export Plug-In . SVG Version: 6.00 Build 0)  -->
<svg version="1.1" id="Layer_1" xmlns="http://www.w3.org/2000/svg" xmlns:xlink="http://www.w3.org/1999/xlink" x="0px" y="0px"
	 viewBox="0 0 30 30" style="enable-background:new 0 0 30 30;" xml:space="preserve">
<style type="text/css">
	.st0{fill:#FFFFFF;}
</style>
<title>ico_email</title>
<g>
	<path class="st0" d="M22.5,22h-15C6.1,22,5,20.9,5,19.5v-9C5,9.1,6.1,8,7.5,8h15c1.4,0,2.5,1.1,2.5,2.5v9C25,20.9,23.9,22,22.5,22z
		 M7.5,9C6.7,9,6,9.7,6,10.5v9C6,20.3,6.7,21,7.5,21h15c0.8,0,1.5-0.7,1.5-1.5v-9C24,9.7,23.3,9,22.5,9H7.5z"/>
</g>
<g>
	<path class="st0" d="M15,16.5c-0.1,0-0.2,0-0.3-0.1l-7-5.5c-0.2-0.2-0.3-0.5-0.1-0.7c0.2-0.2,0.5-0.3,0.7-0.1l6.7,5.3l6.7-5.3
		c0.2-0.2,0.5-0.1,0.7,0.1c0.2,0.2,0.1,0.5-0.1,0.7l-7,5.5C15.2,16.5,15.1,16.5,15,16.5z"/>
</g>
<g>
	<path class="st0" d="M22,19c-0.1,0-0.2,0-0.3-0.1l-5.1-4c-0.2-0.2-0.3-0.5-0.1-0.7c0.2-0.2,0.5-0.3,0.7-0.1l5.1,4
		c0.2,0.2,0.3,0.5,0.1,0.7C22.3,18.9,22.1,19,22,19z"/>
</g>
<g>
	<path class="st0" d="M8,19c-0.1,0-0.3-0.1-0.4-0.2c-0.2-0.2-0.1-0.5,0.1-0.7l5.1-4c0.2-0.2,0.5-0.1,0.7,0.1
		c0.2,0.2,0.1,0.5-0.1,0.7l-5.1,4C8.2,19,8.1,19,8,19z"/>
</g>
<g>
	<path class="st0" d="M15,30C6.7,30,0,23.3,0,15C0,6.7,6.7,0,15,0c8.3,0,15,6.7,15,15C30,23.3,23.3,30,15,30z M15,1
		C7.3,1,1,7.3,1,15s6.3,14,14,14s14-6.3,14-14S22.7,1,15,1z"/>
</g>
</svg>
