<?xml version="1.0" encoding="utf-8"?>
<!-- Generator: Adobe Illustrator 19.2.1, SVG Export Plug-In . SVG Version: 6.00 Build 0)  -->
<svg version="1.1" id="Layer_1" xmlns="http://www.w3.org/2000/svg" xmlns:xlink="http://www.w3.org/1999/xlink" x="0px" y="0px"
	 viewBox="0 0 30 30" style="enable-background:new 0 0 30 30;" xml:space="preserve">
<style type="text/css">
	.st0{fill:#2B325F;}
</style>
<title>ico_person</title>
<g>
	<path class="st0" d="M25.3,25.7c-0.1,0-0.2,0-0.3-0.1c-1.2-0.8-3.3-1.6-5.6-2.4c-0.7-0.2-1.4-0.5-2.1-0.8c-0.2-0.1-0.3-0.3-0.3-0.5
		v-3.1c0-0.2,0.1-0.4,0.3-0.5c0.1,0,1.5-0.6,1.5-3.3c0-0.3,0.2-0.5,0.5-0.5c0,0,0.1-0.1,0.1-0.1c0.1-0.2,0.1-0.4,0.1-0.6
		c0-0.5-0.2-0.8-0.2-0.8c-0.3,0-0.5-0.2-0.5-0.5c0-0.2,0.1-0.3,0.2-0.7c0.3-0.8,0.8-2.4,0.5-3.6c-0.2-0.9-1.7-1.5-3.6-1.5
		s-3.4,0.6-3.6,1.5c-0.1,0.3-0.3,0.4-0.6,0.4c-0.5-0.1-0.8-0.1-1,0.1c-0.5,0.6,0,2.4,0.2,3.1c0.1,0.4,0.1,0.5,0.1,0.6
		c0,0.3-0.2,0.5-0.5,0.5c-0.1,0-0.2,0.3-0.2,0.8c0,0.5,0.2,0.8,0.2,0.8c0.3,0,0.5,0.2,0.5,0.5c0,2.7,1.5,3.3,1.6,3.3
		c0.2,0.1,0.3,0.3,0.3,0.5v3.1c0,0.2-0.1,0.4-0.3,0.5c-0.6,0.2-1.3,0.5-1.9,0.7c-2.2,0.8-4.5,1.6-5.8,2.5c-0.2,0.1-0.5,0.1-0.6-0.1
		c-5.7-5.8-5.7-15.3,0-21.1C7.2,1.6,10.9,0,14.9,0c0,0,0.1,0,0.1,0c4,0,7.7,1.5,10.5,4.3c2.9,2.8,4.4,6.6,4.5,10.6
		s-1.5,7.8-4.3,10.6C25.6,25.6,25.5,25.7,25.3,25.7z M15,1C15,1,14.9,1,15,1C11.2,1,7.7,2.5,5,5.1c-5.3,5.3-5.4,13.9-0.3,19.4
		c1.4-0.8,3.5-1.6,5.6-2.4c0.5-0.2,1.1-0.4,1.6-0.6v-2.5c-0.6-0.3-1.8-1.3-1.9-3.7c-0.5-0.2-0.8-0.9-0.8-1.6c0-0.7,0.3-1.3,0.7-1.6
		c0,0,0,0,0-0.1C9.7,11,9.1,9,10,8c0.4-0.4,0.9-0.5,1.5-0.5c0.7-1.4,2.7-1.8,4.4-1.8c1.9,0,4.2,0.6,4.6,2.3c0.4,1.5-0.2,3.2-0.5,4.1
		c0,0,0,0.1,0,0.1c0.4,0.3,0.6,0.9,0.6,1.6c0,0.8-0.3,1.4-0.8,1.6c-0.1,2.4-1.3,3.4-1.9,3.7v2.5c0.6,0.2,1.2,0.4,1.8,0.6
		c2.2,0.8,4.2,1.5,5.5,2.3c2.4-2.6,3.8-6,3.8-9.6c0-3.7-1.5-7.2-4.2-9.9C22.2,2.4,18.7,1,15,1z"/>
</g>
<g>
	<path class="st0" d="M15,30c-3.9,0-7.7-1.5-10.7-4.5L5,24.8c5.4,5.5,14.3,5.5,19.8,0.1l0.1-0.1l0.7,0.7l-0.1,0.1
		C22.6,28.6,18.8,30,15,30z"/>
</g>
</svg>
