<?xml version="1.0" encoding="utf-8"?>
<!-- Generator: Adobe Illustrator 21.0.2, SVG Export Plug-In . SVG Version: 6.00 Build 0)  -->
<svg version="1.1" id="Layer_1" xmlns="http://www.w3.org/2000/svg" xmlns:xlink="http://www.w3.org/1999/xlink" x="0px" y="0px"
	 viewBox="0 0 128 128" style="enable-background:new 0 0 128 128;" xml:space="preserve">
<style type="text/css">
	.st0{fill:#CBCFDC;}
</style>
<g>
	<path class="st0" d="M128,64c0-34.4-27.2-62.5-61.2-63.9V7c30.2,1.4,54.3,26.4,54.3,57S97,119.6,66.8,121.1v6.9
		C100.8,126.5,128,98.4,128,64z"/>
	<path class="st0" d="M61.2,0.1c-4.9,0.2-9.7,1-14.2,2.3h14.2V0.1z"/>
	<path class="st0" d="M34.2,7.3h22.6c1.4-0.2,2.9-0.3,4.3-0.4V5h-22C37.5,5.7,35.8,6.5,34.2,7.3z"/>
	<path class="st0" d="M26.2,12.4h13.4c1.8-0.9,3.7-1.7,5.7-2.3H29.5C28.4,10.8,27.3,11.6,26.2,12.4z"/>
	<path class="st0" d="M20.1,17.4H31c1.2-0.8,2.3-1.6,3.6-2.3H22.7C21.8,15.8,21,16.6,20.1,17.4z"/>
	<path class="st0" d="M15.3,22.4h9.5c0.9-0.8,1.7-1.6,2.6-2.3h-10C16.7,20.9,16,21.6,15.3,22.4z"/>
	<path class="st0" d="M8.3,32.5h8.1c0.5-0.8,1.1-1.6,1.6-2.3H9.7C9.2,30.9,8.7,31.7,8.3,32.5z"/>
	<path class="st0" d="M3.7,42.5H11c0.3-0.8,0.7-1.6,1-2.3H4.5C4.2,41,3.9,41.8,3.7,42.5z"/>
	<path class="st0" d="M2.1,47.6h7.1c0.2-0.8,0.5-1.6,0.8-2.3H2.8C2.5,46,2.3,46.8,2.1,47.6z"/>
	<path class="st0" d="M1,52.6h7c0.2-0.8,0.3-1.6,0.5-2.3h-7C1.3,51,1.1,51.8,1,52.6z"/>
	<path class="st0" d="M0.3,57.6h6.9c0.1-0.8,0.2-1.6,0.3-2.3h-7C0.5,56.1,0.4,56.8,0.3,57.6z"/>
	<path class="st0" d="M0,62.6h6.9c0-0.8,0-1.6,0.1-2.3H0.1C0,61.1,0,61.9,0,62.6z"/>
	<path class="st0" d="M0.1,67.7H7c0-0.8-0.1-1.5-0.1-2.3H0C0,66.1,0,66.9,0.1,67.7z"/>
	<path class="st0" d="M0.6,72.7h7c-0.1-0.8-0.2-1.5-0.3-2.3h-7C0.4,71.2,0.5,71.9,0.6,72.7z"/>
	<path class="st0" d="M1.5,77.7h7.1C8.3,77,8.2,76.2,8,75.4H1C1.1,76.2,1.3,77,1.5,77.7z"/>
	<path class="st0" d="M2.8,82.8H10c-0.3-0.8-0.5-1.5-0.8-2.3H2.1C2.3,81.2,2.5,82,2.8,82.8z"/>
	<path class="st0" d="M4.5,87.8H12c-0.4-0.8-0.7-1.5-1-2.3H3.7C3.9,86.2,4.2,87,4.5,87.8z"/>
	<path class="st0" d="M6.8,92.8h7.8c-0.4-0.8-0.9-1.5-1.3-2.3H5.7C6.1,91.3,6.4,92.1,6.8,92.8z"/>
	<path class="st0" d="M9.7,97.8H18c-0.6-0.8-1.1-1.5-1.6-2.3H8.3C8.7,96.3,9.2,97.1,9.7,97.8z"/>
	<path class="st0" d="M13.1,102.9h9c-0.7-0.8-1.4-1.5-2-2.3h-8.7C12,101.3,12.6,102.1,13.1,102.9z"/>
	<path class="st0" d="M17.4,107.9h10c-0.9-0.8-1.8-1.5-2.6-2.3h-9.5C16,106.4,16.7,107.1,17.4,107.9z"/>
	<path class="st0" d="M22.7,112.9h11.8c-1.2-0.7-2.4-1.5-3.6-2.3H20.1C21,111.4,21.8,112.2,22.7,112.9z"/>
	<path class="st0" d="M29.5,118h15.7c-1.9-0.7-3.8-1.5-5.7-2.3H26.2C27.3,116.4,28.4,117.2,29.5,118z"/>
	<path class="st0" d="M39.1,123h22v-1.9c-1.5-0.1-2.9-0.2-4.3-0.4H34.2C35.8,121.5,37.5,122.3,39.1,123z"/>
	<path class="st0" d="M61.2,127.9v-2.3H46.9C51.5,126.9,56.3,127.7,61.2,127.9z"/>
	<path class="st0" d="M11.4,27.5h8.7c0.7-0.8,1.3-1.6,2-2.3h-9C12.6,25.9,12,26.7,11.4,27.5z"/>
	<path class="st0" d="M5.7,37.5h7.7c0.4-0.8,0.8-1.6,1.3-2.3H6.8C6.4,35.9,6.1,36.7,5.7,37.5z"/>
</g>
</svg>
