<?xml version="1.0" standalone="no"?>
<!DOCTYPE svg PUBLIC "-//W3C//DTD SVG 1.1//EN" "http://www.w3.org/Graphics/SVG/1.1/DTD/svg11.dtd" >
<svg>
<metadata>
Created by FontForge 20090622 at Tue Feb 26 18:40:53 2019
 By deploy user
Copyright (c) 2014 by Richard Miller. All rights reserved.
</metadata>
<defs>
<font id="UniformBold-Regular" horiz-adv-x="615" >
  <font-face 
    font-family="Uniform Bold"
    font-weight="400"
    font-stretch="normal"
    units-per-em="1000"
    panose-1="0 0 5 0 0 0 0 0 0 0"
    ascent="750"
    descent="-250"
    x-height="516"
    cap-height="700"
    bbox="-190 -218 1207 949"
    underline-thickness="50"
    underline-position="-50"
    unicode-range="U+0020-U+FB02"
  />
<missing-glyph horiz-adv-x="691" 
d="M20 700h651v-700h-651v700zM540 508l-36 36l-159 -158l-158 159l-36 -36l158 -159l-159 -159l36 -36l159 159l159 -159l36 36l-159 159z" />
    <glyph glyph-name="ellipsis" unicode="&#x2e;&#x2e;&#x2e;" horiz-adv-x="947" 
d="M141 172q38 0 64.5 -26.5t26.5 -64.5t-26.5 -64.5t-64.5 -26.5q-37 0 -64 27t-27 64q0 38 26.5 64.5t64.5 26.5zM474 172q38 0 64.5 -26.5t26.5 -64.5q0 -37 -26.5 -64t-64.5 -27t-65 26.5t-27 64.5t27 64.5t65 26.5zM806 172q38 0 64.5 -26.5t26.5 -64.5t-26.5 -64.5
t-64.5 -26.5t-64.5 27t-26.5 64q0 38 26.5 64.5t64.5 26.5z" />
    <glyph glyph-name="ff" unicode="ff" horiz-adv-x="800" 
d="M260 486h155v-116h-155v-370h-145v370h-95v116h95v41q0 86 48 134.5t132 48.5q39 0 71.5 -5t45.5 -11l13 -5l-17 -110q-28 13 -71 13q-77 0 -77 -76v-30zM625 486h155v-116h-155v-370h-145v510q0 96 49.5 148t138.5 52q37 0 67.5 -5t42.5 -11l12 -5l-17 -108
q-25 11 -68 11q-38 0 -59 -22t-21 -64v-20z" />
    <glyph glyph-name="ft" unicode="ft" horiz-adv-x="815" 
d="M260 486h155v-116h-155v-370h-145v370h-95v116h95v41q0 86 48 134.5t132 48.5q39 0 71.5 -5t45.5 -11l13 -5l-17 -110q-28 13 -71 13q-77 0 -77 -76v-30zM625 516h160v-120h-160v-205q0 -68 62 -68q18 0 38.5 2.5t31.5 5.5l11 3l17 -120q-54 -24 -136 -24
q-78 0 -123.5 42.5t-45.5 121.5v486h145v-124z" />
    <glyph glyph-name="rf" unicode="rf" horiz-adv-x="775" 
d="M600 486h155v-116h-155v-370h-145v510q0 96 49.5 148t138.5 52q37 0 67.5 -5t42.5 -11l12 -5l-17 -108q-25 11 -68 11q-38 0 -59 -22t-21 -64v-20zM60 516h129l8 -100q56 110 193 110l-3 -148h-30q-152 0 -152 -167v-211h-145v516z" />
    <glyph glyph-name="rt" unicode="rt" horiz-adv-x="790" 
d="M600 516h160v-120h-160v-205q0 -68 62 -68q18 0 38.5 2.5t31.5 5.5l11 3l17 -120q-54 -24 -136 -24q-78 0 -123.5 42.5t-45.5 121.5v486h145v-124zM205 0h-145v516h129l8 -100q56 110 193 110l-3 -148h-30q-152 0 -152 -170v-208z" />
    <glyph glyph-name="tf" unicode="tf" horiz-adv-x="805" 
d="M630 486h155v-116h-155v-370h-145v510q0 96 49.5 148t138.5 52q37 0 67.5 -5t42.5 -11l12 -5l-17 -108q-25 11 -68 11q-38 0 -59 -22t-21 -64v-20zM260 516h160v-116h-160v-209q0 -68 62 -68q18 0 38.5 2.5t31.5 5.5l11 3l17 -120q-54 -24 -136 -24q-78 0 -123.5 42.5
t-45.5 121.5v246h-95v116h95v124h145v-124z" />
    <glyph glyph-name="tt" unicode="tt" horiz-adv-x="820" 
d="M260 516h160v-116h-160v-209q0 -68 62 -68q18 0 38.5 2.5t31.5 5.5l11 3l17 -120q-54 -24 -136 -24q-78 0 -123.5 42.5t-45.5 121.5v246h-95v116h95v124h145v-124zM630 516h160v-116h-160v-209q0 -68 62 -68q18 0 38.5 2.5t31.5 5.5l11 3l17 -120q-54 -24 -136 -24
q-78 0 -123.5 42.5t-45.5 121.5v486h145v-124z" />
    <glyph glyph-name="rtf" unicode="rtf" horiz-adv-x="1145" 
d="M970 486h155v-116h-155v-370h-145v510q0 96 49.5 148t138.5 52q37 0 67.5 -5t42.5 -11l12 -5l-17 -108q-25 11 -68 11q-38 0 -59 -22t-21 -64v-20zM600 516h160v-120h-160v-205q0 -68 62 -68q18 0 38.5 2.5t31.5 5.5l11 3l17 -120q-54 -24 -136 -24q-78 0 -123.5 42.5
t-45.5 121.5v486h145v-124zM205 0h-145v516h129l8 -100q56 110 193 110l-3 -148h-30q-152 0 -152 -170v-208z" />
    <glyph glyph-name=".notdef" horiz-adv-x="691" 
d="M20 700h651v-700h-651v700zM540 508l-36 36l-159 -158l-158 159l-36 -36l158 -159l-159 -159l36 -36l159 159l159 -159l36 36l-159 159z" />
    <glyph glyph-name=".null" horiz-adv-x="0" 
 />
    <glyph glyph-name="nonmarkingreturn" horiz-adv-x="333" 
 />
    <glyph glyph-name="space" unicode=" " horiz-adv-x="277" 
 />
    <glyph glyph-name="exclam" unicode="!" horiz-adv-x="323" 
d="M73 700h177l-33 -463h-111zM162 172q38 0 64.5 -26.5t26.5 -64.5q0 -37 -26.5 -64t-64.5 -27t-65 26.5t-27 64.5t27 64.5t65 26.5z" />
    <glyph glyph-name="quotedbl" unicode="&#x22;" horiz-adv-x="403" 
d="M50 400v300h114v-300h-114zM239 400v300h114v-300h-114z" />
    <glyph glyph-name="numbersign" unicode="#" 
d="M332 149h-110l-29 -149h-95l29 149h-87v87h105l25 128h-90v87h108l30 149h95l-30 -149h110l30 149h95l-30 -149h87v-87h-105l-25 -128h90v-87h-108l-29 -149h-95zM240 236h110l25 128h-110z" />
    <glyph glyph-name="dollar" unicode="$" horiz-adv-x="563" 
d="M229 310q-159 75 -159 207q0 73 50 123.5t130 61.5v98h84v-97q37 -5 69.5 -18.5t52.5 -29.5t35 -31.5t21 -25.5l6 -10l-105 -75q-5 8 -14 20t-40 31.5t-65 19.5t-54.5 -17t-20.5 -43q0 -31 25.5 -55t89.5 -55q182 -87 182 -220q0 -78 -50.5 -130.5t-131.5 -65.5v-98h-84
v95q-43 4 -81.5 19t-61.5 34t-40.5 37.5t-24.5 30.5l-7 13l106 75q2 -4 6.5 -10t19 -21t30 -27t40 -21.5t49.5 -9.5q36 0 58.5 19t22.5 49q0 33 -30.5 61.5t-107.5 65.5z" />
    <glyph glyph-name="percent" unicode="%" horiz-adv-x="770" 
d="M40 456q0 66 45.5 110t112.5 44t111.5 -43t44.5 -109t-45.5 -110t-112.5 -44t-111.5 43t-44.5 109zM542 600h97l-411 -600h-98zM133 457q0 -29 18 -47.5t46 -18.5t46 18.5t18 47.5t-18 47.5t-46 18.5t-46 -18.5t-18 -47.5zM415 142q0 67 45.5 111t112.5 44t112 -43
t45 -110q0 -66 -46 -110t-113 -44t-111.5 43t-44.5 109zM509 143q0 -28 18 -46.5t45 -18.5q28 0 46 18.5t18 46.5q0 29 -18 47.5t-46 18.5q-27 0 -45 -19t-18 -47z" />
    <glyph glyph-name="ampersand" unicode="&#x26;" horiz-adv-x="735" 
d="M725 400l-174 -217l174 -183h-160l-90 92q-53 -56 -103 -79t-117 -23q-90 0 -155 57.5t-65 141.5q0 64 34 114t110 92q-69 80 -69 151q0 69 55.5 116.5t145.5 47.5q91 0 143.5 -48t52.5 -115q0 -104 -132 -179l94 -99l109 131h147zM244 542q0 -22 13 -42t44 -54
q84 38 84 91q0 28 -19.5 47t-51.5 19q-31 0 -50.5 -17.5t-19.5 -43.5zM271 112q63 0 120 65l-136 139q-83 -48 -83 -111q0 -40 28 -66.5t71 -26.5z" />
    <glyph glyph-name="quotesingle" unicode="'" horiz-adv-x="214" 
d="M50 400v300h114v-300h-114z" />
    <glyph glyph-name="parenleft" unicode="(" horiz-adv-x="432" 
d="M343 -100q-6 2 -16.5 7t-40.5 23t-57 40t-60 60t-57 81t-40.5 105t-16.5 131t16 131.5t41.5 106.5t56 82t61 61.5t56 40.5t41.5 24l16 7l64 -101q-9 -4 -23 -12.5t-50.5 -39t-64 -67t-50.5 -98.5t-23 -132q0 -51 11.5 -97.5t30 -80.5t41.5 -63.5t45.5 -48.5t41 -33
t30.5 -20l11 -6z" />
    <glyph glyph-name="parenright" unicode=")" horiz-adv-x="432" 
d="M89 800q6 -2 16.5 -7t40.5 -23t57 -40t60 -60t57 -81t40.5 -105t16.5 -131t-16 -131.5t-41.5 -106.5t-56 -82t-61 -61.5t-56 -40.5t-41.5 -24l-16 -7l-64 101q9 4 23 12.5t50.5 39t64 67t50.5 98.5t23 132q0 51 -11.5 97.5t-30 80.5t-41.5 63.5t-45.5 48.5t-41 33
t-30.5 20l-11 6z" />
    <glyph glyph-name="asterisk" unicode="*" horiz-adv-x="498" 
d="M291 555l134 56l33 -102l-141 -34l94 -110l-87 -63l-75 123l-76 -123l-86 63l93 110l-140 34l33 102l133 -56l-11 145h108z" />
    <glyph glyph-name="plus" unicode="+" 
d="M366 412h199v-114h-199v-206h-116v206h-200v114h200v206h116v-206z" />
    <glyph glyph-name="comma" unicode="," horiz-adv-x="262" 
d="M40 -130l28 300h154l-69 -300h-113z" />
    <glyph glyph-name="hyphen" unicode="-" horiz-adv-x="420" 
d="M50 291v128h320v-128h-320z" />
    <glyph glyph-name="period" unicode="." horiz-adv-x="282" 
d="M141 172q37 0 64 -27t27 -64q0 -38 -26.5 -64.5t-64.5 -26.5t-64.5 26.5t-26.5 64.5t26.5 64.5t64.5 26.5z" />
    <glyph glyph-name="slash" unicode="/" horiz-adv-x="533" 
d="M410 780h123l-410 -860h-123z" />
    <glyph glyph-name="zero" unicode="0" 
d="M57 455q0 118 71 186.5t181 68.5q111 0 179.5 -66t68.5 -184v-215q0 -118 -71.5 -186.5t-181.5 -68.5t-178.5 66t-68.5 184v215zM202 230q0 -49 29 -78t76 -29t76 29.5t29 77.5v240q0 48 -29 77.5t-76 29.5t-76 -29.5t-29 -77.5v-240z" />
    <glyph glyph-name="one" unicode="1" horiz-adv-x="490" 
d="M270 700h120v-700h-145v530l-161 -105l-69 97z" />
    <glyph glyph-name="two" unicode="2" horiz-adv-x="565" 
d="M293 350q44 43 61 73t17 66q0 39 -27.5 65.5t-70.5 26.5q-38 0 -70 -22.5t-45 -44.5l-13 -22l-105 68q2 6 7 16t25 36t45.5 46t71 36t98.5 16q99 0 164 -58.5t65 -145.5q0 -68 -29 -120.5t-97 -117.5l-148 -143h269v-125h-460v111z" />
    <glyph glyph-name="three" unicode="3" horiz-adv-x="560" 
d="M243 415q49 0 75.5 23t26.5 62q0 38 -26.5 61t-68.5 23q-35 0 -60.5 -15t-33.5 -30l-8 -15l-105 61q2 5 6.5 13.5t23 30t41 38t62.5 30t86 13.5q96 0 162 -52.5t66 -136.5q0 -50 -26.5 -90.5t-72.5 -65.5q56 -25 87.5 -69t31.5 -102q0 -91 -71.5 -147.5t-182.5 -56.5
q-50 0 -93 14t-68.5 33.5t-44 39t-25.5 33.5l-7 14l108 65q1 -3 4 -8t14.5 -18t24.5 -22.5t36 -17.5t48 -8q50 0 81 27.5t31 66.5q0 42 -32 69t-91 27h-69v110h70z" />
    <glyph glyph-name="four" unicode="4" 
d="M340 700h142v-431h100v-114h-100v-155h-138v155h-312v117zM344 269v261l-192 -261h192z" />
    <glyph glyph-name="five" unicode="5" horiz-adv-x="593" 
d="M78 700h430v-125h-300v-146q49 36 112 36q99 0 161 -65t62 -160q0 -109 -72.5 -179.5t-186.5 -70.5q-46 0 -87 13t-66.5 32t-45 38t-27.5 32l-8 13l108 77q2 -3 5 -8t14 -17t24.5 -21.5t35 -17.5t45.5 -8q53 0 84.5 31.5t31.5 81.5q0 43 -29.5 73t-76.5 30
q-29 0 -51.5 -12.5t-30.5 -24.5l-8 -12h-124v410z" />
    <glyph glyph-name="six" unicode="6" 
d="M295 700h162l-170 -246q24 11 54 11q92 0 158 -63t66 -157q0 -111 -75.5 -183t-184.5 -72q-106 0 -180.5 70t-74.5 176q0 100 62 192zM307 123q50 0 81.5 33t31.5 83t-31.5 82.5t-81.5 32.5t-81 -33t-31 -82q0 -50 31 -83t81 -33z" />
    <glyph glyph-name="seven" unicode="7" horiz-adv-x="535" 
d="M340 571h-307v129h470v-100l-278 -600h-157z" />
    <glyph glyph-name="eight" unicode="8" 
d="M310 710q100 0 164 -53.5t64 -138.5q0 -87 -80 -143q50 -28 78.5 -71.5t28.5 -95.5q0 -94 -74 -156t-186 -62q-113 0 -184 59.5t-71 153.5q0 51 28 95.5t77 72.5q-79 53 -79 142q0 85 66.5 141t167.5 56zM307 420q40 0 65 23.5t25 60.5t-25 60.5t-65 23.5t-65 -23.5
t-25 -60.5t25 -60.5t65 -23.5zM307 112q49 0 81 29t32 75t-32 75.5t-81 29.5t-80.5 -29.5t-31.5 -75.5t31.5 -75t80.5 -29z" />
    <glyph glyph-name="nine" unicode="9" 
d="M320 0h-162l170 246q-24 -11 -54 -11q-92 0 -158 63t-66 157q0 111 75.5 183t184.5 72q106 0 180.5 -70t74.5 -176q0 -100 -62 -192zM308 577q-50 0 -81.5 -33t-31.5 -83t31.5 -82.5t81.5 -32.5t81 33t31 82q0 50 -31 83t-81 33z" />
    <glyph glyph-name="colon" unicode=":" horiz-adv-x="282" 
d="M141 526q37 0 64 -27t27 -64q0 -38 -26.5 -64.5t-64.5 -26.5t-64.5 26.5t-26.5 64.5t26.5 64.5t64.5 26.5zM141 172q37 0 64 -27t27 -64q0 -38 -26.5 -64.5t-64.5 -26.5t-64.5 26.5t-26.5 64.5t26.5 64.5t64.5 26.5z" />
    <glyph glyph-name="semicolon" unicode=";" horiz-adv-x="282" 
d="M141 526q37 0 64 -27t27 -64q0 -38 -26.5 -64.5t-64.5 -26.5t-64.5 26.5t-26.5 64.5t26.5 64.5t64.5 26.5zM40 -130l28 300h154l-69 -300h-113z" />
    <glyph glyph-name="less" unicode="&#x3c;" 
d="M180 357l385 -149v-131l-515 218v120l515 217v-126z" />
    <glyph glyph-name="equal" unicode="=" 
d="M50 395v114h515v-114h-515zM50 181v114h515v-114h-515z" />
    <glyph glyph-name="greater" unicode="&#x3e;" 
d="M435 352l-385 149v131l515 -218v-120l-515 -217v126z" />
    <glyph glyph-name="question" unicode="?" horiz-adv-x="540" 
d="M340 492q0 34 -22.5 57t-57.5 23q-23 0 -42.5 -8.5t-31 -20t-19.5 -23.5t-11 -20l-3 -9l-115 69q2 6 6 16t22.5 36t42 46t67 36t95.5 16q93 0 156 -57t63 -137q0 -52 -23 -94t-51 -65t-56 -55t-35 -65h-130q0 38 15 69.5t36 53l42.5 41.5t36.5 43t15 48zM260 172
q38 0 64.5 -26.5t26.5 -64.5q0 -37 -26.5 -64t-64.5 -27t-65 26.5t-27 64.5t27 64.5t65 26.5z" />
    <glyph glyph-name="at" unicode="@" horiz-adv-x="981" 
d="M591 -129q-60 -15 -102 -15q-190 0 -317 121t-127 298q0 182 129 308.5t318 126.5t316.5 -124.5t127.5 -307.5q0 -127 -67.5 -216.5t-166.5 -89.5q-63 0 -99.5 40.5t-33.5 105.5q-52 -43 -126 -43q-92 0 -147 66t-42 161q12 88 74.5 139.5t145.5 51.5q82 0 129 -55l15 47
h89l14 -15l-48 -341q-4 -30 9 -47.5t39 -17.5q43 0 80.5 59.5t37.5 146.5q0 156 -97.5 252.5t-251.5 96.5q-147 0 -247.5 -99t-100.5 -243q0 -140 100.5 -237t247.5 -97q44 0 76 9zM481 383q-42 0 -70 -24.5t-34 -65.5q-6 -45 20 -76t71 -31q42 0 71 24t35 65q6 44 -21 76
t-72 32z" />
    <glyph glyph-name="A" unicode="A" horiz-adv-x="720" 
d="M720 0h-168l-56 147h-280l-56 -147h-160l284 700h152zM258 268h195l-97 257z" />
    <glyph glyph-name="B" unicode="B" horiz-adv-x="690" 
d="M394 700q99 0 159.5 -50t60.5 -129q0 -50 -25.5 -90.5t-71.5 -64.5q60 -20 94 -66t34 -106q0 -83 -65.5 -138.5t-167.5 -55.5h-332v700h314zM361 415q46 0 73 24t27 59q0 36 -27 60t-73 24h-128v-167h128zM233 117h151q50 0 79.5 27.5t29.5 67.5t-29.5 66.5t-79.5 26.5
h-151v-188z" />
    <glyph glyph-name="C" unicode="C" horiz-adv-x="715" 
d="M45 347q0 152 107 257.5t263 105.5q52 0 98.5 -11.5t76.5 -28t52 -33.5t32 -29l10 -11l-112 -98q-2 3 -6 7.5t-19 16.5t-31.5 21.5t-44.5 17t-58 7.5q-93 0 -154 -63t-61 -156q0 -94 61 -157t154 -63q32 0 61 8.5t48 20t33 23.5t21 20l6 9l108 -96l-11 -13.5t-32 -30
t-55 -38t-79 -30t-103 -13.5q-156 0 -260.5 102.5t-104.5 254.5z" />
    <glyph glyph-name="D" unicode="D" horiz-adv-x="760" 
d="M330 700q168 0 276.5 -99t108.5 -249t-111 -251t-279 -101h-245v700h250zM233 132h100q100 0 165 62t65 156t-65 155.5t-165 61.5h-100v-435z" />
    <glyph glyph-name="E" unicode="E" horiz-adv-x="650" 
d="M80 0v700h515v-133h-362v-145h312v-124h-312v-166h372v-132h-525z" />
    <glyph glyph-name="F" unicode="F" horiz-adv-x="610" 
d="M233 262v-262h-153v700h505v-133h-352v-176h302v-129h-302z" />
    <glyph glyph-name="G" unicode="G" horiz-adv-x="800" 
d="M753 380q2 -19 2 -39q-1 -149 -97.5 -250t-247.5 -101q-156 0 -260.5 103t-104.5 255t107 257t263 105q52 0 98.5 -11t76 -27t52 -32t32.5 -27l9 -11l-106 -108q-2 3 -6.5 8t-20 18.5t-33 23.5t-46 18t-59.5 8q-93 0 -154 -63t-61 -158t61 -158.5t154 -63.5
q73 0 123 38.5t63 104.5h-193v110h348z" />
    <glyph glyph-name="H" unicode="H" horiz-adv-x="770" 
d="M538 295h-305v-295h-153v700h153v-269h305v269h152v-700h-152v295z" />
    <glyph glyph-name="I" unicode="I" horiz-adv-x="327" 
d="M85 700h157v-700h-157v700z" />
    <glyph glyph-name="J" unicode="J" horiz-adv-x="490" 
d="M264 700h156v-439q0 -123 -73.5 -197t-189.5 -74q-44 0 -80.5 8t-51.5 16l-15 7l40 133q34 -20 94 -20q53 0 86.5 36.5t33.5 99.5v430z" />
    <glyph glyph-name="K" unicode="K" horiz-adv-x="708" 
d="M233 339v-339h-153v700h153v-319l275 319h185l-308 -332l328 -368h-185z" />
    <glyph glyph-name="L" unicode="L" horiz-adv-x="590" 
d="M80 0v700h153v-564h342v-136h-495z" />
    <glyph glyph-name="M" unicode="M" horiz-adv-x="890" 
d="M227 441v-441h-147v700h157l212 -406l212 406h149v-700h-147v441l-178 -336h-80z" />
    <glyph glyph-name="N" unicode="N" horiz-adv-x="790" 
d="M229 472v-472h-149v700h158l323 -460v460h149v-700h-149z" />
    <glyph glyph-name="O" unicode="O" horiz-adv-x="825" 
d="M415 710q156 0 260.5 -103t104.5 -255t-107 -257t-263 -105t-260.5 102.5t-104.5 254.5t107 257.5t263 105.5zM413 130q92 0 153.5 63t61.5 157q0 93 -61.5 156t-153.5 63q-93 0 -154 -63t-61 -156q0 -94 61 -157t154 -63z" />
    <glyph glyph-name="P" unicode="P" horiz-adv-x="685" 
d="M80 700h303q118 0 190 -65.5t72 -171.5q0 -105 -74.5 -173t-192.5 -68h-145v-222h-153v700zM233 571v-224h135q56 0 90.5 31.5t34.5 80.5t-34.5 80.5t-90.5 31.5h-135z" />
    <glyph glyph-name="Q" unicode="Q" horiz-adv-x="825" 
d="M415 710q156 0 260.5 -103t104.5 -255q0 -98 -47 -179t-128 -128l124 -165h-174l-85 116q-28 -6 -60 -6q-156 0 -260.5 102.5t-104.5 254.5t107 257.5t263 105.5zM413 130q92 0 153.5 63t61.5 157q0 93 -61.5 156t-153.5 63q-93 0 -154 -63t-61 -156q0 -94 61 -157
t154 -63z" />
    <glyph glyph-name="R" unicode="R" horiz-adv-x="700" 
d="M80 700h313q112 0 182 -63t70 -164q0 -74 -39.5 -130t-107.5 -81l177 -262h-177l-157 241h-108v-241h-153v700zM233 571v-212h141q55 0 87 29.5t32 76.5t-32 76.5t-87 29.5h-141z" />
    <glyph glyph-name="S" unicode="S" horiz-adv-x="585" 
d="M340 419q200 -78 200 -219q0 -90 -70 -150t-183 -60q-49 0 -94.5 11t-75.5 26t-53 30.5t-34 26.5l-10 11l90 97q3 -3 9 -8.5t25 -19t39.5 -23.5t51 -18.5t60.5 -8.5q39 0 64 19.5t25 49.5q0 35 -34 62.5t-125 64.5q-167 65 -167 201q0 87 67 143t176 56q43 0 83 -9.5
t66.5 -22.5t47.5 -26t30 -22l10 -10l-90 -97q-7 7 -19 17.5t-49.5 28t-76.5 17.5q-42 0 -65.5 -19t-23.5 -44q0 -31 26.5 -53.5t99.5 -50.5z" />
    <glyph glyph-name="T" unicode="T" horiz-adv-x="590" 
d="M371 567v-567h-152v567h-204v133h560v-133h-204z" />
    <glyph glyph-name="U" unicode="U" horiz-adv-x="740" 
d="M670 700v-410q0 -134 -84 -217t-218 -83q-135 0 -216.5 80.5t-81.5 214.5v415h155v-410q0 -72 41 -116t107 -44t106.5 44t40.5 116v410h150z" />
    <glyph glyph-name="V" unicode="V" horiz-adv-x="710" 
d="M0 700h172l187 -503l187 503h164l-279 -700h-152z" />
    <glyph glyph-name="W" unicode="W" horiz-adv-x="1005" 
d="M0 700h168l147 -468l137 468h109l137 -468l147 468h160l-236 -700h-133l-134 442l-132 -442h-134z" />
    <glyph glyph-name="X" unicode="X" horiz-adv-x="718" 
d="M354 244l-177 -244h-177l269 356l-258 344h186l166 -229l167 229h177l-259 -342l270 -358h-185z" />
    <glyph glyph-name="Y" unicode="Y" horiz-adv-x="690" 
d="M269 260l-269 440h177l172 -295l172 295h169l-269 -440v-260h-152v260z" />
    <glyph glyph-name="Z" unicode="Z" horiz-adv-x="680" 
d="M50 0v111l375 460h-355v129h560v-111l-375 -460h375v-129h-580z" />
    <glyph glyph-name="bracketleft" unicode="[" horiz-adv-x="435" 
d="M80 -80v860h320v-121h-179v-618h179v-121h-320z" />
    <glyph glyph-name="backslash" unicode="\" horiz-adv-x="533" 
d="M533 -80h-123l-410 860h123z" />
    <glyph glyph-name="bracketright" unicode="]" horiz-adv-x="435" 
d="M35 -80v121h179v618h-179v121h320v-860h-320z" />
    <glyph glyph-name="asciicircum" unicode="^" horiz-adv-x="590" 
d="M295 572l-112 -252h-138l193 380h113l194 -380h-137z" />
    <glyph glyph-name="underscore" unicode="_" horiz-adv-x="600" 
d="M0 -142v92h600v-92h-600z" />
    <glyph glyph-name="grave" unicode="`" horiz-adv-x="370" 
d="M80 740h153l67 -168h-114z" />
    <glyph glyph-name="a" unicode="a" horiz-adv-x="570" 
d="M238 309q79 0 132 -37v22q0 53 -32.5 82t-85.5 29q-35 0 -67 -10t-47 -20l-14 -10l-59 93q9 8 25.5 19t72.5 30t118 19q109 0 171.5 -62t62.5 -172v-292h-113l-11 44q-59 -54 -158 -54q-91 0 -144.5 43.5t-53.5 113.5t56 116t147 46zM276 83q46 0 72.5 19.5t26.5 50.5
q0 30 -27 50t-72 20q-43 0 -69.5 -20t-26.5 -50q0 -31 26 -50.5t70 -19.5z" />
    <glyph glyph-name="b" unicode="b" horiz-adv-x="649" 
d="M60 700h145v-248q61 74 159 74q103 0 176.5 -76.5t73.5 -188.5q0 -113 -75 -192t-180 -79q-106 0 -167 82l-11 -72h-121v700zM334 123q58 0 96.5 39t38.5 96t-38.5 96t-96.5 39q-57 0 -95.5 -39t-38.5 -96t38.5 -96t95.5 -39z" />
    <glyph glyph-name="c" unicode="c" horiz-adv-x="540" 
d="M520 84q-3 -4 -8.5 -10t-25 -22.5t-41.5 -29t-58 -22.5t-75 -10q-120 0 -198.5 76t-78.5 190t81 192t201 78q38 0 72 -9t56.5 -21t39.5 -24.5t25 -21.5l7 -9l-99 -97q-4 5 -11.5 13.5t-34 22t-58.5 13.5q-57 0 -95.5 -39t-38.5 -96t38.5 -96t95.5 -39q34 0 61 13.5
t37 27.5l10 13z" />
    <glyph glyph-name="d" unicode="d" horiz-adv-x="649" 
d="M589 0h-121l-12 77q-64 -87 -172 -87q-103 0 -176 77t-73 189q0 113 75 191.5t179 78.5q97 0 155 -69v243h145v-700zM314 393q-57 0 -95.5 -39t-38.5 -96t38.5 -96t95.5 -39q58 0 96.5 39t38.5 96t-38.5 96t-96.5 39z" />
    <glyph glyph-name="e" unicode="e" horiz-adv-x="606" 
d="M181 230q8 -52 46 -83.5t95 -31.5q40 0 74 15.5t48 31.5l14 15l86 -83l-8.5 -11t-26 -25t-45 -32t-65.5 -25t-87 -11q-120 0 -198.5 76t-78.5 190t80.5 192t198.5 78q107 0 182 -73t75 -175q0 -13 -2 -25t-4 -17l-2 -6h-382zM311 420q-48 0 -83 -28t-44 -73h247
q-7 43 -41 72t-79 29z" />
    <glyph glyph-name="f" unicode="f" horiz-adv-x="435" 
d="M260 486h155v-116h-155v-370h-145v370h-95v116h95v41q0 87 48 135t132 48q38 0 70.5 -5t46.5 -11l13 -5l-17 -110q-29 13 -72 13q-76 0 -76 -76v-30z" />
    <glyph glyph-name="g" unicode="g" horiz-adv-x="649" 
d="M92 13q9 -7 26 -17t67.5 -27t98.5 -17q76 0 118 37.5t42 107.5v11q-56 -63 -156 -63q-107 0 -180 69.5t-73 168.5q0 104 72.5 173.5t185.5 69.5q100 0 165 -71l10 61h121v-387q0 -137 -77.5 -218t-215.5 -81q-45 0 -88 8t-72 19.5t-52 22.5t-34 19l-11 8zM314 405
q-57 0 -95.5 -36t-38.5 -87t38.5 -87t95.5 -36t96 36t39 87t-39 87t-96 36z" />
    <glyph glyph-name="h" unicode="h" 
d="M60 700h145v-256q55 82 160 82q84 0 139.5 -56.5t55.5 -155.5v-314h-145v268q0 62 -28 93.5t-73 31.5q-48 0 -78.5 -31t-30.5 -92v-270h-145v700z" />
    <glyph glyph-name="i" unicode="i" horiz-adv-x="277" 
d="M138 748q40 0 66 -25.5t26 -63.5q0 -39 -26 -64.5t-66 -25.5t-65.5 25.5t-25.5 64.5q0 38 25.5 63.5t65.5 25.5zM65 516h147v-516h-147v516z" />
    <glyph glyph-name="j" unicode="j" horiz-adv-x="277" 
d="M138 748q40 0 66 -25.5t26 -63.5q0 -39 -26 -64.5t-66 -25.5t-65.5 25.5t-25.5 64.5q0 38 25.5 63.5t65.5 25.5zM212 516v-474q0 -104 -50.5 -158t-143.5 -54q-18 0 -38 3t-30 5l-11 3l18 119q19 -5 41 -5q67 0 67 75v486h147z" />
    <glyph glyph-name="k" unicode="k" horiz-adv-x="592" 
d="M60 700h145v-409l198 225h174l-227 -234l247 -282h-177l-215 257v-257h-145v700z" />
    <glyph glyph-name="l" unicode="l" horiz-adv-x="277" 
d="M65 700h147v-700h-147v700z" />
    <glyph glyph-name="m" unicode="m" horiz-adv-x="950" 
d="M60 516h129l6 -78q55 88 165 88q57 0 102 -28t68 -80q24 52 70.5 80t104.5 28q83 0 136.5 -56t53.5 -154v-316h-145v269q0 62 -26.5 93t-69.5 31q-45 0 -74.5 -30t-29.5 -89v-274h-145v269q0 62 -26.5 93t-69.5 31q-45 0 -74.5 -30t-29.5 -89v-274h-145v516z" />
    <glyph glyph-name="n" unicode="n" 
d="M205 0h-145v516h129l7 -79q55 89 170 89q85 0 139.5 -56t54.5 -156v-314h-145v268q0 62 -27.5 93.5t-72.5 31.5q-49 0 -79.5 -32t-30.5 -98v-263z" />
    <glyph glyph-name="o" unicode="o" horiz-adv-x="629" 
d="M317 526q120 0 198.5 -75.5t78.5 -189.5t-81 -192.5t-201 -78.5t-198.5 76t-78.5 190t81 192t201 78zM314 123q58 0 96.5 39t38.5 96t-38.5 96t-96.5 39q-57 0 -95.5 -39t-38.5 -96t38.5 -96t95.5 -39z" />
    <glyph glyph-name="p" unicode="p" horiz-adv-x="649" 
d="M60 516h121l12 -77q63 87 171 87q103 0 176.5 -76.5t73.5 -188.5q0 -113 -75 -192t-180 -79q-96 0 -154 68v-218h-145v676zM334 123q58 0 96.5 39t38.5 96t-38.5 96t-96.5 39q-57 0 -95.5 -39t-38.5 -96t38.5 -96t95.5 -39z" />
    <glyph glyph-name="q" unicode="q" horiz-adv-x="649" 
d="M589 -160h-145v223q-62 -73 -160 -73q-103 0 -176 77t-73 189q0 113 75 191.5t179 78.5q106 0 167 -82l12 72h121v-676zM314 393q-57 0 -95.5 -39t-38.5 -96t38.5 -96t95.5 -39q58 0 96.5 39t38.5 96t-38.5 96t-96.5 39z" />
    <glyph glyph-name="r" unicode="r" horiz-adv-x="414" 
d="M60 516h129l8 -100q54 110 192 110l-2 -148h-30q-152 0 -152 -165v-213h-145v516z" />
    <glyph glyph-name="s" unicode="s" horiz-adv-x="469" 
d="M276 313q76 -22 117 -64t41 -96q0 -72 -55 -117.5t-152 -45.5q-59 0 -112 19t-77 37l-23 19l62 92q8 -7 21 -17t52.5 -26.5t75.5 -16.5q30 0 47.5 12.5t17.5 31.5q0 22 -22 39t-88 38q-69 22 -105.5 61.5t-36.5 93.5q0 64 53 108.5t145 44.5q32 0 64 -6.5t54 -16
t40 -19.5t27 -16l8 -7l-62 -94q-6 6 -17.5 14.5t-44.5 23t-64 14.5q-29 0 -45 -11.5t-16 -27.5q0 -19 19.5 -34.5t75.5 -32.5z" />
    <glyph glyph-name="t" unicode="t" horiz-adv-x="450" 
d="M260 516h160v-116h-160v-209q0 -68 61 -68q18 0 38.5 2.5t32.5 5.5l11 3l17 -120q-55 -24 -136 -24q-79 0 -124 42.5t-45 121.5v246h-95v116h95v124h145v-124z" />
    <glyph glyph-name="u" unicode="u" 
d="M410 516h145v-516h-129l-7 79q-55 -89 -170 -89q-85 0 -139.5 56t-54.5 156v314h145v-268q0 -62 27.5 -93.5t72.5 -31.5q49 0 79.5 32t30.5 98v263z" />
    <glyph glyph-name="v" unicode="v" horiz-adv-x="542" 
d="M-5 516h161l119 -327l119 327h153l-205 -516h-141z" />
    <glyph glyph-name="w" unicode="w" horiz-adv-x="795" 
d="M-5 516h157l99 -321l96 321h109l94 -317l100 317h150l-175 -516h-137l-91 296l-91 -296h-137z" />
    <glyph glyph-name="x" unicode="x" horiz-adv-x="577" 
d="M376 267l206 -267h-171l-125 167l-128 -167h-163l206 262l-196 254h171l115 -155l118 155h163z" />
    <glyph glyph-name="y" unicode="y" horiz-adv-x="542" 
d="M-5 516h161l119 -342l119 342h153l-206 -521q-65 -165 -212 -165q-37 0 -70.5 8.5t-48.5 17.5l-15 8l45 117q28 -22 82 -22q53 0 76 48z" />
    <glyph glyph-name="z" unicode="z" horiz-adv-x="535" 
d="M297 395h-242v121h440v-104l-257 -290h257v-122h-455v104z" />
    <glyph glyph-name="braceleft" unicode="{" horiz-adv-x="475" 
d="M281 97q0 -60 60 -60h99v-117h-134q-85 0 -125.5 40.5t-40.5 125.5v163q0 48 -47 48h-58v106h58q47 0 47 47v164q0 85 40.5 125.5t125.5 40.5h134v-118h-99q-31 0 -45.5 -14t-14.5 -46v-140q0 -107 -83 -112q83 -7 83 -112v-141z" />
    <glyph glyph-name="bar" unicode="|" horiz-adv-x="335" 
d="M110 800h115v-900h-115v900z" />
    <glyph glyph-name="braceright" unicode="}" horiz-adv-x="475" 
d="M194 603q0 60 -60 60h-99v117h134q85 0 125.5 -40.5t40.5 -125.5v-163q0 -48 47 -48h58v-106h-58q-47 0 -47 -47v-164q0 -85 -40.5 -125.5t-125.5 -40.5h-134v118h99q31 0 45.5 14t14.5 46v140q0 106 83 112q-83 5 -83 112v141z" />
    <glyph glyph-name="asciitilde" unicode="~" 
d="M40 245q0 8 1 21.5t9.5 48.5t23.5 61.5t47.5 48t76.5 21.5q37 0 69 -16.5t51.5 -37t43.5 -37t47 -16.5q26 0 40.5 22t16.5 44l1 22l108 -12q0 -8 -1 -21.5t-9.5 -48.5t-23.5 -61.5t-47.5 -48t-76.5 -21.5q-37 0 -69.5 16.5t-51.5 36.5t-43 36.5t-47 16.5q-26 0 -40.5 -22
t-15.5 -44l-2 -22z" />
    <glyph glyph-name="exclamdown" unicode="&#xa1;" horiz-adv-x="323" 
d="M161 528q-38 0 -64.5 26.5t-26.5 64.5q0 37 27 64t64 27q38 0 65 -26.5t27 -64.5t-27 -64.5t-65 -26.5zM250 0h-177l33 463h111z" />
    <glyph glyph-name="cent" unicode="&#xa2;" horiz-adv-x="566" 
d="M274 180q-102 15 -165.5 86.5t-63.5 172.5q0 100 64 172.5t165 89.5v99h84v-96q50 -5 92.5 -25t59.5 -37l18 -18l-99 -96q-4 5 -11.5 13.5t-34.5 22t-58 13.5q-57 0 -96 -39t-39 -96t39 -96.5t96 -39.5q34 0 61 14t37 28l10 13l98 -94q-7 -8 -19.5 -21t-57.5 -37t-96 -30
v-96h-84v97z" />
    <glyph glyph-name="sterling" unicode="&#xa3;" horiz-adv-x="608" 
d="M120 0v301h-85v83h85v81q0 114 68.5 179.5t174.5 65.5q43 0 80 -12t60 -29t39.5 -34.5t23.5 -29.5l7 -12l-117 -77q-1 2 -2.5 6.5t-9.5 15t-17.5 18.5t-27.5 14.5t-39 6.5q-42 0 -68.5 -27t-26.5 -70v-96h205v-83h-205v-176h290v-125h-435z" />
    <glyph glyph-name="currency" unicode="&#xa4;" horiz-adv-x="678" 
d="M45 588l57 57l97 -94q65 44 142 44q76 0 139 -42l96 92l57 -57l-94 -90q50 -64 50 -146t-51 -149l95 -91l-57 -57l-97 94q-63 -44 -142 -44t-140 42l-95 -92l-57 57l94 89q-50 64 -50 147q0 81 51 148zM339 223q54 0 90 36t36 91q0 54 -36 90.5t-90 36.5t-90 -36.5
t-36 -90.5q0 -55 36 -91t90 -36z" />
    <glyph glyph-name="yen" unicode="&#xa5;" horiz-adv-x="650" 
d="M249 178h-214v76h214v53l-12 21h-202v76h158l-178 296h178l136 -260l137 260h169l-178 -296h158v-76h-202l-11 -21v-53h213v-76h-213v-178h-153v178z" />
    <glyph glyph-name="brokenbar" unicode="&#xa6;" horiz-adv-x="335" 
d="M225 455h-115v345h115v-345zM110 245h115v-345h-115v345z" />
    <glyph glyph-name="section" unicode="&#xa7;" horiz-adv-x="650" 
d="M390 455q115 -38 165 -86t50 -110q0 -50 -32.5 -89t-92.5 -59q45 -46 45 -104q0 -78 -60.5 -127.5t-160.5 -49.5q-61 0 -110.5 20t-69.5 40l-19 19l89 89q4 -5 13 -13t37 -21t58 -13q31 0 49 14t18 35q0 50 -109 86q-115 38 -165 85.5t-50 109.5q0 50 32.5 89t91.5 59
q-44 47 -44 105q0 78 60 127t160 49q38 0 73 -8t57 -19.5t38.5 -23t24.5 -19.5l7 -8l-89 -90l-13.5 13t-37 21.5t-58.5 13.5t-48 -14.5t-18 -35.5q0 -50 109 -85zM391 178q65 13 65 60q0 32 -32 57t-119 50q-32 9 -47 17q-64 -13 -64 -59q0 -31 32 -55t119 -52q23 -8 46 -18
z" />
    <glyph glyph-name="dieresis" unicode="&#xa8;" horiz-adv-x="510" 
d="M145 736q33 0 54.5 -21.5t21.5 -54.5q0 -32 -22.5 -54.5t-54.5 -22.5q-33 0 -54.5 21.5t-21.5 54.5t22 55t55 22zM366 736q33 0 54.5 -21.5t21.5 -54.5q0 -32 -22.5 -54.5t-54.5 -22.5q-33 0 -54.5 21.5t-21.5 54.5t22 55t55 22z" />
    <glyph glyph-name="copyright" unicode="&#xa9;" horiz-adv-x="826" 
d="M415 710q154 0 257.5 -103t103.5 -255t-105.5 -257t-259.5 -105t-257.5 103t-103.5 255t105.5 257t259.5 105zM413 67q118 0 199.5 82t81.5 201t-81.5 201t-199.5 82t-199.5 -82t-81.5 -201t81.5 -201t199.5 -82zM579 226q-6 -8 -17 -20.5t-52 -33t-90 -20.5
q-87 0 -142.5 56t-55.5 140t57 142t144 58q47 0 85.5 -17t53.5 -33l14 -17l-65 -58q-3 4 -9 11t-28 18t-49 11q-47 0 -79 -32.5t-32 -80.5q0 -49 32 -81t79 -32q28 0 50.5 11.5t31.5 23.5l9 11z" />
    <glyph glyph-name="ordfeminine" unicode="&#xaa;" horiz-adv-x="400" 
d="M177 573q45 0 74 -18v9q0 31 -17.5 47.5t-47.5 16.5q-21 0 -41.5 -6t-30.5 -12l-10 -6l-37 59q6 5 17 11.5t46.5 18t72.5 11.5q68 0 107.5 -38t39.5 -104v-176h-75l-8 24q-37 -30 -93 -30q-57 0 -90.5 26.5t-33.5 68.5q0 43 34.5 70.5t92.5 27.5zM200 438q24 0 39 12
t15 29t-15 29t-39 12t-38 -12t-14 -29t14 -29t38 -12zM60 334h290v-61h-290v61z" />
    <glyph glyph-name="guillemotleft" unicode="&#xab;" horiz-adv-x="777" 
d="M203 352l173 -177l-77 -82l-249 232v50l249 233l77 -78zM529 352l173 -177l-77 -82l-249 232v50l249 233l77 -78z" />
    <glyph glyph-name="logicalnot" unicode="&#xac;" 
d="M443 329h-393v113h515v-282h-122v169z" />
    <glyph glyph-name="registered" unicode="&#xae;" horiz-adv-x="536" 
d="M269 710q92 0 154.5 -62t62.5 -153t-63.5 -154t-155.5 -63t-154.5 62t-62.5 153t63.5 154t155.5 63zM268 327q69 0 117 48t48 119t-48 118.5t-117 47.5q-70 0 -117.5 -47.5t-47.5 -118.5t47.5 -119t117.5 -48zM187 599h96q34 0 55.5 -19.5t21.5 -50.5q0 -47 -43 -64
l52 -76h-60l-45 69h-26v-69h-51v210zM238 555v-57h38q33 0 33 28q0 29 -33 29h-38z" />
    <glyph glyph-name="macron" unicode="&#xaf;" horiz-adv-x="460" 
d="M50 702h360v-84h-360v84z" />
    <glyph glyph-name="degree" unicode="&#xb0;" horiz-adv-x="433" 
d="M218 710q75 0 125 -49.5t50 -123.5t-51 -124.5t-126 -50.5t-125.5 49.5t-50.5 123.5t51.5 124.5t126.5 50.5zM217 444q39 0 64 26t25 66t-25 66t-64 26q-40 0 -65 -26t-25 -66t25 -66t65 -26z" />
    <glyph glyph-name="plusminus" unicode="&#xb1;" 
d="M366 498h199v-114h-199v-176h-117v176h-199v114h199v175h117v-175zM50 28v114h515v-114h-515z" />
    <glyph glyph-name="uni00B2" unicode="&#xb2;" horiz-adv-x="354" 
d="M180 490q47 44 47 81q0 20 -15 34t-37 14t-40 -12.5t-25 -24.5l-7 -12l-73 46l5 10t16 21.5t28.5 27.5t43.5 21.5t60 9.5q63 0 102 -35.5t39 -88.5q0 -40 -18.5 -71.5t-60.5 -70.5l-83 -76h159v-84h-284v75z" />
    <glyph glyph-name="uni00B3" unicode="&#xb3;" horiz-adv-x="354" 
d="M159 531q27 0 41 13t14 34t-13.5 33t-36.5 12q-12 0 -22.5 -3.5t-16.5 -8.5t-10.5 -10.5t-6.5 -8.5l-1 -4l-72 40q1 3 4.5 8.5t15 19t25.5 23.5t38.5 18.5t52.5 8.5q61 0 101 -31.5t40 -81.5q0 -61 -58 -94q70 -33 70 -102q0 -55 -43.5 -89t-113.5 -34q-30 0 -56 8.5
t-42 21t-27.5 24.5t-16.5 20l-5 9l74 43q2 -5 6.5 -12t23 -19t42.5 -12q28 0 44 14t16 36q0 23 -17 38.5t-50 15.5h-42v70h42z" />
    <glyph glyph-name="acute" unicode="&#xb4;" horiz-adv-x="370" 
d="M184 572h-114l67 168h153z" />
    <glyph glyph-name="paragraph" unicode="&#xb6;" horiz-adv-x="789" 
d="M304 270h-23q-108 0 -174.5 59.5t-66.5 153.5t69 155.5t177 61.5h403v-700h-130v582h-125v-582h-130v270z" />
    <glyph glyph-name="periodcentered" unicode="&#xb7;" horiz-adv-x="282" 
d="M141 441q37 0 64 -26.5t27 -64.5t-26.5 -64.5t-64.5 -26.5t-64.5 26.5t-26.5 64.5t26.5 64.5t64.5 26.5z" />
    <glyph glyph-name="cedilla" unicode="&#xb8;" horiz-adv-x="355" 
d="M225 56q3 -1 9 -3.5t20.5 -12.5t26 -22t20.5 -33t9 -45q0 -62 -46 -98.5t-110 -36.5q-28 0 -54 6.5t-38 13.5l-12 7l30 84q23 -16 62 -16q29 0 46.5 14.5t17.5 39.5q0 14 -6 25.5t-12 16.5l-7 4z" />
    <glyph glyph-name="uni00B9" unicode="&#xb9;" horiz-adv-x="301" 
d="M169 700h82v-420h-98v305l-85 -57l-48 65z" />
    <glyph glyph-name="ordmasculine" unicode="&#xba;" horiz-adv-x="446" 
d="M225 704q75 0 123 -45.5t48 -114.5t-50 -116.5t-125 -47.5q-74 0 -122.5 45.5t-48.5 114.5t50.5 116.5t124.5 47.5zM223 468q32 0 53.5 21.5t21.5 52.5q0 32 -21.5 53.5t-53.5 21.5t-53 -21.5t-21 -53.5t21.5 -53t52.5 -21zM60 334h326v-61h-326v61z" />
    <glyph glyph-name="guillemotright" unicode="&#xbb;" horiz-adv-x="777" 
d="M248 348l-173 177l77 82l249 -232v-50l-249 -233l-77 78zM574 348l-173 177l77 82l249 -232v-50l-249 -233l-77 78z" />
    <glyph glyph-name="onequarter" unicode="&#xbc;" horiz-adv-x="834" 
d="M169 700h82v-420h-98v305l-85 -57l-48 65zM624 700h96l-493 -700h-97zM636 420h96v-255h62v-76h-62v-89h-90v89h-187v80zM642 165v149l-108 -149h108z" />
    <glyph glyph-name="onehalf" unicode="&#xbd;" horiz-adv-x="888" 
d="M169 700h82v-420h-98v305l-85 -57l-48 65zM624 700h96l-493 -700h-97zM694 210q47 44 47 81q0 20 -15 34t-37 14t-40 -12.5t-25 -24.5l-7 -12l-73 46l5 10t16 21.5t28.5 27.5t43.5 21.5t60 9.5q63 0 102 -35.5t39 -88.5q0 -40 -18.5 -71.5t-60.5 -70.5l-83 -76h159v-84
h-284v75z" />
    <glyph glyph-name="threequarters" unicode="&#xbe;" horiz-adv-x="854" 
d="M159 531q27 0 41 13t14 34t-13.5 33t-36.5 12q-12 0 -22.5 -3.5t-16.5 -8.5t-10.5 -10.5t-6.5 -8.5l-1 -4l-72 40q1 3 4.5 8.5t15 19t25.5 23.5t38.5 18.5t52.5 8.5q61 0 101 -31.5t40 -81.5q0 -61 -58 -94q70 -33 70 -102q0 -55 -43.5 -89t-113.5 -34q-30 0 -56 8.5
t-42 21t-27.5 24.5t-16.5 20l-5 9l74 43q2 -5 6.5 -12t23 -19t42.5 -12q28 0 44 14t16 36q0 23 -17 38.5t-50 15.5h-42v70h42zM644 700h96l-493 -700h-97zM656 420h96v-255h62v-76h-62v-89h-90v89h-187v80zM662 165v149l-108 -149h108z" />
    <glyph glyph-name="questiondown" unicode="&#xbf;" horiz-adv-x="540" 
d="M280 528q-38 0 -64.5 26.5t-26.5 64.5q0 37 26.5 64t64.5 27t65 -26.5t27 -64.5t-27 -64.5t-65 -26.5zM200 208q0 -34 22.5 -57t57.5 -23q23 0 42.5 8.5t31 20t19.5 23.5t11 20l3 9l115 -69q-2 -6 -6 -16t-22.5 -36t-42 -46t-67 -36t-95.5 -16q-93 0 -156 57t-63 137
q0 52 23 94t51 65t56 55t35 65h130q0 -38 -15 -69.5t-36.5 -53l-42.5 -41.5t-36 -43t-15 -48z" />
    <glyph glyph-name="Agrave" unicode="&#xc0;" horiz-adv-x="720" 
d="M200 920h153l67 -168h-114zM720 0h-168l-56 147h-280l-56 -147h-160l284 700h152zM258 268h195l-97 257z" />
    <glyph glyph-name="Aacute" unicode="&#xc1;" horiz-adv-x="720" 
d="M424 752h-114l67 168h153zM720 0h-168l-56 147h-280l-56 -147h-160l284 700h152zM258 268h195l-97 257z" />
    <glyph glyph-name="Acircumflex" unicode="&#xc2;" horiz-adv-x="720" 
d="M295 920h130l140 -168h-126l-82 82l-82 -82h-120zM720 0h-168l-56 147h-280l-56 -147h-160l284 700h152zM258 268h195l-97 257z" />
    <glyph glyph-name="Atilde" unicode="&#xc3;" horiz-adv-x="720" 
d="M180 777q0 6 1 15t7 33t16.5 42t32 33t50.5 15q34 0 59.5 -18t45 -36t38.5 -18q15 0 24 14.5t11 28.5l2 15l72 -8q0 -6 -1 -15t-7.5 -33t-16.5 -42t-32 -33t-51 -15q-33 0 -58.5 18t-45.5 36t-39 18q-14 0 -23 -14.5t-11 -28.5l-2 -15zM720 0h-168l-56 147h-280l-56 -147
h-160l284 700h152zM258 268h195l-97 257z" />
    <glyph glyph-name="Adieresis" unicode="&#xc4;" horiz-adv-x="720" 
d="M250 916q33 0 54.5 -21.5t21.5 -54.5q0 -32 -22.5 -54.5t-54.5 -22.5q-33 0 -54.5 21.5t-21.5 54.5t22 55t55 22zM471 916q33 0 54.5 -21.5t21.5 -54.5q0 -32 -22.5 -54.5t-54.5 -22.5q-33 0 -54.5 21.5t-21.5 54.5t22 55t55 22zM720 0h-168l-56 147h-280l-56 -147h-160
l284 700h152zM258 268h195l-97 257z" />
    <glyph glyph-name="Aring" unicode="&#xc5;" horiz-adv-x="720" 
d="M360 949q47 0 78 -29.5t31 -74.5t-31 -74.5t-78 -29.5t-78 29.5t-31 74.5t31 74.5t78 29.5zM360 796q21 0 35 14t14 35t-13.5 34.5t-35.5 13.5t-35.5 -13.5t-13.5 -34.5t14 -35t35 -14zM720 0h-168l-56 147h-280l-56 -147h-160l284 700h152zM258 268h195l-97 257z" />
    <glyph glyph-name="AE" unicode="&#xc6;" horiz-adv-x="1065" 
d="M648 567v-145h312v-124h-312v-166h372v-132h-525v147h-247l-88 -147h-170l425 700h595v-133h-362zM495 268v306l-181 -306h181z" />
    <glyph glyph-name="Ccedilla" unicode="&#xc7;" horiz-adv-x="715" 
d="M45 347q0 152 107 257.5t263 105.5q52 0 98.5 -11.5t76.5 -28t52 -33.5t32 -29l10 -11l-112 -98q-2 3 -6 7.5t-19 16.5t-31.5 21.5t-44.5 17t-58 7.5q-93 0 -154 -63t-61 -156q0 -94 61 -157t154 -63q32 0 61 8.5t48 20t33 23.5t21 20l6 9l108 -96l-8.5 -11t-26 -25.5
t-44.5 -33.5t-63 -30t-82 -21q13 -24 13 -54q0 -62 -46 -98.5t-110 -36.5q-28 0 -54 6.5t-38 13.5l-12 7l30 84q23 -16 62 -16q29 0 46.5 14.5t17.5 39.5q0 23 -17 40q-138 17 -225.5 116t-87.5 237z" />
    <glyph glyph-name="Egrave" unicode="&#xc8;" horiz-adv-x="650" 
d="M200 920h153l67 -168h-114zM80 0v700h515v-133h-362v-145h312v-124h-312v-166h372v-132h-525z" />
    <glyph glyph-name="Eacute" unicode="&#xc9;" horiz-adv-x="650" 
d="M394 752h-114l67 168h153zM80 0v700h515v-133h-362v-145h312v-124h-312v-166h372v-132h-525z" />
    <glyph glyph-name="Ecircumflex" unicode="&#xca;" horiz-adv-x="650" 
d="M275 920h130l140 -168h-126l-82 82l-82 -82h-120zM80 0v700h515v-133h-362v-145h312v-124h-312v-166h372v-132h-525z" />
    <glyph glyph-name="Edieresis" unicode="&#xcb;" horiz-adv-x="650" 
d="M230 916q33 0 54.5 -21.5t21.5 -54.5q0 -32 -22.5 -54.5t-54.5 -22.5q-33 0 -54.5 21.5t-21.5 54.5t22 55t55 22zM451 916q33 0 54.5 -21.5t21.5 -54.5q0 -32 -22.5 -54.5t-54.5 -22.5q-33 0 -54.5 21.5t-21.5 54.5t22 55t55 22zM80 0v700h515v-133h-362v-145h312v-124
h-312v-166h372v-132h-525z" />
    <glyph glyph-name="Igrave" unicode="&#xcc;" horiz-adv-x="327" 
d="M0 920h153l67 -168h-114zM85 700h157v-700h-157v700z" />
    <glyph glyph-name="Iacute" unicode="&#xcd;" horiz-adv-x="327" 
d="M221 752h-114l67 168h153zM85 700h157v-700h-157v700z" />
    <glyph glyph-name="Icircumflex" unicode="&#xce;" horiz-adv-x="327" 
d="M98 920h130l140 -168h-126l-82 82l-82 -82h-120zM85 700h157v-700h-157v700z" />
    <glyph glyph-name="Idieresis" unicode="&#xcf;" horiz-adv-x="327" 
d="M53 916q33 0 54.5 -21.5t21.5 -54.5q0 -32 -22.5 -54.5t-54.5 -22.5q-33 0 -54.5 21.5t-21.5 54.5t22 55t55 22zM274 916q33 0 54.5 -21.5t21.5 -54.5q0 -32 -22.5 -54.5t-54.5 -22.5q-33 0 -54.5 21.5t-21.5 54.5t22 55t55 22zM85 700h157v-700h-157v700z" />
    <glyph glyph-name="Eth" unicode="&#xd0;" horiz-adv-x="797" 
d="M117 315h-87v83h87v302h250q168 0 276.5 -99t108.5 -249t-111 -251t-279 -101h-245v315zM270 315v-183h100q100 0 165 62t65 156t-65 155.5t-165 61.5h-100v-169h170v-83h-170z" />
    <glyph glyph-name="Ntilde" unicode="&#xd1;" horiz-adv-x="790" 
d="M215 777q0 6 1 15t7 33t16.5 42t32 33t50.5 15q34 0 59.5 -18t45 -36t38.5 -18q15 0 24 14.5t11 28.5l2 15l72 -8q0 -6 -1 -15t-7.5 -33t-16.5 -42t-32 -33t-51 -15q-33 0 -58.5 18t-45.5 36t-39 18q-14 0 -23 -14.5t-11 -28.5l-2 -15zM229 472v-472h-149v700h158
l323 -460v460h149v-700h-149z" />
    <glyph glyph-name="Ograve" unicode="&#xd2;" horiz-adv-x="825" 
d="M257 920h153l67 -168h-114zM415 710q156 0 260.5 -103t104.5 -255t-107 -257t-263 -105t-260.5 102.5t-104.5 254.5t107 257.5t263 105.5zM413 130q92 0 153.5 63t61.5 157q0 93 -61.5 156t-153.5 63q-93 0 -154 -63t-61 -156q0 -94 61 -157t154 -63z" />
    <glyph glyph-name="Oacute" unicode="&#xd3;" horiz-adv-x="825" 
d="M461 752h-114l67 168h153zM415 710q156 0 260.5 -103t104.5 -255t-107 -257t-263 -105t-260.5 102.5t-104.5 254.5t107 257.5t263 105.5zM413 130q92 0 153.5 63t61.5 157q0 93 -61.5 156t-153.5 63q-93 0 -154 -63t-61 -156q0 -94 61 -157t154 -63z" />
    <glyph glyph-name="Ocircumflex" unicode="&#xd4;" horiz-adv-x="825" 
d="M347 920h130l140 -168h-126l-82 82l-82 -82h-120zM415 710q156 0 260.5 -103t104.5 -255t-107 -257t-263 -105t-260.5 102.5t-104.5 254.5t107 257.5t263 105.5zM413 130q92 0 153.5 63t61.5 157q0 93 -61.5 156t-153.5 63q-93 0 -154 -63t-61 -156q0 -94 61 -157
t154 -63z" />
    <glyph glyph-name="Otilde" unicode="&#xd5;" horiz-adv-x="825" 
d="M233 777q0 6 1 15t7 33t16.5 42t32 33t50.5 15q34 0 59.5 -18t45 -36t38.5 -18q15 0 24 14.5t11 28.5l2 15l72 -8q0 -6 -1 -15t-7.5 -33t-16.5 -42t-32 -33t-51 -15q-33 0 -58.5 18t-45.5 36t-39 18q-14 0 -23 -14.5t-11 -28.5l-2 -15zM415 710q156 0 260.5 -103
t104.5 -255t-107 -257t-263 -105t-260.5 102.5t-104.5 254.5t107 257.5t263 105.5zM413 130q92 0 153.5 63t61.5 157q0 93 -61.5 156t-153.5 63q-93 0 -154 -63t-61 -156q0 -94 61 -157t154 -63z" />
    <glyph glyph-name="Odieresis" unicode="&#xd6;" horiz-adv-x="825" 
d="M302 916q33 0 54.5 -21.5t21.5 -54.5q0 -32 -22.5 -54.5t-54.5 -22.5q-33 0 -54.5 21.5t-21.5 54.5t22 55t55 22zM523 916q33 0 54.5 -21.5t21.5 -54.5q0 -32 -22.5 -54.5t-54.5 -22.5q-33 0 -54.5 21.5t-21.5 54.5t22 55t55 22zM415 710q156 0 260.5 -103t104.5 -255
t-107 -257t-263 -105t-260.5 102.5t-104.5 254.5t107 257.5t263 105.5zM413 130q92 0 153.5 63t61.5 157q0 93 -61.5 156t-153.5 63q-93 0 -154 -63t-61 -156q0 -94 61 -157t154 -63z" />
    <glyph glyph-name="multiply" unicode="&#xd7;" 
d="M307 271l-174 -176l-81 81l176 173l-176 174l81 81l174 -176l175 176l81 -81l-177 -174l177 -173l-81 -81z" />
    <glyph glyph-name="Oslash" unicode="&#xd8;" horiz-adv-x="825" 
d="M679 603q101 -103 101 -251q0 -152 -107 -257t-263 -105q-114 0 -205 58l-66 -78h-102l108 127q-100 102 -100 250q0 152 107 257.5t263 105.5q112 0 203 -59l68 79h101zM526 541q-53 32 -114 32q-94 0 -156 -63.5t-62 -159.5q0 -81 47 -141zM299 158q50 -31 113 -31
q94 0 156.5 64t62.5 159q0 78 -47 140z" />
    <glyph glyph-name="Ugrave" unicode="&#xd9;" horiz-adv-x="740" 
d="M220 920h153l67 -168h-114zM670 700v-410q0 -134 -84 -217t-218 -83q-135 0 -216.5 80.5t-81.5 214.5v415h155v-410q0 -72 41 -116t107 -44t106.5 44t40.5 116v410h150z" />
    <glyph glyph-name="Uacute" unicode="&#xda;" horiz-adv-x="740" 
d="M429 752h-114l67 168h153zM670 700v-410q0 -134 -84 -217t-218 -83q-135 0 -216.5 80.5t-81.5 214.5v415h155v-410q0 -72 41 -116t107 -44t106.5 44t40.5 116v410h150z" />
    <glyph glyph-name="Ucircumflex" unicode="&#xdb;" horiz-adv-x="740" 
d="M310 920h130l140 -168h-126l-82 82l-82 -82h-120zM670 700v-410q0 -134 -84 -217t-218 -83q-135 0 -216.5 80.5t-81.5 214.5v415h155v-410q0 -72 41 -116t107 -44t106.5 44t40.5 116v410h150z" />
    <glyph glyph-name="Udieresis" unicode="&#xdc;" horiz-adv-x="740" 
d="M265 916q33 0 54.5 -21.5t21.5 -54.5q0 -32 -22.5 -54.5t-54.5 -22.5q-33 0 -54.5 21.5t-21.5 54.5t22 55t55 22zM486 916q33 0 54.5 -21.5t21.5 -54.5q0 -32 -22.5 -54.5t-54.5 -22.5q-33 0 -54.5 21.5t-21.5 54.5t22 55t55 22zM670 700v-410q0 -134 -84 -217t-218 -83
q-135 0 -216.5 80.5t-81.5 214.5v415h155v-410q0 -72 41 -116t107 -44t106.5 44t40.5 116v410h150z" />
    <glyph glyph-name="Yacute" unicode="&#xdd;" horiz-adv-x="690" 
d="M409 752h-114l67 168h153zM269 260l-269 440h177l172 -295l172 295h169l-269 -440v-260h-152v260z" />
    <glyph glyph-name="Thorn" unicode="&#xde;" horiz-adv-x="680" 
d="M80 700h153v-106h149q114 0 183.5 -64t69.5 -166t-72 -168t-186 -66h-144v-130h-153v700zM233 255h130q55 0 87.5 29.5t32.5 77.5t-33 77.5t-87 29.5h-130v-214z" />
    <glyph glyph-name="germandbls" unicode="&#xdf;" 
d="M205 0h-145v474q0 106 67 171t177 65q107 0 174 -54.5t67 -140.5q0 -92 -76 -141q55 -24 85.5 -69.5t30.5 -104.5q0 -91 -67.5 -150.5t-172.5 -59.5q-20 0 -37.5 2t-25.5 4l-8 2l13 119q23 -5 43 -5q50 0 80 27t30 69t-30.5 69t-80.5 27h-34v114h9q43 0 69.5 23.5
t26.5 61.5t-26.5 61.5t-69.5 23.5q-46 0 -72.5 -29.5t-26.5 -82.5v-476z" />
    <glyph glyph-name="agrave" unicode="&#xe0;" horiz-adv-x="570" 
d="M141 740h153l67 -168h-114zM238 309q79 0 132 -37v22q0 53 -32.5 82t-85.5 29q-35 0 -67 -10t-47 -20l-14 -10l-59 93q9 8 25.5 19t72.5 30t118 19q109 0 171.5 -62t62.5 -172v-292h-113l-11 44q-59 -54 -158 -54q-91 0 -144.5 43.5t-53.5 113.5t56 116t147 46zM276 83
q46 0 72.5 19.5t26.5 50.5q0 30 -27 50t-72 20q-43 0 -69.5 -20t-26.5 -50q0 -31 26 -50.5t70 -19.5z" />
    <glyph glyph-name="aacute" unicode="&#xe1;" horiz-adv-x="570" 
d="M346 572h-114l67 168h153zM238 309q79 0 132 -37v22q0 53 -32.5 82t-85.5 29q-35 0 -67 -10t-47 -20l-14 -10l-59 93q9 8 25.5 19t72.5 30t118 19q109 0 171.5 -62t62.5 -172v-292h-113l-11 44q-59 -54 -158 -54q-91 0 -144.5 43.5t-53.5 113.5t56 116t147 46zM276 83
q46 0 72.5 19.5t26.5 50.5q0 30 -27 50t-72 20q-43 0 -69.5 -20t-26.5 -50q0 -31 26 -50.5t70 -19.5z" />
    <glyph glyph-name="acircumflex" unicode="&#xe2;" horiz-adv-x="570" 
d="M227 740h130l140 -168h-126l-82 82l-82 -82h-120zM238 309q79 0 132 -37v22q0 53 -32.5 82t-85.5 29q-35 0 -67 -10t-47 -20l-14 -10l-59 93q9 8 25.5 19t72.5 30t118 19q109 0 171.5 -62t62.5 -172v-292h-113l-11 44q-59 -54 -158 -54q-91 0 -144.5 43.5t-53.5 113.5
t56 116t147 46zM276 83q46 0 72.5 19.5t26.5 50.5q0 30 -27 50t-72 20q-43 0 -69.5 -20t-26.5 -50q0 -31 26 -50.5t70 -19.5z" />
    <glyph glyph-name="atilde" unicode="&#xe3;" horiz-adv-x="570" 
d="M118 597q0 6 1 15t7 33t16.5 42t32 33t50.5 15q34 0 59.5 -18t45 -36t38.5 -18q15 0 24 14.5t11 28.5l2 15l72 -8q0 -6 -1 -15t-7.5 -33t-16.5 -42t-32 -33t-51 -15q-33 0 -58.5 18t-45.5 36t-39 18q-14 0 -23 -14.5t-11 -28.5l-2 -15zM238 309q79 0 132 -37v22
q0 53 -32.5 82t-85.5 29q-35 0 -67 -10t-47 -20l-14 -10l-59 93q9 8 25.5 19t72.5 30t118 19q109 0 171.5 -62t62.5 -172v-292h-113l-11 44q-59 -54 -158 -54q-91 0 -144.5 43.5t-53.5 113.5t56 116t147 46zM276 83q46 0 72.5 19.5t26.5 50.5q0 30 -27 50t-72 20
q-43 0 -69.5 -20t-26.5 -50q0 -31 26 -50.5t70 -19.5z" />
    <glyph glyph-name="adieresis" unicode="&#xe4;" horiz-adv-x="570" 
d="M187 736q33 0 54.5 -21.5t21.5 -54.5q0 -32 -22.5 -54.5t-54.5 -22.5q-33 0 -54.5 21.5t-21.5 54.5t22 55t55 22zM408 736q33 0 54.5 -21.5t21.5 -54.5q0 -32 -22.5 -54.5t-54.5 -22.5q-33 0 -54.5 21.5t-21.5 54.5t22 55t55 22zM238 309q79 0 132 -37v22q0 53 -32.5 82
t-85.5 29q-35 0 -67 -10t-47 -20l-14 -10l-59 93q9 8 25.5 19t72.5 30t118 19q109 0 171.5 -62t62.5 -172v-292h-113l-11 44q-59 -54 -158 -54q-91 0 -144.5 43.5t-53.5 113.5t56 116t147 46zM276 83q46 0 72.5 19.5t26.5 50.5q0 30 -27 50t-72 20q-43 0 -69.5 -20
t-26.5 -50q0 -31 26 -50.5t70 -19.5z" />
    <glyph glyph-name="aring" unicode="&#xe5;" horiz-adv-x="570" 
d="M297 769q47 0 78 -29.5t31 -74.5t-31 -74.5t-78 -29.5t-78 29.5t-31 74.5t31 74.5t78 29.5zM297 616q21 0 35 14t14 35t-14 34.5t-35 13.5t-35 -13.5t-14 -34.5t14 -35t35 -14zM238 309q79 0 132 -37v22q0 53 -32.5 82t-85.5 29q-35 0 -67 -10t-47 -20l-14 -10l-59 93
q9 8 25.5 19t72.5 30t118 19q109 0 171.5 -62t62.5 -172v-292h-113l-11 44q-59 -54 -158 -54q-91 0 -144.5 43.5t-53.5 113.5t56 116t147 46zM276 83q46 0 72.5 19.5t26.5 50.5q0 30 -27 50t-72 20q-43 0 -69.5 -20t-26.5 -50q0 -31 26 -50.5t70 -19.5z" />
    <glyph glyph-name="ae" unicode="&#xe6;" horiz-adv-x="941" 
d="M238 309q75 0 132 -34v19q0 53 -32.5 82t-84.5 29q-35 0 -67.5 -10t-47.5 -20l-14 -10l-59 93q9 8 25.5 19t73 30t118.5 19q116 0 174 -81q75 81 193 81q107 0 182 -73t75 -175q0 -13 -2 -25t-4 -17l-2 -6h-382q8 -52 46 -83.5t95 -31.5q40 0 74 15.5t48 31.5l14 15
l86 -83l-8.5 -11t-26 -25t-45 -32t-65.5 -25t-87 -11q-127 0 -198 84q-61 -84 -197 -84q-101 0 -159 43.5t-58 113.5t56 116t147 46zM646 420q-48 0 -83 -28t-44 -73h247q-7 43 -41 72t-79 29zM276 224q-43 0 -69.5 -20.5t-26.5 -50.5q0 -31 26.5 -51t69.5 -20q45 0 72 20
t27 51q0 30 -27 50.5t-72 20.5z" />
    <glyph glyph-name="ccedilla" unicode="&#xe7;" horiz-adv-x="540" 
d="M520 84q-6 -8 -17.5 -20t-51.5 -36.5t-86 -32.5q14 -23 14 -55q0 -62 -46 -98.5t-110 -36.5q-28 0 -54 6.5t-38 13.5l-12 7l30 84q23 -16 62 -16q29 0 46.5 14.5t17.5 39.5q0 23 -18 41q-98 17 -160 89t-62 172q0 114 81 192t201 78q38 0 72 -9t56.5 -21t39.5 -24.5
t25 -21.5l7 -9l-99 -97q-4 5 -11.5 13.5t-34 22t-58.5 13.5q-57 0 -95.5 -39t-38.5 -96t38.5 -96t95.5 -39q34 0 61 13.5t37 27.5l10 13z" />
    <glyph glyph-name="egrave" unicode="&#xe8;" horiz-adv-x="606" 
d="M160 740h153l67 -168h-114zM181 230q8 -52 46 -83.5t95 -31.5q40 0 74 15.5t48 31.5l14 15l86 -83l-8.5 -11t-26 -25t-45 -32t-65.5 -25t-87 -11q-120 0 -198.5 76t-78.5 190t80.5 192t198.5 78q107 0 182 -73t75 -175q0 -13 -2 -25t-4 -17l-2 -6h-382zM311 420
q-48 0 -83 -28t-44 -73h247q-7 43 -41 72t-79 29z" />
    <glyph glyph-name="eacute" unicode="&#xe9;" horiz-adv-x="606" 
d="M379 572h-114l67 168h153zM181 230q8 -52 46 -83.5t95 -31.5q40 0 74 15.5t48 31.5l14 15l86 -83l-8.5 -11t-26 -25t-45 -32t-65.5 -25t-87 -11q-120 0 -198.5 76t-78.5 190t80.5 192t198.5 78q107 0 182 -73t75 -175q0 -13 -2 -25t-4 -17l-2 -6h-382zM311 420
q-48 0 -83 -28t-44 -73h247q-7 43 -41 72t-79 29z" />
    <glyph glyph-name="ecircumflex" unicode="&#xea;" horiz-adv-x="606" 
d="M248 740h130l140 -168h-126l-82 82l-82 -82h-120zM181 230q8 -52 46 -83.5t95 -31.5q40 0 74 15.5t48 31.5l14 15l86 -83l-8.5 -11t-26 -25t-45 -32t-65.5 -25t-87 -11q-120 0 -198.5 76t-78.5 190t80.5 192t198.5 78q107 0 182 -73t75 -175q0 -13 -2 -25t-4 -17l-2 -6
h-382zM311 420q-48 0 -83 -28t-44 -73h247q-7 43 -41 72t-79 29z" />
    <glyph glyph-name="edieresis" unicode="&#xeb;" horiz-adv-x="606" 
d="M205 736q33 0 54.5 -21.5t21.5 -54.5q0 -32 -22.5 -54.5t-54.5 -22.5q-33 0 -54.5 21.5t-21.5 54.5t22 55t55 22zM426 736q33 0 54.5 -21.5t21.5 -54.5q0 -32 -22.5 -54.5t-54.5 -22.5q-33 0 -54.5 21.5t-21.5 54.5t22 55t55 22zM181 230q8 -52 46 -83.5t95 -31.5
q40 0 74 15.5t48 31.5l14 15l86 -83l-8.5 -11t-26 -25t-45 -32t-65.5 -25t-87 -11q-120 0 -198.5 76t-78.5 190t80.5 192t198.5 78q107 0 182 -73t75 -175q0 -13 -2 -25t-4 -17l-2 -6h-382zM311 420q-48 0 -83 -28t-44 -73h247q-7 43 -41 72t-79 29z" />
    <glyph glyph-name="igrave" unicode="&#xec;" horiz-adv-x="277" 
d="M-20 740h153l67 -168h-114zM65 516h147v-516h-147v516z" />
    <glyph glyph-name="iacute" unicode="&#xed;" horiz-adv-x="277" 
d="M191 572h-114l67 168h153zM65 516h147v-516h-147v516z" />
    <glyph glyph-name="icircumflex" unicode="&#xee;" horiz-adv-x="277" 
d="M74 740h130l140 -168h-126l-82 82l-82 -82h-120zM65 516h147v-516h-147v516z" />
    <glyph glyph-name="idieresis" unicode="&#xef;" horiz-adv-x="277" 
d="M29 736q33 0 54.5 -21.5t21.5 -54.5q0 -32 -22.5 -54.5t-54.5 -22.5q-33 0 -54.5 21.5t-21.5 54.5t22 55t55 22zM250 736q33 0 54.5 -21.5t21.5 -54.5q0 -32 -22.5 -54.5t-54.5 -22.5q-33 0 -54.5 21.5t-21.5 54.5t22 55t55 22zM65 516h147v-516h-147v516z" />
    <glyph glyph-name="eth" unicode="&#xf0;" horiz-adv-x="629" 
d="M287 499q29 0 65 -15l-56 79l-162 -35v75l114 25l-52 72h162l27 -42l161 35v-75l-115 -25l95 -139q68 -98 68 -198q0 -113 -84 -189.5t-198 -76.5q-118 0 -197.5 73t-79.5 190q0 103 75 174.5t177 71.5zM315 123q57 0 95.5 38.5t38.5 94.5q0 55 -38.5 93.5t-95.5 38.5
q-58 0 -96.5 -38.5t-38.5 -93.5q0 -56 38.5 -94.5t96.5 -38.5z" />
    <glyph glyph-name="ntilde" unicode="&#xf1;" 
d="M128 597q0 6 1 15t7 33t16.5 42t32 33t50.5 15q34 0 59.5 -18t45 -36t38.5 -18q15 0 24 14.5t11 28.5l2 15l72 -8q0 -6 -1 -15t-7.5 -33t-16.5 -42t-32 -33t-51 -15q-33 0 -58.5 18t-45.5 36t-39 18q-14 0 -23 -14.5t-11 -28.5l-2 -15zM205 0h-145v516h129l7 -79
q55 89 170 89q85 0 139.5 -56t54.5 -156v-314h-145v268q0 62 -27.5 93.5t-72.5 31.5q-49 0 -79.5 -32t-30.5 -98v-263z" />
    <glyph glyph-name="ograve" unicode="&#xf2;" horiz-adv-x="629" 
d="M160 740h153l67 -168h-114zM317 526q120 0 198.5 -75.5t78.5 -189.5t-81 -192.5t-201 -78.5t-198.5 76t-78.5 190t81 192t201 78zM314 123q58 0 96.5 39t38.5 96t-38.5 96t-96.5 39q-57 0 -95.5 -39t-38.5 -96t38.5 -96t95.5 -39z" />
    <glyph glyph-name="oacute" unicode="&#xf3;" horiz-adv-x="629" 
d="M363 572h-114l67 168h153zM317 526q120 0 198.5 -75.5t78.5 -189.5t-81 -192.5t-201 -78.5t-198.5 76t-78.5 190t81 192t201 78zM314 123q58 0 96.5 39t38.5 96t-38.5 96t-96.5 39q-57 0 -95.5 -39t-38.5 -96t38.5 -96t95.5 -39z" />
    <glyph glyph-name="ocircumflex" unicode="&#xf4;" horiz-adv-x="629" 
d="M250 740h130l140 -168h-126l-82 82l-82 -82h-120zM317 526q120 0 198.5 -75.5t78.5 -189.5t-81 -192.5t-201 -78.5t-198.5 76t-78.5 190t81 192t201 78zM314 123q58 0 96.5 39t38.5 96t-38.5 96t-96.5 39q-57 0 -95.5 -39t-38.5 -96t38.5 -96t95.5 -39z" />
    <glyph glyph-name="otilde" unicode="&#xf5;" horiz-adv-x="629" 
d="M135 597q0 6 1 15t7 33t16.5 42t32 33t50.5 15q34 0 59.5 -18t45 -36t38.5 -18q15 0 24 14.5t11 28.5l2 15l72 -8q0 -6 -1 -15t-7.5 -33t-16.5 -42t-32 -33t-51 -15q-33 0 -58.5 18t-45.5 36t-39 18q-14 0 -23 -14.5t-11 -28.5l-2 -15zM317 526q120 0 198.5 -75.5
t78.5 -189.5t-81 -192.5t-201 -78.5t-198.5 76t-78.5 190t81 192t201 78zM314 123q58 0 96.5 39t38.5 96t-38.5 96t-96.5 39q-57 0 -95.5 -39t-38.5 -96t38.5 -96t95.5 -39z" />
    <glyph glyph-name="odieresis" unicode="&#xf6;" horiz-adv-x="629" 
d="M205 736q33 0 54.5 -21.5t21.5 -54.5q0 -32 -22.5 -54.5t-54.5 -22.5q-33 0 -54.5 21.5t-21.5 54.5t22 55t55 22zM426 736q33 0 54.5 -21.5t21.5 -54.5q0 -32 -22.5 -54.5t-54.5 -22.5q-33 0 -54.5 21.5t-21.5 54.5t22 55t55 22zM317 526q120 0 198.5 -75.5t78.5 -189.5
t-81 -192.5t-201 -78.5t-198.5 76t-78.5 190t81 192t201 78zM314 123q58 0 96.5 39t38.5 96t-38.5 96t-96.5 39q-57 0 -95.5 -39t-38.5 -96t38.5 -96t95.5 -39z" />
    <glyph glyph-name="divide" unicode="&#xf7;" 
d="M307 653q35 0 59 -24.5t24 -58.5t-24 -58.5t-59 -24.5t-59 24.5t-24 58.5t24 58.5t59 24.5zM50 294v122h515v-122h-515zM307 223q35 0 59 -24.5t24 -58.5t-24 -58.5t-59 -24.5t-59 24.5t-24 58.5t24 58.5t59 24.5z" />
    <glyph glyph-name="oslash" unicode="&#xf8;" horiz-adv-x="629" 
d="M317 526q77 0 142 -35l47 56h93l-81 -99q76 -74 76 -187q0 -114 -81 -192.5t-201 -78.5q-77 0 -141 36l-47 -56h-94l82 99q-77 75 -77 187q0 114 81 192t201 78zM377 389q-29 16 -62 16q-63 0 -104.5 -42t-41.5 -104q0 -50 27 -86zM253 128q27 -16 62 -16q63 0 104.5 42
t41.5 105q0 47 -27 84z" />
    <glyph glyph-name="ugrave" unicode="&#xf9;" 
d="M152 740h153l67 -168h-114zM410 516h145v-516h-129l-7 79q-55 -89 -170 -89q-85 0 -139.5 56t-54.5 156v314h145v-268q0 -62 27.5 -93.5t72.5 -31.5q49 0 79.5 32t30.5 98v263z" />
    <glyph glyph-name="uacute" unicode="&#xfa;" 
d="M366 572h-114l67 168h153zM410 516h145v-516h-129l-7 79q-55 -89 -170 -89q-85 0 -139.5 56t-54.5 156v314h145v-268q0 -62 27.5 -93.5t72.5 -31.5q49 0 79.5 32t30.5 98v263z" />
    <glyph glyph-name="ucircumflex" unicode="&#xfb;" 
d="M242 740h130l140 -168h-126l-82 82l-82 -82h-120zM410 516h145v-516h-129l-7 79q-55 -89 -170 -89q-85 0 -139.5 56t-54.5 156v314h145v-268q0 -62 27.5 -93.5t72.5 -31.5q49 0 79.5 32t30.5 98v263z" />
    <glyph glyph-name="udieresis" unicode="&#xfc;" 
d="M197 736q33 0 54.5 -21.5t21.5 -54.5q0 -32 -22.5 -54.5t-54.5 -22.5q-33 0 -54.5 21.5t-21.5 54.5t22 55t55 22zM418 736q33 0 54.5 -21.5t21.5 -54.5q0 -32 -22.5 -54.5t-54.5 -22.5q-33 0 -54.5 21.5t-21.5 54.5t22 55t55 22zM410 516h145v-516h-129l-7 79
q-55 -89 -170 -89q-85 0 -139.5 56t-54.5 156v314h145v-268q0 -62 27.5 -93.5t72.5 -31.5q49 0 79.5 32t30.5 98v263z" />
    <glyph glyph-name="yacute" unicode="&#xfd;" horiz-adv-x="542" 
d="M332 572h-114l67 168h153zM-5 516h161l119 -342l119 342h153l-206 -521q-65 -165 -212 -165q-37 0 -70.5 8.5t-48.5 17.5l-15 8l45 117q28 -22 82 -22q53 0 76 48z" />
    <glyph glyph-name="thorn" unicode="&#xfe;" horiz-adv-x="649" 
d="M60 700h145v-248q61 74 159 74q103 0 176.5 -76.5t73.5 -188.5q0 -113 -75 -192t-180 -79q-96 0 -154 68v-218h-145v860zM334 123q58 0 96.5 39t38.5 96t-38.5 96t-96.5 39q-57 0 -95.5 -39t-38.5 -96t38.5 -96t95.5 -39z" />
    <glyph glyph-name="ydieresis" unicode="&#xff;" horiz-adv-x="542" 
d="M165 736q33 0 54.5 -21.5t21.5 -54.5q0 -32 -22.5 -54.5t-54.5 -22.5q-33 0 -54.5 21.5t-21.5 54.5t22 55t55 22zM386 736q33 0 54.5 -21.5t21.5 -54.5q0 -32 -22.5 -54.5t-54.5 -22.5q-33 0 -54.5 21.5t-21.5 54.5t22 55t55 22zM-5 516h161l119 -342l119 342h153
l-206 -521q-65 -165 -212 -165q-37 0 -70.5 8.5t-48.5 17.5l-15 8l45 117q28 -22 82 -22q53 0 76 48z" />
    <glyph glyph-name="Amacron" unicode="&#x100;" horiz-adv-x="720" 
d="M180 876h360v-84h-360v84zM720 0h-168l-56 147h-280l-56 -147h-160l284 700h152zM258 268h195l-97 257z" />
    <glyph glyph-name="amacron" unicode="&#x101;" horiz-adv-x="570" 
d="M110 692h360v-84h-360v84zM238 309q79 0 132 -37v22q0 53 -32.5 82t-85.5 29q-35 0 -67 -10t-47 -20l-14 -10l-59 93q9 8 25.5 19t72.5 30t118 19q109 0 171.5 -62t62.5 -172v-292h-113l-11 44q-59 -54 -158 -54q-91 0 -144.5 43.5t-53.5 113.5t56 116t147 46zM276 83
q46 0 72.5 19.5t26.5 50.5q0 30 -27 50t-72 20q-43 0 -69.5 -20t-26.5 -50q0 -31 26 -50.5t70 -19.5z" />
    <glyph glyph-name="Abreve" unicode="&#x102;" horiz-adv-x="720" 
d="M288 920v-13q0 -31 20 -50.5t53 -19.5q32 0 51 19.5t19 50.5v13h100v-5q0 -72 -48 -117.5t-123 -45.5t-123 45.5t-48 117.5v5h99zM720 0h-168l-56 147h-280l-56 -147h-160l284 700h152zM258 268h195l-97 257z" />
    <glyph glyph-name="abreve" unicode="&#x103;" horiz-adv-x="570" 
d="M218 740v-13q0 -31 20 -50.5t53 -19.5q32 0 51 19.5t19 50.5v13h100v-5q0 -72 -48 -117.5t-123 -45.5t-123 45.5t-48 117.5v5h99zM238 309q79 0 132 -37v22q0 53 -32.5 82t-85.5 29q-35 0 -67 -10t-47 -20l-14 -10l-59 93q9 8 25.5 19t72.5 30t118 19q109 0 171.5 -62
t62.5 -172v-292h-113l-11 44q-59 -54 -158 -54q-91 0 -144.5 43.5t-53.5 113.5t56 116t147 46zM276 83q46 0 72.5 19.5t26.5 50.5q0 30 -27 50t-72 20q-43 0 -69.5 -20t-26.5 -50q0 -31 26 -50.5t70 -19.5z" />
    <glyph glyph-name="Aogonek" unicode="&#x104;" horiz-adv-x="720" 
d="M720 0h-74q-20 -12 -20 -41q0 -21 17 -35t43 -14q14 0 26.5 3t18.5 6l6 3l23 -81q-31 -26 -88 -26q-60 0 -101 35t-41 94q0 36 19 64l-53 139h-280l-56 -147h-160l284 700h152zM258 268h195l-97 257z" />
    <glyph glyph-name="aogonek" unicode="&#x105;" horiz-adv-x="570" 
d="M238 309q79 0 132 -37v22q0 53 -32.5 82t-85.5 29q-35 0 -67 -10t-47 -20l-14 -10l-59 93q9 8 25.5 19t72.5 30t118 19q109 0 171.5 -62t62.5 -172v-292h-40q-1 0 -5.5 -4t-9 -14t-4.5 -23q0 -21 17 -35t43 -14q14 0 26.5 3t18.5 6l6 3l23 -81q-31 -26 -88 -26
q-60 0 -101 35t-41 94q0 48 35 83l-4 17q-59 -54 -158 -54q-91 0 -144.5 43.5t-53.5 113.5t56 116t147 46zM276 83q46 0 72.5 19.5t26.5 50.5q0 30 -27 50t-72 20q-43 0 -69.5 -20t-26.5 -50q0 -31 26 -50.5t70 -19.5z" />
    <glyph glyph-name="Cacute" unicode="&#x106;" horiz-adv-x="715" 
d="M466 752h-114l67 168h153zM45 347q0 152 107 257.5t263 105.5q52 0 98.5 -11.5t76.5 -28t52 -33.5t32 -29l10 -11l-112 -98q-2 3 -6 7.5t-19 16.5t-31.5 21.5t-44.5 17t-58 7.5q-93 0 -154 -63t-61 -156q0 -94 61 -157t154 -63q32 0 61 8.5t48 20t33 23.5t21 20l6 9
l108 -96l-11 -13.5t-32 -30t-55 -38t-79 -30t-103 -13.5q-156 0 -260.5 102.5t-104.5 254.5z" />
    <glyph glyph-name="cacute" unicode="&#x107;" horiz-adv-x="540" 
d="M359 572h-114l67 168h153zM520 84q-3 -4 -8.5 -10t-25 -22.5t-41.5 -29t-58 -22.5t-75 -10q-120 0 -198.5 76t-78.5 190t81 192t201 78q38 0 72 -9t56.5 -21t39.5 -24.5t25 -21.5l7 -9l-99 -97q-4 5 -11.5 13.5t-34 22t-58.5 13.5q-57 0 -95.5 -39t-38.5 -96t38.5 -96
t95.5 -39q34 0 61 13.5t37 27.5l10 13z" />
    <glyph glyph-name="Ccircumflex" unicode="&#x108;" horiz-adv-x="715" 
d="M342 920h130l140 -168h-126l-82 82l-82 -82h-120zM45 347q0 152 107 257.5t263 105.5q52 0 98.5 -11.5t76.5 -28t52 -33.5t32 -29l10 -11l-112 -98q-2 3 -6 7.5t-19 16.5t-31.5 21.5t-44.5 17t-58 7.5q-93 0 -154 -63t-61 -156q0 -94 61 -157t154 -63q32 0 61 8.5t48 20
t33 23.5t21 20l6 9l108 -96l-11 -13.5t-32 -30t-55 -38t-79 -30t-103 -13.5q-156 0 -260.5 102.5t-104.5 254.5z" />
    <glyph glyph-name="ccircumflex" unicode="&#x109;" horiz-adv-x="540" 
d="M245 740h130l140 -168h-126l-82 82l-82 -82h-120zM520 84q-3 -4 -8.5 -10t-25 -22.5t-41.5 -29t-58 -22.5t-75 -10q-120 0 -198.5 76t-78.5 190t81 192t201 78q38 0 72 -9t56.5 -21t39.5 -24.5t25 -21.5l7 -9l-99 -97q-4 5 -11.5 13.5t-34 22t-58.5 13.5q-57 0 -95.5 -39
t-38.5 -96t38.5 -96t95.5 -39q34 0 61 13.5t37 27.5l10 13z" />
    <glyph glyph-name="Cdotaccent" unicode="&#x10a;" horiz-adv-x="715" 
d="M412 920q33 0 54.5 -21.5t21.5 -54.5q0 -32 -22.5 -54.5t-54.5 -22.5q-33 0 -54.5 21.5t-21.5 54.5t22 55t55 22zM45 347q0 152 107 257.5t263 105.5q52 0 98.5 -11.5t76.5 -28t52 -33.5t32 -29l10 -11l-112 -98q-2 3 -6 7.5t-19 16.5t-31.5 21.5t-44.5 17t-58 7.5
q-93 0 -154 -63t-61 -156q0 -94 61 -157t154 -63q32 0 61 8.5t48 20t33 23.5t21 20l6 9l108 -96l-11 -13.5t-32 -30t-55 -38t-79 -30t-103 -13.5q-156 0 -260.5 102.5t-104.5 254.5z" />
    <glyph glyph-name="cdotaccent" unicode="&#x10b;" horiz-adv-x="540" 
d="M310 736q33 0 54.5 -21.5t21.5 -54.5q0 -32 -22.5 -54.5t-54.5 -22.5q-33 0 -54.5 21.5t-21.5 54.5t22 55t55 22zM520 84q-3 -4 -8.5 -10t-25 -22.5t-41.5 -29t-58 -22.5t-75 -10q-120 0 -198.5 76t-78.5 190t81 192t201 78q38 0 72 -9t56.5 -21t39.5 -24.5t25 -21.5
l7 -9l-99 -97q-4 5 -11.5 13.5t-34 22t-58.5 13.5q-57 0 -95.5 -39t-38.5 -96t38.5 -96t95.5 -39q34 0 61 13.5t37 27.5l10 13z" />
    <glyph glyph-name="Ccaron" unicode="&#x10c;" horiz-adv-x="715" 
d="M472 752h-130l-140 168h126l82 -82l82 82h120zM45 347q0 152 107 257.5t263 105.5q52 0 98.5 -11.5t76.5 -28t52 -33.5t32 -29l10 -11l-112 -98q-2 3 -6 7.5t-19 16.5t-31.5 21.5t-44.5 17t-58 7.5q-93 0 -154 -63t-61 -156q0 -94 61 -157t154 -63q32 0 61 8.5t48 20
t33 23.5t21 20l6 9l108 -96l-11 -13.5t-32 -30t-55 -38t-79 -30t-103 -13.5q-156 0 -260.5 102.5t-104.5 254.5z" />
    <glyph glyph-name="ccaron" unicode="&#x10d;" horiz-adv-x="540" 
d="M375 572h-130l-140 168h126l82 -82l82 82h120zM520 84q-3 -4 -8.5 -10t-25 -22.5t-41.5 -29t-58 -22.5t-75 -10q-120 0 -198.5 76t-78.5 190t81 192t201 78q38 0 72 -9t56.5 -21t39.5 -24.5t25 -21.5l7 -9l-99 -97q-4 5 -11.5 13.5t-34 22t-58.5 13.5q-57 0 -95.5 -39
t-38.5 -96t38.5 -96t95.5 -39q34 0 61 13.5t37 27.5l10 13z" />
    <glyph glyph-name="Dcaron" unicode="&#x10e;" horiz-adv-x="760" 
d="M425 752h-130l-140 168h126l82 -82l82 82h120zM330 700q168 0 276.5 -99t108.5 -249t-111 -251t-279 -101h-245v700h250zM233 132h100q100 0 165 62t65 156t-65 155.5t-165 61.5h-100v-435z" />
    <glyph glyph-name="dcaron" unicode="&#x10f;" horiz-adv-x="827" 
d="M589 0h-121l-12 77q-64 -87 -172 -87q-103 0 -176 77t-73 189q0 113 75 191.5t179 78.5q97 0 155 -69v243h145v-700zM649 442l32 258h146l-73 -258h-105zM314 393q-57 0 -95.5 -39t-38.5 -96t38.5 -96t95.5 -39q58 0 96.5 39t38.5 96t-38.5 96t-96.5 39z" />
    <glyph glyph-name="Dcroat" unicode="&#x110;" horiz-adv-x="797" 
d="M117 315h-87v83h87v302h250q168 0 276.5 -99t108.5 -249t-111 -251t-279 -101h-245v315zM270 315v-183h100q100 0 165 62t65 156t-65 155.5t-165 61.5h-100v-169h170v-83h-170z" />
    <glyph glyph-name="dcroat" unicode="&#x111;" horiz-adv-x="682" 
d="M589 651h73v-83h-73v-568h-121l-12 77q-64 -87 -171 -87q-103 0 -176.5 77t-73.5 189q0 113 75 191.5t180 78.5q98 0 154 -69v111h-129v83h129v49h145v-49zM315 393q-58 0 -96.5 -39t-38.5 -96t38.5 -96t96.5 -39q57 0 95.5 39t38.5 96t-38.5 96t-95.5 39z" />
    <glyph glyph-name="Emacron" unicode="&#x112;" horiz-adv-x="650" 
d="M165 876h360v-84h-360v84zM80 0v700h515v-133h-362v-145h312v-124h-312v-166h372v-132h-525z" />
    <glyph glyph-name="emacron" unicode="&#x113;" horiz-adv-x="606" 
d="M133 692h360v-84h-360v84zM181 230q8 -52 46 -83.5t95 -31.5q40 0 74 15.5t48 31.5l14 15l86 -83l-8.5 -11t-26 -25t-45 -32t-65.5 -25t-87 -11q-120 0 -198.5 76t-78.5 190t80.5 192t198.5 78q107 0 182 -73t75 -175q0 -13 -2 -25t-4 -17l-2 -6h-382zM311 420
q-48 0 -83 -28t-44 -73h247q-7 43 -41 72t-79 29z" />
    <glyph glyph-name="Ebreve" unicode="&#x114;" horiz-adv-x="650" 
d="M273 920v-13q0 -31 20 -50.5t53 -19.5q32 0 51 19.5t19 50.5v13h100v-5q0 -72 -48 -117.5t-123 -45.5t-123 45.5t-48 117.5v5h99zM80 0v700h515v-133h-362v-145h312v-124h-312v-166h372v-132h-525z" />
    <glyph glyph-name="ebreve" unicode="&#x115;" horiz-adv-x="606" 
d="M241 740v-13q0 -31 20 -50.5t53 -19.5q32 0 51 19.5t19 50.5v13h100v-5q0 -72 -48 -117.5t-123 -45.5t-123 45.5t-48 117.5v5h99zM181 230q8 -52 46 -83.5t95 -31.5q40 0 74 15.5t48 31.5l14 15l86 -83l-8.5 -11t-26 -25t-45 -32t-65.5 -25t-87 -11q-120 0 -198.5 76
t-78.5 190t80.5 192t198.5 78q107 0 182 -73t75 -175q0 -13 -2 -25t-4 -17l-2 -6h-382zM311 420q-48 0 -83 -28t-44 -73h247q-7 43 -41 72t-79 29z" />
    <glyph glyph-name="Edotaccent" unicode="&#x116;" horiz-adv-x="650" 
d="M345 920q33 0 54.5 -21.5t21.5 -54.5q0 -32 -22.5 -54.5t-54.5 -22.5q-33 0 -54.5 21.5t-21.5 54.5t22 55t55 22zM80 0v700h515v-133h-362v-145h312v-124h-312v-166h372v-132h-525z" />
    <glyph glyph-name="edotaccent" unicode="&#x117;" horiz-adv-x="606" 
d="M313 736q33 0 54.5 -21.5t21.5 -54.5q0 -32 -22.5 -54.5t-54.5 -22.5q-33 0 -54.5 21.5t-21.5 54.5t22 55t55 22zM181 230q8 -52 46 -83.5t95 -31.5q40 0 74 15.5t48 31.5l14 15l86 -83l-8.5 -11t-26 -25t-45 -32t-65.5 -25t-87 -11q-120 0 -198.5 76t-78.5 190t80.5 192
t198.5 78q107 0 182 -73t75 -175q0 -13 -2 -25t-4 -17l-2 -6h-382zM311 420q-48 0 -83 -28t-44 -73h247q-7 43 -41 72t-79 29z" />
    <glyph glyph-name="Eogonek" unicode="&#x118;" horiz-adv-x="650" 
d="M501 0q-20 -12 -20 -41q0 -21 17 -35t43 -14q14 0 26.5 3t18.5 6l6 3l23 -81q-31 -26 -88 -26q-60 0 -101 35t-41 94q0 33 14 56h-319v700h515v-133h-362v-145h312v-124h-312v-166h372v-132h-104z" />
    <glyph glyph-name="eogonek" unicode="&#x119;" horiz-adv-x="606" 
d="M181 230q8 -52 46 -83.5t95 -31.5q40 0 74 15.5t48 31.5l14 15l86 -83q-5 -8 -16 -20t-51 -38t-87 -37q-18 -14 -18 -40q0 -21 17 -35t43 -14q14 0 26.5 3t18.5 6l6 3l23 -81q-31 -26 -88 -26q-60 0 -101 35t-41 94q0 25 10 47q-110 9 -180.5 83.5t-70.5 181.5
q0 114 80.5 192t198.5 78q107 0 182 -73t75 -175q0 -13 -2 -25t-4 -17l-2 -6h-382zM311 420q-48 0 -83 -28t-44 -73h247q-7 43 -41 72t-79 29z" />
    <glyph glyph-name="Ecaron" unicode="&#x11a;" horiz-adv-x="650" 
d="M410 752h-130l-140 168h126l82 -82l82 82h120zM80 0v700h515v-133h-362v-145h312v-124h-312v-166h372v-132h-525z" />
    <glyph glyph-name="ecaron" unicode="&#x11b;" horiz-adv-x="606" 
d="M378 572h-130l-140 168h126l82 -82l82 82h120zM181 230q8 -52 46 -83.5t95 -31.5q40 0 74 15.5t48 31.5l14 15l86 -83l-8.5 -11t-26 -25t-45 -32t-65.5 -25t-87 -11q-120 0 -198.5 76t-78.5 190t80.5 192t198.5 78q107 0 182 -73t75 -175q0 -13 -2 -25t-4 -17l-2 -6h-382
zM311 420q-48 0 -83 -28t-44 -73h247q-7 43 -41 72t-79 29z" />
    <glyph glyph-name="Gcircumflex" unicode="&#x11c;" horiz-adv-x="800" 
d="M340 920h130l140 -168h-126l-82 82l-82 -82h-120zM753 380q2 -19 2 -39q-1 -149 -97.5 -250t-247.5 -101q-156 0 -260.5 103t-104.5 255t107 257t263 105q52 0 98.5 -11t76 -27t52 -32t32.5 -27l9 -11l-106 -108q-2 3 -6.5 8t-20 18.5t-33 23.5t-46 18t-59.5 8
q-93 0 -154 -63t-61 -158t61 -158.5t154 -63.5q73 0 123 38.5t63 104.5h-193v110h348z" />
    <glyph glyph-name="gcircumflex" unicode="&#x11d;" horiz-adv-x="649" 
d="M259 740h130l140 -168h-126l-82 82l-82 -82h-120zM92 13q9 -7 26 -17t67.5 -27t98.5 -17q76 0 118 37.5t42 107.5v11q-56 -63 -156 -63q-107 0 -180 69.5t-73 168.5q0 104 72.5 173.5t185.5 69.5q100 0 165 -71l10 61h121v-387q0 -137 -77.5 -218t-215.5 -81q-45 0 -88 8
t-72 19.5t-52 22.5t-34 19l-11 8zM314 405q-57 0 -95.5 -36t-38.5 -87t38.5 -87t95.5 -36t96 36t39 87t-39 87t-96 36z" />
    <glyph glyph-name="Gbreve" unicode="&#x11e;" horiz-adv-x="800" 
d="M333 920v-13q0 -31 20 -50.5t53 -19.5q32 0 51 19.5t19 50.5v13h100v-5q0 -72 -48 -117.5t-123 -45.5t-123 45.5t-48 117.5v5h99zM753 380q2 -19 2 -39q-1 -149 -97.5 -250t-247.5 -101q-156 0 -260.5 103t-104.5 255t107 257t263 105q52 0 98.5 -11t76 -27t52 -32
t32.5 -27l9 -11l-106 -108q-2 3 -6.5 8t-20 18.5t-33 23.5t-46 18t-59.5 8q-93 0 -154 -63t-61 -158t61 -158.5t154 -63.5q73 0 123 38.5t63 104.5h-193v110h348z" />
    <glyph glyph-name="gbreve" unicode="&#x11f;" horiz-adv-x="649" 
d="M252 740v-13q0 -31 20 -50.5t53 -19.5q32 0 51 19.5t19 50.5v13h100v-5q0 -72 -48 -117.5t-123 -45.5t-123 45.5t-48 117.5v5h99zM92 13q9 -7 26 -17t67.5 -27t98.5 -17q76 0 118 37.5t42 107.5v11q-56 -63 -156 -63q-107 0 -180 69.5t-73 168.5q0 104 72.5 173.5
t185.5 69.5q100 0 165 -71l10 61h121v-387q0 -137 -77.5 -218t-215.5 -81q-45 0 -88 8t-72 19.5t-52 22.5t-34 19l-11 8zM314 405q-57 0 -95.5 -36t-38.5 -87t38.5 -87t95.5 -36t96 36t39 87t-39 87t-96 36z" />
    <glyph glyph-name="Gdotaccent" unicode="&#x120;" horiz-adv-x="800" 
d="M405 920q33 0 54.5 -21.5t21.5 -54.5q0 -32 -22.5 -54.5t-54.5 -22.5q-33 0 -54.5 21.5t-21.5 54.5t22 55t55 22zM753 380q2 -19 2 -39q-1 -149 -97.5 -250t-247.5 -101q-156 0 -260.5 103t-104.5 255t107 257t263 105q52 0 98.5 -11t76 -27t52 -32t32.5 -27l9 -11
l-106 -108q-2 3 -6.5 8t-20 18.5t-33 23.5t-46 18t-59.5 8q-93 0 -154 -63t-61 -158t61 -158.5t154 -63.5q73 0 123 38.5t63 104.5h-193v110h348z" />
    <glyph glyph-name="gdotaccent" unicode="&#x121;" horiz-adv-x="649" 
d="M324 736q33 0 54.5 -21.5t21.5 -54.5q0 -32 -22.5 -54.5t-54.5 -22.5q-33 0 -54.5 21.5t-21.5 54.5t22 55t55 22zM92 13q9 -7 26 -17t67.5 -27t98.5 -17q76 0 118 37.5t42 107.5v11q-56 -63 -156 -63q-107 0 -180 69.5t-73 168.5q0 104 72.5 173.5t185.5 69.5
q100 0 165 -71l10 61h121v-387q0 -137 -77.5 -218t-215.5 -81q-45 0 -88 8t-72 19.5t-52 22.5t-34 19l-11 8zM314 405q-57 0 -95.5 -36t-38.5 -87t38.5 -87t95.5 -36t96 36t39 87t-39 87t-96 36z" />
    <glyph glyph-name="Gcommaaccent" unicode="&#x122;" horiz-adv-x="800" 
d="M753 380q2 -19 2 -39q-1 -149 -97.5 -250t-247.5 -101q-156 0 -260.5 103t-104.5 255t107 257t263 105q52 0 98.5 -11t76 -27t52 -32t32.5 -27l9 -11l-106 -108q-2 3 -6.5 8t-20 18.5t-33 23.5t-46 18t-59.5 8q-93 0 -154 -63t-61 -158t61 -158.5t154 -63.5
q73 0 123 38.5t63 104.5h-193v110h348zM378 -218h-114l67 168h153z" />
    <glyph glyph-name="gcommaaccent" unicode="&#x123;" horiz-adv-x="649" 
d="M335 740h114l-67 -168h-153zM92 13q9 -7 26 -17t67.5 -27t98.5 -17q76 0 118 37.5t42 107.5v11q-56 -63 -156 -63q-107 0 -180 69.5t-73 168.5q0 104 72.5 173.5t185.5 69.5q100 0 165 -71l10 61h121v-387q0 -137 -77.5 -218t-215.5 -81q-45 0 -88 8t-72 19.5t-52 22.5
t-34 19l-11 8zM314 405q-57 0 -95.5 -36t-38.5 -87t38.5 -87t95.5 -36t96 36t39 87t-39 87t-96 36z" />
    <glyph glyph-name="Hcircumflex" unicode="&#x124;" horiz-adv-x="770" 
d="M320 920h130l140 -168h-126l-82 82l-82 -82h-120zM538 295h-305v-295h-153v700h153v-269h305v269h152v-700h-152v295z" />
    <glyph glyph-name="hcircumflex" unicode="&#x125;" 
d="M242 920h130l140 -168h-126l-82 82l-82 -82h-120zM60 700h145v-256q55 82 160 82q84 0 139.5 -56.5t55.5 -155.5v-314h-145v268q0 62 -28 93.5t-73 31.5q-48 0 -78.5 -31t-30.5 -92v-270h-145v700z" />
    <glyph glyph-name="Hbar" unicode="&#x126;" horiz-adv-x="844" 
d="M117 521h-87v84h87v95h153v-95h305v95h152v-95h87v-84h-87v-521h-152v295h-305v-295h-153v521zM575 431v90h-305v-90h305z" />
    <glyph glyph-name="hbar" unicode="&#x127;" horiz-adv-x="648" 
d="M93 568h-73v83h73v49h145v-49h129v-83h-129v-124q55 82 160 82q84 0 139.5 -56.5t55.5 -155.5v-314h-145v268q0 62 -28 93.5t-73 31.5q-48 0 -78.5 -31t-30.5 -92v-270h-145v568z" />
    <glyph glyph-name="Itilde" unicode="&#x128;" horiz-adv-x="327" 
d="M-16 777q0 6 1 15t7 33t16.5 42t32 33t50.5 15q34 0 59.5 -18t45 -36t38.5 -18q15 0 24 14.5t11 28.5l2 15l72 -8q0 -6 -1 -15t-7.5 -33t-16.5 -42t-32 -33t-51 -15q-33 0 -58.5 18t-45.5 36t-39 18q-14 0 -23 -14.5t-11 -28.5l-2 -15zM85 700h157v-700h-157v700z" />
    <glyph glyph-name="itilde" unicode="&#x129;" horiz-adv-x="277" 
d="M-41 597q0 6 1 15t7 33t16.5 42t32 33t50.5 15q34 0 59.5 -18t45 -36t38.5 -18q15 0 24 14.5t11 28.5l2 15l72 -8q0 -6 -1 -15t-7.5 -33t-16.5 -42t-32 -33t-51 -15q-33 0 -58.5 18t-45.5 36t-39 18q-14 0 -23 -14.5t-11 -28.5l-2 -15zM65 516h147v-516h-147v516z" />
    <glyph glyph-name="Imacron" unicode="&#x12a;" horiz-adv-x="327" 
d="M-16 876h360v-84h-360v84zM85 700h157v-700h-157v700z" />
    <glyph glyph-name="imacron" unicode="&#x12b;" horiz-adv-x="277" 
d="M-41 692h360v-84h-360v84zM65 516h147v-516h-147v516z" />
    <glyph glyph-name="Ibreve" unicode="&#x12c;" horiz-adv-x="327" 
d="M92 920v-13q0 -31 20 -50.5t53 -19.5q32 0 51 19.5t19 50.5v13h100v-5q0 -72 -48 -117.5t-123 -45.5t-123 45.5t-48 117.5v5h99zM85 700h157v-700h-157v700z" />
    <glyph glyph-name="ibreve" unicode="&#x12d;" horiz-adv-x="277" 
d="M67 740v-13q0 -31 20 -50.5t53 -19.5q32 0 51 19.5t19 50.5v13h100v-5q0 -72 -48 -117.5t-123 -45.5t-123 45.5t-48 117.5v5h99zM65 516h147v-516h-147v516z" />
    <glyph glyph-name="Iogonek" unicode="&#x12e;" horiz-adv-x="327" 
d="M172 0q-1 0 -5.5 -4t-9 -14t-4.5 -23q0 -21 17 -35t43 -14q14 0 26.5 3t18.5 6l6 3l23 -81q-31 -26 -88 -26q-60 0 -101 35t-41 94q0 45 28 76v680h157v-700h-70z" />
    <glyph glyph-name="iogonek" unicode="&#x12f;" horiz-adv-x="277" 
d="M138 748q40 0 66 -25.5t26 -63.5q0 -39 -26 -64.5t-66 -25.5t-65.5 25.5t-25.5 64.5q0 38 25.5 63.5t65.5 25.5zM142 0q-1 0 -5.5 -4t-9 -14t-4.5 -23q0 -21 17 -35t43 -14q14 0 26.5 3t18.5 6l6 3l23 -81q-31 -26 -88 -26q-60 0 -101 35t-41 94q0 52 38 86v486h147v-516
h-70z" />
    <glyph glyph-name="Idotaccent" unicode="&#x130;" horiz-adv-x="327" 
d="M163 920q33 0 54.5 -21.5t21.5 -54.5q0 -32 -22.5 -54.5t-54.5 -22.5q-33 0 -54.5 21.5t-21.5 54.5t22 55t55 22zM85 700h157v-700h-157v700z" />
    <glyph glyph-name="dotlessi" unicode="&#x131;" horiz-adv-x="277" 
d="M65 516h147v-516h-147v516z" />
    <glyph glyph-name="IJ" unicode="&#x132;" horiz-adv-x="817" 
d="M85 700h157v-700h-157v700zM591 700h156v-439q0 -123 -73.5 -197t-189.5 -74q-44 0 -81 8t-51 16l-15 7l40 133q34 -20 94 -20q53 0 86.5 36.5t33.5 99.5v430z" />
    <glyph glyph-name="ij" unicode="&#x133;" horiz-adv-x="554" 
d="M138 748q40 0 66 -25.5t26 -63.5q0 -39 -26 -64.5t-66 -25.5t-65.5 25.5t-25.5 64.5q0 38 25.5 63.5t65.5 25.5zM415 748q40 0 66 -25.5t26 -63.5q0 -39 -26 -64.5t-66 -25.5t-65.5 25.5t-25.5 64.5q0 38 25.5 63.5t65.5 25.5zM65 516h147v-516h-147v516zM489 516v-474
q0 -104 -50.5 -158t-143.5 -54q-18 0 -38 3t-31 5l-10 3l18 119q19 -5 41 -5q67 0 67 75v486h147z" />
    <glyph glyph-name="Jcircumflex" unicode="&#x134;" horiz-adv-x="490" 
d="M278 920h130l140 -168h-126l-82 82l-82 -82h-120zM264 700h156v-439q0 -123 -73.5 -197t-189.5 -74q-44 0 -80.5 8t-51.5 16l-15 7l40 133q34 -20 94 -20q53 0 86.5 36.5t33.5 99.5v430z" />
    <glyph glyph-name="jcircumflex" unicode="&#x135;" horiz-adv-x="277" 
d="M74 740h130l140 -168h-126l-82 82l-82 -82h-120zM212 516v-474q0 -104 -50.5 -158t-143.5 -54q-18 0 -38 3t-30 5l-11 3l18 119q19 -5 41 -5q67 0 67 75v486h147z" />
    <glyph glyph-name="Kcommaaccent" unicode="&#x136;" horiz-adv-x="708" 
d="M233 339v-339h-153v700h153v-319l275 319h185l-308 -332l328 -368h-185zM348 -218h-114l67 168h153z" />
    <glyph glyph-name="kcommaaccent" unicode="&#x137;" horiz-adv-x="592" 
d="M60 700h145v-409l198 225h174l-227 -234l247 -282h-177l-215 257v-257h-145v700zM283 -218h-114l67 168h153z" />
    <glyph glyph-name="Lacute" unicode="&#x139;" horiz-adv-x="590" 
d="M214 752h-114l67 168h153zM80 0v700h153v-564h342v-136h-495z" />
    <glyph glyph-name="lacute" unicode="&#x13a;" horiz-adv-x="277" 
d="M199 752h-114l67 168h153zM65 700h147v-700h-147v700z" />
    <glyph glyph-name="Lcommaaccent" unicode="&#x13b;" horiz-adv-x="590" 
d="M80 0v700h153v-564h342v-136h-495zM303 -218h-114l67 168h153z" />
    <glyph glyph-name="lcommaaccent" unicode="&#x13c;" horiz-adv-x="277" 
d="M65 700h147v-700h-147v700zM109 -218h-114l67 168h153z" />
    <glyph glyph-name="Lcaron" unicode="&#x13d;" horiz-adv-x="590" 
d="M80 0v700h153v-564h342v-136h-495zM361 442l33 258h146l-74 -258h-105z" />
    <glyph glyph-name="lcaron" unicode="&#x13e;" horiz-adv-x="451" 
d="M65 700h147v-700h-147v700zM272 442l32 258h147l-74 -258h-105z" />
    <glyph glyph-name="Ldot" unicode="&#x13f;" horiz-adv-x="590" 
d="M80 0v700h153v-564h342v-136h-495zM416 482q38 0 64.5 -26.5t26.5 -64.5q0 -37 -26.5 -64t-64.5 -27t-64.5 26.5t-26.5 64.5t26.5 64.5t64.5 26.5z" />
    <glyph glyph-name="ldot" unicode="&#x140;" horiz-adv-x="476" 
d="M65 700h147v-700h-147v700zM365 441q37 0 64 -26.5t27 -64.5t-26.5 -64.5t-64.5 -26.5t-64.5 26.5t-26.5 64.5t26.5 64.5t64.5 26.5z" />
    <glyph glyph-name="Lslash" unicode="&#x141;" horiz-adv-x="627" 
d="M117 0v310l-87 -14v84l87 13v307h153v-284l237 38v-84l-237 -38v-196h342v-136h-495z" />
    <glyph glyph-name="lslash" unicode="&#x142;" horiz-adv-x="370" 
d="M107 315l-77 -16v83l77 17v301h147v-270l86 19v-84l-86 -19v-346h-147v315z" />
    <glyph glyph-name="Nacute" unicode="&#x143;" horiz-adv-x="790" 
d="M459 752h-114l67 168h153zM229 472v-472h-149v700h158l323 -460v460h149v-700h-149z" />
    <glyph glyph-name="nacute" unicode="&#x144;" 
d="M356 572h-114l67 168h153zM205 0h-145v516h129l7 -79q55 89 170 89q85 0 139.5 -56t54.5 -156v-314h-145v268q0 62 -27.5 93.5t-72.5 31.5q-49 0 -79.5 -32t-30.5 -98v-263z" />
    <glyph glyph-name="Ncommaaccent" unicode="&#x145;" horiz-adv-x="790" 
d="M229 472v-472h-149v700h158l323 -460v460h149v-700h-149zM378 -218h-114l67 168h153z" />
    <glyph glyph-name="ncommaaccent" unicode="&#x146;" 
d="M205 0h-145v516h129l7 -79q55 89 170 89q85 0 139.5 -56t54.5 -156v-314h-145v268q0 62 -27.5 93.5t-72.5 31.5q-49 0 -79.5 -32t-30.5 -98v-263zM288 -218h-114l67 168h153z" />
    <glyph glyph-name="Ncaron" unicode="&#x147;" horiz-adv-x="790" 
d="M460 752h-130l-140 168h126l82 -82l82 82h120zM229 472v-472h-149v700h158l323 -460v460h149v-700h-149z" />
    <glyph glyph-name="ncaron" unicode="&#x148;" 
d="M372 572h-130l-140 168h126l82 -82l82 82h120zM205 0h-145v516h129l7 -79q55 89 170 89q85 0 139.5 -56t54.5 -156v-314h-145v268q0 62 -27.5 93.5t-72.5 31.5q-49 0 -79.5 -32t-30.5 -98v-263z" />
    <glyph glyph-name="Eng" unicode="&#x14a;" horiz-adv-x="790" 
d="M562 240v460h148v-656q0 -101 -55 -157.5t-147 -56.5q-32 0 -58.5 5.5t-36.5 10.5l-10 6l30 111q24 -11 58 -11q57 0 70 48l-332 472v-472h-149v700h158z" />
    <glyph glyph-name="eng" unicode="&#x14b;" 
d="M60 516h128l8 -79q55 89 169 89q86 0 140.5 -56t54.5 -156v-271q0 -104 -51.5 -158.5t-145.5 -54.5q-16 0 -31 2t-22 4l-7 3l13 121q12 -4 31 -4q68 0 68 74v237q0 63 -27.5 94.5t-73.5 31.5q-49 0 -79 -32t-30 -96v-265h-145v516z" />
    <glyph glyph-name="Omacron" unicode="&#x14c;" horiz-adv-x="825" 
d="M232 876h360v-84h-360v84zM415 710q156 0 260.5 -103t104.5 -255t-107 -257t-263 -105t-260.5 102.5t-104.5 254.5t107 257.5t263 105.5zM413 130q92 0 153.5 63t61.5 157q0 93 -61.5 156t-153.5 63q-93 0 -154 -63t-61 -156q0 -94 61 -157t154 -63z" />
    <glyph glyph-name="omacron" unicode="&#x14d;" horiz-adv-x="629" 
d="M134 692h360v-84h-360v84zM317 526q120 0 198.5 -75.5t78.5 -189.5t-81 -192.5t-201 -78.5t-198.5 76t-78.5 190t81 192t201 78zM314 123q58 0 96.5 39t38.5 96t-38.5 96t-96.5 39q-57 0 -95.5 -39t-38.5 -96t38.5 -96t95.5 -39z" />
    <glyph glyph-name="Obreve" unicode="&#x14e;" horiz-adv-x="825" 
d="M340 920v-13q0 -31 20 -50.5t53 -19.5q32 0 51 19.5t19 50.5v13h100v-5q0 -72 -48 -117.5t-123 -45.5t-123 45.5t-48 117.5v5h99zM415 710q156 0 260.5 -103t104.5 -255t-107 -257t-263 -105t-260.5 102.5t-104.5 254.5t107 257.5t263 105.5zM413 130q92 0 153.5 63
t61.5 157q0 93 -61.5 156t-153.5 63q-93 0 -154 -63t-61 -156q0 -94 61 -157t154 -63z" />
    <glyph glyph-name="obreve" unicode="&#x14f;" horiz-adv-x="629" 
d="M242 740v-13q0 -31 20 -50.5t53 -19.5q32 0 51 19.5t19 50.5v13h100v-5q0 -72 -48 -117.5t-123 -45.5t-123 45.5t-48 117.5v5h99zM317 526q120 0 198.5 -75.5t78.5 -189.5t-81 -192.5t-201 -78.5t-198.5 76t-78.5 190t81 192t201 78zM314 123q58 0 96.5 39t38.5 96
t-38.5 96t-96.5 39q-57 0 -95.5 -39t-38.5 -96t38.5 -96t95.5 -39z" />
    <glyph glyph-name="Ohungarumlaut" unicode="&#x150;" horiz-adv-x="825" 
d="M309 920h150l-94 -168h-110zM520 920h150l-93 -168h-110zM415 710q156 0 260.5 -103t104.5 -255t-107 -257t-263 -105t-260.5 102.5t-104.5 254.5t107 257.5t263 105.5zM413 130q92 0 153.5 63t61.5 157q0 93 -61.5 156t-153.5 63q-93 0 -154 -63t-61 -156q0 -94 61 -157
t154 -63z" />
    <glyph glyph-name="ohungarumlaut" unicode="&#x151;" horiz-adv-x="629" 
d="M211 740h150l-94 -168h-110zM422 740h150l-93 -168h-110zM317 526q120 0 198.5 -75.5t78.5 -189.5t-81 -192.5t-201 -78.5t-198.5 76t-78.5 190t81 192t201 78zM314 123q58 0 96.5 39t38.5 96t-38.5 96t-96.5 39q-57 0 -95.5 -39t-38.5 -96t38.5 -96t95.5 -39z" />
    <glyph glyph-name="OE" unicode="&#x152;" horiz-adv-x="1078" 
d="M660 567v-145h313v-124h-313v-166h373v-132h-603q-168 0 -276.5 98.5t-108.5 248.5t111 251.5t279 101.5h588v-133h-363zM508 567h-80q-100 0 -165 -61.5t-65 -155.5t65 -156t165 -62h80v435z" />
    <glyph glyph-name="oe" unicode="&#x153;" horiz-adv-x="1020" 
d="M595 230q8 -52 46 -83.5t95 -31.5q40 0 74 15.5t48 31.5l14 15l86 -83l-8.5 -11t-26 -25t-45 -32t-65.5 -25t-87 -11q-132 0 -207 94q-76 -94 -207 -94q-120 0 -198.5 76t-78.5 190t81 192t201 78q133 0 206 -94q76 94 205 94q107 0 182 -73t75 -175q0 -13 -2 -25t-4 -17
l-2 -6h-382zM725 420q-48 0 -83 -28t-44 -73h247q-7 43 -41 72t-79 29zM314 123q58 0 96.5 39t38.5 96t-38.5 96t-96.5 39q-57 0 -95.5 -39t-38.5 -96t38.5 -96t95.5 -39z" />
    <glyph glyph-name="Racute" unicode="&#x154;" horiz-adv-x="700" 
d="M399 752h-114l67 168h153zM80 700h313q112 0 182 -63t70 -164q0 -74 -39.5 -130t-107.5 -81l177 -262h-177l-157 241h-108v-241h-153v700zM233 571v-212h141q55 0 87 29.5t32 76.5t-32 76.5t-87 29.5h-141z" />
    <glyph glyph-name="racute" unicode="&#x155;" horiz-adv-x="414" 
d="M276 572h-114l67 168h153zM60 516h129l8 -100q54 110 192 110l-2 -148h-30q-152 0 -152 -165v-213h-145v516z" />
    <glyph glyph-name="Rcommaaccent" unicode="&#x156;" horiz-adv-x="700" 
d="M80 700h313q112 0 182 -63t70 -164q0 -74 -39.5 -130t-107.5 -81l177 -262h-177l-157 241h-108v-241h-153v700zM233 571v-212h141q55 0 87 29.5t32 76.5t-32 76.5t-87 29.5h-141zM333 -218h-114l67 168h153z" />
    <glyph glyph-name="rcommaaccent" unicode="&#x157;" horiz-adv-x="414" 
d="M60 516h129l8 -100q54 110 192 110l-2 -148h-30q-152 0 -152 -165v-213h-145v516zM104 -218h-114l67 168h153z" />
    <glyph glyph-name="Rcaron" unicode="&#x158;" horiz-adv-x="700" 
d="M405 752h-130l-140 168h126l82 -82l82 82h120zM80 700h313q112 0 182 -63t70 -164q0 -74 -39.5 -130t-107.5 -81l177 -262h-177l-157 241h-108v-241h-153v700zM233 571v-212h141q55 0 87 29.5t32 76.5t-32 76.5t-87 29.5h-141z" />
    <glyph glyph-name="rcaron" unicode="&#x159;" horiz-adv-x="414" 
d="M292 572h-130l-140 168h126l82 -82l82 82h120zM60 516h129l8 -100q54 110 192 110l-2 -148h-30q-152 0 -152 -165v-213h-145v516z" />
    <glyph glyph-name="Sacute" unicode="&#x15a;" horiz-adv-x="585" 
d="M351 752h-114l67 168h153zM340 419q200 -78 200 -219q0 -90 -70 -150t-183 -60q-49 0 -94.5 11t-75.5 26t-53 30.5t-34 26.5l-10 11l90 97q3 -3 9 -8.5t25 -19t39.5 -23.5t51 -18.5t60.5 -8.5q39 0 64 19.5t25 49.5q0 35 -34 62.5t-125 64.5q-167 65 -167 201
q0 87 67 143t176 56q43 0 83 -9.5t66.5 -22.5t47.5 -26t30 -22l10 -10l-90 -97q-7 7 -19 17.5t-49.5 28t-76.5 17.5q-42 0 -65.5 -19t-23.5 -44q0 -31 26.5 -53.5t99.5 -50.5z" />
    <glyph glyph-name="sacute" unicode="&#x15b;" horiz-adv-x="469" 
d="M273 572h-114l67 168h153zM276 313q76 -22 117 -64t41 -96q0 -72 -55 -117.5t-152 -45.5q-59 0 -112 19t-77 37l-23 19l62 92q8 -7 21 -17t52.5 -26.5t75.5 -16.5q30 0 47.5 12.5t17.5 31.5q0 22 -22 39t-88 38q-69 22 -105.5 61.5t-36.5 93.5q0 64 53 108.5t145 44.5
q32 0 64 -6.5t54 -16t40 -19.5t27 -16l8 -7l-62 -94q-6 6 -17.5 14.5t-44.5 23t-64 14.5q-29 0 -45 -11.5t-16 -27.5q0 -19 19.5 -34.5t75.5 -32.5z" />
    <glyph glyph-name="Scircumflex" unicode="&#x15c;" horiz-adv-x="585" 
d="M232 920h130l140 -168h-126l-82 82l-82 -82h-120zM340 419q200 -78 200 -219q0 -90 -70 -150t-183 -60q-49 0 -94.5 11t-75.5 26t-53 30.5t-34 26.5l-10 11l90 97q3 -3 9 -8.5t25 -19t39.5 -23.5t51 -18.5t60.5 -8.5q39 0 64 19.5t25 49.5q0 35 -34 62.5t-125 64.5
q-167 65 -167 201q0 87 67 143t176 56q43 0 83 -9.5t66.5 -22.5t47.5 -26t30 -22l10 -10l-90 -97q-7 7 -19 17.5t-49.5 28t-76.5 17.5q-42 0 -65.5 -19t-23.5 -44q0 -31 26.5 -53.5t99.5 -50.5z" />
    <glyph glyph-name="scircumflex" unicode="&#x15d;" horiz-adv-x="469" 
d="M170 740h130l140 -168h-126l-82 82l-82 -82h-120zM276 313q76 -22 117 -64t41 -96q0 -72 -55 -117.5t-152 -45.5q-59 0 -112 19t-77 37l-23 19l62 92q8 -7 21 -17t52.5 -26.5t75.5 -16.5q30 0 47.5 12.5t17.5 31.5q0 22 -22 39t-88 38q-69 22 -105.5 61.5t-36.5 93.5
q0 64 53 108.5t145 44.5q32 0 64 -6.5t54 -16t40 -19.5t27 -16l8 -7l-62 -94q-6 6 -17.5 14.5t-44.5 23t-64 14.5q-29 0 -45 -11.5t-16 -27.5q0 -19 19.5 -34.5t75.5 -32.5z" />
    <glyph glyph-name="Scedilla" unicode="&#x15e;" horiz-adv-x="585" 
d="M340 419q200 -78 200 -219q0 -78 -54.5 -135.5t-145.5 -70.5q13 -24 13 -54q0 -62 -46 -98.5t-110 -36.5q-28 0 -54 6.5t-38 13.5l-12 7l30 84q23 -16 62 -16q29 0 46.5 14.5t17.5 39.5q0 23 -17 40q-39 5 -75 17.5t-60 26t-42 27t-27 21.5l-8 9l90 97q3 -3 9 -8.5
t25 -19t39.5 -23.5t51 -18.5t60.5 -8.5q39 0 64 19.5t25 49.5q0 35 -34 62.5t-125 64.5q-167 65 -167 201q0 87 67 143t176 56q43 0 83 -9.5t66.5 -22.5t47.5 -26t30 -22l10 -10l-90 -97q-7 7 -19 17.5t-49.5 28t-76.5 17.5q-42 0 -65.5 -19t-23.5 -44q0 -31 26.5 -53.5
t99.5 -50.5z" />
    <glyph glyph-name="scedilla" unicode="&#x15f;" horiz-adv-x="469" 
d="M276 313q76 -22 117 -64t41 -96q0 -60 -39 -102.5t-110 -55.5q14 -23 14 -55q0 -62 -46 -98.5t-110 -36.5q-28 0 -54 6.5t-38 13.5l-12 7l30 84q23 -16 62 -16q29 0 46.5 14.5t17.5 39.5q0 23 -17 40q-46 6 -86.5 24t-58.5 32l-18 15l62 92q8 -7 21 -17t52.5 -26.5
t75.5 -16.5q30 0 47.5 12.5t17.5 31.5q0 22 -22 39t-88 38q-69 22 -105.5 61.5t-36.5 93.5q0 64 53 108.5t145 44.5q32 0 64 -6.5t54 -16t40 -19.5t27 -16l8 -7l-62 -94q-6 6 -17.5 14.5t-44.5 23t-64 14.5q-29 0 -45 -11.5t-16 -27.5q0 -19 19.5 -34.5t75.5 -32.5z" />
    <glyph glyph-name="Scaron" unicode="&#x160;" horiz-adv-x="585" 
d="M365 752h-130l-140 168h126l82 -82l82 82h120zM340 419q200 -78 200 -219q0 -90 -70 -150t-183 -60q-49 0 -94.5 11t-75.5 26t-53 30.5t-34 26.5l-10 11l90 97q3 -3 9 -8.5t25 -19t39.5 -23.5t51 -18.5t60.5 -8.5q39 0 64 19.5t25 49.5q0 35 -34 62.5t-125 64.5
q-167 65 -167 201q0 87 67 143t176 56q43 0 83 -9.5t66.5 -22.5t47.5 -26t30 -22l10 -10l-90 -97q-7 7 -19 17.5t-49.5 28t-76.5 17.5q-42 0 -65.5 -19t-23.5 -44q0 -31 26.5 -53.5t99.5 -50.5z" />
    <glyph glyph-name="scaron" unicode="&#x161;" horiz-adv-x="485" 
d="M310 572h-130l-140 168h126l82 -82l82 82h120zM276 313q76 -22 117 -64t41 -96q0 -72 -55 -117.5t-152 -45.5q-59 0 -112 19t-77 37l-23 19l62 92q8 -7 21 -17t52.5 -26.5t75.5 -16.5q30 0 47.5 12.5t17.5 31.5q0 22 -22 39t-88 38q-69 22 -105.5 61.5t-36.5 93.5
q0 64 53 108.5t145 44.5q32 0 64 -6.5t54 -16t40 -19.5t27 -16l8 -7l-62 -94q-6 6 -17.5 14.5t-44.5 23t-64 14.5q-29 0 -45 -11.5t-16 -27.5q0 -19 19.5 -34.5t75.5 -32.5z" />
    <glyph glyph-name="Tcaron" unicode="&#x164;" horiz-adv-x="590" 
d="M360 752h-130l-140 168h126l82 -82l82 82h120zM371 567v-567h-152v567h-204v133h560v-133h-204z" />
    <glyph glyph-name="tcaron" unicode="&#x165;" horiz-adv-x="450" 
d="M320 570l33 220h146l-74 -220h-105zM260 516h160v-116h-160v-209q0 -68 61 -68q18 0 38.5 2.5t32.5 5.5l11 3l17 -120q-55 -24 -136 -24q-79 0 -124 42.5t-45 121.5v246h-95v116h95v124h145v-124z" />
    <glyph glyph-name="Tbar" unicode="&#x166;" horiz-adv-x="590" 
d="M371 567v-178h181v-83h-181v-306h-152v306h-181v83h181v178h-204v133h560v-133h-204z" />
    <glyph glyph-name="tbar" unicode="&#x167;" horiz-adv-x="450" 
d="M260 516h160v-113h-160v-94h160v-83h-160v-39q0 -68 61 -68q19 0 39.5 3t31.5 6l11 3l17 -117q-54 -24 -136 -24q-79 0 -124 42.5t-45 121.5v72h-95v83h95v94h-95v113h95v124h145v-124z" />
    <glyph glyph-name="Utilde" unicode="&#x168;" horiz-adv-x="740" 
d="M190 777q0 6 1 15t7 33t16.5 42t32 33t50.5 15q34 0 59.5 -18t45 -36t38.5 -18q15 0 24 14.5t11 28.5l2 15l72 -8q0 -6 -1 -15t-7.5 -33t-16.5 -42t-32 -33t-51 -15q-33 0 -58.5 18t-45.5 36t-39 18q-14 0 -23 -14.5t-11 -28.5l-2 -15zM670 700v-410q0 -134 -84 -217
t-218 -83q-135 0 -216.5 80.5t-81.5 214.5v415h155v-410q0 -72 41 -116t107 -44t106.5 44t40.5 116v410h150z" />
    <glyph glyph-name="utilde" unicode="&#x169;" 
d="M128 597q0 6 1 15t7 33t16.5 42t32 33t50.5 15q34 0 59.5 -18t45 -36t38.5 -18q15 0 24 14.5t11 28.5l2 15l72 -8q0 -6 -1 -15t-7.5 -33t-16.5 -42t-32 -33t-51 -15q-33 0 -58.5 18t-45.5 36t-39 18q-14 0 -23 -14.5t-11 -28.5l-2 -15zM410 516h145v-516h-129l-7 79
q-55 -89 -170 -89q-85 0 -139.5 56t-54.5 156v314h145v-268q0 -62 27.5 -93.5t72.5 -31.5q49 0 79.5 32t30.5 98v263z" />
    <glyph glyph-name="Umacron" unicode="&#x16a;" horiz-adv-x="740" 
d="M190 876h360v-84h-360v84zM670 700v-410q0 -134 -84 -217t-218 -83q-135 0 -216.5 80.5t-81.5 214.5v415h155v-410q0 -72 41 -116t107 -44t106.5 44t40.5 116v410h150z" />
    <glyph glyph-name="umacron" unicode="&#x16b;" 
d="M127 692h360v-84h-360v84zM410 516h145v-516h-129l-7 79q-55 -89 -170 -89q-85 0 -139.5 56t-54.5 156v314h145v-268q0 -62 27.5 -93.5t72.5 -31.5q49 0 79.5 32t30.5 98v263z" />
    <glyph glyph-name="Ubreve" unicode="&#x16c;" horiz-adv-x="740" 
d="M298 920v-13q0 -31 20 -50.5t53 -19.5q32 0 51 19.5t19 50.5v13h100v-5q0 -72 -48 -117.5t-123 -45.5t-123 45.5t-48 117.5v5h99zM670 700v-410q0 -134 -84 -217t-218 -83q-135 0 -216.5 80.5t-81.5 214.5v415h155v-410q0 -72 41 -116t107 -44t106.5 44t40.5 116v410h150
z" />
    <glyph glyph-name="ubreve" unicode="&#x16d;" 
d="M235 740v-13q0 -31 20 -50.5t53 -19.5q32 0 51 19.5t19 50.5v13h100v-5q0 -72 -48 -117.5t-123 -45.5t-123 45.5t-48 117.5v5h99zM410 516h145v-516h-129l-7 79q-55 -89 -170 -89q-85 0 -139.5 56t-54.5 156v314h145v-268q0 -62 27.5 -93.5t72.5 -31.5q49 0 79.5 32
t30.5 98v263z" />
    <glyph glyph-name="Uring" unicode="&#x16e;" horiz-adv-x="740" 
d="M370 949q47 0 78 -29.5t31 -74.5t-31 -74.5t-78 -29.5t-78 29.5t-31 74.5t31 74.5t78 29.5zM370 796q21 0 35 14t14 35t-13.5 34.5t-35.5 13.5t-35.5 -13.5t-13.5 -34.5t14 -35t35 -14zM670 700v-410q0 -134 -84 -217t-218 -83q-135 0 -216.5 80.5t-81.5 214.5v415h155
v-410q0 -72 41 -116t107 -44t106.5 44t40.5 116v410h150z" />
    <glyph glyph-name="uring" unicode="&#x16f;" 
d="M307 769q47 0 78 -29.5t31 -74.5t-31 -74.5t-78 -29.5t-78 29.5t-31 74.5t31 74.5t78 29.5zM307 616q21 0 35 14t14 35t-14 34.5t-35 13.5t-35 -13.5t-14 -34.5t14 -35t35 -14zM410 516h145v-516h-129l-7 79q-55 -89 -170 -89q-85 0 -139.5 56t-54.5 156v314h145v-268
q0 -62 27.5 -93.5t72.5 -31.5q49 0 79.5 32t30.5 98v263z" />
    <glyph glyph-name="Uhungarumlaut" unicode="&#x170;" horiz-adv-x="740" 
d="M257 920h150l-94 -168h-110zM468 920h150l-93 -168h-110zM670 700v-410q0 -134 -84 -217t-218 -83q-135 0 -216.5 80.5t-81.5 214.5v415h155v-410q0 -72 41 -116t107 -44t106.5 44t40.5 116v410h150z" />
    <glyph glyph-name="uhungarumlaut" unicode="&#x171;" 
d="M194 740h150l-94 -168h-110zM405 740h150l-93 -168h-110zM410 516h145v-516h-129l-7 79q-55 -89 -170 -89q-85 0 -139.5 56t-54.5 156v314h145v-268q0 -62 27.5 -93.5t72.5 -31.5q49 0 79.5 32t30.5 98v263z" />
    <glyph glyph-name="Uogonek" unicode="&#x172;" horiz-adv-x="740" 
d="M670 700v-410q0 -112 -60 -189.5t-161 -101.5q-18 -14 -18 -40q0 -21 17 -35t43 -14q14 0 26.5 3t18.5 6l6 3l23 -81q-31 -26 -88 -26q-60 0 -101 35t-41 94q0 27 9 47q-125 7 -199.5 86.5t-74.5 207.5v415h155v-410q0 -72 41 -116t107 -44t106.5 44t40.5 116v410h150z
" />
    <glyph glyph-name="uogonek" unicode="&#x173;" 
d="M410 516h145v-516h-55q-1 0 -5.5 -4t-9 -14t-4.5 -23q0 -21 17 -35t43 -14q14 0 26.5 3t18.5 6l6 3l23 -81q-31 -26 -88 -26q-60 0 -101 35t-41 94q0 50 38 86l-4 49q-55 -89 -170 -89q-85 0 -139.5 56t-54.5 156v314h145v-268q0 -62 27.5 -93.5t72.5 -31.5q49 0 79.5 32
t30.5 98v263z" />
    <glyph glyph-name="Wcircumflex" unicode="&#x174;" horiz-adv-x="1005" 
d="M442 920h130l140 -168h-126l-82 82l-82 -82h-120zM0 700h168l147 -468l137 468h109l137 -468l147 468h160l-236 -700h-133l-134 442l-132 -442h-134z" />
    <glyph glyph-name="wcircumflex" unicode="&#x175;" horiz-adv-x="795" 
d="M332 740h130l140 -168h-126l-82 82l-82 -82h-120zM-5 516h157l99 -321l96 321h109l94 -317l100 317h150l-175 -516h-137l-91 296l-91 -296h-137z" />
    <glyph glyph-name="Ycircumflex" unicode="&#x176;" horiz-adv-x="690" 
d="M282 920h130l140 -168h-126l-82 82l-82 -82h-120zM269 260l-269 440h177l172 -295l172 295h169l-269 -440v-260h-152v260z" />
    <glyph glyph-name="ycircumflex" unicode="&#x177;" horiz-adv-x="542" 
d="M209 740h130l140 -168h-126l-82 82l-82 -82h-120zM-5 516h161l119 -342l119 342h153l-206 -521q-65 -165 -212 -165q-37 0 -70.5 8.5t-48.5 17.5l-15 8l45 117q28 -22 82 -22q53 0 76 48z" />
    <glyph glyph-name="Ydieresis" unicode="&#x178;" horiz-adv-x="690" 
d="M239 916q33 0 54.5 -21.5t21.5 -54.5q0 -32 -22.5 -54.5t-54.5 -22.5q-33 0 -54.5 21.5t-21.5 54.5t22 55t55 22zM460 916q33 0 54.5 -21.5t21.5 -54.5q0 -32 -22.5 -54.5t-54.5 -22.5q-33 0 -54.5 21.5t-21.5 54.5t22 55t55 22zM269 260l-269 440h177l172 -295l172 295
h169l-269 -440v-260h-152v260z" />
    <glyph glyph-name="Zacute" unicode="&#x179;" horiz-adv-x="680" 
d="M399 752h-114l67 168h153zM50 0v111l375 460h-355v129h560v-111l-375 -460h375v-129h-580z" />
    <glyph glyph-name="zacute" unicode="&#x17a;" horiz-adv-x="535" 
d="M326 572h-114l67 168h153zM297 395h-242v121h440v-104l-257 -290h257v-122h-455v104z" />
    <glyph glyph-name="Zdotaccent" unicode="&#x17b;" horiz-adv-x="680" 
d="M355 916q33 0 54.5 -21.5t21.5 -54.5q0 -32 -22.5 -54.5t-54.5 -22.5q-33 0 -54.5 21.5t-21.5 54.5t22 55t55 22zM50 0v111l375 460h-355v129h560v-111l-375 -460h375v-129h-580z" />
    <glyph glyph-name="zdotaccent" unicode="&#x17c;" horiz-adv-x="535" 
d="M277 736q33 0 54.5 -21.5t21.5 -54.5q0 -32 -22.5 -54.5t-54.5 -22.5q-33 0 -54.5 21.5t-21.5 54.5t22 55t55 22zM297 395h-242v121h440v-104l-257 -290h257v-122h-455v104z" />
    <glyph glyph-name="Zcaron" unicode="&#x17d;" horiz-adv-x="680" 
d="M415 752h-130l-140 168h126l82 -82l82 82h120zM50 0v111l375 460h-355v129h560v-111l-375 -460h375v-129h-580z" />
    <glyph glyph-name="zcaron" unicode="&#x17e;" horiz-adv-x="535" 
d="M339 572h-130l-140 168h126l82 -82l82 82h120zM297 395h-242v121h440v-104l-257 -290h257v-122h-455v104z" />
    <glyph glyph-name="florin" unicode="&#x192;" 
d="M120 -160l35 447h-120v88h127l9 115q8 106 68 163t157 57q41 0 76 -12.5t55.5 -30t35.5 -35t21 -30.5l6 -12l-106 -70q-1 2 -2.5 6t-8 14t-15 17.5t-24 13.5t-33.5 6q-38 0 -60 -22.5t-25 -62.5l-10 -117h184v-88h-190l-35 -447h-145z" />
    <glyph glyph-name="Aringacute" unicode="&#x1fa;" horiz-adv-x="720" 
d="M444 819q25 -28 25 -68t-26 -69l277 -682h-168l-56 147h-280l-56 -147h-160l276 682q-25 28 -25 69q0 36 20.5 63t54.5 36l28 70h153zM360 702q21 0 35 14t14 35t-13.5 34.5t-35.5 13.5t-35.5 -13.5t-13.5 -34.5t14 -35t35 -14zM258 268h195l-97 257z" />
    <glyph glyph-name="aringacute" unicode="&#x1fb;" horiz-adv-x="570" 
d="M238 309q79 0 132 -37v22q0 53 -32.5 82t-85.5 29q-35 0 -67 -10t-47 -20l-14 -10l-59 93q49 42 136 60q-19 27 -19 62q0 36 20 62.5t53 36.5l25 61h153l-59 -91q26 -29 26 -69q0 -41 -25 -69q67 -23 103.5 -79.5t36.5 -139.5v-292h-113l-11 44q-59 -54 -158 -54
q-91 0 -144.5 43.5t-53.5 113.5t56 116t147 46zM291 531q21 0 35 14t14 35q0 20 -14 34t-35 14t-35 -14t-14 -34q0 -21 14 -35t35 -14zM276 83q46 0 72.5 19.5t26.5 50.5q0 30 -27 50t-72 20q-43 0 -69.5 -20t-26.5 -50q0 -31 26 -50.5t70 -19.5z" />
    <glyph glyph-name="AEacute" unicode="&#x1fc;" horiz-adv-x="1065" 
d="M775 752h-114l67 168h153zM648 567v-145h312v-124h-312v-166h372v-132h-525v147h-247l-88 -147h-170l425 700h595v-133h-362zM495 268v306l-181 -306h181z" />
    <glyph glyph-name="aeacute" unicode="&#x1fd;" horiz-adv-x="941" 
d="M529 572h-114l67 168h153zM238 309q75 0 132 -34v19q0 53 -32.5 82t-84.5 29q-35 0 -67.5 -10t-47.5 -20l-14 -10l-59 93q9 8 25.5 19t73 30t118.5 19q116 0 174 -81q75 81 193 81q107 0 182 -73t75 -175q0 -13 -2 -25t-4 -17l-2 -6h-382q8 -52 46 -83.5t95 -31.5
q40 0 74 15.5t48 31.5l14 15l86 -83l-8.5 -11t-26 -25t-45 -32t-65.5 -25t-87 -11q-127 0 -198 84q-61 -84 -197 -84q-101 0 -159 43.5t-58 113.5t56 116t147 46zM646 420q-48 0 -83 -28t-44 -73h247q-7 43 -41 72t-79 29zM276 224q-43 0 -69.5 -20.5t-26.5 -50.5
q0 -31 26.5 -51t69.5 -20q45 0 72 20t27 51q0 30 -27 50.5t-72 20.5z" />
    <glyph glyph-name="Oslashacute" unicode="&#x1fe;" horiz-adv-x="825" 
d="M461 752h-114l67 168h153zM679 603q101 -103 101 -251q0 -152 -107 -257t-263 -105q-114 0 -205 58l-66 -78h-102l108 127q-100 102 -100 250q0 152 107 257.5t263 105.5q112 0 203 -59l68 79h101zM526 541q-53 32 -114 32q-94 0 -156 -63.5t-62 -159.5q0 -81 47 -141z
M299 158q50 -31 113 -31q94 0 156.5 64t62.5 159q0 78 -47 140z" />
    <glyph glyph-name="oslashacute" unicode="&#x1ff;" horiz-adv-x="629" 
d="M363 572h-114l67 168h153zM317 526q77 0 142 -35l47 56h93l-81 -99q76 -74 76 -187q0 -114 -81 -192.5t-201 -78.5q-77 0 -141 36l-47 -56h-94l82 99q-77 75 -77 187q0 114 81 192t201 78zM377 389q-29 16 -62 16q-63 0 -104.5 -42t-41.5 -104q0 -50 27 -86zM253 128
q27 -16 62 -16q63 0 104.5 42t41.5 105q0 47 -27 84z" />
    <glyph glyph-name="Scommaaccent" unicode="&#x218;" horiz-adv-x="585" 
d="M340 419q200 -78 200 -219q0 -90 -70 -150t-183 -60q-49 0 -94.5 11t-75.5 26t-53 30.5t-34 26.5l-10 11l90 97q3 -3 9 -8.5t25 -19t39.5 -23.5t51 -18.5t60.5 -8.5q39 0 64 19.5t25 49.5q0 35 -34 62.5t-125 64.5q-167 65 -167 201q0 87 67 143t176 56q43 0 83 -9.5
t66.5 -22.5t47.5 -26t30 -22l10 -10l-90 -97q-7 7 -19 17.5t-49.5 28t-76.5 17.5q-42 0 -65.5 -19t-23.5 -44q0 -31 26.5 -53.5t99.5 -50.5zM264 -218h-114l67 168h153z" />
    <glyph glyph-name="scommaaccent" unicode="&#x219;" horiz-adv-x="469" 
d="M276 313q76 -22 117 -64t41 -96q0 -72 -55 -117.5t-152 -45.5q-59 0 -112 19t-77 37l-23 19l62 92q8 -7 21 -17t52.5 -26.5t75.5 -16.5q30 0 47.5 12.5t17.5 31.5q0 22 -22 39t-88 38q-69 22 -105.5 61.5t-36.5 93.5q0 64 53 108.5t145 44.5q32 0 64 -6.5t54 -16
t40 -19.5t27 -16l8 -7l-62 -94q-6 6 -17.5 14.5t-44.5 23t-64 14.5q-29 0 -45 -11.5t-16 -27.5q0 -19 19.5 -34.5t75.5 -32.5zM198 -218h-114l67 168h153z" />
    <glyph glyph-name="uni021A" unicode="&#x21a;" horiz-adv-x="590" 
d="M371 567v-567h-152v567h-204v133h560v-133h-204zM266 -218h-114l67 168h153z" />
    <glyph glyph-name="uni021B" unicode="&#x21b;" horiz-adv-x="450" 
d="M260 516h160v-116h-160v-209q0 -68 61 -68q18 0 38.5 2.5t32.5 5.5l11 3l17 -120q-55 -24 -136 -24q-79 0 -124 42.5t-45 121.5v246h-95v116h95v124h145v-124zM248 -218h-114l67 168h153z" />
    <glyph glyph-name="circumflex" unicode="&#x2c6;" horiz-adv-x="530" 
d="M200 740h130l140 -168h-126l-82 82l-82 -82h-120z" />
    <glyph glyph-name="caron" unicode="&#x2c7;" horiz-adv-x="530" 
d="M330 572h-130l-140 168h126l82 -82l82 82h120z" />
    <glyph glyph-name="breve" unicode="&#x2d8;" horiz-adv-x="452" 
d="M154 740v-13q0 -31 20 -50.5t53 -19.5q32 0 51 19.5t19 50.5v13h100v-5q0 -72 -48 -117.5t-123 -45.5t-123 45.5t-48 117.5v5h99z" />
    <glyph glyph-name="dotaccent" unicode="&#x2d9;" horiz-adv-x="279" 
d="M140 736q33 0 54.5 -21.5t21.5 -54.5q0 -32 -22.5 -54.5t-54.5 -22.5q-33 0 -54.5 21.5t-21.5 54.5t22 55t55 22z" />
    <glyph glyph-name="ring" unicode="&#x2da;" horiz-adv-x="320" 
d="M160 769q47 0 78 -29.5t31 -74.5t-31 -74.5t-78 -29.5t-78 29.5t-31 74.5t31 74.5t78 29.5zM160 616q21 0 35 14t14 35t-13.5 34.5t-35.5 13.5t-35.5 -13.5t-13.5 -34.5t14 -35t35 -14z" />
    <glyph glyph-name="ogonek" unicode="&#x2db;" horiz-adv-x="345" 
d="M171 0q-20 -12 -20 -41q0 -21 17 -35t43 -14q14 0 26.5 3t18.5 6l6 3l23 -81q-31 -26 -88 -26q-60 0 -101 35t-41 94q0 24 8 44t20 32t24 21t20 13l8 3z" />
    <glyph glyph-name="tilde" unicode="&#x2dc;" horiz-adv-x="467" 
d="M54 597q0 6 1 15t7 33t16.5 42t32 33t50.5 15q34 0 59.5 -18t45 -36t38.5 -18q15 0 24 14.5t11 28.5l2 15l72 -8q0 -6 -1 -15t-7.5 -33t-16.5 -42t-32 -33t-51 -15q-33 0 -58.5 18t-45.5 36t-39 18q-14 0 -23 -14.5t-11 -28.5l-2 -15z" />
    <glyph glyph-name="hungarumlaut" unicode="&#x2dd;" horiz-adv-x="570" 
d="M132 740h150l-94 -168h-110zM343 740h150l-93 -168h-110z" />
    <glyph glyph-name="uni0394" unicode="&#x394;" horiz-adv-x="730" 
d="M289 700h153l288 -700h-730zM209 136h304l-152 392z" />
    <glyph glyph-name="uni03BC" unicode="&#x3bc;" horiz-adv-x="620" 
d="M60 516h145v-268q0 -63 27.5 -94.5t73.5 -31.5q48 0 78.5 31t30.5 93v270h145v-516h-128l-8 78q-55 -89 -162 -89q-28 0 -57 8v-157h-145v676z" />
    <glyph glyph-name="pi" unicode="&#x3c0;" horiz-adv-x="710" 
d="M20 516h660v-120h-125v-224q0 -53 51 -53q14 0 27 2.5t19 4.5l6 2l22 -115q-37 -23 -116 -23q-71 0 -112.5 38.5t-41.5 110.5v257h-140v-396h-145v396h-105v120z" />
    <glyph glyph-name="Wgrave" unicode="&#x1e80;" horiz-adv-x="1005" 
d="M342 920h153l67 -168h-114zM0 700h168l147 -468l137 468h109l137 -468l147 468h160l-236 -700h-133l-134 442l-132 -442h-134z" />
    <glyph glyph-name="wgrave" unicode="&#x1e81;" horiz-adv-x="795" 
d="M232 740h153l67 -168h-114zM-5 516h157l99 -321l96 321h109l94 -317l100 317h150l-175 -516h-137l-91 296l-91 -296h-137z" />
    <glyph glyph-name="Wacute" unicode="&#x1e82;" horiz-adv-x="1005" 
d="M566 752h-114l67 168h153zM0 700h168l147 -468l137 468h109l137 -468l147 468h160l-236 -700h-133l-134 442l-132 -442h-134z" />
    <glyph glyph-name="wacute" unicode="&#x1e83;" horiz-adv-x="795" 
d="M466 572h-114l67 168h153zM-5 516h157l99 -321l96 321h109l94 -317l100 317h150l-175 -516h-137l-91 296l-91 -296h-137z" />
    <glyph glyph-name="Wdieresis" unicode="&#x1e84;" horiz-adv-x="1005" 
d="M397 916q33 0 54.5 -21.5t21.5 -54.5q0 -32 -22.5 -54.5t-54.5 -22.5q-33 0 -54.5 21.5t-21.5 54.5t22 55t55 22zM618 916q33 0 54.5 -21.5t21.5 -54.5q0 -32 -22.5 -54.5t-54.5 -22.5q-33 0 -54.5 21.5t-21.5 54.5t22 55t55 22zM0 700h168l147 -468l137 468h109
l137 -468l147 468h160l-236 -700h-133l-134 442l-132 -442h-134z" />
    <glyph glyph-name="wdieresis" unicode="&#x1e85;" horiz-adv-x="795" 
d="M287 736q33 0 54.5 -21.5t21.5 -54.5q0 -32 -22.5 -54.5t-54.5 -22.5q-33 0 -54.5 21.5t-21.5 54.5t22 55t55 22zM508 736q33 0 54.5 -21.5t21.5 -54.5q0 -32 -22.5 -54.5t-54.5 -22.5q-33 0 -54.5 21.5t-21.5 54.5t22 55t55 22zM-5 516h157l99 -321l96 321h109l94 -317
l100 317h150l-175 -516h-137l-91 296l-91 -296h-137z" />
    <glyph glyph-name="uni1E9E" unicode="&#x1e9e;" horiz-adv-x="715" 
d="M498 437q81 -20 129 -77.5t48 -135.5q0 -101 -73 -167.5t-190 -66.5q-25 0 -49.5 2.5t-36.5 5.5l-12 2l21 130q29 -8 62 -8q58 0 92 30t34 77q0 44 -34.5 74t-92.5 30h-48v96l108 124q-37 24 -86 24q-66 0 -106.5 -45t-40.5 -123v-409h-153v402q0 139 84 223.5t219 84.5
q48 0 93 -11t75 -26t53.5 -30.5t34.5 -26.5l11 -11z" />
    <glyph glyph-name="Ygrave" unicode="&#x1ef2;" horiz-adv-x="690" 
d="M190 920h153l67 -168h-114zM269 260l-269 440h177l172 -295l172 295h169l-269 -440v-260h-152v260z" />
    <glyph glyph-name="ygrave" unicode="&#x1ef3;" horiz-adv-x="542" 
d="M121 740h153l67 -168h-114zM-5 516h161l119 -342l119 342h153l-206 -521q-65 -165 -212 -165q-37 0 -70.5 8.5t-48.5 17.5l-15 8l45 117q28 -22 82 -22q53 0 76 48z" />
    <glyph glyph-name="endash" unicode="&#x2013;" horiz-adv-x="570" 
d="M50 291v128h470v-128h-470z" />
    <glyph glyph-name="emdash" unicode="&#x2014;" horiz-adv-x="900" 
d="M50 291v128h800v-128h-800z" />
    <glyph glyph-name="quoteleft" unicode="&#x2018;" horiz-adv-x="262" 
d="M222 700l-28 -300h-154l69 300h113z" />
    <glyph glyph-name="quoteright" unicode="&#x2019;" horiz-adv-x="262" 
d="M40 400l28 300h154l-69 -300h-113z" />
    <glyph glyph-name="quotesinglbase" unicode="&#x201a;" horiz-adv-x="262" 
d="M40 -130l28 300h154l-69 -300h-113z" />
    <glyph glyph-name="quotedblleft" unicode="&#x201c;" horiz-adv-x="483" 
d="M222 700l-28 -300h-154l69 300h113zM443 700l-28 -300h-154l69 300h113z" />
    <glyph glyph-name="quotedblright" unicode="&#x201d;" horiz-adv-x="483" 
d="M40 400l28 300h154l-69 -300h-113zM261 400l28 300h154l-69 -300h-113z" />
    <glyph glyph-name="quotedblbase" unicode="&#x201e;" horiz-adv-x="483" 
d="M40 -130l28 300h154l-69 -300h-113zM261 -130l28 300h154l-69 -300h-113z" />
    <glyph glyph-name="dagger" unicode="&#x2020;" horiz-adv-x="415" 
d="M257 490v-230h-100v230h-117v92h117v118h100v-118h118v-92h-118z" />
    <glyph glyph-name="daggerdbl" unicode="&#x2021;" horiz-adv-x="415" 
d="M257 490v-130h118v-91h-118v-119h-100v119h-117v91h117v130h-117v92h117v118h100v-118h118v-92h-118z" />
    <glyph glyph-name="bullet" unicode="&#x2022;" horiz-adv-x="398" 
d="M200 499q64 0 106 -42t42 -106t-43 -107t-107 -43t-106 42t-42 106t43 107t107 43z" />
    <glyph glyph-name="perthousand" unicode="&#x2030;" horiz-adv-x="1120" 
d="M40 456q0 66 45.5 110t112.5 44t111.5 -43t44.5 -109t-45.5 -110t-112.5 -44t-111.5 43t-44.5 109zM542 600h97l-411 -600h-98zM133 457q0 -29 18 -47.5t46 -18.5t46 18.5t18 47.5t-18 47.5t-46 18.5t-46 -18.5t-18 -47.5zM415 142q0 67 45.5 111t112.5 44t112 -43
t45 -110q0 -66 -46 -110t-113 -44t-111.5 43t-44.5 109zM765 142q0 67 45.5 111t112.5 44t112 -43t45 -110q0 -66 -46 -110t-113 -44t-111.5 43t-44.5 109zM509 143q0 -28 18 -46.5t45 -18.5q28 0 46 18.5t18 46.5q0 29 -18 47.5t-46 18.5q-27 0 -45 -19t-18 -47zM859 143
q0 -28 18 -46.5t45 -18.5q28 0 46 18.5t18 46.5q0 29 -18 47.5t-46 18.5q-27 0 -45 -19t-18 -47z" />
    <glyph glyph-name="guilsinglleft" unicode="&#x2039;" horiz-adv-x="451" 
d="M203 352l173 -177l-77 -82l-249 232v50l249 233l77 -78z" />
    <glyph glyph-name="guilsinglright" unicode="&#x203a;" horiz-adv-x="451" 
d="M248 348l-173 177l77 82l249 -232v-50l-249 -233l-77 78z" />
    <glyph glyph-name="fraction" unicode="&#x2044;" horiz-adv-x="210" 
d="M304 700h96l-493 -700h-97z" />
    <glyph glyph-name="uni2070" unicode="&#x2070;" horiz-adv-x="389" 
d="M40 549q0 73 44 115t112 42q69 0 111 -40t42 -113v-122q0 -72 -44 -114.5t-112 -42.5q-69 0 -111 40.5t-42 113.5v121zM138 424q0 -28 15.5 -44.5t40.5 -16.5q26 0 41.5 16.5t15.5 44.5v133q0 28 -15.5 44.5t-41.5 16.5q-25 0 -40.5 -16.5t-15.5 -44.5v-133z" />
    <glyph glyph-name="uni2074" unicode="&#x2074;" horiz-adv-x="379" 
d="M201 700h96v-255h62v-76h-62v-89h-90v89h-187v80zM207 445v149l-108 -149h108z" />
    <glyph glyph-name="uni2075" unicode="&#x2075;" horiz-adv-x="365" 
d="M47 700h267v-84h-180v-78q28 21 66 21q59 0 97 -39t38 -95q0 -67 -44.5 -109t-115.5 -42q-45 0 -81 19.5t-50 38.5l-14 20l70 53q3 -5 8 -12t24.5 -18.5t41.5 -11.5q29 0 46 16t17 43q0 23 -15.5 39.5t-41.5 16.5q-17 0 -30 -7t-17.5 -13t-5.5 -9h-80v251z" />
    <glyph glyph-name="uni2076" unicode="&#x2076;" horiz-adv-x="377" 
d="M212 559q56 0 95.5 -37.5t39.5 -94.5q0 -67 -46 -110t-114 -43q-66 0 -111.5 41.5t-45.5 105.5q0 59 38 115l109 164h106l-101 -145q18 4 30 4zM188 361q28 0 44.5 17.5t16.5 44.5t-16.5 44.5t-44.5 17.5q-27 0 -44 -17.5t-17 -44.5t17 -44.5t44 -17.5z" />
    <glyph glyph-name="uni2077" unicode="&#x2077;" horiz-adv-x="336" 
d="M203 614h-178v86h286v-69l-166 -351h-105z" />
    <glyph glyph-name="uni2078" unicode="&#x2078;" horiz-adv-x="378" 
d="M191 706q62 0 101.5 -32t39.5 -83t-48 -86q64 -36 64 -99q0 -57 -45.5 -94.5t-115.5 -37.5q-69 0 -113 36t-44 93q0 62 62 100q-46 32 -46 85q0 52 41 85t104 33zM189 535q21 0 35 14t14 33q0 20 -14 33.5t-35 13.5t-35 -13.5t-14 -33.5q0 -19 14 -33t35 -14zM189 352
q27 0 44.5 17t17.5 42q0 26 -17.5 42.5t-44.5 16.5t-45 -17.5t-18 -41.5q0 -25 18 -42t45 -17z" />
    <glyph glyph-name="uni2079" unicode="&#x2079;" horiz-adv-x="377" 
d="M165 421q-56 0 -95.5 37.5t-39.5 94.5q0 67 46 110t114 43q66 0 111.5 -41.5t45.5 -105.5q0 -59 -38 -115l-109 -164h-106l101 145q-18 -4 -30 -4zM189 619q-28 0 -44.5 -17.5t-16.5 -44.5t16.5 -44.5t44.5 -17.5q27 0 44 17.5t17 44.5t-17 44.5t-44 17.5z" />
    <glyph glyph-name="uni2080" unicode="&#x2080;" horiz-adv-x="389" 
d="M40 269q0 73 44 115t112 42q69 0 111 -40t42 -113v-122q0 -72 -44 -114.5t-112 -42.5q-69 0 -111 40.5t-42 113.5v121zM138 144q0 -28 15.5 -44.5t40.5 -16.5q26 0 41.5 16.5t15.5 44.5v133q0 28 -15.5 44.5t-41.5 16.5q-25 0 -40.5 -16.5t-15.5 -44.5v-133z" />
    <glyph glyph-name="uni2081" unicode="&#x2081;" horiz-adv-x="301" 
d="M169 420h82v-420h-98v305l-85 -57l-48 65z" />
    <glyph glyph-name="uni2082" unicode="&#x2082;" horiz-adv-x="354" 
d="M180 210q47 44 47 81q0 20 -15 34t-37 14t-40 -12.5t-25 -24.5l-7 -12l-73 46l5 10t16 21.5t28.5 27.5t43.5 21.5t60 9.5q63 0 102 -35.5t39 -88.5q0 -40 -18.5 -71.5t-60.5 -70.5l-83 -76h159v-84h-284v75z" />
    <glyph glyph-name="uni2083" unicode="&#x2083;" horiz-adv-x="354" 
d="M159 251q27 0 41 13t14 34t-13.5 33t-36.5 12q-12 0 -22.5 -3.5t-16.5 -8.5t-10.5 -10.5t-6.5 -8.5l-1 -4l-72 40q1 3 4.5 8.5t15 19t25.5 23.5t38.5 18.5t52.5 8.5q61 0 101 -31.5t40 -81.5q0 -61 -58 -94q70 -33 70 -102q0 -55 -43.5 -89t-113.5 -34q-30 0 -56 8.5
t-42 21t-27.5 24.5t-16.5 20l-5 9l74 43q2 -5 6.5 -12t23 -19t42.5 -12q28 0 44 14t16 36q0 23 -17 38.5t-50 15.5h-42v70h42z" />
    <glyph glyph-name="uni2084" unicode="&#x2084;" horiz-adv-x="379" 
d="M201 420h96v-255h62v-76h-62v-89h-90v89h-187v80zM207 165v149l-108 -149h108z" />
    <glyph glyph-name="uni2085" unicode="&#x2085;" horiz-adv-x="365" 
d="M47 420h267v-84h-180v-78q28 21 66 21q59 0 97 -39t38 -95q0 -67 -44.5 -109t-115.5 -42q-45 0 -81 19.5t-50 38.5l-14 20l70 53q3 -5 8 -12t24.5 -18.5t41.5 -11.5q29 0 46 16t17 43q0 23 -15.5 39.5t-41.5 16.5q-17 0 -30 -7t-17.5 -13t-5.5 -9h-80v251z" />
    <glyph glyph-name="uni2086" unicode="&#x2086;" horiz-adv-x="377" 
d="M212 279q56 0 95.5 -37.5t39.5 -94.5q0 -67 -46 -110t-114 -43q-66 0 -111.5 41.5t-45.5 105.5q0 59 38 115l109 164h106l-101 -145q18 4 30 4zM188 81q28 0 44.5 17.5t16.5 44.5t-16.5 44.5t-44.5 17.5q-27 0 -44 -17.5t-17 -44.5t17 -44.5t44 -17.5z" />
    <glyph glyph-name="uni2087" unicode="&#x2087;" horiz-adv-x="336" 
d="M203 334h-178v86h286v-69l-166 -351h-105z" />
    <glyph glyph-name="uni2088" unicode="&#x2088;" horiz-adv-x="378" 
d="M191 426q62 0 101.5 -32t39.5 -83t-48 -86q64 -36 64 -99q0 -57 -45.5 -94.5t-115.5 -37.5q-69 0 -113 36t-44 93q0 62 62 100q-46 32 -46 85q0 52 41 85t104 33zM189 255q21 0 35 14t14 33q0 20 -14 33.5t-35 13.5t-35 -13.5t-14 -33.5q0 -19 14 -33t35 -14zM189 72
q27 0 44.5 17t17.5 42q0 26 -17.5 42.5t-44.5 16.5t-45 -17.5t-18 -41.5q0 -25 18 -42t45 -17z" />
    <glyph glyph-name="uni2089" unicode="&#x2089;" horiz-adv-x="377" 
d="M165 141q-56 0 -95.5 37.5t-39.5 94.5q0 67 46 110t114 43q66 0 111.5 -41.5t45.5 -105.5q0 -59 -38 -115l-109 -164h-106l101 145q-18 -4 -30 -4zM189 339q-28 0 -44.5 -17.5t-16.5 -44.5t16.5 -44.5t44.5 -17.5q27 0 44 17.5t17 44.5t-17 44.5t-44 17.5z" />
    <glyph glyph-name="Euro" unicode="&#x20ac;" 
d="M262 239v-9q0 -50 30 -80.5t78 -30.5q22 0 40.5 6t29.5 15t19 18t11 15l3 6l117 -64q-2 -5 -6.5 -13.5t-22.5 -30t-40.5 -38t-62.5 -30t-86 -13.5q-112 0 -182 64.5t-70 177.5v7h-85v76h85v70h-85v76h85v1q0 114 72.5 181t184.5 67q46 0 85.5 -13t62 -31t38 -36.5
t21.5 -31.5l6 -13l-117 -64q-1 2 -3 6.5t-10.5 14.5t-19 18t-29.5 14.5t-41 6.5q-48 0 -78 -30.5t-30 -80.5v-9h248v-76h-248v-70h228v-76h-228z" />
    <glyph glyph-name="trademark" unicode="&#x2122;" horiz-adv-x="780" 
d="M227 625v-240h-84v240h-93v75h270v-75h-93zM453 570v-185h-81v315h86l94 -168l95 168h83v-315h-82v184l-76 -135h-42z" />
    <glyph glyph-name="minus" unicode="&#x2212;" 
d="M50 291v128h515v-128h-515z" />
    <glyph glyph-name="fi" unicode="&#xfb01;" horiz-adv-x="712" 
d="M573 748q40 0 66 -25.5t26 -63.5q0 -39 -26 -64.5t-66 -25.5t-65.5 25.5t-25.5 64.5q0 38 25.5 63.5t65.5 25.5zM260 486h155v-116h-155v-370h-145v370h-95v116h95v41q0 87 48 135t132 48q38 0 70.5 -5t46.5 -11l13 -5l-17 -110q-29 13 -72 13q-76 0 -76 -76v-30z
M500 516h147v-516h-147v516z" />
    <glyph glyph-name="fl" unicode="&#xfb02;" horiz-adv-x="712" 
d="M260 486h155v-116h-155v-370h-145v370h-95v116h95v41q0 87 48 135t132 48q38 0 70.5 -5t46.5 -11l13 -5l-17 -110q-29 13 -72 13q-76 0 -76 -76v-30zM500 700h147v-700h-147v700z" />
    <glyph glyph-name="one.onum" horiz-adv-x="470" 
d="M264 640h116v-640h-141v471l-154 -101l-70 98z" />
    <glyph glyph-name="two.onum" horiz-adv-x="525" 
d="M280 326q65 59 65 112q0 38 -25.5 62t-65.5 24q-36 0 -65.5 -20t-40.5 -40l-12 -20l-106 56q2 6 6.5 16t23.5 36t43.5 46t68.5 36t96 16q94 0 156 -55.5t62 -138.5q0 -59 -29 -107.5t-92 -104.5l-136 -123h252v-121h-440v108z" />
    <glyph glyph-name="three.onum" horiz-adv-x="531" 
d="M233 375q45 0 70.5 22t25.5 58t-23.5 57t-61.5 21q-30 0 -52 -15.5t-29 -30.5l-7 -15l-113 45q2 5 6 14t20.5 32t38 40.5t60 32t84.5 14.5q92 0 155.5 -48.5t63.5 -126.5q0 -94 -91 -143q111 -45 111 -154q0 -84 -69 -136t-176 -52q-50 0 -91.5 14.5t-66 35.5t-41.5 42
t-23 36l-6 14l116 49q1 -3 3.5 -8t12.5 -18t21.5 -23t32 -18t43.5 -8q47 0 74.5 24t27.5 61q0 39 -30.5 63.5t-86.5 24.5h-54v96h55z" />
    <glyph glyph-name="four.onum" horiz-adv-x="575" 
d="M315 640h137v-401h100v-103h-100v-136h-134v136h-296v107zM318 239v241l-180 -241h180z" />
    <glyph glyph-name="five.onum" horiz-adv-x="554" 
d="M69 640h410v-121h-285v-129q45 34 106 34q94 0 154 -57.5t60 -143.5q0 -104 -70 -168.5t-179 -64.5q-45 0 -84.5 13t-64 32t-43 38t-25.5 32l-8 13l106 67q2 -3 5 -8t14 -17.5t23.5 -22t33.5 -17.5t43 -8q49 0 78.5 27.5t29.5 74.5q0 41 -28 68t-72 27q-28 0 -50 -12
t-28 -20t-9 -13h-117v376z" />
    <glyph glyph-name="six.onum" horiz-adv-x="575" 
d="M275 640h158l-165 -217q30 12 57 12q87 0 148.5 -57.5t61.5 -147.5q0 -104 -74 -172t-176 -68q-99 0 -172 66t-73 165q0 90 69 187zM288 121q47 0 76.5 29t29.5 74t-29.5 74t-76.5 29t-77 -29t-30 -74t30 -74t77 -29z" />
    <glyph glyph-name="seven.onum" horiz-adv-x="495" 
d="M315 515h-292v125h450v-96l-246 -544h-153z" />
    <glyph glyph-name="eight.onum" horiz-adv-x="575" 
d="M290 650q96 0 157.5 -49t61.5 -127q0 -80 -75 -129q47 -26 74 -66t27 -88q0 -87 -71 -144t-179 -57t-176.5 54.5t-68.5 141.5q0 97 102 155q-76 45 -76 129q0 78 64 129t160 51zM288 386q36 0 59.5 21.5t23.5 53.5q0 33 -23.5 54.5t-59.5 21.5q-37 0 -60.5 -21.5
t-23.5 -54.5q0 -32 23.5 -53.5t60.5 -21.5zM288 103q46 0 76 27.5t30 68.5q0 42 -30 69.5t-76 27.5q-47 0 -77 -27.5t-30 -69.5t30 -69t77 -27z" />
    <glyph glyph-name="nine.onum" horiz-adv-x="575" 
d="M300 0h-158l165 217q-30 -12 -57 -12q-87 0 -148.5 57.5t-61.5 147.5q0 104 74 172t176 68q99 0 172 -66t73 -165q0 -90 -69 -187zM287 519q-47 0 -76.5 -29t-29.5 -74t29.5 -74t76.5 -29t77 29t30 74t-30 74t-77 29z" />
    <glyph glyph-name="zero.onum" horiz-adv-x="575" 
d="M47 405q0 114 68.5 179.5t174.5 65.5q105 0 171 -63t66 -177v-175q0 -114 -68.5 -179.5t-173.5 -65.5q-106 0 -172 63t-66 177v175zM188 220q0 -45 27.5 -73t71.5 -28t71.5 27.5t27.5 73.5v200q0 46 -27.5 73.5t-71.5 27.5t-71.5 -28t-27.5 -73v-200z" />
    <glyph glyph-name="numbersign.onum" horiz-adv-x="605" 
d="M326 134h-110l-28 -134h-95l28 134h-86v87h105l25 118h-90v87h109l29 134h95l-29 -134h110l29 134h95l-29 -134h86v-87h-105l-25 -118h90v-87h-109l-28 -134h-95zM235 221h110l25 118h-110z" />
    <glyph glyph-name="cent.onum" horiz-adv-x="526" 
d="M253 141q-96 15 -157 84t-61 164q0 93 62 163.5t156 87.5v100h84v-96q49 -5 89 -24.5t56 -36.5l16 -17l-96 -92q-3 5 -10 13t-32 21t-55 13q-54 0 -91.5 -37.5t-37.5 -91.5t37.5 -91.5t91.5 -37.5q33 0 58 12.5t34 25.5l9 13l95 -88q-6 -8 -17.5 -20.5t-54 -36
t-92.5 -29.5v-96h-84v97z" />
    <glyph glyph-name="dollar.onum" horiz-adv-x="520" 
d="M221 272q-73 32 -118 81.5t-45 113.5q0 69 46.5 116.5t122.5 58.5v98h84v-97q34 -4 65 -16.5t50 -27t33 -28.5t20 -23l6 -9l-99 -70q-5 7 -13.5 18t-39 29.5t-63.5 18.5q-34 0 -53 -16t-19 -40q0 -29 22.5 -49.5t80.5 -45.5q83 -36 132.5 -84t49.5 -117
q0 -73 -47.5 -122.5t-124.5 -62.5v-98h-84v95q-40 4 -76 18t-58 31.5t-38 34t-23 27.5l-7 11l100 71l6 -9t18 -20t29 -25t38.5 -20t48.5 -9q36 0 56.5 17t20.5 44q0 30 -25 52.5t-96 53.5z" />
    <glyph glyph-name="sterling.onum" horiz-adv-x="568" 
d="M110 0v271h-85v83h85v61q0 109 65.5 172t167.5 63q41 0 77 -11.5t57.5 -28t37.5 -32.5t22 -28l6 -11l-114 -74q-1 2 -2.5 6t-8 13.5t-15.5 17t-25.5 13.5t-37.5 6q-39 0 -64 -25t-25 -66v-76h189v-83h-189v-150h274v-121h-415z" />
    <glyph glyph-name="Euro.onum" horiz-adv-x="585" 
d="M247 218v-6q0 -47 28.5 -75.5t74.5 -28.5q33 0 57 15.5t31 30.5l8 16l114 -52q-2 -5 -6.5 -13.5t-21.5 -31t-39 -39t-61 -30.5t-85 -14q-105 0 -171 61t-66 167h-85v72h85v60h-85v72h85q2 104 70.5 166t171.5 62q46 0 84.5 -13t60 -32t37 -37.5t20.5 -31.5l6 -13
l-114 -53q-1 3 -2.5 7t-9.5 14.5t-17.5 19t-27.5 15t-39 6.5q-46 0 -74.5 -29t-28.5 -76v-5h233v-72h-233v-60h213v-72h-213z" />
    <glyph glyph-name="yen.onum" horiz-adv-x="623" 
d="M239 126h-204v76h204v53l-12 21h-192v76h150l-170 288h174l126 -251l127 251h166l-170 -288h150v-76h-193l-11 -21v-53h204v-76h-204v-126h-145v126z" />
    <glyph glyph-name="florin.onum" horiz-adv-x="585" 
d="M114 -160l30 386h-119v87h126l10 121q9 104 66 160t149 56q40 0 73.5 -12t53 -29t33.5 -34t19 -29l5 -12l-106 -67q0 2 -1 5.5t-6 13t-12.5 16.5t-21.5 13t-32 6q-70 0 -78 -86l-11 -122h182v-87h-188l-31 -386h-141z" />
    <glyph glyph-name="percent.onum" horiz-adv-x="770" 
d="M40 418q0 65 45 108.5t112 43.5q66 0 110 -43t44 -107q0 -65 -45 -109t-111 -44q-67 0 -111 43t-44 108zM542 560h98l-412 -560h-97zM132 419q0 -29 18 -47.5t46 -18.5q27 0 45 19t18 47t-18 46.5t-45 18.5q-28 0 -46 -18.5t-18 -46.5zM420 140q0 65 45 108.5t111 43.5
t110 -42.5t44 -107.5t-45 -108.5t-111 -43.5t-110 42.5t-44 107.5zM512 141q0 -28 18 -46.5t45 -18.5q28 0 45.5 18t17.5 47t-17.5 47t-45.5 18q-27 0 -45 -18.5t-18 -46.5z" />
    <glyph glyph-name="perthousand.onum" horiz-adv-x="1120" 
d="M40 418q0 65 45 108.5t112 43.5q66 0 110 -43t44 -107q0 -65 -45 -109t-111 -44q-67 0 -111 43t-44 108zM542 560h98l-412 -560h-97zM132 419q0 -29 18 -47.5t46 -18.5q27 0 45 19t18 47t-18 46.5t-45 18.5q-28 0 -46 -18.5t-18 -46.5zM420 140q0 65 45 108.5t111 43.5
t110 -42.5t44 -107.5t-45 -108.5t-111 -43.5t-110 42.5t-44 107.5zM770 140q0 65 45 108.5t111 43.5t110 -42.5t44 -107.5t-45 -108.5t-111 -43.5t-110 42.5t-44 107.5zM512 141q0 -28 18 -46.5t45 -18.5q28 0 45.5 18t17.5 47t-17.5 47t-45.5 18q-27 0 -45 -18.5t-18 -46.5
zM862 141q0 -28 18 -46.5t45 -18.5q28 0 45.5 18t17.5 47t-17.5 47t-45.5 18q-27 0 -45 -18.5t-18 -46.5z" />
    <glyph glyph-name="one.lnum" 
d="M76 0v117h194v413l-146 -97l-69 97l240 170h120v-583h163v-117h-502z" />
    <glyph glyph-name="two.lnum" 
d="M313 335q48 45 68 78t20 71q0 40 -29.5 68.5t-78.5 28.5q-38 0 -70 -22.5t-45 -44.5l-13 -22l-105 68q2 6 7 16t25 36t45.5 46t71 36t98.5 16q104 0 171.5 -61t67.5 -148q0 -72 -32.5 -128.5t-107.5 -123.5l-136 -124h271v-125h-470v111z" />
    <glyph glyph-name="three.lnum" 
d="M283 415q55 0 83.5 23t28.5 62q0 38 -28.5 61t-76.5 23q-37 0 -65 -17.5t-37 -34.5l-10 -18l-105 61q2 5 7 14.5t24 32.5t43 41t65.5 32.5t89.5 14.5q101 0 169.5 -52.5t68.5 -136.5q0 -50 -27.5 -91t-75.5 -65q58 -25 90.5 -69t32.5 -102q0 -91 -74.5 -147.5
t-189.5 -56.5q-52 0 -96.5 15t-71 36t-46 42t-26.5 36l-8 15l108 65q2 -3 5 -9t15.5 -20.5t27 -25.5t38.5 -20t51 -9q56 0 89 27t33 67q0 43 -34 69.5t-99 26.5h-72v110h73z" />
    <glyph glyph-name="four.lnum" 
d="M340 700h142v-431h100v-114h-100v-155h-138v155h-312v117zM344 269v261l-192 -261h192z" />
    <glyph glyph-name="five.lnum" 
d="M83 700h440v-125h-310v-148q51 38 117 38q100 0 164 -65.5t64 -159.5q0 -109 -74 -179.5t-190 -70.5q-46 0 -87.5 13t-68 32t-46.5 38t-28 32l-9 13l108 77l5.5 -8t15.5 -17t25.5 -21.5t36 -17.5t46.5 -8q55 0 88 31.5t33 81.5q0 43 -30.5 73t-80.5 30q-29 0 -53 -12.5
t-33 -24.5l-9 -12h-124v410z" />
    <glyph glyph-name="six.lnum" 
d="M295 700h161l-170 -247q26 12 55 12q93 0 158.5 -62.5t65.5 -157.5q0 -111 -75.5 -183t-184.5 -72q-106 0 -180.5 70t-74.5 176q0 100 62 192zM307 123q50 0 81.5 33t31.5 83t-31.5 82.5t-81.5 32.5t-81 -33t-31 -82q0 -50 31 -83t81 -33z" />
    <glyph glyph-name="seven.lnum" 
d="M405 571h-355v129h520v-100l-308 -600h-157z" />
    <glyph glyph-name="eight.lnum" 
d="M310 710q100 0 164 -53.5t64 -138.5q0 -87 -80 -143q50 -28 78.5 -71.5t28.5 -95.5q0 -94 -74 -156t-186 -62q-113 0 -184 59.5t-71 153.5q0 51 28 95.5t77 72.5q-79 53 -79 142q0 85 66.5 141t167.5 56zM307 420q40 0 65 23.5t25 60.5t-25 60.5t-65 23.5t-65 -23.5
t-25 -60.5t25 -60.5t65 -23.5zM307 112q49 0 81 29t32 75t-32 75.5t-81 29.5t-80.5 -29.5t-31.5 -75.5t31.5 -75t80.5 -29z" />
    <glyph glyph-name="nine.lnum" 
d="M320 0h-161l170 247q-26 -12 -55 -12q-93 0 -158.5 62.5t-65.5 157.5q0 111 75.5 183t184.5 72q106 0 180.5 -70t74.5 -176q0 -100 -62 -192zM308 577q-50 0 -81.5 -33t-31.5 -83t31.5 -82.5t81.5 -32.5t81 33t31 82q0 50 -31 83t-81 33z" />
    <glyph glyph-name="zero.lnum" 
d="M57 455q0 118 71 186.5t181 68.5q111 0 179.5 -66t68.5 -184v-215q0 -118 -71.5 -186.5t-181.5 -68.5t-178.5 66t-68.5 184v215zM202 230q0 -49 29 -78t76 -29t76 29.5t29 77.5v240q0 48 -29 77.5t-76 29.5t-76 -29.5t-29 -77.5v-240z" />
    <glyph glyph-name="numbersign.lnum" 
d="M335 194h-110l-33 -194h-95l33 194h-90v87h105l24 138h-89v87h104l33 194h95l-33 -194h110l33 194h95l-33 -194h91v-87h-106l-24 -138h90v-87h-105l-33 -194h-95zM240 281h110l24 138h-110z" />
    <glyph glyph-name="cent.lnum" 
d="M297 160q-109 14 -176 87.5t-67 181.5q0 107 67 181.5t176 90.5v99h84v-96q51 -5 95 -25t62 -37l19 -18l-100 -96q-4 5 -12.5 13.5t-36.5 22t-60 13.5q-66 0 -107.5 -41t-41.5 -104q0 -64 41.5 -105t107.5 -41q22 0 41.5 5.5t32 13t22 15.5t13.5 14l4 5l99 -93
q-3 -3 -7.5 -8t-22 -18.5t-36.5 -24.5t-50 -21.5t-63 -14.5v-96h-84v97z" />
    <glyph glyph-name="dollar.lnum" 
d="M260 310q-159 75 -159 207q0 73 49.5 123.5t129.5 61.5v98h84v-97q37 -5 70 -18.5t53 -29.5t35 -31.5t21 -25.5l6 -10l-105 -75q-5 8 -14 20t-40 31.5t-65 19.5t-54.5 -17t-20.5 -43q0 -32 25.5 -55.5t89.5 -54.5q181 -87 181 -220q0 -78 -50 -130.5t-132 -65.5v-98h-84
v95q-43 4 -81 19t-61.5 34t-40.5 37.5t-24 30.5l-7 13l106 75q2 -4 6.5 -10t18.5 -21t30 -27t40.5 -21.5t49.5 -9.5q36 0 58.5 19.5t22.5 48.5q0 33 -30.5 61.5t-107.5 65.5z" />
    <glyph glyph-name="sterling.lnum" 
d="M120 0v301h-85v83h85v81q0 114 68 179.5t174 65.5q43 0 80 -12t60 -29t39.5 -34.5t23.5 -29.5l7 -12l-117 -77q-1 2 -2.5 6.5t-9 15t-17.5 18.5t-27.5 14.5t-38.5 6.5q-43 0 -69 -26.5t-26 -70.5v-96h205v-83h-205v-176h290v-125h-435z" />
    <glyph glyph-name="Euro.lnum" 
d="M262 239v-9q0 -50 30 -80.5t78 -30.5q22 0 40.5 6t29.5 15t19 18t11 15l3 6l117 -64q-2 -5 -6.5 -13.5t-22.5 -30t-40.5 -38t-62.5 -30t-86 -13.5q-112 0 -182 64.5t-70 177.5v7h-85v76h85v70h-85v76h85v1q0 114 72.5 181t184.5 67q46 0 85.5 -13t62 -31t38 -36.5
t21.5 -31.5l6 -13l-117 -64q-1 2 -3 6.5t-10.5 14.5t-19 18t-29.5 14.5t-41 6.5q-48 0 -78 -30.5t-30 -80.5v-9h248v-76h-248v-70h228v-76h-228z" />
    <glyph glyph-name="yen.lnum" 
d="M230 178h-193v76h193v53l-11 21h-182v76h142l-162 296h173l121 -248l120 248h166l-163 -296h143v-76h-183l-11 -21v-53h194v-76h-194v-178h-153v178z" />
    <glyph glyph-name="florin.lnum" 
d="M120 -160l35 447h-120v87h127l9 116q8 105 68 162.5t157 57.5q41 0 76 -12.5t55.5 -30t35.5 -35t21 -30.5l6 -12l-106 -70q-1 2 -2.5 6t-8 14t-15 17.5t-24 13.5t-33.5 6q-38 0 -60 -23t-25 -63l-10 -117h184v-87h-190l-35 -447h-145z" />
    <glyph glyph-name="percent.lnum" horiz-adv-x="850" 
d="M40 536q0 75 51 124.5t127 49.5t126 -48.5t50 -123.5t-51 -125t-127 -50t-126 49t-50 124zM617 700h101l-485 -700h-101zM137 537q0 -35 23 -58.5t57 -23.5t57 23.5t23 58.5t-23 58.5t-57 23.5t-57 -23.5t-23 -58.5zM455 162q0 75 51 124.5t127 49.5t126.5 -48.5
t50.5 -123.5t-51.5 -124.5t-127.5 -49.5t-126 48.5t-50 123.5zM552 163q0 -35 23 -58.5t57 -23.5q35 0 57.5 23.5t22.5 58.5t-22.5 58.5t-57.5 23.5q-34 0 -57 -23.5t-23 -58.5z" />
    <glyph glyph-name="perthousand.lnum" horiz-adv-x="1247" 
d="M40 536q0 75 51 124.5t127 49.5t126 -48.5t50 -123.5t-51 -125t-127 -50t-126 49t-50 124zM617 700h101l-485 -700h-101zM137 537q0 -35 23 -58.5t57 -23.5t57 23.5t23 58.5t-23 58.5t-57 23.5t-57 -23.5t-23 -58.5zM455 162q0 75 51 124.5t127 49.5t126.5 -48.5
t50.5 -123.5t-51.5 -124.5t-127.5 -49.5t-126 48.5t-50 123.5zM1031 336q76 0 126 -48.5t50 -123.5t-51 -124.5t-127 -49.5t-126 48.5t-50 123.5t51 124.5t127 49.5zM552 163q0 -35 23 -58.5t57 -23.5q35 0 57.5 23.5t22.5 58.5t-22.5 58.5t-57.5 23.5q-34 0 -57 -23.5
t-23 -58.5zM1030 245q-34 0 -57 -23.5t-23 -58.5t23 -58.5t57 -23.5t57 23.5t23 58.5t-23 58.5t-57 23.5z" />
    <glyph glyph-name="numbersignsuperior" horiz-adv-x="371" 
d="M198 394h-59l-19 -114h-62l19 114h-52v58h63l12 77h-51v58h62l19 113h62l-19 -113h58l20 113h62l-20 -113h53v-58h-63l-13 -77h52v-58h-62l-19 -114h-62zM150 452h58l13 77h-59z" />
    <glyph glyph-name="centsuperior" horiz-adv-x="337" 
d="M167 389q-61 10 -99 52t-38 103q0 59 38 102.5t99 54.5v59h58v-58q29 -3 54 -14.5t35 -21.5l11 -11l-61 -63q-22 26 -62 26q-33 0 -53.5 -20.5t-20.5 -52.5q0 -31 20.5 -51.5t53.5 -20.5q19 0 35 7.5t23 14.5l6 7l61 -61q-4 -5 -11.5 -12.5t-34 -22t-56.5 -18.5v-57h-58
v58z" />
    <glyph glyph-name="dollarsuperior" horiz-adv-x="354" 
d="M141 464q-96 45 -96 127q0 43 30 73t78 38v58h58v-58q35 -5 63 -22.5t39 -32.5l11 -15l-73 -51q-2 5 -7 12.5t-23 20t-38 12.5q-19 0 -29.5 -9.5t-10.5 -22.5q0 -16 15 -30t52 -32q110 -52 110 -135q0 -46 -30.5 -77.5t-78.5 -39.5v-60h-58v58q-41 5 -74 25t-46 38
l-13 18l74 51l10.5 -15t28.5 -24.5t45 -15.5q20 0 31.5 10t11.5 25q0 19 -17.5 35.5t-62.5 38.5z" />
    <glyph glyph-name="sterlingsuperior" horiz-adv-x="375" 
d="M78 280v177h-48v58h48v44q0 68 42.5 107.5t107.5 39.5q26 0 48.5 -7t36 -17t24 -20.5t14.5 -17.5l4 -7l-76 -48q-12 29 -51 29q-25 0 -38.5 -14.5t-13.5 -39.5v-49h118v-58h-118v-99h169v-78h-267z" />
    <glyph glyph-name="Eurosuperior" horiz-adv-x="385" 
d="M172 420v-4q0 -27 15.5 -43t43.5 -16q20 0 34.5 8.5t18.5 16.5l4 8l77 -41q-1 -3 -4 -8t-14 -18t-24.5 -23t-38 -18t-52.5 -8q-68 0 -111 37.5t-43 107.5v1h-48v51h48v38h-48v50h48q1 69 45 108t112 39q28 0 52 -7.5t37.5 -19t23.5 -22.5t14 -19l3 -7l-77 -41q0 1 -1 3.5
t-5.5 8t-10.5 9.5t-16.5 7.5t-23.5 3.5q-28 0 -43.5 -15.5t-15.5 -43.5v-4h148v-50h-148v-38h136v-51h-136z" />
    <glyph glyph-name="yensuperior" horiz-adv-x="403" 
d="M150 383h-128v51h128v31l-7 12h-121v51h91l-103 172h113l82 -151l79 151h109l-104 -172h92v-51h-122l-6 -12v-31h128v-51h-128v-103h-103v103z" />
    <glyph glyph-name="florinsuperior" horiz-adv-x="371" 
d="M68 184l21 265h-69v60h73l6 65q6 64 42.5 98t96.5 34q25 0 46 -7.5t33.5 -18t22 -21t12.5 -17.5l4 -8l-71 -43q-12 27 -44 27q-20 0 -31.5 -13t-13.5 -34l-5 -62h105v-60h-110l-20 -265h-98z" />
    <glyph glyph-name="percentsuperior" horiz-adv-x="537" 
d="M30 600q0 46 31.5 76t77.5 30q47 0 77.5 -29.5t30.5 -75.5q0 -45 -31.5 -75t-77.5 -30t-77 29.5t-31 74.5zM385 700h67l-299 -420h-67zM93 601q0 -20 13 -33t33 -13q19 0 32 13t13 33t-13 33t-32 13q-20 0 -33 -13t-13 -33zM291 378q0 46 31 76.5t78 30.5q46 0 76.5 -30
t30.5 -76q0 -45 -31 -75t-77 -30q-47 0 -77.5 29t-30.5 75zM354 379q0 -20 13 -33t32 -13t32.5 13.5t13.5 32.5q0 20 -13 33.5t-33 13.5q-19 0 -32 -13.5t-13 -33.5z" />
    <glyph glyph-name="perthousandsuperior" horiz-adv-x="779" 
d="M30 600q0 46 31.5 76t77.5 30q47 0 77.5 -29.5t30.5 -75.5q0 -45 -31.5 -75t-77.5 -30t-77 29.5t-31 74.5zM385 700h67l-299 -420h-67zM93 601q0 -20 13 -33t33 -13q19 0 32 13t13 33t-13 33t-32 13q-20 0 -33 -13t-13 -33zM291 378q0 46 31 76.5t78 30.5q46 0 76.5 -30
t30.5 -76q0 -45 -31 -75t-77 -30q-47 0 -77.5 29t-30.5 75zM533 378q0 46 31 76.5t78 30.5q46 0 76.5 -30t30.5 -76q0 -45 -31 -75t-77 -30q-47 0 -77.5 29t-30.5 75zM354 379q0 -20 13 -33t32 -13t32.5 13.5t13.5 32.5q0 20 -13 33.5t-33 13.5q-19 0 -32 -13.5t-13 -33.5z
M596 379q0 -20 13 -33t32 -13t32.5 13.5t13.5 32.5q0 20 -13 33.5t-33 13.5q-19 0 -32 -13.5t-13 -33.5z" />
    <glyph glyph-name="G.ss01" horiz-adv-x="775" 
d="M410 -10q-156 0 -260.5 102.5t-104.5 254.5t107 257.5t263 105.5q52 0 98.5 -11t76 -27t52 -32.5t32.5 -27.5l10 -11l-107 -107q-2 3 -6.5 8t-19.5 18t-32.5 23t-46 18t-59.5 8q-93 0 -154 -63t-61 -158t61 -158t154 -63q50 0 90 14.5t55 28.5l16 14v86h-169v110h310
v-266q-4 -5 -12 -13.5t-36.5 -30t-61 -37.5t-85.5 -29.5t-110 -13.5z" />
    <glyph glyph-name="Gbreve.ss01" horiz-adv-x="775" 
d="M333 920v-13q0 -31 20 -50.5t53 -19.5q32 0 51 19.5t19 50.5v13h100v-5q0 -72 -48 -117.5t-123 -45.5t-123 45.5t-48 117.5v5h99zM410 -10q-156 0 -260.5 102.5t-104.5 254.5t107 257.5t263 105.5q52 0 98.5 -11t76 -27t52 -32.5t32.5 -27.5l10 -11l-107 -107
q-2 3 -6.5 8t-19.5 18t-32.5 23t-46 18t-59.5 8q-93 0 -154 -63t-61 -158t61 -158t154 -63q50 0 90 14.5t55 28.5l16 14v86h-169v110h310v-266q-4 -5 -12 -13.5t-36.5 -30t-61 -37.5t-85.5 -29.5t-110 -13.5z" />
    <glyph glyph-name="Gcommaaccent.ss01" horiz-adv-x="775" 
d="M410 -10q-156 0 -260.5 102.5t-104.5 254.5t107 257.5t263 105.5q52 0 98.5 -11t76 -27t52 -32.5t32.5 -27.5l10 -11l-107 -107q-2 3 -6.5 8t-19.5 18t-32.5 23t-46 18t-59.5 8q-93 0 -154 -63t-61 -158t61 -158t154 -63q50 0 90 14.5t55 28.5l16 14v86h-169v110h310
v-266q-4 -5 -12 -13.5t-36.5 -30t-61 -37.5t-85.5 -29.5t-110 -13.5zM378 -218h-114l67 168h153z" />
    <glyph glyph-name="Gdotaccent.ss01" horiz-adv-x="775" 
d="M405 916q33 0 54.5 -21.5t21.5 -54.5q0 -32 -22.5 -54.5t-54.5 -22.5q-33 0 -54.5 21.5t-21.5 54.5t22 55t55 22zM410 -10q-156 0 -260.5 102.5t-104.5 254.5t107 257.5t263 105.5q52 0 98.5 -11t76 -27t52 -32.5t32.5 -27.5l10 -11l-107 -107q-2 3 -6.5 8t-19.5 18
t-32.5 23t-46 18t-59.5 8q-93 0 -154 -63t-61 -158t61 -158t154 -63q50 0 90 14.5t55 28.5l16 14v86h-169v110h310v-266q-4 -5 -12 -13.5t-36.5 -30t-61 -37.5t-85.5 -29.5t-110 -13.5z" />
    <glyph glyph-name="Gcircumflex.ss01" horiz-adv-x="775" 
d="M340 920h130l140 -168h-126l-82 82l-82 -82h-120zM410 -10q-156 0 -260.5 102.5t-104.5 254.5t107 257.5t263 105.5q52 0 98.5 -11t76 -27t52 -32.5t32.5 -27.5l10 -11l-107 -107q-2 3 -6.5 8t-19.5 18t-32.5 23t-46 18t-59.5 8q-93 0 -154 -63t-61 -158t61 -158t154 -63
q50 0 90 14.5t55 28.5l16 14v86h-169v110h310v-266q-4 -5 -12 -13.5t-36.5 -30t-61 -37.5t-85.5 -29.5t-110 -13.5z" />
    <glyph glyph-name="a.ss01" horiz-adv-x="649" 
d="M589 0h-121l-12 77q-64 -87 -172 -87q-103 0 -176 77t-73 189q0 113 75 191.5t179 78.5q106 0 167 -82l12 72h121v-516zM314 393q-57 0 -95.5 -39t-38.5 -96t38.5 -96t95.5 -39q58 0 96.5 39t38.5 96t-38.5 96t-96.5 39z" />
    <glyph glyph-name="agrave.ss01" horiz-adv-x="649" 
d="M141 740h153l67 -168h-114zM589 0h-121l-12 77q-64 -87 -172 -87q-103 0 -176 77t-73 189q0 113 75 191.5t179 78.5q106 0 167 -82l12 72h121v-516zM314 393q-57 0 -95.5 -39t-38.5 -96t38.5 -96t95.5 -39q58 0 96.5 39t38.5 96t-38.5 96t-96.5 39z" />
    <glyph glyph-name="aacute.ss01" horiz-adv-x="649" 
d="M346 572h-114l67 168h153zM589 0h-121l-12 77q-64 -87 -172 -87q-103 0 -176 77t-73 189q0 113 75 191.5t179 78.5q106 0 167 -82l12 72h121v-516zM314 393q-57 0 -95.5 -39t-38.5 -96t38.5 -96t95.5 -39q58 0 96.5 39t38.5 96t-38.5 96t-96.5 39z" />
    <glyph glyph-name="acircumflex.ss01" horiz-adv-x="649" 
d="M257 740h130l140 -168h-126l-82 82l-82 -82h-120zM589 0h-121l-12 77q-64 -87 -172 -87q-103 0 -176 77t-73 189q0 113 75 191.5t179 78.5q106 0 167 -82l12 72h121v-516zM314 393q-57 0 -95.5 -39t-38.5 -96t38.5 -96t95.5 -39q58 0 96.5 39t38.5 96t-38.5 96t-96.5 39z
" />
    <glyph glyph-name="atilde.ss01" horiz-adv-x="649" 
d="M148 597q0 6 1 15t7 33t16.5 42t32 33t50.5 15q34 0 59.5 -18t45 -36t38.5 -18q15 0 24 14.5t11 28.5l2 15l72 -8q0 -6 -1 -15t-7.5 -33t-16.5 -42t-32 -33t-51 -15q-33 0 -58.5 18t-45.5 36t-39 18q-14 0 -23 -14.5t-11 -28.5l-2 -15zM589 0h-121l-12 77
q-64 -87 -172 -87q-103 0 -176 77t-73 189q0 113 75 191.5t179 78.5q106 0 167 -82l12 72h121v-516zM314 393q-57 0 -95.5 -39t-38.5 -96t38.5 -96t95.5 -39q58 0 96.5 39t38.5 96t-38.5 96t-96.5 39z" />
    <glyph glyph-name="adieresis.ss01" horiz-adv-x="649" 
d="M217 736q33 0 54.5 -21.5t21.5 -54.5q0 -32 -22.5 -54.5t-54.5 -22.5q-33 0 -54.5 21.5t-21.5 54.5t22 55t55 22zM438 736q33 0 54.5 -21.5t21.5 -54.5q0 -32 -22.5 -54.5t-54.5 -22.5q-33 0 -54.5 21.5t-21.5 54.5t22 55t55 22zM589 0h-121l-12 77q-64 -87 -172 -87
q-103 0 -176 77t-73 189q0 113 75 191.5t179 78.5q106 0 167 -82l12 72h121v-516zM314 393q-57 0 -95.5 -39t-38.5 -96t38.5 -96t95.5 -39q58 0 96.5 39t38.5 96t-38.5 96t-96.5 39z" />
    <glyph glyph-name="aring.ss01" horiz-adv-x="649" 
d="M327 769q47 0 78 -29.5t31 -74.5t-31 -74.5t-78 -29.5t-78 29.5t-31 74.5t31 74.5t78 29.5zM327 616q21 0 35 14t14 35t-14 34.5t-35 13.5t-35 -13.5t-14 -34.5t14 -35t35 -14zM589 0h-121l-12 77q-64 -87 -172 -87q-103 0 -176 77t-73 189q0 113 75 191.5t179 78.5
q106 0 167 -82l12 72h121v-516zM314 393q-57 0 -95.5 -39t-38.5 -96t38.5 -96t95.5 -39q58 0 96.5 39t38.5 96t-38.5 96t-96.5 39z" />
    <glyph glyph-name="abreve.ss01" horiz-adv-x="649" 
d="M248 740v-13q0 -31 20 -50.5t53 -19.5q32 0 51 19.5t19 50.5v13h100v-5q0 -72 -48 -117.5t-123 -45.5t-123 45.5t-48 117.5v5h99zM589 0h-121l-12 77q-64 -87 -172 -87q-103 0 -176 77t-73 189q0 113 75 191.5t179 78.5q106 0 167 -82l12 72h121v-516zM314 393
q-57 0 -95.5 -39t-38.5 -96t38.5 -96t95.5 -39q58 0 96.5 39t38.5 96t-38.5 96t-96.5 39z" />
    <glyph glyph-name="amacron.ss01" horiz-adv-x="649" 
d="M140 692h360v-84h-360v84zM589 0h-121l-12 77q-64 -87 -172 -87q-103 0 -176 77t-73 189q0 113 75 191.5t179 78.5q106 0 167 -82l12 72h121v-516zM314 393q-57 0 -95.5 -39t-38.5 -96t38.5 -96t95.5 -39q58 0 96.5 39t38.5 96t-38.5 96t-96.5 39z" />
    <glyph glyph-name="aogonek.ss01" horiz-adv-x="649" 
d="M589 0h-40q-1 0 -5.5 -4t-9 -14t-4.5 -23q0 -21 17 -35t43 -14q14 0 26.5 3t18.5 6l6 3l23 -81q-31 -26 -88 -26q-60 0 -101 35t-41 94q0 45 30 79l-8 54q-64 -87 -172 -87q-103 0 -176 77t-73 189q0 113 75 191.5t179 78.5q106 0 167 -82l12 72h121v-516zM314 393
q-57 0 -95.5 -39t-38.5 -96t38.5 -96t95.5 -39q58 0 96.5 39t38.5 96t-38.5 96t-96.5 39z" />
    <glyph glyph-name="aringacute.ss01" horiz-adv-x="649" 
d="M589 0h-121l-12 77q-64 -87 -172 -87q-103 0 -176 77t-73 189q0 93 52.5 164.5t134.5 95.5q-20 26 -20 64q0 37 21.5 64.5t57.5 35.5l24 60h153l-60 -96q22 -27 22 -64q0 -48 -34 -77q41 -20 70 -59l12 72h121v-516zM311 531q21 0 35 14t14 35q0 20 -14 34t-35 14
t-35 -14t-14 -34q0 -21 14 -35t35 -14zM314 393q-57 0 -95.5 -39t-38.5 -96t38.5 -96t95.5 -39q58 0 96.5 39t38.5 96t-38.5 96t-96.5 39z" />
    <glyph glyph-name="K.ss01" horiz-adv-x="720" 
d="M314 297l-81 -86v-211h-153v700h153v-319l285 319h187l-280 -307l300 -393h-190z" />
    <glyph glyph-name="Kcommaaccent.ss01" horiz-adv-x="720" 
d="M314 297l-81 -86v-211h-153v700h153v-319l285 319h187l-280 -307l300 -393h-190zM353 -218h-114l67 168h153z" />
    <glyph glyph-name="k.ss01" horiz-adv-x="605" 
d="M277 212l-72 -66v-146h-145v700h145v-397l209 213h186l-219 -214l229 -302h-179z" />
    <glyph glyph-name="kcommaaccent.ss01" horiz-adv-x="605" 
d="M277 212l-72 -66v-146h-145v700h145v-397l209 213h186l-219 -214l229 -302h-179zM288 -218h-114l67 168h153z" />
    <glyph glyph-name="Sarcasm" horiz-adv-x="670" 
d="M40 653l168 57l112 -456l-106 -36zM456 218l-106 36l112 456l168 -57zM243 87q0 38 27 64.5t65 26.5t64.5 -26.5t26.5 -64.5q0 -37 -27 -64t-64 -27q-38 0 -65 26.5t-27 64.5z" />
    </font>
</defs>
</svg>
