<?xml version="1.0" standalone="no"?>
<!DOCTYPE svg PUBLIC "-//W3C//DTD SVG 20010904//EN"
 "http://www.w3.org/TR/2001/REC-SVG-20010904/DTD/svg10.dtd">
<svg version="1.0" xmlns="http://www.w3.org/2000/svg"
 width="500.000000pt" height="500.000000pt" viewBox="0 0 500.000000 500.000000"
 preserveAspectRatio="xMidYMid meet">
<metadata>
Created by potrace 1.11, written by Peter Selinger 2001-2013
</metadata>
<g transform="translate(0.000000,500.000000) scale(0.100000,-0.100000)"
fill="#000000" stroke="none">
<path d="M2295 4984 c-617 -64 -1138 -307 -1555 -724 -381 -381 -622 -862
-707 -1410 -25 -161 -25 -539 0 -700 118 -763 547 -1405 1198 -1791 389 -230
795 -341 1259 -341 475 -1 886 108 1276 339 654 388 1083 1028 1201 1793 25
161 25 539 0 700 -85 548 -326 1029 -707 1410 -378 378 -863 623 -1400 705
-101 16 -476 28 -565 19z m1205 -1331 c20 -26 21 -35 18 -293 -2 -208 -6 -271
-17 -283 -12 -15 -47 -17 -313 -17 l-299 0 -24 -25 -25 -24 0 -886 c0 -884 0
-885 -21 -906 -20 -20 -29 -21 -177 -17 -150 3 -160 5 -222 34 -132 62 -234
193 -260 333 -6 32 -10 329 -10 750 0 586 -2 700 -14 717 -14 18 -31 19 -318
22 -294 2 -304 3 -320 23 -16 19 -18 49 -18 290 0 256 1 270 20 289 20 20 33
20 999 20 l980 0 21 -27z"/>
</g>
</svg>
