<?xml version="1.0" encoding="UTF-8"?> <svg xmlns="http://www.w3.org/2000/svg" width="90" height="90" viewBox="0 0 90 90"><path d="M77.469 15.362c-14.05.604-28.1 19.536-42.15 24.914-.285-1.877-.565-3.757-.852-5.625.213.132-6.777-3.244-14.467-1.77-7.672.919-16.042 6.688-18.152 12.27-4.12 9.87-.752 24.811 5.908 25.469 2.527.122 8.479-1.375 14.424-1.791.248 1.381.498 2.765.748 4.135C45.268 84.13 67.61 35.414 89.95 59.23c-.377-2.653-.754-5.28-1.13-7.88-16.562-15.488-33.122 7.434-49.682 15.146l-.403-2.863c16.502-7.57 33.004-30.63 49.506-16.274-.377-2.566-.754-5.108-1.13-7.625-16.389-12.222-32.779 11.076-49.169 18.348-.185-1.29-.367-2.584-.556-3.871 16.315-7.051 32.626-30.488 48.94-19.69-.376-2.473-.75-4.923-1.128-7.35C68.99 18.336 52.782 41.96 36.572 48.67c-.14-.953-.28-1.908-.422-2.858 16.159-6.526 32.316-30.234 48.473-22.367-.377-2.398-.756-4.77-1.133-7.125a15.073 15.073 0 0 0-6.021-.957zM16.092 40.61l5.664 5.98 9.07.87-5.01 4.762 3.405 6.605-8.762-3.041-6.96 3.217-.405-6.639-7.717-4.619 8.516-1.064zM227.536 170.396c.421.044.842.066 1.263.077a28.454 28.454 0 0 0-1.263-.077z"></path></svg> 