<?xml version="1.0" encoding="UTF-8"?> <svg xmlns="http://www.w3.org/2000/svg" width="828" height="358" viewBox="0 0 828 358"><path id="logogravel" d="M102.703.674C45.103.674 0 49.13 0 110.996s45.103 110.32 102.703 110.32c60.341 0 104.532-46.932 102.094-121.292h-83.281s-5.667-1.287-10 3.046c-4 4-3.327 7.926-3.327 7.926v26.514h52.418c-5.79 25.599-27.733 47.236-57.904 47.236-35.047 0-62.474-33.522-62.474-73.75 0-39.924 27.427-73.447 62.474-73.447 24.38 0 42.668 13.713 52.725 33.523l36.738-16.539C175.569 20.807 143.368.674 102.703.674zm658.563 4.744v150.456c0 40.175 22.797 65.825 65.824 61.264 0 0 2.766-16.756-4.838-26.131-7.166-8.837-23.09 7.171-23.09-35.133V5.418zM310.143 62.869c-15.552-.324-38.315 5.458-51.022 14.928-.697-1.547-1.693-3.69-2.726-5.674-1.824-3.505-2.082-5.156-6.489-6.494-5.04-1.53-28.582-1.97-28.582-1.97l-10.553.189v30.271h12.44v120.989h36.88v-97.475c0-5.146 3.179-9.639 5.136-11.668 8.395-8.955 17.452-7.21 32.283-5.53 0 0 1.895-4.363 7.793-12.05 6.423-8.371 9.478-10.787 11.017-15.17.9-2.564 0-9.824 0-9.824-1.878-.303-3.954-.475-6.177-.522zm365.056 4.1c-41.32 0-75.228 34.765-75.228 77.223 0 42.457 33.91 76.65 75.228 76.65 27.356 0 48.782-11.381 61.39-29.693l-30.616-20.46c-6.27 11.685-18.522 17.098-31.059 17.098-17.667 0-31.916-11.112-36.76-29.064 0 0 66.278 2.012 88.248 0 7.113-.652 11.043-3.4 16.11-9.592 4.277-5.226 6.064-9.993 5.64-19.096-1.902-40.878-37.358-63.066-72.953-63.066zm-293.332.002c-21.224 0-38.89 6.33-51.088 16.695-6.617 5.624-13.237 14.052-16.33 21.684l36.072 10.345c.855-3.135 2.46-5.856 4.592-8.181 6.4-6.973 17.567-10.34 27.612-10.34 16.812 0 26.785 6.27 26.785 13.963 0 11.968-17.384 14.817-41.89 17.098-32.486 2.849-60.126 11.399-60.126 44.453 0 31.912 28.497 47.586 59.557 47.586 20.516 0 35.333-6.27 45.021-16.53.854 5.416 8.802 12.953 12.817 13.68h36.576c0-.002.51-26.922-.03-29.072-.537-2.148-4.298-4.301-4.298-4.301l-11.155-.236v-66.694c0-11.684-4.56-50.15-64.115-50.15zm206.848 3.371c-4.232-.022-8.467.048-11.186.33-4.993.516-7.184 1.007-10.244 3.225-3.124 2.263-5.952 5.932-8.139 11.404-10.207 25.54-31.845 94.793-31.845 94.793L490.826 70.672h-39.322l55.564 146.75h40.463l55.282-146.75s-7.045-.293-14.098-.33zm86.2 29.68c17.951 0 32.199 10.828 36.759 27.925h-72.947c5.413-17.097 19.09-27.925 36.187-27.925zm-260.106 32.53a15.07 15.07 0 0 1 6.021.958c.377 2.354.756 4.727 1.133 7.125-16.157-7.867-32.317 15.84-48.475 22.365.142.95.282 1.905.422 2.858 16.21-6.71 32.42-30.333 48.63-21.495.375 2.426.75 4.875 1.126 7.348-16.313-10.798-32.626 12.64-48.94 19.692.188 1.287.371 2.578.557 3.869 16.39-7.273 32.778-30.568 49.168-18.346.377 2.517.754 5.059 1.131 7.625-16.501-14.356-33.004 8.7-49.506 16.271.135.953.268 1.912.4 2.866 16.562-7.712 33.121-30.635 49.682-15.147.377 2.601.754 5.228 1.131 7.881-22.34-23.818-44.681 24.897-67.021 13.73-.25-1.37-.5-2.751-.748-4.132-5.945.415-11.9 1.91-14.426 1.789-6.66-.66-10.027-15.598-5.908-25.467 2.11-5.582 10.483-11.354 18.154-12.272 7.69-1.475 14.678 1.904 14.465 1.772.287 1.868.57 3.748.853 5.625 14.05-5.378 28.1-24.31 42.15-24.914zm-61.38 25.249l-2.199 6.068-8.515 1.067 7.717 4.617.404 6.639 6.96-3.215 8.765 3.04-3.407-6.607 5.01-4.761-9.07-.87-5.664-5.978z" fill="#001838"></path><path id="logoyear" d="M299.369 258.539c-13.526 0-25.55 7.104-31.56 20.22l15.847 9.292c3.416-7.516 8.746-11.205 15.987-11.205 7.24 0 12.431 4.92 12.431 12.433 0 5.055-3.688 11.477-10.93 19.127l-32.654 33.61v14.072h63.944v-18.17h-35.932l18.717-18.717c10.52-10.522 15.71-20.63 15.71-30.603 0-9.156-3.141-16.534-9.29-21.861-6.147-5.465-13.663-8.198-22.27-8.198zm75.553 0c-11.887 0-21.316 4.51-28.147 13.664-6.694 9.015-10.109 21.04-10.109 36.067 0 15.029 3.415 27.053 10.11 36.205 6.83 9.017 16.259 13.525 28.146 13.525 12.022 0 21.447-4.507 28.142-13.525 6.694-9.152 10.112-21.176 10.112-36.205 0-15.027-3.418-27.05-10.112-36.067-6.696-9.154-16.121-13.664-28.142-13.664zm71.043 0c-13.526 0-25.55 7.104-31.56 20.22l15.849 9.292c3.416-7.516 8.743-11.205 15.984-11.205s12.432 4.92 12.432 12.433c0 5.055-3.689 11.477-10.93 19.127l-32.652 33.61v14.072h63.94v-18.17h-35.932l18.716-18.717c10.522-10.522 15.713-20.63 15.713-30.603 0-9.156-3.143-16.534-9.29-21.861-6.15-5.465-13.663-8.198-22.27-8.198zm75.553 0c-11.887 0-21.314 4.51-28.145 13.664-6.695 9.015-10.11 21.04-10.11 36.067 0 15.029 3.415 27.053 10.11 36.205 6.831 9.017 16.258 13.525 28.145 13.525 12.024 0 21.45-4.507 28.144-13.525 6.695-9.152 10.11-21.176 10.11-36.205 0-15.027-3.415-27.05-10.11-36.067-6.695-9.154-16.121-13.664-28.144-13.664zm-146.596 18.307c12.705 0 19.535 11.068 19.535 31.424 0 20.22-6.83 31.287-19.535 31.287-12.707 0-19.402-10.93-19.402-31.287 0-20.356 6.695-31.424 19.402-31.424zm146.596 0c12.705 0 19.537 11.068 19.537 31.424 0 20.22-6.832 31.287-19.537 31.287-12.706 0-19.4-10.93-19.4-31.287 0-20.356 6.694-31.424 19.4-31.424z" fill="#ff4242"></path></svg> 