<?xml version="1.0" encoding="UTF-8"?> <svg xmlns="http://www.w3.org/2000/svg" width="1432" height="222" viewBox="0 0 1432 222"><path id="logogravel" d="M102.703.371C45.103.371 0 48.827 0 110.693s45.103 110.323 102.703 110.323c60.341 0 104.532-46.933 102.094-121.293h-83.281s-5.667-1.287-10 3.046c-4 4-3.327 7.926-3.327 7.926v26.512h52.418c-5.79 25.599-27.733 47.238-57.904 47.238-35.047 0-62.474-33.522-62.474-73.75 0-39.924 27.427-73.447 62.474-73.447 24.38 0 42.668 13.713 52.725 33.523l36.738-16.539C175.569 20.506 143.368.371 102.703.371zm658.56 4.746v150.455c0 40.176 22.798 65.825 65.825 61.264 0 0 2.766-16.756-4.838-26.131-7.166-8.837-23.088 7.172-23.088-35.133V5.117zm-451.12 57.451c-15.552-.324-38.315 5.458-51.022 14.928-.697-1.547-1.693-3.69-2.726-5.674-1.824-3.505-2.082-5.156-6.489-6.494-5.04-1.53-28.582-1.97-28.582-1.97l-10.553.189v30.271h12.44v120.989h36.88v-97.476c0-5.146 3.179-9.639 5.136-11.668 8.395-8.955 17.452-7.21 32.283-5.53 0 0 1.895-4.365 7.793-12.052 6.423-8.371 9.478-10.785 11.017-15.168.9-2.564 0-9.824 0-9.824-1.878-.303-3.954-.475-6.177-.522zm71.724 4.1c-21.224 0-38.89 6.332-51.088 16.697-6.617 5.624-13.237 14.05-16.33 21.682l36.072 10.347c.855-3.135 2.46-5.858 4.592-8.183 6.4-6.973 17.567-10.34 27.612-10.34 16.812 0 26.785 6.272 26.785 13.965 0 11.968-17.384 14.817-41.89 17.098-32.486 2.849-60.126 11.397-60.126 44.45 0 31.914 28.497 47.587 59.557 47.587 20.516 0 35.333-6.27 45.021-16.53.854 5.416 8.802 12.953 12.817 13.68h36.576c0-.001.508-26.921-.03-29.072-.538-2.148-4.298-4.301-4.298-4.301l-11.155-.236v-66.694c0-11.684-4.56-50.15-64.115-50.15zm293.332 0c-41.32 0-75.228 34.763-75.228 77.22 0 42.458 33.908 76.653 75.228 76.653 27.356 0 48.78-11.381 61.389-29.693l-30.615-20.46c-6.27 11.685-18.522 17.096-31.059 17.096-17.668 0-31.916-11.112-36.76-29.064 0 0 66.28 2.012 88.248 0 7.113-.652 11.044-3.4 16.11-9.592 4.278-5.226 6.064-9.99 5.64-19.094-1.902-40.878-37.359-63.066-72.953-63.066zm-86.484 3.373c-4.232-.022-8.468.048-11.188.33-4.992.516-7.183 1.007-10.244 3.225-3.123 2.263-5.95 5.932-8.138 11.404-10.207 25.54-31.844 94.793-31.844 94.793L490.826 70.371h-39.324l55.566 146.75h40.463l55.28-146.75s-7.043-.293-14.096-.33zm86.2 29.68c17.95 0 32.198 10.828 36.757 27.925h-72.947c5.414-17.097 19.091-27.925 36.19-27.925zM414.807 132.25a15.07 15.07 0 0 1 6.021.957c.377 2.354.756 4.727 1.133 7.125-16.157-7.867-32.315 15.841-48.473 22.367.142.95.282 1.905.422 2.858 16.21-6.71 32.417-30.335 48.627-21.497.377 2.426.752 4.877 1.127 7.35-16.313-10.798-32.625 12.639-48.94 19.69.189 1.287.372 2.58.557 3.87 16.39-7.272 32.78-30.569 49.168-18.347.377 2.517.754 5.059 1.131 7.625-16.502-14.356-33.004 8.703-49.506 16.273.135.952.269 1.909.403 2.864 16.56-7.712 33.12-30.634 49.681-15.147.377 2.601.754 5.228 1.131 7.881-22.34-23.817-44.682 24.898-67.023 13.732-.25-1.37-.5-2.753-.748-4.134-5.945.416-11.897 1.912-14.424 1.79-6.66-.658-10.027-15.599-5.908-25.468 2.11-5.582 10.48-11.352 18.152-12.27 7.69-1.475 14.68 1.902 14.467 1.77.287 1.868.567 3.748.851 5.625 14.051-5.378 28.1-24.31 42.15-24.914zm-61.377 25.248l-2.2 6.07-8.515 1.065 7.717 4.619.404 6.639 6.96-3.217 8.763 3.04-3.405-6.605 5.01-4.761-9.07-.87z" fill="#001838"></path><path id="logoyear" d="M914.396 24.427c-26.869 0-50.75 14.11-62.69 40.167l31.481 18.457c6.783-14.93 17.367-22.26 31.752-22.26 14.383 0 24.696 9.774 24.696 24.7 0 10.04-7.328 22.796-21.711 37.993l-64.862 66.764v27.953h127.01v-36.094h-71.375l37.18-37.18c20.898-20.9 31.209-40.981 31.209-60.792 0-18.187-6.24-32.841-18.455-43.424-12.211-10.855-27.139-16.283-44.235-16.283zm150.08 0c-23.61 0-42.34 8.958-55.908 27.143-13.297 17.91-20.082 41.794-20.082 71.645 0 29.854 6.785 53.737 20.082 71.918 13.57 17.912 32.298 26.867 55.909 26.867 23.879 0 42.605-8.955 55.904-26.867 13.299-18.18 20.084-42.064 20.084-71.918 0-29.851-6.785-53.736-20.084-71.645-13.3-18.185-32.025-27.142-55.904-27.142zm141.122 0c-26.868 0-50.749 14.11-62.688 40.167l31.479 18.457c6.787-14.93 17.37-22.26 31.756-22.26 14.38 0 24.693 9.774 24.693 24.7 0 10.04-7.328 22.796-21.711 37.993l-64.863 66.764v27.953h127.013v-36.094H1199.9l37.18-37.18c20.9-20.9 31.211-40.981 31.211-60.792 0-18.187-6.24-32.841-18.455-43.424-12.213-10.855-27.138-16.283-44.238-16.283zm150.082 0c-23.611 0-42.337 8.958-55.907 27.143-13.3 17.91-20.084 41.794-20.084 71.645 0 29.854 6.783 53.737 20.084 71.918 13.571 17.912 32.296 26.867 55.907 26.867 23.884 0 42.605-8.955 55.902-26.867 13.303-18.18 20.084-42.064 20.084-71.918 0-29.851-6.78-53.736-20.084-71.645-13.297-18.185-32.017-27.142-55.902-27.142zm-291.203 36.366c25.238 0 38.805 21.986 38.806 62.42 0 40.167-13.568 62.15-38.806 62.15-25.242 0-38.54-21.712-38.54-62.15 0-40.435 13.298-62.42 38.54-62.42zm291.203 0c25.238 0 38.807 21.986 38.808 62.42 0 40.167-13.57 62.15-38.808 62.15-25.24 0-38.54-21.712-38.54-62.15 0-40.435 13.3-62.42 38.54-62.42z" fill="#ff4242"></path></svg> 