<?xml version="1.0" standalone="no"?>
<!DOCTYPE svg PUBLIC "-//W3C//DTD SVG 20010904//EN"
 "http://www.w3.org/TR/2001/REC-SVG-20010904/DTD/svg10.dtd">
<svg version="1.0" xmlns="http://www.w3.org/2000/svg"
 width="300.000000pt" height="300.000000pt" viewBox="0 0 300.000000 300.000000"
 preserveAspectRatio="xMidYMid meet">
<metadata>
Created by potrace 1.11, written by Peter Selinger 2001-2013
</metadata>
<g transform="translate(0.000000,300.000000) scale(0.100000,-0.100000)"
fill="#000000" stroke="none">
<path d="M1462 2833 c-6 -21 -40 -121 -77 -223 -37 -102 -73 -203 -80 -225 -7
-22 -40 -118 -74 -212 l-60 -173 309 0 309 0 -34 98 c-18 53 -61 176 -95 272
-34 96 -87 248 -118 337 -32 90 -60 163 -63 163 -4 0 -11 -17 -17 -37z"/>
<path d="M72 1807 c30 -24 43 -33 263 -192 230 -167 306 -221 455 -332 l138
-102 -58 -178 c-45 -137 -165 -508 -275 -850 -2 -7 33 15 78 47 45 33 132 96
192 139 111 80 1092 791 1240 899 44 32 238 173 430 312 193 139 357 259 365
266 12 12 -211 14 -1420 14 l-1435 0 27 -23z m2063 -215 c-6 -5 -167 -123
-359 -263 -192 -140 -431 -313 -530 -386 -100 -72 -182 -128 -183 -125 -2 4
35 122 81 262 46 140 81 258 79 262 -2 3 -76 59 -166 124 -89 64 -166 121
-171 126 -6 4 275 8 624 8 349 0 630 -4 625 -8z"/>
<path d="M1871 830 c-134 -99 -245 -181 -247 -183 -2 -1 27 -23 64 -48 37 -25
205 -138 374 -252 l306 -206 -22 82 c-48 169 -217 753 -224 769 -6 14 -50 -15
-251 -162z"/>
</g>
</svg>
