<?xml version="1.0" encoding="utf-8"?>
<!-- Generator: Adobe Illustrator 22.1.0, SVG Export Plug-In . SVG Version: 6.00 Build 0)  -->
<svg version="1.1" id="Layer_1" xmlns="http://www.w3.org/2000/svg" xmlns:xlink="http://www.w3.org/1999/xlink" x="0px" y="0px"
	 viewBox="0 0 617.4 127.8" style="enable-background:new 0 0 617.4 127.8;" xml:space="preserve">
<style type="text/css">
	.st0{fill:#FFFFFF;}
	.st1{fill:#3F88F7;}
	.st2{fill:#103365;}
</style>
<g>
	<g>
		<path class="st1" d="M146.1,13.9c0,1.6-0.3,3-0.8,4.3c-0.5,1.3-1.3,2.4-2.2,3.3c-1,0.9-2.1,1.6-3.4,2.1c-1.3,0.5-2.8,0.8-4.3,0.8
			s-3-0.3-4.3-0.8c-1.3-0.5-2.4-1.2-3.4-2.1c-1-0.9-1.7-2-2.2-3.3c-0.5-1.3-0.8-2.7-0.8-4.3c0-1.6,0.3-3,0.8-4.3
			c0.5-1.3,1.3-2.4,2.2-3.3c1-0.9,2.1-1.6,3.4-2.1c1.3-0.5,2.7-0.7,4.3-0.7s3,0.2,4.3,0.7c1.3,0.5,2.5,1.2,3.4,2.1
			c1,0.9,1.7,2,2.2,3.3C145.8,10.9,146.1,12.3,146.1,13.9z M141,13.9c0-0.9-0.1-1.7-0.4-2.4c-0.3-0.7-0.7-1.4-1.2-1.9
			s-1.1-0.9-1.8-1.3c-0.7-0.3-1.5-0.5-2.3-0.5c-0.8,0-1.6,0.2-2.3,0.5c-0.7,0.3-1.3,0.7-1.8,1.3s-0.9,1.2-1.2,1.9
			c-0.3,0.7-0.4,1.5-0.4,2.4c0,0.9,0.1,1.7,0.4,2.5c0.3,0.8,0.7,1.4,1.2,1.9c0.5,0.5,1.1,1,1.8,1.3s1.5,0.5,2.3,0.5
			c0.8,0,1.6-0.2,2.3-0.5c0.7-0.3,1.3-0.7,1.8-1.3c0.5-0.5,0.9-1.2,1.2-1.9C140.8,15.6,141,14.8,141,13.9z"/>
		<path class="st1" d="M165.3,19.6c-0.4,1-1,1.8-1.7,2.5c-0.7,0.7-1.6,1.2-2.7,1.6s-2.2,0.6-3.5,0.6c-1.3,0-2.5-0.2-3.5-0.6
			c-1-0.4-1.9-0.9-2.7-1.6c-0.7-0.7-1.3-1.5-1.7-2.5c-0.4-1-0.6-2.1-0.6-3.3V4.1h4.7V16c0,0.5,0.1,1.1,0.2,1.5
			c0.1,0.5,0.4,0.9,0.6,1.3c0.3,0.4,0.7,0.7,1.1,0.9c0.5,0.2,1,0.3,1.7,0.3s1.2-0.1,1.7-0.3c0.5-0.2,0.9-0.5,1.2-0.9
			c0.3-0.4,0.5-0.8,0.6-1.3c0.1-0.5,0.2-1,0.2-1.5V4.1h4.8v12.3C165.9,17.6,165.7,18.7,165.3,19.6z"/>
		<path class="st1" d="M180.2,23.8l-4.3-7.8h-1.6v7.8h-4.7V4.1h7.5c0.9,0,1.9,0.1,2.8,0.3c0.9,0.2,1.7,0.5,2.4,1
			c0.7,0.5,1.3,1.1,1.7,1.8c0.4,0.8,0.6,1.7,0.6,2.8c0,1.3-0.4,2.5-1.1,3.4c-0.7,0.9-1.7,1.6-3,2l5.2,8.5H180.2z M180,10.1
			c0-0.5-0.1-0.8-0.3-1.1c-0.2-0.3-0.4-0.5-0.8-0.7c-0.3-0.2-0.7-0.3-1-0.3c-0.4-0.1-0.8-0.1-1.1-0.1h-2.6v4.6h2.3
			c0.4,0,0.8,0,1.2-0.1c0.4-0.1,0.8-0.2,1.1-0.3c0.3-0.2,0.6-0.4,0.8-0.7C179.9,11,180,10.6,180,10.1z"/>
	</g>
	<g>
		<path class="st2" d="M78.2,67.7c-4.5,20.6-17.6,29-33.9,29c-23.6,0-41.9-15.6-41.9-39.6c0-22,16.3-39.6,37.7-39.6
			c9.8,0,11.8,2.8,15.6,2.8c2,0,9.6,0,11.3-7.4h2.1l7.7,42.2h-2C61.9,26.4,47,19.7,40,19.7c-11,0-12,18.3-12,31.1
			c0,23.3,8,39.1,24.4,39.1c8.6,0,19.9-5.4,23.7-22.8L78.2,67.7z"/>
		<path class="st2" d="M155.9,74.8c0,13.2-5.5,21.8-16.6,21.8c-11.4,0-16.7-8.1-16.7-16.9v-4.3c-2.9,14.2-11.4,21.3-21.5,21.3
			c-7.4,0-15.2-4.3-15.2-13.3c0-11.3,12-17.5,36.6-25.6v-5.7c0-5.4-0.4-15.8-7.7-15.8c-5.2,0-8.6,4.8-8.6,10.6c0,3.5,1.3,9,4.4,12.1
			C92,59.5,86,54.5,86,48.6c0-7.2,8.7-14.3,29.7-14.3c12.9,0,27.1,3.5,27.1,20.7v25.6c0,5.3,3.3,7.2,5.6,7.2c2.2,0,5.3-4,5.3-13
			H155.9z M122.5,64.7v-5.1c-7,3.3-16.3,9.8-16.3,17.5c0,4.5,3.4,6.4,5.3,6.4C113.2,83.5,122.5,81,122.5,64.7z"/>
		<path class="st2" d="M275.5,93.4v2.2h-37v-2.2c6.9-0.7,6.6-3.7,6.6-9.6V53.3c0-5.6-2.2-8.8-7.1-8.8c-4.6,0-12,6.5-12.3,16.3v23.1
			c0,5.8-0.3,8.9,6.6,9.6v2.2h-33.9v-2.2c6.9-0.7,6.6-3.7,6.6-9.6V53.3c0-5.6-2.2-8.8-7-8.8c-4.7,0-12,6.5-12.3,16.3v23.1
			c0,5.8-0.4,8.9,6.5,9.6v2.2h-36.9v-2.2c8-0.7,9.6-4,9.6-11V48.6c0-6.9-1.5-10.3-9.6-11v-2.2h30.4v15.8
			c3.3-9.4,11.3-16.9,21.7-16.9c11.4,0,18,6.1,18.4,17.1c3.3-9.4,11.4-17.1,21.7-17.1c11.9,0,18.5,6.4,18.5,18v30
			C265.9,89.5,267.4,92.8,275.5,93.4z"/>
		<path class="st2" d="M350,65.5c0,18.8-9.9,31.2-23.8,31.2c-9.8,0-16.5-4.5-20-13.3v18.8c0,7,1.5,10.3,9.6,11v2.2h-39.9v-2.2
			c8-0.7,9.6-4,9.6-11V48.6c0-6.9-1.5-10.3-9.6-11v-2.2h30.4v12.2c3.5-8.7,10.2-13.3,20-13.3C340.1,34.3,350,46.8,350,65.5z
			 M328.7,65.5c0-18-5.2-23.5-10.9-23.5c-7.1,0-11.6,5.5-11.6,23.7c0,18.5,4.5,23.7,11.3,23.7C323.4,89.2,328.7,83.8,328.7,65.5z"/>
		<path class="st2" d="M426.7,74.8c0,13.2-5.5,21.8-16.6,21.8c-11.4,0-16.7-8.1-16.7-16.9v-4.3c-2.9,14.2-11.4,21.3-21.5,21.3
			c-7.4,0-15.2-4.3-15.2-13.3c0-11.3,12-17.5,36.6-25.6v-5.7c0-5.4-0.4-15.8-7.7-15.8c-5.2,0-8.6,4.8-8.6,10.6c0,3.5,1.3,9,4.4,12.1
			c-18.7,0.7-24.6-4.4-24.6-10.2c0-7.2,8.7-14.3,29.7-14.3c12.9,0,27.1,3.5,27.1,20.7v25.6c0,5.3,3.3,7.2,5.6,7.2
			c2.2,0,5.3-4,5.3-13H426.7z M393.4,64.7v-5.1c-7,3.3-16.3,9.8-16.3,17.5c0,4.5,3.4,6.4,5.3,6.4C384,83.5,393.4,81,393.4,64.7z"/>
		<path class="st2" d="M466.1,93.4v2.2h-39.9v-2.2c8-0.7,9.6-4,9.6-11V48.6c0-6.9-1.5-10.3-9.6-11v-2.2h30.4v47
			C456.5,89.5,458,92.8,466.1,93.4z M433.6,17.1c0-6.9,5.3-11,11.4-11c6.4,0,11.5,4.1,11.5,11c0,6.5-5.2,10.4-11.5,10.4
			C438.9,27.5,433.6,23.6,433.6,17.1z"/>
		<path class="st2" d="M525.5,36.2c0.9-3,1.4-5.5,1.4-7.5c0-2.9-1.3-4.6-4.7-4.6c-5,0-7.5,5.1-8.6,12c10,3,16.3,9.5,16.3,19.1
			c0,13.6-12.2,21-29.7,21c-3.5,0-6.8-0.3-9.8-0.9c-8.4,0.7-11.1,2.1-11.1,4.2c0,2.9,5,3.5,8,3.5h23.5c14.5,0,23.8,2.9,23.8,13.6
			c0,12-12.3,19.8-39.5,19.8c-15.5,0-26-4.1-26-8.6c0-5.3,5.8-6.7,14.9-6.9c-8.1-1.6-14.2-6.9-14.2-14.5c0-5.8,4-11,14.7-12.8
			c-8.5-3.2-13.6-9.5-13.6-18.5c0-13.5,11.9-20.9,29.4-20.9c4,0,7.6,0.3,11,1.1c1.3-11.8,9.1-19.2,17.6-19.2c6,0,9.9,4,9.9,8.5
			C538.8,29.1,534.7,34.1,525.5,36.2z M495.4,101.8c-9.2,0-15.7,1.4-15.7,5.1c0,3.9,6.9,7.5,19.9,7.5c14.1,0,22.5-4.1,22.5-9.2
			c0-3.2-3.6-3.3-10.6-3.3H495.4z M510.5,55c0-13-3.2-18.5-10.2-18.5c-6.8,0-10.1,5.3-10.1,18.5c0,13.8,3.4,19,10.1,19
			C507.3,74.1,510.5,68.4,510.5,55z"/>
		<path class="st2" d="M617.4,93.4v2.2h-37v-2.2c6.9-0.7,6.6-3.7,6.6-9.6V53.3c0-5.6-2.2-8.8-7-8.8c-4.7,0-12,6.5-12.3,16.3v23.1
			c0,5.8-0.4,8.9,6.5,9.6v2.2h-36.8v-2.2c8-0.7,9.6-4,9.6-11V48.6c0-6.9-1.5-10.3-9.6-11v-2.2h30.4v15.8
			c3.3-9.4,11.3-16.9,21.7-16.9c11.8,0,18.4,6.4,18.4,18v30C607.7,89.5,609.3,92.8,617.4,93.4z"/>
	</g>
</g>
</svg>
